<?xml version="1.0" encoding="UTF-8"?>
<svg version="1.1" xmlns="http://www.w3.org/2000/svg" width="400" height="400">
<path d="M0 0 C2.96085002 0.23665067 4.50337249 0.425414 6.48217773 2.71484375 C7.07687866 3.81505859 7.07687866 3.81505859 7.68359375 4.9375 C8.13669922 5.75089844 8.58980469 6.56429688 9.05664062 7.40234375 C9.51232422 8.25957031 9.96800781 9.11679687 10.4375 10 C11.34976519 11.66836516 12.26512959 13.33503944 13.18359375 15 C13.86204346 16.23363281 13.86204346 16.23363281 14.55419922 17.4921875 C16.84116541 21.45904275 19.39891527 25.23397043 22 29 C22.99 28.66226563 23.98 28.32453125 25 27.9765625 C50.77037142 19.23730082 75.25846102 18.96843315 101 28 C101.99 28.33 102.98 28.66 104 29 C104.27150879 28.50709473 104.54301758 28.01418945 104.82275391 27.50634766 C107.45102064 22.74032016 110.09729648 17.98475842 112.75634766 13.23583984 C113.79417618 11.37003034 114.81174506 9.4929701 115.82421875 7.61328125 C116.31535156 6.73027344 116.80648437 5.84726562 117.3125 4.9375 C117.92544922 3.80634766 117.92544922 3.80634766 118.55078125 2.65234375 C120.52330541 0.4033472 122.07005596 0.22824683 125 0 C125.99 0.495 125.99 0.495 127 1 C126.50999724 6.26245569 125.30705846 9.83429621 122.62109375 14.37109375 C122.28956802 14.93828629 121.9580423 15.50547882 121.61647034 16.08985901 C120.56746197 17.87893867 119.50289623 19.65814115 118.4375 21.4375 C117.71834653 22.65758218 117.00023719 23.87828043 116.28320312 25.09960938 C114.53414148 28.07361992 112.77101175 31.03899543 111 34 C112.15447632 34.44025513 112.15447632 34.44025513 113.33227539 34.8894043 C122.65171015 38.76916166 131.93388744 46.97132161 138 55 C138 55.66 138 56.32 138 57 C138.66 57 139.32 57 140 57 C141.72020987 59.46943019 143.31362747 61.93261194 144.875 64.5 C145.52662109 65.54414063 145.52662109 65.54414063 146.19140625 66.609375 C154.44245231 79.98944969 158.1995955 93.41228737 160 109 C160.60360352 108.98952637 161.20720703 108.97905273 161.82910156 108.96826172 C197.94852793 108.42433593 197.94852793 108.42433593 211.15234375 120.90625 C213.72549864 123.82212953 214.83909697 126.29962159 216 130 C216.33 130.99 216.66 131.98 217 133 C217.10051371 135.86899413 217.14342277 138.71382083 217.14044189 141.58305359 C217.14489858 142.91375333 217.14489858 142.91375333 217.1494453 144.2713359 C217.15814484 147.25601399 217.15964161 150.24065202 217.16113281 153.2253418 C217.16576015 155.36056097 217.17078469 157.49577932 217.17617798 159.6309967 C217.18931332 165.44108796 217.19574931 171.25116764 217.20018864 177.06127143 C217.20311792 180.69044955 217.20722249 184.31962451 217.21169281 187.94880104 C217.22537158 199.30135385 217.23503602 210.65389942 217.2388947 222.00645989 C217.2433746 235.11520281 217.26091781 248.22384141 217.2898953 261.33255261 C217.31150965 271.46174353 217.32159888 281.59090509 217.32293582 291.72011882 C217.32398415 297.77116802 217.32989782 303.82211921 217.34775543 309.87314415 C217.36423144 315.5669829 217.3663938 321.26064992 217.35761642 326.95450401 C217.35684577 329.04263773 217.36119254 331.13078067 217.37107468 333.21889114 C217.38379016 336.07347433 217.37791934 338.92744899 217.36749268 341.7820282 C217.37957728 343.01634465 217.37957728 343.01634465 217.39190602 344.2755968 C217.31881917 352.85389474 214.38696792 359.36988564 209 366 C208.34 366 207.68 366 207 366 C207 366.66 207 367.32 207 368 C205.41925436 368.81752303 203.83528777 369.62881997 202.25 370.4375 C201.36828125 370.88996094 200.4865625 371.34242188 199.578125 371.80859375 C195.89386797 373.51116707 192.75404503 374.1265318 188.70703125 374.1328125 C187.5149707 374.13474609 187.5149707 374.13474609 186.29882812 374.13671875 C185.0680957 374.13091797 185.0680957 374.13091797 183.8125 374.125 C182.98041016 374.12886719 182.14832031 374.13273437 181.29101562 374.13671875 C175.12667092 374.12667092 175.12667092 374.12667092 174 373 C173.90680551 371.4651703 173.882542 369.92607918 173.88647461 368.38842773 C173.88655014 367.40748642 173.88662567 366.4265451 173.88670349 365.4158783 C173.89186478 364.3492244 173.89702606 363.2825705 173.90234375 362.18359375 C173.90446617 360.55430687 173.90446617 360.55430687 173.90663147 358.8921051 C173.91224952 355.40720925 173.92480508 351.92237658 173.9375 348.4375 C173.94251267 346.08138113 173.94707598 343.72526126 173.95117188 341.36914062 C173.96137589 335.57938289 173.98094776 329.78976255 174 324 C160.14 324 146.28 324 132 324 C137.53937609 335.85616752 137.53937609 335.85616752 143.5 347.5 C145.96558069 352.44467141 147.35408571 356.52257059 146 362 C144.21015431 366.30469217 142.05420385 369.21547621 138.3125 372 C132.4757114 373.76204939 127.29915225 374.04112555 121.6875 371.5 C115.69696096 365.92740555 112.51791388 358.19856501 109.125 350.875 C108.25642203 349.02156616 107.3866252 347.16870303 106.515625 345.31640625 C105.88043945 343.96506592 105.88043945 343.96506592 105.23242188 342.58642578 C102.97542088 337.84976403 100.58117536 333.18417242 98.1796875 328.51953125 C97 326 97 326 97 324 C73.9 324 50.8 324 27 324 C26.34 326.31 25.68 328.62 25 331 C24.02834874 333.27167219 23.00396428 335.52126614 21.9375 337.75 C21.312215 339.05715537 20.68723038 340.36445447 20.0625 341.671875 C19.72992188 342.36474609 19.39734375 343.05761719 19.0546875 343.77148438 C17.92707496 346.15408791 16.83641687 348.551474 15.75 350.953125 C14.97918777 352.63542634 14.20835471 354.31771813 13.4375 356 C13.0861499 356.78858398 12.7347998 357.57716797 12.37280273 358.38964844 C9.35770201 364.89988657 5.84224874 371.08528224 -1 374 C-6.40549063 374.95607317 -10.84211779 374.62587921 -15.4375 371.5 C-19.27514237 368.17611908 -21.21628809 365.01432022 -22 360 C-20.82317567 351.81126404 -17.41438766 344.85707482 -13.875 337.4375 C-13.30515815 336.22630228 -12.73614132 335.01471605 -12.16796875 333.80273438 C-10.78668436 330.86457859 -9.39722447 327.9306002 -8 325 C-8.70664291 324.99413376 -9.41328583 324.98826752 -10.14134216 324.98222351 C-16.83459538 324.92407039 -23.52753699 324.85186641 -30.22047329 324.76428509 C-33.66054838 324.71975422 -37.10050975 324.68046155 -40.54077148 324.65356445 C-44.50529653 324.62233033 -48.46933596 324.56754896 -52.43359375 324.51171875 C-53.65582138 324.50532883 -54.87804901 324.4989389 -56.13731384 324.49235535 C-66.83958384 324.30981499 -75.04513245 322.40104765 -83 315 C-90.46438073 307.14720127 -92.46830315 298.00233309 -92.3742218 287.42330933 C-92.37819621 286.51386098 -92.38217061 285.60441263 -92.38626546 284.66740525 C-92.39581657 281.64903746 -92.38411415 278.63114688 -92.37231445 275.61279297 C-92.37474475 273.43713202 -92.37846638 271.26147219 -92.38337708 269.08581543 C-92.39275588 263.19756844 -92.38338647 257.30948854 -92.37004495 251.42125463 C-92.3587015 245.25106129 -92.36284012 239.08087583 -92.36479187 232.91067505 C-92.3656738 222.5525643 -92.35461451 212.19451912 -92.33618164 201.83642578 C-92.31500443 189.86779358 -92.31150715 177.89929094 -92.3177436 165.93064392 C-92.32344123 154.40509583 -92.31778759 142.87958146 -92.30657005 131.35403824 C-92.30193051 126.45391337 -92.30104741 121.55380917 -92.3031559 116.65368271 C-92.30504171 110.88343128 -92.29691229 105.11327731 -92.2810955 99.3430481 C-92.27685912 97.22750375 -92.27599775 95.1119495 -92.27878571 92.99640274 C-92.28201755 90.10506993 -92.27290039 87.21402646 -92.26069641 84.32272339 C-92.26447573 83.4890568 -92.26825506 82.6553902 -92.27214891 81.79646099 C-92.20428011 72.68387331 -90.29504777 63.7186225 -84.01953125 56.82421875 C-76.41604004 49.66568228 -68.54203585 46.81890889 -58.09912109 46.9375 C-56.93375824 46.946604 -55.76839539 46.95570801 -54.56771851 46.96508789 C-52.68954941 46.98236938 -52.68954941 46.98236938 -50.7734375 47 C-48.10543473 47.00115868 -45.43752216 47.00024521 -42.76953125 46.99609375 C-38.57577923 46.98990799 -34.38337333 46.99499584 -30.18994141 47.05126953 C-27.45136937 47.08721133 -24.71475185 47.09896153 -21.97598267 47.08398438 C-19.40592887 47.07001464 -16.83541072 47.08905391 -14.26596069 47.14648438 C-5.86527812 47.03218451 -1.5712021 45.04705708 4.50082397 39.22436523 C7.16588992 36.85235142 9.7600119 35.46012295 13 34 C11.48472002 28.59806968 8.9419495 24.195032 6.0625 19.4375 C5.39831055 18.3247168 5.39831055 18.3247168 4.72070312 17.18945312 C2.90422802 14.14936141 1.0805367 11.12552735 -0.83203125 8.14453125 C-2 6 -2 6 -1.75 3.25 C-1 1 -1 1 0 0 Z " fill="#4184F3" transform="translate(138,14)"/>
<path d="M0 0 C2.96085002 0.23665067 4.50337249 0.425414 6.48217773 2.71484375 C7.07687866 3.81505859 7.07687866 3.81505859 7.68359375 4.9375 C8.13669922 5.75089844 8.58980469 6.56429688 9.05664062 7.40234375 C9.51232422 8.25957031 9.96800781 9.11679687 10.4375 10 C11.34976519 11.66836516 12.26512959 13.33503944 13.18359375 15 C13.86204346 16.23363281 13.86204346 16.23363281 14.55419922 17.4921875 C16.84116541 21.45904275 19.39891527 25.23397043 22 29 C22.99 28.66226563 23.98 28.32453125 25 27.9765625 C50.77037142 19.23730082 75.25846102 18.96843315 101 28 C101.99 28.33 102.98 28.66 104 29 C104.27150879 28.50709473 104.54301758 28.01418945 104.82275391 27.50634766 C107.45102064 22.74032016 110.09729648 17.98475842 112.75634766 13.23583984 C113.79417618 11.37003034 114.81174506 9.4929701 115.82421875 7.61328125 C116.31535156 6.73027344 116.80648437 5.84726562 117.3125 4.9375 C117.92544922 3.80634766 117.92544922 3.80634766 118.55078125 2.65234375 C120.52330541 0.4033472 122.07005596 0.22824683 125 0 C125.99 0.495 125.99 0.495 127 1 C126.50999724 6.26245569 125.30705846 9.83429621 122.62109375 14.37109375 C122.28956802 14.93828629 121.9580423 15.50547882 121.61647034 16.08985901 C120.56746197 17.87893867 119.50289623 19.65814115 118.4375 21.4375 C117.71834653 22.65758218 117.00023719 23.87828043 116.28320312 25.09960938 C114.53414148 28.07361992 112.77101175 31.03899543 111 34 C112.15447632 34.44025513 112.15447632 34.44025513 113.33227539 34.8894043 C122.65171015 38.76916166 131.93388744 46.97132161 138 55 C138 55.66 138 56.32 138 57 C138.66 57 139.32 57 140 57 C141.72020987 59.46943019 143.31362747 61.93261194 144.875 64.5 C145.52662109 65.54414063 145.52662109 65.54414063 146.19140625 66.609375 C150.33075163 73.32182698 153.94373428 79.94639993 156.125 87.5625 C156.43695313 88.61566406 156.74890625 89.66882813 157.0703125 90.75390625 C158.05565961 94.70820186 158.53806635 98.72946534 159.05810547 102.76538086 C159.14930161 103.46165337 159.24049774 104.15792587 159.3344574 104.87529755 C159.55793347 106.58331941 159.77918895 108.29163156 160 110 C131.07985518 110.04672868 102.15971603 110.08199312 73.23954105 110.10362434 C70.56586262 110.10566402 67.89218423 110.10774666 65.21850586 110.10986328 C64.55395956 110.1103879 63.88941326 110.11091252 63.20472919 110.11145304 C52.45373113 110.12014845 41.70275453 110.13591365 30.95176918 110.15430559 C19.91489569 110.17302871 8.87803401 110.18397219 -2.15885454 110.18817699 C-8.35583733 110.19078339 -14.5527715 110.19690575 -20.74973869 110.21146011 C-26.5846802 110.22505295 -32.41955314 110.22921916 -38.25450897 110.22621536 C-40.39382106 110.22676476 -42.53313548 110.23073202 -44.67243385 110.23841095 C-47.59896181 110.24839876 -50.52523275 110.24595484 -53.45176697 110.24050903 C-54.29323286 110.24633472 -55.13469876 110.2521604 -56.00166363 110.25816262 C-66.59468703 110.20508402 -76.14741076 107.84029388 -83.859375 100.14453125 C-89.69641266 92.90602662 -92 84.22209925 -92 75 C-91.66812138 72.17384611 -90.98233414 69.66633553 -90 67 C-89.64808594 66.01386719 -89.64808594 66.01386719 -89.2890625 65.0078125 C-86.46160095 58.34122886 -81.23030746 53.19069493 -74.8125 49.8671875 C-69.258605 47.70032695 -64.02050987 46.87025593 -58.09912109 46.9375 C-56.93375824 46.946604 -55.76839539 46.95570801 -54.56771851 46.96508789 C-52.68954941 46.98236938 -52.68954941 46.98236938 -50.7734375 47 C-48.10543473 47.00115868 -45.43752216 47.00024521 -42.76953125 46.99609375 C-38.57577923 46.98990799 -34.38337333 46.99499584 -30.18994141 47.05126953 C-27.45136937 47.08721133 -24.71475185 47.09896153 -21.97598267 47.08398438 C-19.40592887 47.07001464 -16.83541072 47.08905391 -14.26596069 47.14648438 C-5.86527812 47.03218451 -1.5712021 45.04705708 4.50082397 39.22436523 C7.16588992 36.85235142 9.7600119 35.46012295 13 34 C11.48472002 28.59806968 8.9419495 24.195032 6.0625 19.4375 C5.39831055 18.3247168 5.39831055 18.3247168 4.72070312 17.18945312 C2.90422802 14.14936141 1.0805367 11.12552735 -0.83203125 8.14453125 C-2 6 -2 6 -1.75 3.25 C-1 1 -1 1 0 0 Z " fill="#3CDB83" transform="translate(138,14)"/>
<path d="M0 0 C2.375 0.875 2.375 0.875 4.375 2.875 C4.60205078 5.02978516 4.60205078 5.02978516 4.5703125 7.6640625 C4.56386719 8.60507813 4.55742187 9.54609375 4.55078125 10.515625 C4.52564453 11.99289063 4.52564453 11.99289063 4.5 13.5 C4.49097656 14.49257812 4.48195313 15.48515625 4.47265625 16.5078125 C4.44904116 18.96378134 4.41610799 21.41927168 4.375 23.875 C5.43460937 24.1328125 6.49421875 24.390625 7.5859375 24.65625 C14.70457045 26.94595462 19.73774505 32.13771307 23.4375 38.5625 C26.39749746 45.24304982 26.60438479 52.39701741 24.67578125 59.421875 C23.05222637 63.39513166 20.8227714 66.73319558 18.2265625 70.13671875 C17.69111816 70.84143311 17.15567383 71.54614746 16.60400391 72.2722168 C16.19843262 72.80113525 15.79286133 73.33005371 15.375 73.875 C15.95354736 75.05715088 16.53209473 76.23930176 17.12817383 77.45727539 C36.93966235 117.9457187 36.93966235 117.9457187 46.05322266 137.10205078 C52.4732257 150.57053888 58.8971522 164.03839773 65.62524414 177.35620117 C68.35647923 182.78306866 70.94908262 188.27156272 73.49926758 193.78564453 C75.48701512 198.06702332 77.6292858 202.2209559 79.875 206.375 C82.34058069 211.31967141 83.72908571 215.39757059 82.375 220.875 C80.58515431 225.17969217 78.42920385 228.09047621 74.6875 230.875 C68.8507114 232.63704939 63.67415225 232.91612555 58.0625 230.375 C52.07196096 224.80240555 48.89291388 217.07356501 45.5 209.75 C44.63142203 207.89656616 43.7616252 206.04370303 42.890625 204.19140625 C42.46716797 203.2905127 42.04371094 202.38961914 41.60742188 201.46142578 C39.35042088 196.72476403 36.95617536 192.05917242 34.5546875 187.39453125 C33.375 184.875 33.375 184.875 33.375 182.875 C10.275 182.875 -12.825 182.875 -36.625 182.875 C-37.285 185.185 -37.945 187.495 -38.625 189.875 C-39.59665126 192.14667219 -40.62103572 194.39626614 -41.6875 196.625 C-42.312785 197.93215537 -42.93776962 199.23945447 -43.5625 200.546875 C-43.89507812 201.23974609 -44.22765625 201.93261719 -44.5703125 202.64648438 C-45.69792504 205.02908791 -46.78858313 207.426474 -47.875 209.828125 C-48.64581223 211.51042634 -49.41664529 213.19271813 -50.1875 214.875 C-50.5388501 215.66358398 -50.8902002 216.45216797 -51.25219727 217.26464844 C-54.26729799 223.77488657 -57.78275126 229.96028224 -64.625 232.875 C-70.03049063 233.83107317 -74.46711779 233.50087921 -79.0625 230.375 C-82.89760616 227.05331576 -84.84720824 223.88847701 -85.625 218.875 C-85.01023743 211.16128612 -81.26937795 204.18406682 -78 197.3125 C-77.45657959 196.15355225 -76.91315918 194.99460449 -76.35327148 193.80053711 C-73.24276238 187.19526055 -70.0655751 180.62764495 -66.76391602 174.1159668 C-58.37815492 157.56250403 -50.52119133 140.74017552 -42.73413086 123.89892578 C-38.19342851 114.08159763 -33.60502428 104.28729458 -29 94.5 C-28.65198334 93.75958466 -28.30396667 93.01916931 -27.94540405 92.25631714 C-26.95140682 90.14184289 -25.95636092 88.02786566 -24.9609375 85.9140625 C-24.66773117 85.29025192 -24.37452484 84.66644135 -24.07243347 84.02372742 C-22.30764508 80.28096263 -20.4887719 76.56942573 -18.625 72.875 C-19.51832031 72.51148438 -19.51832031 72.51148438 -20.4296875 72.140625 C-25.14906012 69.4198479 -27.70875409 63.7907869 -30 59 C-31.68826408 50.55867958 -31.21432366 43.26665404 -26.625 35.875 C-21.60230722 28.72878901 -16.0641033 24.92373002 -7.625 22.875 C-7.6156543 22.32038086 -7.60630859 21.76576172 -7.59667969 21.19433594 C-7.54284278 18.67033519 -7.45922746 16.14816186 -7.375 13.625 C-7.36082031 12.75230469 -7.34664063 11.87960938 -7.33203125 10.98046875 C-7.08524865 4.51476473 -7.08524865 4.51476473 -4.7421875 1.2578125 C-2.625 -0.125 -2.625 -0.125 0 0 Z " fill="#073042" transform="translate(201.625,155.125)"/>
<path d="M0 0 C0.33 0 0.66 0 1 0 C1.07008796 26.72087907 1.12298718 53.44174436 1.15543652 80.16269684 C1.17090391 92.56975884 1.1919911 104.97676372 1.22631836 117.38378906 C1.25622449 128.19802752 1.27557593 139.01222461 1.28226548 149.82650328 C1.28617566 155.55232076 1.29536266 161.27801989 1.31719017 167.00379944 C1.33757438 172.39472405 1.34382983 177.7854817 1.33932304 183.17644119 C1.34014737 185.15331047 1.34610142 187.13018542 1.35761642 189.10702133 C1.37259076 191.81068706 1.36893559 194.51372633 1.36076355 197.21740723 C1.36950207 197.99563984 1.3782406 198.77387246 1.38724393 199.57568789 C1.31858951 208.00651502 -1.71771591 214.49872728 -7 221 C-7.66 221 -8.32 221 -9 221 C-9 221.66 -9 222.32 -9 223 C-10.58074564 223.81752303 -12.16471223 224.62881997 -13.75 225.4375 C-15.07257813 226.11619141 -15.07257813 226.11619141 -16.421875 226.80859375 C-20.10613203 228.51116707 -23.24595497 229.1265318 -27.29296875 229.1328125 C-28.08767578 229.13410156 -28.88238281 229.13539063 -29.70117188 229.13671875 C-30.52166016 229.13285156 -31.34214844 229.12898437 -32.1875 229.125 C-33.01958984 229.12886719 -33.85167969 229.13273438 -34.70898438 229.13671875 C-40.87332908 229.12667092 -40.87332908 229.12667092 -42 228 C-42.10001776 225.38466682 -42.13440512 222.79567477 -42.12698364 220.17980957 C-42.12854363 219.35069958 -42.13010362 218.52158959 -42.13171089 217.66735506 C-42.13572442 214.86741175 -42.13252989 212.06752191 -42.12939453 209.26757812 C-42.13074842 207.26907825 -42.13252827 205.27057862 -42.13470459 203.27207947 C-42.13928045 197.8280241 -42.13748874 192.38398759 -42.1343255 186.93993187 C-42.13180269 181.25621869 -42.13413922 175.57250718 -42.13571167 169.88879395 C-42.1375336 160.34203805 -42.13512645 150.79528988 -42.13037109 141.24853516 C-42.12492843 130.19395532 -42.12669107 119.13939393 -42.1321975 108.08481455 C-42.13672798 98.61224411 -42.1373795 89.13967923 -42.13475883 79.66710806 C-42.13319569 74.00138134 -42.13300328 68.3356633 -42.13629532 62.66993713 C-42.13917309 57.34471837 -42.13720009 52.0195235 -42.13140106 46.69430733 C-42.13007295 44.73385724 -42.13046843 42.77340516 -42.13266373 40.81295586 C-42.13537325 38.14867309 -42.13199655 35.48446816 -42.12698364 32.82019043 C-42.12921436 32.03392289 -42.13144509 31.24765534 -42.13374341 30.43756151 C-42.11414984 25.11414984 -42.11414984 25.11414984 -41 24 C-38.88825029 23.90487614 -36.77601485 23.81583343 -34.6628418 23.76074219 C-24.6561034 23.4788887 -17.23087071 22.35565291 -8.6875 16.875 C-4.259439 12.13800452 -1.36448813 6.35293938 0 0 Z " fill="#073043" transform="translate(354,159)"/>
<path d="M0 0 C1.18084671 0.00007553 2.36169342 0.00015106 3.57832336 0.00022888 C4.84306992 0.00539017 6.10781647 0.01055145 7.41088867 0.01586914 C8.71338058 0.01728409 10.0158725 0.01869904 11.35783386 0.02015686 C14.80852197 0.02396184 18.2591675 0.03377475 21.70983887 0.04486084 C25.23583399 0.0551185 28.76183603 0.05966379 32.2878418 0.06469727 C39.19736441 0.07539895 46.10685887 0.09245096 53.01635742 0.11352539 C51.41042899 3.51199441 49.5923789 5.73166218 46.95385742 8.42602539 C33.01729173 23.68667703 26.38570242 42.82052427 24.01635742 63.11352539 C20.05114657 63.16347959 16.08606111 63.19950326 12.12060547 63.22338867 C10.11899365 63.23822784 8.1174693 63.263659 6.1159668 63.28930664 C-5.57452876 63.34820082 -14.50695287 62.38221086 -23.98364258 55.11352539 C-30.75828026 48.35312014 -33.28853241 39.89318748 -33.98364258 30.52368164 C-33.98364258 26.7782632 -33.27373443 23.61520326 -31.98364258 20.11352539 C-31.7490332 19.45610352 -31.51442383 18.79868164 -31.27270508 18.12133789 C-28.44524353 11.45475425 -23.21395003 6.30422032 -16.79614258 2.98071289 C-11.22513058 0.80717412 -5.93949741 -0.01271841 0 0 Z " fill="#073042" transform="translate(79.983642578125,60.886474609375)"/>
<path d="M0 0 C5.67565727 2.96319456 7.79319816 6.4095492 10.5 11.9375 C11.11198242 13.14345825 11.11198242 13.14345825 11.73632812 14.3737793 C13.17891603 17.23903719 14.59082409 20.11816373 16 23 C16.59607222 24.21075083 17.19243998 25.42135619 17.7890625 26.63183594 C19.70331541 30.52024748 21.60466769 34.4148349 23.5 38.3125 C23.8091333 38.94719208 24.1182666 39.58188416 24.43676758 40.23580933 C25.32683199 42.06787833 26.21124306 43.90256179 27.09375 45.73828125 C27.86235352 47.33216675 27.86235352 47.33216675 28.64648438 48.95825195 C30 52 30 52 32 58 C8.9 58 -14.2 58 -38 58 C-25.92897991 31.17551092 -25.92897991 31.17551092 -22.18701172 23.09399414 C-21.55086391 21.7147899 -20.91917495 20.33352203 -20.29150391 18.95043945 C-19.35585366 16.89034236 -18.40608549 14.8372926 -17.453125 12.78515625 C-16.90817383 11.59801025 -16.36322266 10.41086426 -15.80175781 9.18774414 C-11.96308073 2.39619853 -7.89421235 -0.77394239 0 0 Z " fill="#4184F3" transform="translate(203,280)"/>
<path d="M0 0 C2.4375 0.75 2.4375 0.75 4.4375 2.75 C4.66455078 4.90478516 4.66455078 4.90478516 4.6328125 7.5390625 C4.62314453 8.95058594 4.62314453 8.95058594 4.61328125 10.390625 C4.59652344 11.37546875 4.57976562 12.3603125 4.5625 13.375 C4.55347656 14.36757812 4.54445312 15.36015625 4.53515625 16.3828125 C4.51154116 18.83878134 4.47860799 21.29427168 4.4375 23.75 C5.20320312 23.88277344 5.96890625 24.01554687 6.7578125 24.15234375 C13.7266324 25.70661408 18.31282645 31.27126696 22.4375 36.75 C26.25929261 43.03746526 26.20089558 49.59952803 25.4375 56.75 C23.78190258 63.32788436 21.20415142 66.98334858 16.4375 71.75 C16.78119318 75.95529544 18.54529366 79.45585997 20.33203125 83.234375 C20.78092712 84.18835426 20.78092712 84.18835426 21.2388916 85.16160583 C22.23677129 87.27721297 23.24313186 89.38865751 24.25 91.5 C24.96073053 93.0003122 25.67125659 94.50072129 26.3815918 96.0012207 C34.13252241 112.3357471 42.09927831 128.56608594 50.04449463 144.80665588 C53.38268403 151.63250649 56.70698741 158.46470639 60 165.3125 C60.4225708 166.18479248 60.8451416 167.05708496 61.28051758 167.95581055 C63.60619895 172.81015074 65.62056355 177.68231463 67.4375 182.75 C64.4675 182.75 61.4975 182.75 58.4375 182.75 C52.24704656 170.4377186 46.16819398 158.07263801 40.125 145.6875 C39.6611792 144.73746094 39.1973584 143.78742188 38.71948242 142.80859375 C32.35211333 129.76442974 26.02952709 116.70121399 19.79443359 103.59326172 C16.96219847 97.65871507 14.10435594 91.73643047 11.25 85.8125 C10.66601451 84.60026096 10.0820301 83.38802139 9.49804688 82.17578125 C8.14478608 79.36706457 6.79128535 76.55846387 5.4375 73.75 C5.84307129 73.22108154 6.24864258 72.69216309 6.66650391 72.1472168 C7.20194824 71.44250244 7.73739258 70.73778809 8.2890625 70.01171875 C8.81838379 69.31780029 9.34770508 68.62388184 9.89306641 67.90893555 C15.30987908 60.33687192 16.70692593 52.99546499 15.4375 43.75 C13.22104024 36.40606189 8.84394899 30.92860081 2.4375 26.75 C0.13080427 25.66358473 -2.19602576 24.70514322 -4.5625 23.75 C-4.81663123 20.12629339 -5.03655533 16.50131263 -5.25 12.875 C-5.32283203 11.84246094 -5.39566406 10.80992187 -5.47070312 9.74609375 C-5.52548828 8.75996094 -5.58027344 7.77382812 -5.63671875 6.7578125 C-5.69432373 5.84660645 -5.75192871 4.93540039 -5.8112793 3.99658203 C-5.68813354 2.88452393 -5.68813354 2.88452393 -5.5625 1.75 C-2.5625 -0.25 -2.5625 -0.25 0 0 Z " fill="#376FB1" transform="translate(210.5625,155.25)"/>
<path d="M0 0 C4.16986631 2.96300333 7.07294735 5.89039918 8.60546875 10.87109375 C9.53147782 17.12165498 8.94937794 21.98442856 5.21875 27.17578125 C1.47133035 31.11374766 -2.98949882 33.03128817 -8.39453125 33.37109375 C-12.93937112 33.10269769 -16.72216752 31.53376102 -20.39453125 28.87109375 C-24.18874651 24.10400278 -25.76619808 20.19954217 -25.67578125 14.0625 C-25.01090835 8.88203195 -22.56080198 4.98047322 -18.83203125 1.43359375 C-13.36507636 -2.07086451 -5.93951569 -2.80019582 0 0 Z " fill="#4184F2" transform="translate(207.39453125,190.12890625)"/>
<path d="M0 0 C0.495 0.99 0.495 0.99 1 2 C0.26716797 2.47493896 -0.46566406 2.94987793 -1.22070312 3.43920898 C-4.90316226 6.83215644 -6.45653739 10.44558412 -8.46875 14.97265625 C-8.87154175 15.85094589 -9.2743335 16.72923553 -9.68933105 17.63414001 C-10.97186047 20.43817417 -12.23612928 23.25001395 -13.5 26.0625 C-14.34906514 27.92697707 -15.19931424 29.79091546 -16.05078125 31.65429688 C-18.03964753 36.01366497 -20.01504748 40.37893128 -21.98388672 44.74737549 C-23.34761657 47.77063219 -24.72005571 50.78985219 -26.09375 53.80859375 C-26.7228125 55.19175781 -27.351875 56.57492187 -28 58 C-31.3 58 -34.6 58 -38 58 C-35.03596886 51.31687287 -32.02626915 44.65515977 -29 38 C-28.56158783 37.03335419 -28.56158783 37.03335419 -28.11431885 36.04718018 C-26.17175743 31.76586282 -24.21544319 27.49118952 -22.24441528 23.22290039 C-21.58431933 21.78881991 -20.92809162 20.35295224 -20.27584839 18.9152832 C-19.34547221 16.86687251 -18.40097076 14.82553087 -17.453125 12.78515625 C-16.90817383 11.59801025 -16.36322266 10.41086426 -15.80175781 9.18774414 C-11.7640646 2.044091 -8.04695093 -0.17882113 0 0 Z " fill="#376FB1" transform="translate(203,280)"/>
<path d="M0 0 C0.99386719 0.00902344 1.98773438 0.01804688 3.01171875 0.02734375 C4.15060547 0.04474609 4.15060547 0.04474609 5.3125 0.0625 C4.70535156 0.36542969 4.09820312 0.66835937 3.47265625 0.98046875 C-1.29057107 3.36638912 -4.52928511 4.99069502 -6.6875 10.0625 C-8.09584933 16.44340582 -8.18223845 21.31309157 -4.6875 27.0625 C-2.79102055 28.95897945 -0.8529668 30.44991834 1.3125 32.0625 C1.9725 32.7225 2.6325 33.3825 3.3125 34.0625 C-2.98057348 34.51200525 -7.49412801 33.82798257 -12.6875 30.0625 C-16.48171526 25.29540903 -18.05916683 21.39094842 -17.96875 15.25390625 C-17.3038771 10.0734382 -14.85377073 6.17187947 -11.125 2.625 C-7.30127303 0.17389297 -4.44453703 -0.05228867 0 0 Z " fill="#376FB1" transform="translate(199.6875,188.9375)"/>
<path d="M0 0 C4.0743356 0.84881992 5.54405875 2.30225596 8 5.625 C8.625 8.625 8.625 8.625 8 11.625 C5.54405875 14.94774404 4.0743356 16.40118008 0 17.25 C-4.0743356 16.40118008 -5.54405875 14.94774404 -8 11.625 C-8.625 8.625 -8.625 8.625 -8 5.625 C-5.54405875 2.30225596 -4.0743356 0.84881992 0 0 Z " fill="#F8FDFA" transform="translate(156,79.375)"/>
<path d="M0 0 C4.0743356 0.84881992 5.54405875 2.30225596 8 5.625 C8.625 8.625 8.625 8.625 8 11.625 C5.54405875 14.94774404 4.0743356 16.40118008 0 17.25 C-4.0743356 16.40118008 -5.54405875 14.94774404 -8 11.625 C-8.625 8.625 -8.625 8.625 -8 5.625 C-5.54405875 2.30225596 -4.0743356 0.84881992 0 0 Z " fill="#F9FDFB" transform="translate(245,79.375)"/>
</svg>
