<?xml version="1.0" encoding="UTF-8"?>
<svg version="1.1" xmlns="http://www.w3.org/2000/svg" width="2156" height="1945">
<path d="M0 0 C4.53823192 4.67953554 7.38695432 10.22628913 10.4375 15.9375 C11.67307942 18.19738045 12.91006142 20.45649461 14.1484375 22.71484375 C14.74495117 23.80909668 15.34146484 24.90334961 15.95605469 26.03076172 C18.08536724 29.89878443 20.30190707 33.70765224 22.5625 37.5 C26.69956495 44.46936326 30.76622346 51.47753231 34.8125 58.5 C35.45050537 59.60722412 36.08851074 60.71444824 36.74584961 61.85522461 C38.05389477 64.12587068 39.36175448 66.39662358 40.66943359 68.66748047 C43.81832054 74.1341998 46.97183264 79.59824887 50.125 85.0625 C51.3750235 87.22915311 52.62502347 89.39581979 53.875 91.5625 C54.49375 92.635 55.1125 93.7075 55.75 94.8125 C91.375 156.5625 91.375 156.5625 93.25024414 159.81298828 C94.49935518 161.97807071 95.74854129 164.14310982 96.99780273 166.30810547 C100.13702309 171.74865706 103.27490563 177.18997216 106.41015625 182.6328125 C112.53937272 193.27034139 118.68474331 203.8978559 124.875 214.5 C125.44629639 215.47936523 126.01759277 216.45873047 126.60620117 217.46777344 C129.37928401 222.22071864 132.15775852 226.97037056 134.9453125 231.71484375 C135.96366044 233.45565969 136.98189566 235.19654158 138 236.9375 C138.47083008 237.73470459 138.94166016 238.53190918 139.42675781 239.35327148 C142.625 244.83588552 142.625 244.83588552 142.625 247.0625 C143.39763184 246.72105957 144.17026367 246.37961914 144.96630859 246.02783203 C162.6799162 238.22108189 180.45729394 230.76430648 198.625 224.0625 C199.79514648 223.62728027 200.96529297 223.19206055 202.17089844 222.74365234 C269.96232011 197.64475002 341.34322134 181.99660633 413.28967285 175.28253174 C415.61279205 175.06365022 417.93478251 174.83486437 420.25683594 174.60498047 C471.94261346 169.58692751 525.67902205 169.74947375 577.34869385 174.84112549 C579.60452262 175.06050854 581.86119289 175.26640915 584.11865234 175.46826172 C637.79899383 180.31237538 690.8927337 191.07695258 742.625 206.0625 C743.30848511 206.26039124 743.99197021 206.45828247 744.69616699 206.66217041 C781.64135665 217.40794272 817.52955722 231.33913979 852.625 247.0625 C852.86863281 246.22203125 853.11226562 245.3815625 853.36328125 244.515625 C854.77379975 240.65525859 856.68485465 237.30435902 858.8125 233.8125 C859.71998405 232.29631085 860.62614806 230.77933112 861.53125 229.26171875 C862.02625 228.43333496 862.52125 227.60495117 863.03125 226.75146484 C866.0040229 221.73582135 868.90439472 216.67831773 871.8125 211.625 C872.44953857 210.51930664 873.08657715 209.41361328 873.74291992 208.27441406 C875.05200657 206.00225918 876.36084262 203.72995991 877.66943359 201.45751953 C880.81832054 195.9908002 883.97183264 190.52675113 887.125 185.0625 C888.3750235 182.89584689 889.62502347 180.72918021 890.875 178.5625 C898.375 165.5625 905.875 152.5625 913.375 139.5625 C913.99383057 138.48983887 914.61266113 137.41717773 915.25024414 136.31201172 C916.49935518 134.14692929 917.74854129 131.98189018 918.99780273 129.81689453 C922.13702309 124.37634294 925.27490563 118.93502784 928.41015625 113.4921875 C934.43247329 103.04043801 940.47169337 92.59950452 946.5625 82.1875 C951.63775362 73.5098735 956.64731393 64.7962909 961.625 56.0625 C968.37763068 44.21671797 975.19526927 32.41057761 982.10449219 20.65527344 C983.51744436 18.24590412 984.9199517 15.83076329 986.3203125 13.4140625 C987.10887327 12.06741441 987.89789537 10.72103629 988.6875 9.375 C989.33847656 8.25738281 989.98945312 7.13976562 990.66015625 5.98828125 C995.82904476 -1.70853285 1002.42848899 -6.55836878 1011.5 -8.375 C1019.76122975 -9.45707543 1026.83360603 -8.25942659 1033.7421875 -3.4765625 C1040.99072827 2.44859324 1044.9262407 8.60771101 1045.9375 17.94921875 C1046.41422107 29.58419231 1041.15660513 38.32205245 1035.3125 48.0625 C1034.05398718 50.18968999 1032.79619933 52.31730903 1031.5390625 54.4453125 C1030.56888184 56.08161621 1030.56888184 56.08161621 1029.57910156 57.75097656 C1026.40878292 63.12356553 1023.29846459 68.5303959 1020.1875 73.9375 C1018.92845388 76.12243529 1017.66933897 78.30733093 1016.41015625 80.4921875 C1015.78512207 81.57725586 1015.16008789 82.66232422 1014.51611328 83.78027344 C1011.38819852 89.20909942 1008.25641552 94.63569281 1005.125 100.0625 C1003.87498121 102.22915583 1002.62498122 104.3958225 1001.375 106.5625 C978.875 145.5625 956.375 184.5625 933.875 223.5625 C933.2552832 224.63669189 932.63556641 225.71088379 931.99707031 226.81762695 C930.75689239 228.96723634 929.51665873 231.11681358 928.27636719 233.26635742 C925.3514977 238.33559212 922.42719167 243.40514936 919.50488281 248.4758606 C918.12693062 250.86676597 916.74865828 253.25748672 915.37036133 255.64819336 C914.39959018 257.33233963 913.42928126 259.01675231 912.45898438 260.70117188 C911.86923828 261.72404297 911.27949219 262.74691406 910.671875 263.80078125 C910.15463867 264.69837158 909.63740234 265.59596191 909.10449219 266.52075195 C907.6332728 269.04828745 906.13548171 271.5582655 904.625 274.0625 C905.34091309 274.33400879 906.05682617 274.60551758 906.79443359 274.88525391 C923.23937609 281.72478407 938.76122687 292.30284707 953.625 302.0625 C955.04643311 302.99497559 955.04643311 302.99497559 956.49658203 303.94628906 C980.34764637 319.63747617 1003.39062476 336.14070981 1025.625 354.0625 C1026.57890625 354.83078125 1027.5328125 355.5990625 1028.515625 356.390625 C1039.47871309 365.32082259 1050.15728673 374.55753628 1060.625 384.0625 C1061.37523437 384.73152344 1062.12546875 385.40054687 1062.8984375 386.08984375 C1074.11257144 396.09314928 1085.04243964 406.39355534 1095.6875 417 C1096.377229 417.68513672 1097.06695801 418.37027344 1097.77758789 419.07617188 C1101.69413063 423.00462189 1105.42764003 427.03608957 1109.03100586 431.25415039 C1110.66070518 433.10300671 1112.36562739 434.83730001 1114.125 436.5625 C1117.8368719 440.22520803 1121.23511518 444.10229429 1124.625 448.0625 C1125.53239364 449.11732382 1126.43995908 450.17199986 1127.34765625 451.2265625 C1129.9321683 454.23214436 1132.50893362 457.24426572 1135.08300781 460.25878906 C1136.54980572 461.97454316 1138.02074033 463.68667093 1139.4921875 465.3984375 C1145.25844385 472.12929035 1150.77255308 479.01562855 1156.12011719 486.08496094 C1157.85174352 488.36045952 1159.60128338 490.62163157 1161.3515625 492.8828125 C1169.59939588 503.56952672 1177.50336573 514.40813543 1185.00097656 525.63378906 C1186.68700591 528.15522923 1188.38573436 530.66778671 1190.0859375 533.1796875 C1222.75009813 581.59296266 1250.5155332 633.57941718 1271.625 688.0625 C1272.00078186 689.0293573 1272.00078186 689.0293573 1272.38415527 690.01574707 C1300.61276239 762.72873022 1326.625 847.37145197 1326.625 926.0625 C779.485 926.0625 232.345 926.0625 -331.375 926.0625 C-329.01543 897.74765997 -329.01543 897.74765997 -327.125 884.1875 C-326.9654332 883.02760056 -326.9654332 883.02760056 -326.80264282 881.8442688 C-316.04204132 803.93972506 -295.14791888 727.62127357 -220.11914062 572.98144531 C-218.97515643 571.06690514 -217.8356709 569.14966819 -216.70117188 567.22949219 C-190.43613121 522.77738381 -159.06921485 481.26440201 -124.375 443.0625 C-122.97910785 441.50005254 -121.58327625 439.93755099 -120.1875 438.375 C-110.6997468 427.86022197 -101.00016036 417.59308962 -91 407.5625 C-90.16815186 406.72605957 -89.33630371 405.88961914 -88.47924805 405.02783203 C-84.20232532 400.76160696 -79.85382987 396.65395208 -75.2734375 392.71582031 C-72.11601145 389.96606604 -69.10095114 387.06715974 -66.0625 384.1875 C-60.9399753 379.36991768 -55.72589469 374.77482895 -50.2265625 370.38671875 C-47.47062681 368.1404424 -44.80039467 365.82209525 -42.1340332 363.47143555 C-34.24722468 356.52691515 -26.07092735 350.07501225 -17.66113281 343.77783203 C-15.28525801 341.99516476 -12.91940712 340.19977669 -10.5546875 338.40234375 C6.36276075 325.57771911 23.66323885 313.38172494 41.625 302.0625 C42.43018066 301.55364258 43.23536133 301.04478516 44.06494141 300.52050781 C56.38768917 292.75238362 68.89244068 285.3638468 81.58984375 278.22558594 C83.27817943 277.26070696 84.93986087 276.24936236 86.59375 275.2265625 C88.625 274.0625 88.625 274.0625 90.625 274.0625 C90.24915771 273.41104004 89.87331543 272.75958008 89.48608398 272.08837891 C26.875 163.5625 26.875 163.5625 24.99975586 160.31201172 C23.75064482 158.14692929 22.50145871 155.98189018 21.25219727 153.81689453 C18.11297691 148.37634294 14.97509437 142.93502784 11.83984375 137.4921875 C5.81752671 127.04043801 -0.22169337 116.59950452 -6.3125 106.1875 C-11.7312367 96.92258899 -17.07270211 87.61520922 -22.38516235 78.28915405 C-27.75302396 68.86744795 -33.18451546 59.48455319 -38.68359375 50.13867188 C-41.40782432 45.49554896 -44.09301672 40.83290965 -46.7109375 36.12890625 C-47.19868652 35.25306885 -47.68643555 34.37723145 -48.18896484 33.47485352 C-51.43854289 26.86532681 -51.50820935 18.55437804 -49.7265625 11.4921875 C-46.15472271 2.73049501 -40.30984799 -3.19648518 -31.71484375 -7.03515625 C-20.45074714 -11.37907331 -8.7002918 -7.99290185 0 0 Z M62.79296875 577.2421875 C54.0191642 588.65603774 48.60636973 601.58729648 47.625 616.0625 C47.5734375 616.70703125 47.521875 617.3515625 47.46875 618.015625 C46.69659469 635.38911942 53.91170566 653.18620992 65.25 666.13671875 C78.46374115 680.48152742 96.34099783 688.52085162 115.875 689.375 C135.01587724 688.81918505 152.10974982 681.24648038 166 668.1875 C179.8340192 653.47975328 185.54601635 634.83743631 184.96875 615.0390625 C184.03239183 597.54922954 175.7283152 582.44325509 163.625 570.0625 C147.83677718 556.00449338 129.81078138 550.74347595 109.05224609 551.85107422 C90.54010727 553.46357796 74.73012517 563.42466484 62.79296875 577.2421875 Z M825.4375 576.625 C813.26875185 592.72480465 809.12303739 610.12967421 810.625 630.0625 C811.25036738 634.24067917 812.23839182 638.07750865 813.625 642.0625 C813.88023438 642.88363281 814.13546875 643.70476562 814.3984375 644.55078125 C820.22788512 661.31712831 833.36240781 673.74946928 848.625 682.0625 C857.02680691 686.11583073 865.3580488 688.18688256 874.625 689.0625 C875.38039063 689.1346875 876.13578125 689.206875 876.9140625 689.28125 C894.0603106 690.05186789 911.73285643 682.65621606 924.51171875 671.5546875 C938.37705574 658.27574266 946.7474819 641.32871329 947.72753906 622.04492188 C948.01414528 603.12891149 940.75845656 585.94887736 927.87988281 572.22314453 C914.76150912 558.82423536 897.4091488 551.87432691 878.8125 551.625 C857.81358453 551.76807643 839.20837764 560.65721192 825.4375 576.625 Z " fill="#3DDC84" transform="translate(580.375,257.9375)"/>
<path d="M0 0 C17.82 0 35.64 0 54 0 C54 119.13 54 238.26 54 361 C7.625 361 7.625 361 2.1875 356.5 C-0.04756753 353.67675681 -0.16221388 350.79034587 -0.31640625 347.33203125 C-0.37924805 345.99301758 -0.37924805 345.99301758 -0.44335938 344.62695312 C-0.48267578 343.69818359 -0.52199219 342.76941406 -0.5625 341.8125 C-0.60568359 340.87212891 -0.64886719 339.93175781 -0.69335938 338.96289062 C-0.79938665 336.64207146 -0.90145029 334.32114675 -1 332 C-1.43401123 332.53173828 -1.86802246 333.06347656 -2.31518555 333.61132812 C-18.01100032 352.61630905 -42.68468401 363.20424773 -66.8125 365.6875 C-68.54063698 365.80754425 -70.26988032 365.91308661 -72 366 C-73.03060547 366.061875 -73.03060547 366.061875 -74.08203125 366.125 C-105.16381978 367.0758769 -133.69132248 353.90202949 -156 333 C-179.69298128 309.94635314 -191.73673111 276.90853616 -192.35180664 244.31591797 C-192.57609292 207.41492346 -181.05728103 173.78587086 -155.12890625 147.03515625 C-134.22880466 126.29224752 -105.64397641 115.45165709 -76.4375 114.75 C-49.12326756 115.45142289 -23.53922751 125.62060257 -4 145 C-3.01 146.32 -2.02 147.64 -1 149 C-0.67 99.83 -0.34 50.66 0 0 Z M-118.3203125 185.875 C-133.09071938 204.56128219 -139.91606333 226.59227039 -137.375 250.4375 C-134.82986521 270.68320505 -126.21672755 288.80845935 -110.45703125 302.125 C-99.22999704 310.69253008 -85.27239437 316.57606749 -71 317 C-70.35933594 317.05027344 -69.71867187 317.10054687 -69.05859375 317.15234375 C-52.25750473 317.94935936 -36.09731608 312.25586445 -23 302 C-22.30132813 301.46632813 -21.60265625 300.93265625 -20.8828125 300.3828125 C-6.51773243 288.70070458 1.73121337 270.10707808 4 252 C5.27575814 227.3620776 1.36311056 205.14740947 -15 186 C-27.95526104 172.07205962 -44.91999229 165.24428631 -63.625 163.796875 C-83.91766463 163.39636188 -104.32071728 170.83065887 -118.3203125 185.875 Z " fill="#000000" transform="translate(1853,1335)"/>
<path d="M0 0 C17.82 0 35.64 0 54 0 C54 119.13 54 238.26 54 361 C10 361 10 361 4 358 C-0.62396229 352.95708811 -0.64785577 348.13437301 -0.75 341.625 C-0.77964844 340.69816406 -0.80929687 339.77132813 -0.83984375 338.81640625 C-0.91011861 336.54418565 -0.96302048 334.27296541 -1 332 C-1.52207031 332.6290625 -2.04414062 333.258125 -2.58203125 333.90625 C-19.3009008 353.34815785 -43.08722307 363.47528794 -68.28125 365.72265625 C-98.62422862 367.9856305 -127.23765169 357.53598912 -150.3125 338.125 C-156.27008527 332.9626339 -161.30659426 327.34601339 -166 321 C-166.58910156 320.236875 -167.17820312 319.47375 -167.78515625 318.6875 C-188.54686795 290.68992978 -195.77575786 254.57811329 -191.18017578 220.32958984 C-186.14254149 188.4111925 -170.75265512 158.54848472 -145.15625 138.2734375 C-120.44992873 120.47754767 -91.02329011 111.69786305 -60.6875 116.1875 C-37.04110087 120.05843251 -16.42003415 130.49595902 -1 149 C-0.67 99.83 -0.34 50.66 0 0 Z M-119.375 187.375 C-135.1377165 206.41609661 -138.43659172 229.04024813 -137 253 C-136.30735636 258.5486314 -134.83502571 263.71680506 -133 269 C-132.62617187 270.08410156 -132.25234375 271.16820312 -131.8671875 272.28515625 C-129.20030674 279.27026446 -125.61410699 285.13805275 -121 291 C-120.12408203 292.14082031 -120.12408203 292.14082031 -119.23046875 293.3046875 C-106.19985254 309.16088996 -88.22323346 315.02622285 -68.51171875 317.28515625 C-50.30471045 318.09828478 -32.50001731 310.81011472 -19 299 C-4.85164397 285.74852866 3.57953854 266.91032827 4.23828125 247.54296875 C4.68451852 222.28075973 -0.1034065 201.60653845 -18.01171875 182.8984375 C-29.66710156 171.73857004 -44.89602271 165.05599851 -61 164 C-61.77988281 163.9484375 -62.55976562 163.896875 -63.36328125 163.84375 C-85.07383914 163.07181905 -104.56782451 171.68508904 -119.375 187.375 Z " fill="#000000" transform="translate(1005,1335)"/>
<path d="M0 0 C3.85281822 3.50747072 7.41043594 7.21640545 11 11 C11.33 1.43 11.66 -8.14 12 -18 C29.49 -18 46.98 -18 65 -18 C65 61.53 65 141.06 65 223 C21 223 21 223 14 219 C11.8429005 216.05870418 11.71128943 213.39029708 11.5859375 209.796875 C11.52792969 208.32734375 11.52792969 208.32734375 11.46875 206.828125 C11.42234375 205.30445313 11.42234375 205.30445313 11.375 203.75 C11.33632813 202.71875 11.29765625 201.6875 11.2578125 200.625 C11.16368326 198.0835106 11.07805021 195.54202567 11 193 C10.54109375 193.53181885 10.0821875 194.0636377 9.609375 194.61157227 C-5.35188174 211.8496274 -25.9983163 224.19094482 -49 227 C-49.75925781 227.11988281 -50.51851562 227.23976563 -51.30078125 227.36328125 C-79.87474177 231.0516774 -108.94531136 222.66842285 -131.99609375 205.80859375 C-159.83083417 183.73821092 -176.04049904 152.87010085 -180.3984375 117.79296875 C-183.73435554 83.39694894 -175.31746146 47.13400546 -153.29150391 19.96557617 C-133.24908183 -3.92159182 -107.35687055 -18.96810376 -76.125 -22.625 C-48.94224338 -24.95011915 -20.99181544 -17.81768766 0 0 Z M-110 52 C-123.85547563 70.97751687 -128.70817746 94.06521962 -125.22607422 117.12231445 C-121.85334419 136.36188636 -112.39732254 154.70056403 -96.265625 166.24072266 C-79.06712927 177.47967327 -60.16885236 181.28425524 -40.03515625 177.41040039 C-22.78079689 173.76216144 -8.10763697 164.10483837 2.29296875 149.859375 C14.97787982 130.15373454 19.03010116 106.90245588 14.47875977 83.93823242 C10.4059315 65.67662984 0.54400886 48.05555879 -15.4296875 37.67578125 C-46.93444795 18.46355352 -85.79330509 23.64253647 -110 52 Z " fill="#000000" transform="translate(430,1473)"/>
<path d="M0 0 C23.00441064 20.20228277 40.26968302 49.83078607 42.51220703 80.90576172 C44.37384777 116.50258919 37.00899378 149.36425001 13.625 177.0625 C12.84511719 178.00609375 12.06523438 178.9496875 11.26171875 179.921875 C-10.13187055 204.7118279 -42.0199091 218.20880212 -74.22265625 220.78515625 C-75.60653047 220.88113512 -76.99062438 220.97404703 -78.375 221.0625 C-79.28121094 221.12308594 -80.18742187 221.18367188 -81.12109375 221.24609375 C-83.56564754 221.318117 -85.93379794 221.22570981 -88.375 221.0625 C-89.01808105 221.02141113 -89.66116211 220.98032227 -90.32373047 220.93798828 C-125.75528262 218.48062603 -157.52250986 203.96087658 -181.01171875 177.01171875 C-194.03604481 160.75822094 -202.91499525 142.40941744 -207.375 122.0625 C-207.74238281 120.41701172 -207.74238281 120.41701172 -208.1171875 118.73828125 C-211.24632681 101.31369045 -210.66462889 82.22101556 -206.375 65.0625 C-206.21402832 64.41732422 -206.05305664 63.77214844 -205.88720703 63.10742188 C-197.35130999 30.07899412 -176.2651767 3.362801 -147.04272461 -13.8671875 C-101.06380033 -39.88741474 -40.15372911 -34.09144319 0 0 Z M-136.40234375 42.68359375 C-150.60410698 59.81007654 -157.04202425 80.91162987 -155.375 103.0625 C-153.01651433 123.84760595 -144.43922938 141.59418501 -128.625 155.4765625 C-114.80415944 166.46707135 -96.23221141 172.9880191 -78.375 171.0625 C-58.18757987 168.34131171 -39.90424854 160.50969857 -27.25 143.9375 C-13.72321441 124.32096631 -9.41310517 102.94337871 -13 79.37890625 C-16.4086805 61.22384398 -26.18276959 44.73274788 -40.9375 33.5625 C-71.15962179 13.24367235 -110.89854701 15.92293639 -136.40234375 42.68359375 Z " fill="#000000" transform="translate(1480.375,1479.9375)"/>
<path d="M0 0 C0.75925781 0.66515625 1.51851562 1.3303125 2.30078125 2.015625 C19.06609122 17.65166539 28.22263357 41.42953783 30 64 C30.14175701 69.1986865 30.12658319 74.39566662 30.11352539 79.59570312 C30.11324299 81.17321776 30.11340228 82.75073252 30.1139679 84.32824707 C30.11425382 88.59211178 30.10839026 92.85594814 30.10139394 97.11980629 C30.09512624 101.58275838 30.0945539 106.04571118 30.09336853 110.50866699 C30.09026527 118.95157342 30.08206546 127.39446683 30.07201904 135.83736753 C30.06082665 145.45284596 30.05533958 155.06832501 30.05032361 164.68380833 C30.03988199 184.45587947 30.02230205 204.22793891 30 224 C23.86194526 224.09919164 17.72436147 224.17162165 11.58569336 224.21972656 C9.49934761 224.23978913 7.41305773 224.2670459 5.3269043 224.30175781 C2.32066022 224.35051159 -0.68483769 224.37302267 -3.69140625 224.390625 C-4.61772354 224.41127014 -5.54404083 224.43191528 -6.49842834 224.45318604 C-12.52110193 224.45525285 -16.12962388 223.63652623 -21 220 C-23.02029809 216.87705959 -23.25343029 214.38415384 -23.26501465 210.70480347 C-23.27328781 209.63147766 -23.28156097 208.55815186 -23.29008484 207.45230103 C-23.28910294 206.27936493 -23.28812103 205.10642883 -23.28710938 203.89794922 C-23.29394241 202.65831421 -23.30077545 201.4186792 -23.30781555 200.14147949 C-23.3214186 197.44482952 -23.33145302 194.74843944 -23.33552551 192.05178452 C-23.34226212 187.77021729 -23.36405132 183.48880629 -23.38806152 179.20730591 C-23.4370288 170.09657409 -23.46924619 160.98580865 -23.5 151.875 C-23.53317487 142.08501409 -23.56956482 132.29508929 -23.62413073 122.50519574 C-23.64345337 118.95557057 -23.65881567 115.40602523 -23.66447449 111.85634995 C-22.80975155 73.6451147 -22.80975155 73.6451147 -39.8125 40.625 C-49.23722452 31.86323139 -61.67921905 27.63752879 -74.45703125 27.8515625 C-89.81287381 28.74790968 -103.21468301 34.24611527 -114.18359375 45.17578125 C-128.98023732 62.33758032 -133.09929532 83.89752118 -133.20532227 105.93359375 C-133.21522186 107.21247971 -133.22512146 108.49136566 -133.23532104 109.80900574 C-133.26219155 113.29393855 -133.28329692 116.77888465 -133.30332303 120.26386261 C-133.32529368 123.9140511 -133.35262781 127.56419945 -133.37937927 131.21435547 C-133.42915718 138.11663904 -133.47415085 145.01894506 -133.51740164 151.92127228 C-133.56690194 159.78348707 -133.62177234 167.64566156 -133.67708123 175.5078373 C-133.7906723 191.67185431 -133.89756052 207.83590838 -134 224 C-140.15638608 224.07431567 -146.31250935 224.12868084 -152.46923828 224.16479492 C-154.56238353 224.17985469 -156.65549736 224.20030671 -158.74853516 224.22631836 C-161.76212328 224.26282501 -164.77529312 224.27975473 -167.7890625 224.29296875 C-168.72054108 224.30845261 -169.65201965 224.32393646 -170.61172485 224.33988953 C-175.79882473 224.34122447 -179.62891845 224.10731681 -184 221 C-188.35411915 215.85535219 -188.56564788 211.90068157 -188.48101807 205.47085571 C-188.48443577 204.51834502 -188.48785347 203.56583432 -188.49137473 202.58445966 C-188.49795694 199.39665666 -188.47597136 196.20969793 -188.45410156 193.02197266 C-188.45297316 190.73540263 -188.4536068 188.44883115 -188.45587158 186.16226196 C-188.45701993 179.95607675 -188.43349058 173.75020034 -188.40557575 167.54408693 C-188.38058254 161.05783939 -188.37822173 154.57158489 -188.37347412 148.08529663 C-188.36245147 137.19889822 -188.33746117 126.31261392 -188.30175781 115.42626953 C-188.26502609 104.21468674 -188.23672004 93.00313474 -188.21972656 81.79150391 C-188.21867567 81.10009727 -188.21762477 80.40869064 -188.21654204 79.69633229 C-188.21132178 76.22765176 -188.20626697 72.75897101 -188.20129442 69.29029012 C-188.15984633 40.52677138 -188.08611605 11.76342296 -188 -17 C-170.18 -17 -152.36 -17 -134 -17 C-133.505 -2.645 -133.505 -2.645 -133 12 C-130.69 9.03 -128.38 6.06 -126 3 C-94.47935554 -31.00503023 -33.51920647 -29.86971163 0 0 Z " fill="#000000" transform="translate(742,1472)"/>
<path d="M0 0 C1.03858154 -0.00555908 2.07716309 -0.01111816 3.1472168 -0.0168457 C8.99468254 0.03830573 12.84315578 0.64268737 18.6875 2.3125 C18.6875 20.4625 18.6875 38.6125 18.6875 57.3125 C14.0675 56.3225 9.4475 55.3325 4.6875 54.3125 C0.89780741 54.02711609 -2.66438472 53.83170196 -6.4375 53.875 C-7.85724121 53.88635986 -7.85724121 53.88635986 -9.30566406 53.89794922 C-23.22954489 54.22559808 -35.17143869 59.74504354 -45.3125 69.3125 C-61.10302032 88.44534712 -64.3904104 110.69001444 -64.51782227 134.78222656 C-64.52772186 135.96416092 -64.53762146 137.14609528 -64.54782104 138.36384583 C-64.57912532 142.22691929 -64.60406915 146.09000501 -64.62890625 149.953125 C-64.64899837 152.64883126 -64.67045544 155.34452621 -64.69187927 158.04022217 C-64.74151226 164.38279912 -64.78655832 170.72539977 -64.82990164 177.06802249 C-64.87952758 184.2967279 -64.93435049 191.52539108 -64.98958123 198.7540555 C-65.10294918 213.60683064 -65.20988406 228.45964653 -65.3125 243.3125 C-71.48719663 243.38673798 -77.66163261 243.44114413 -83.83666992 243.47729492 C-85.93665086 243.49236772 -88.0366004 243.51282941 -90.13647461 243.53881836 C-93.15746824 243.57526754 -96.17804511 243.59224159 -99.19921875 243.60546875 C-100.13585861 243.62095261 -101.07249847 243.63643646 -102.03752136 243.65238953 C-108.40920769 243.65402919 -111.72505396 242.80074896 -116.41480637 238.29079151 C-119.07883633 234.10979112 -118.85701175 230.72671285 -118.79351807 225.86564636 C-118.79693577 224.90990654 -118.80035347 223.95416671 -118.80387473 222.96946508 C-118.81046695 219.76473933 -118.78845482 216.56084985 -118.76660156 213.35620117 C-118.76547338 211.05992655 -118.76610638 208.76365049 -118.76837158 206.46737671 C-118.76952078 200.23014236 -118.74597779 193.99321475 -118.71807575 187.75605178 C-118.69309659 181.23910175 -118.69072284 174.72214494 -118.68597412 168.20515442 C-118.67494814 157.26570152 -118.64995129 146.32636207 -118.61425781 135.38696289 C-118.57753394 124.12004153 -118.54922404 112.85315078 -118.53222656 101.58618164 C-118.53117567 100.89152529 -118.53012477 100.19686894 -118.52904204 99.48116239 C-118.52382183 95.99622715 -118.51876701 92.5112917 -118.51379442 89.0263561 C-118.47233689 60.1216492 -118.39860152 31.21711165 -118.3125 2.3125 C-100.8225 2.3125 -83.3325 2.3125 -65.3125 2.3125 C-64.9825 14.5225 -64.6525 26.7325 -64.3125 39.3125 C-61.6725 35.0225 -59.0325 30.7325 -56.3125 26.3125 C-47.99581035 15.59947604 -37.03736778 8.01516853 -24.3125 3.3125 C-23.07113281 2.83490234 -23.07113281 2.83490234 -21.8046875 2.34765625 C-14.62714554 0.0772093 -7.46129887 0.03418244 0 0 Z " fill="#000000" transform="translate(1236.3125,1452.6875)"/>
<path d="M0 0 C17.49 0 34.98 0 53 0 C53 79.53 53 159.06 53 241 C7.26517652 241 7.26517652 241 1.71756363 235.90292835 C-0.73161321 231.76346896 -0.54277424 228.28118954 -0.48101807 223.55314636 C-0.48443577 222.59740654 -0.48785347 221.64166671 -0.49137473 220.65696508 C-0.49796695 217.45223933 -0.47595482 214.24834985 -0.45410156 211.04370117 C-0.45297338 208.74742655 -0.45360638 206.45115049 -0.45587158 204.15487671 C-0.45702078 197.91764236 -0.43347779 191.68071475 -0.40557575 185.44355178 C-0.38059659 178.92660175 -0.37822284 172.40964494 -0.37347412 165.89265442 C-0.36244814 154.95320152 -0.33745129 144.01386207 -0.30175781 133.07446289 C-0.26503394 121.80754153 -0.23672404 110.54065078 -0.21972656 99.27368164 C-0.21867567 98.57902529 -0.21762477 97.88436894 -0.21654204 97.16866239 C-0.21132183 93.68372715 -0.20626701 90.1987917 -0.20129442 86.7138561 C-0.15983689 57.8091492 -0.08610152 28.90461165 0 0 Z " fill="#000000" transform="translate(1565,1455)"/>
<path d="M0 0 C8.38088166 8.77997126 11.14050831 18.22757296 10.9375 30.1796875 C10.091474 39.84553457 5.83876592 47.81124591 -1.15234375 54.43359375 C-8.85651144 60.75132636 -17.54918804 63.46338846 -27.4609375 63.06640625 C-37.47429555 61.97916496 -45.87206261 57.85660796 -52.6875 50.375 C-60.29947042 40.83889262 -61.46779858 30.60701344 -60.375 18.75 C-58.37348351 9.98907637 -53.33383467 2.5749711 -46 -2.5625 C-30.53228178 -12.11303743 -14.60117149 -10.67448568 0 0 Z " fill="#000000" transform="translate(1616.375,1341.25)"/>
</svg>
