<?xml version="1.0" encoding="UTF-8"?>
<svg version="1.1" xmlns="http://www.w3.org/2000/svg" width="400" height="400">
<path d="M0 0 C0.96993405 -0.00352835 0.96993405 -0.00352835 1.95946273 -0.00712797 C4.14111415 -0.01382135 6.32270605 -0.01335965 8.50436687 -0.01294994 C10.07835455 -0.01624835 11.65234138 -0.01997386 13.22632712 -0.02409142 C17.56336787 -0.034122 21.90039477 -0.03782991 26.23744547 -0.04048073 C30.91035879 -0.04438058 35.58326111 -0.05395904 40.25616741 -0.0626936 C51.54610466 -0.08246566 62.83604281 -0.09252454 74.12599304 -0.10142139 C79.43943197 -0.10580252 84.75286989 -0.11116973 90.06630802 -0.11641026 C107.72325242 -0.13342224 125.38019619 -0.14791766 143.03714752 -0.155159 C147.62027074 -0.15706896 152.20339395 -0.15898928 156.78651714 -0.16094494 C157.92566162 -0.16142868 159.06480609 -0.16191242 160.2384701 -0.16241082 C178.70265652 -0.17071578 197.16677826 -0.19606069 215.63093642 -0.22852562 C234.57684959 -0.26156677 253.52272984 -0.27960504 272.46867198 -0.28280324 C283.11057336 -0.28497092 293.75238038 -0.29375741 304.39425373 -0.31926441 C313.45492472 -0.3409311 322.51547843 -0.34904169 331.57617239 -0.33929763 C336.20071176 -0.33474139 340.82500892 -0.33671583 345.44951534 -0.35605907 C349.68176558 -0.3736091 353.91359547 -0.37275987 358.14584967 -0.35716178 C359.67816316 -0.35477326 361.21050515 -0.3591734 362.74277494 -0.37099043 C364.82437541 -0.38605159 366.90447521 -0.37647952 368.98603821 -0.36076355 C370.142559 -0.36174036 371.29907979 -0.36271717 372.49064666 -0.36372358 C377.3073194 0.38787016 380.46736585 2.67692311 383.55678082 6.38422108 C386.07279192 12.53447044 384.46239447 19.62989323 383.39151287 26.00749683 C383.18286764 27.2970729 383.18286764 27.2970729 382.97000736 28.612701 C382.50438584 31.48083707 382.02972653 34.34740118 381.55507183 37.21405506 C381.21757931 39.28120607 380.88064983 41.34844908 380.54423809 43.41577625 C379.62523517 49.05327599 378.69838413 54.68946102 377.77024102 60.3254621 C376.7818675 66.33606604 375.80094643 72.34788614 374.81921673 78.35957813 C372.93911669 89.8656548 371.05267208 101.37068166 369.16383642 112.87532717 C366.47114543 129.27781924 363.78775194 145.68183228 361.10462284 162.08589077 C360.69670925 164.57959271 360.28878396 167.07329274 359.88084698 169.56699085 C359.67914123 170.80003472 359.47743548 172.03307859 359.26961744 173.30348742 C358.04782947 180.77033486 356.82352192 188.23676436 355.59723556 195.7028743 C351.47785023 220.78467701 347.38972567 245.87060377 343.40624392 270.97439039 C342.81297005 274.70985285 342.2179738 278.4450363 341.62225151 282.18010902 C341.42948484 283.38874444 341.23671816 284.59737985 341.03811008 285.84264058 C340.65445936 288.24765537 340.27072141 290.65265625 339.88689345 293.05764276 C338.78095164 299.99430645 337.68692518 306.93271631 336.60185385 313.87267351 C335.93500151 318.12044625 335.25735358 322.36644511 334.57677102 326.61203742 C334.26568377 328.56754233 333.95921652 330.52378884 333.65779281 332.48080659 C333.24604004 335.15087343 332.81799151 337.81784601 332.38598919 340.4847002 C332.27209191 341.25022927 332.15819464 342.01575834 332.04084593 342.80448526 C330.98350181 349.14926322 329.37334496 355.06690467 324.10940647 359.10999107 C319.30475277 360.54569934 314.83027619 360.55131081 309.83977032 360.52190113 C308.74589626 360.52728667 307.65202221 360.53267221 306.52500045 360.53822094 C302.85855899 360.55253163 299.19247698 360.54538888 295.5260191 360.53827381 C292.89775076 360.54397575 290.2694849 360.55093932 287.64122295 360.55907154 C281.24246187 360.57625988 274.84379898 360.57709943 268.44502081 360.57185864 C263.24308631 360.56781547 258.04118082 360.56926224 252.8392477 360.5746069 C252.09857361 360.57535532 251.35789952 360.57610374 250.59478077 360.57687484 C249.09003981 360.57840634 247.58529887 360.57994469 246.08055793 360.58148981 C231.97186747 360.59521518 217.86323248 360.58977709 203.75454329 360.5783046 C190.85308726 360.56837396 177.95177469 360.58130984 165.05034079 360.60523879 C151.79731184 360.62963428 138.54434969 360.63923645 125.29129875 360.63258606 C117.85306908 360.6290946 110.4149497 360.63132091 102.97673702 360.64883709 C95.98188564 360.66510506 88.98731257 360.66037035 81.99246883 360.64153194 C79.42540827 360.63784101 76.85832747 360.64096911 74.29128551 360.65141773 C70.78645948 360.66459407 67.28254535 360.65310837 63.7777586 360.63542652 C62.7623799 360.64503153 61.74700121 360.65463653 60.70085347 360.6645326 C52.85424005 360.58310871 47.54532581 358.8352031 41.80203533 353.41795826 C39.22817041 349.43169346 38.47415228 346.22518107 37.75770855 341.59442616 C37.5253596 340.24889652 37.5253596 340.24889652 37.28831673 338.87618446 C36.73386947 335.63178937 36.20897786 332.38315163 35.68178082 329.13422108 C35.23056752 326.45404115 34.77772959 323.77417001 34.3234129 321.09451771 C32.82456515 312.22022037 31.36508758 303.33957316 29.90815139 294.45831537 C29.15277429 289.8574177 28.39425274 285.2570383 27.63614178 280.65659046 C26.00540802 270.75730526 24.37839701 260.85741065 22.75222301 250.95737553 C21.74360071 244.8170444 20.73424307 238.6768343 19.72468853 232.53665638 C19.47373924 231.01034124 19.47373924 231.01034124 19.21772027 229.45319146 C18.87907263 227.39350304 18.54042168 225.33381517 18.20176744 223.27412784 C17.3526998 218.11010261 16.50367197 212.94607084 15.65468121 207.78203297 C15.48648396 206.75897251 15.31828672 205.73591206 15.14499259 204.68184978 C14.12372895 198.46966756 13.1029032 192.25741355 12.0823791 186.04510981 C8.13902812 162.04124192 4.18050304 138.03998552 0.19557899 114.04298395 C-0.69665454 108.66930675 -1.58730524 103.29536937 -2.47671223 97.92122364 C-2.65900144 96.8197615 -2.65900144 96.8197615 -2.84497327 95.6960476 C-3.4418409 92.08910911 -4.03848017 88.48213293 -4.63494492 84.87512779 C-5.88094043 77.34204836 -7.13217485 69.80987573 -8.39009529 62.27877831 C-9.33548983 56.61552134 -10.27177797 50.95078898 -11.20458889 45.28544712 C-11.58066369 43.01064643 -11.95976109 40.73634288 -12.34223461 38.46260929 C-12.85851222 35.39129762 -13.36385268 32.31837452 -13.86655903 29.24481678 C-14.01586337 28.37297591 -14.16516771 27.50113504 -14.31899643 26.60287476 C-16.86160229 10.79290415 -16.86160229 10.79290415 -13.99418926 5.85340309 C-9.85500411 0.72504282 -6.52517267 0.01009549 0 0 Z M120.68178082 121.13422108 C125.47885864 146.91851437 130.27579353 172.69960232 135.21181011 198.45721912 C135.99007038 202.51888013 136.76438999 206.58128363 137.53802681 210.64382744 C138.14596622 213.83278244 138.75653207 217.02123027 139.36786366 220.20953655 C139.65550856 221.71209023 139.9421805 223.21483054 140.22782993 224.71776485 C140.6191185 226.77517918 141.014097 228.83185096 141.4100523 230.88837147 C141.63241055 232.05107059 141.85476879 233.21376972 142.08386517 234.41170216 C142.55396192 237.08270267 142.55396192 237.08270267 143.68178082 239.13422108 C171.07178082 239.13422108 198.46178082 239.13422108 226.68178082 239.13422108 C231.50543679 211.34183163 231.50543679 211.34183163 236.32240582 183.54828358 C236.46546406 182.72209145 236.6085223 181.89589931 236.75591564 181.04467106 C240.16743035 161.34035052 240.16743035 161.34035052 243.55552959 141.63199329 C243.8470569 139.93082595 244.13914704 138.22975496 244.43181133 136.52878284 C244.82540305 134.23999285 245.21687196 131.95085163 245.60756207 129.66156483 C245.81808208 128.43171864 246.0286021 127.20187244 246.24550152 125.93475819 C246.73308999 123.27724638 246.73308999 123.27724638 246.68178082 121.13422108 C205.10178082 121.13422108 163.52178082 121.13422108 120.68178082 121.13422108 Z " fill="#207CF7" transform="translate(15.318219184875488,19.865778923034668)"/>
</svg>
