<?xml version="1.0" encoding="UTF-8"?>
<svg version="1.1" xmlns="http://www.w3.org/2000/svg" width="400" height="400">
<path d="M0 0 C5.61008454 2.31312137 10.71305551 5.51789953 15.82470703 8.75927734 C20.61960007 11.77348839 25.58608573 14.4458907 30.57080078 17.13037109 C41.98912008 23.31942008 53.32107468 29.6401445 64.57080078 36.13037109 C71.02675248 39.83642832 77.57618542 43.35703251 84.13330078 46.88037109 C91.52747564 50.85558181 98.7404219 54.94496235 105.83251953 59.43505859 C110.65361164 62.33120319 115.64800245 64.87291205 120.64013672 67.45922852 C127.20060153 70.87651618 133.60881721 74.51283111 139.98388672 78.26318359 C143.98346371 80.61137599 147.99956861 82.90116505 152.09033203 85.08740234 C152.90493896 85.52568359 153.7195459 85.96396484 154.55883789 86.41552734 C156.09955346 87.24001582 157.64563724 88.05458602 159.19799805 88.85693359 C165.08908973 92.02314886 169.60514588 95.95834876 172.07080078 102.38037109 C172.26650198 105.02564242 172.35356869 107.56554698 172.34495544 110.21051025 C172.35019212 111.00457614 172.3554288 111.79864202 172.36082417 112.61677051 C172.3758392 115.28053452 172.37652965 117.9441067 172.37719727 120.60791016 C172.38481782 122.51668116 172.39324513 124.42544909 172.40242004 126.33421326 C172.42438404 131.52237052 172.43316668 136.71046883 172.43824649 141.89866734 C172.44188825 145.14040642 172.44812742 148.38213003 172.45524788 151.62386322 C172.47975038 162.93447041 172.4927957 174.24503169 172.49633789 185.55566406 C172.49997229 196.09621401 172.52985886 206.63647261 172.57174248 217.17693353 C172.60644453 226.22760524 172.62188633 235.27818042 172.62258393 244.32891822 C172.62337686 249.73392951 172.63212301 255.13864421 172.66058159 260.54358673 C172.68676011 265.62936035 172.68896846 270.71459144 172.67292595 275.80040169 C172.67111121 277.66439815 172.67780439 279.52842578 172.69374466 281.39235497 C172.83371235 298.82555179 172.83371235 298.82555179 167.07080078 305.38037109 C163.60613184 308.68755508 159.88400828 310.59247948 155.57080078 312.63037109 C149.59076242 315.52350609 143.97811256 318.80637109 138.34814453 322.34130859 C130.47887018 327.23732911 122.45960059 331.74848583 114.13330078 335.81787109 C108.7904497 338.44521371 103.73315197 341.35012107 98.66967773 344.47729492 C90.72692589 349.30708939 82.46165632 353.57172682 74.23242188 357.88818359 C67.80572925 361.28362103 61.61729959 364.86019612 55.52392578 368.82177734 C52.17964128 370.94656957 48.7246309 372.77289277 45.19580078 374.56787109 C38.50254299 378.04340774 31.92671336 381.69327512 25.38330078 385.44287109 C24.48506592 385.95068115 23.58683105 386.45849121 22.66137695 386.98168945 C18.79243666 389.18008814 14.98547783 391.38491512 11.32861328 393.92333984 C1.71389095 400.31430233 -7.67969443 401.2670752 -18.92919922 399.38037109 C-23.14477398 398.02729019 -26.30001448 395.87931039 -29.92919922 393.38037109 C-33.11268037 391.48284592 -36.33616074 389.65599883 -39.55419922 387.81787109 C-41.1302927 386.90088589 -42.7058263 385.98293761 -44.28076172 385.06396484 C-51.22790631 381.03481017 -58.26052877 377.18296081 -65.36669922 373.44287109 C-70.37570317 370.7893322 -75.26817347 368.01810585 -80.10498047 365.06005859 C-86.94443488 360.99233328 -93.96245199 357.22448243 -100.92919922 353.38037109 C-104.09701214 351.63243549 -107.26393109 349.8829112 -110.42919922 348.13037109 C-111.57400757 347.49663574 -111.57400757 347.49663574 -112.74194336 346.85009766 C-116.49683553 344.76290064 -120.20984872 342.63659081 -123.86669922 340.38037109 C-128.39745655 337.6077025 -133.08921713 335.19456323 -137.80419922 332.75537109 C-145.62614372 328.70138539 -153.18819046 324.31715556 -160.69677734 319.7109375 C-165.17142306 316.98006157 -169.66711515 314.44216562 -174.35742188 312.10205078 C-181.6522559 308.46103756 -186.24093951 304.75689051 -189.92919922 297.38037109 C-190.03559705 294.84173969 -190.08140837 292.33001399 -190.08309937 289.79074097 C-190.08748162 288.99838393 -190.09186387 288.2060269 -190.09637892 287.38965905 C-190.10979297 284.71973129 -190.11595167 282.04983656 -190.12207031 279.37988281 C-190.12996935 277.47140859 -190.13823818 275.56293586 -190.14685059 273.65446472 C-190.17309795 267.37301058 -190.1883829 261.09154968 -190.20263672 254.81005859 C-190.20799566 252.64891683 -190.21337316 250.48777512 -190.21876907 248.32663345 C-190.24040353 239.33645391 -190.25913992 230.34627619 -190.27039146 221.35607719 C-190.28662716 208.46741495 -190.31978943 195.57905437 -190.37679231 182.69050586 C-190.4154932 173.63139206 -190.43502446 164.57235894 -190.44031203 155.51316464 C-190.44396583 150.10140142 -190.45599003 144.68995976 -190.48841476 139.27828598 C-190.51849706 134.18435102 -190.5248065 129.09093211 -190.51303101 123.99692726 C-190.51281027 122.12969985 -190.52111512 120.26244849 -190.53868484 118.39530373 C-190.6902822 101.35383783 -190.6902822 101.35383783 -186.33812904 95.76931953 C-181.08774569 90.59339689 -175.30947398 87.45197051 -168.68603516 84.26025391 C-163.88751651 81.92753605 -159.3140183 79.31465691 -154.74169922 76.56787109 C-148.69457433 72.94180591 -142.56667565 69.55753954 -136.30419922 66.31787109 C-129.19974447 62.6364979 -122.3148895 58.71007152 -115.48779297 54.54052734 C-111.91998677 52.36221557 -108.309687 50.26471226 -104.67919922 48.19287109 C-103.64279297 47.60119141 -102.60638672 47.00951172 -101.53857422 46.39990234 C-97.69392989 44.23327634 -93.81272021 42.1341239 -89.93652344 40.0246582 C-84.64627605 37.13215811 -79.38356475 34.19016096 -74.11669922 31.25537109 C-65.49800785 26.4545014 -56.85578153 21.70106849 -48.17919922 17.00537109 C-41.23770941 13.24521494 -34.38925734 9.37561075 -27.66845703 5.23242188 C-18.86492638 -0.18292502 -10.34524882 -3.32273368 0 0 Z " fill="#00599C" transform="translate(207.92919921875,0.61962890625)"/>
<path d="M0 0 C0.65967773 0.03722168 1.31935547 0.07444336 1.99902344 0.11279297 C14.85849677 0.92206826 26.76135907 4.0967915 39 8 C39.76908691 8.23662354 40.53817383 8.47324707 41.33056641 8.71704102 C46.5770358 10.3785919 51.39724236 12.47223068 56.25 15.0625 C56.98234863 15.45244141 57.71469727 15.84238281 58.46923828 16.24414062 C65.58262064 20.14247868 71.75965676 24.85130949 78 30 C78.96679688 30.7528125 79.93359375 31.505625 80.9296875 32.28125 C92.27497585 41.2066292 102.88135254 52.73759136 109 66 C108.1234375 66.48726563 107.246875 66.97453125 106.34375 67.4765625 C97.83973302 72.22341681 89.4052778 77.08041892 81 82 C65.73683978 90.91661456 65.73683978 90.91661456 59.6875 94.375 C59.04232422 94.75011719 58.39714844 95.12523437 57.73242188 95.51171875 C54.9235719 97.10534886 53.28823159 98 50 98 C48.421875 96.27734375 48.421875 96.27734375 46.75 93.9375 C36.17045964 79.91906142 21.18055162 71.37645203 3.78515625 68.31640625 C-14.85707057 66.19856562 -32.53656082 70.41078783 -47.46484375 81.90234375 C-54.60612684 87.81123284 -59.67983639 93.77696131 -64 102 C-64.45375 102.84304687 -64.9075 103.68609375 -65.375 104.5546875 C-73.25536336 120.36232114 -73.58929308 137.24741746 -69 154 C-63.16138221 170.58017744 -52.75902726 183.9883591 -37.1875 192.3125 C-21.64309456 199.44861452 -3.67759678 202.24914114 13.0390625 197.171875 C29.55952128 190.63343485 40.63443428 182.39060794 51 168 C55.26661756 168.9413119 58.86375765 170.88368819 62.6875 172.9375 C63.4393457 173.33791504 64.19119141 173.73833008 64.96582031 174.15087891 C70.84337115 177.31015436 76.57970425 180.67675034 82.30322266 184.10473633 C91.32438246 189.45681901 100.67134818 194.21135617 110 199 C107.09564188 205.32632461 103.56348957 210.55236016 99.25 216 C98.66734375 216.75539063 98.0846875 217.51078125 97.484375 218.2890625 C76.42450039 245.16811299 45.04711761 261.71946637 11.40039062 266.33056641 C-27.10848186 270.70516189 -62.7320357 259.33860429 -92.87109375 235.46484375 C-118.90434294 214.13287891 -135.25351405 181.17921135 -139 148 C-141.40119699 109.66565857 -131.85164056 75.48388923 -107 46 C-106.27167969 45.10667969 -105.54335937 44.21335938 -104.79296875 43.29296875 C-95.1862509 31.97522137 -82.66461925 23.55719953 -70 16 C-69.09636719 15.45730469 -68.19273437 14.91460937 -67.26171875 14.35546875 C-47.5546698 3.54653741 -22.35175399 -1.37510791 0 0 Z " fill="#FDFEFE" transform="translate(205,67)"/>
<path d="M0 0 C5.61008454 2.31312137 10.71305551 5.51789953 15.82470703 8.75927734 C20.61960007 11.77348839 25.58608573 14.4458907 30.57080078 17.13037109 C41.98912008 23.31942008 53.32107468 29.6401445 64.57080078 36.13037109 C71.02675248 39.83642832 77.57618542 43.35703251 84.13330078 46.88037109 C91.52747564 50.85558181 98.7404219 54.94496235 105.83251953 59.43505859 C110.65361164 62.33120319 115.64800245 64.87291205 120.64013672 67.45922852 C127.19888701 70.8756231 133.60400317 74.51310634 139.97949219 78.25878906 C144.00812655 80.62161708 148.05322717 82.93407384 152.16064453 85.15771484 C152.9842749 85.60501953 153.80790527 86.05232422 154.65649414 86.51318359 C156.22480298 87.36069521 157.79704961 88.20097447 159.3737793 89.03271484 C163.08527129 91.04319478 165.87722625 92.61873352 168.07080078 96.38037109 C162.8336185 99.52712073 157.57839214 102.64287701 152.32080078 105.75537109 C151.36947266 106.31998047 150.41814453 106.88458984 149.43798828 107.46630859 C144.97460343 110.10765415 140.50231838 112.73271108 135.99267578 115.29443359 C135.28208008 115.69871582 134.57148438 116.10299805 133.83935547 116.51953125 C132.07080078 117.38037109 132.07080078 117.38037109 130.07080078 117.38037109 C130.07080078 118.04037109 130.07080078 118.70037109 130.07080078 119.38037109 C129.07435547 119.77740234 128.07791016 120.17443359 127.05126953 120.58349609 C122.18103464 122.66741236 117.8389554 125.52896303 113.41259766 128.41552734 C108.57528421 131.44316287 108.57528421 131.44316287 105.95043945 131.11645508 C103.16160691 130.02432232 102.51972014 128.27753193 101.07080078 125.69287109 C94.00274989 114.07891568 84.98557488 104.4632038 74.07080078 96.38037109 C73.55324219 95.98398438 73.03568359 95.58759766 72.50244141 95.17919922 C44.2225278 73.52158318 8.78441928 63.83580367 -26.67919922 68.38037109 C-53.76343468 72.32622118 -76.17669981 82.83924676 -96.92919922 100.38037109 C-98.15316406 101.35876953 -98.15316406 101.35876953 -99.40185547 102.35693359 C-121.72034153 120.85726595 -137.78015779 153.26280517 -140.75048828 181.85058594 C-142.85703131 211.67025647 -138.1325666 237.21803724 -125.92919922 264.38037109 C-126.79802734 264.91146484 -127.66685547 265.44255859 -128.56201172 265.98974609 C-129.72611165 266.7032267 -130.89017203 267.41677182 -132.05419922 268.13037109 C-132.62396484 268.47841797 -133.19373047 268.82646484 -133.78076172 269.18505859 C-136.54832133 270.88333381 -139.25234423 272.60480079 -141.92138672 274.45849609 C-144.50171782 276.10722713 -146.94414255 277.23354365 -149.76464844 278.37988281 C-155.65868254 281.10419499 -161.16838622 284.67899062 -166.75268555 287.9855957 C-168.46627334 288.99824643 -170.18402596 290.00383893 -171.90185547 291.00927734 C-172.91513916 291.60812744 -173.92842285 292.20697754 -174.97241211 292.82397461 C-177.90646008 294.36840164 -180.75920281 295.42656948 -183.92919922 296.38037109 C-183.92919922 297.04037109 -183.92919922 297.70037109 -183.92919922 298.38037109 C-185.24919922 298.38037109 -186.56919922 298.38037109 -187.92919922 298.38037109 C-190.01294931 294.11352263 -190.21891234 290.24051175 -190.20335388 285.58183289 C-190.20859056 284.80324679 -190.21382724 284.02466069 -190.21922261 283.22248107 C-190.23420807 280.61709992 -190.23492743 278.01191541 -190.2355957 275.40649414 C-190.24321816 273.53698394 -190.25164581 271.66747687 -190.26081848 269.79797363 C-190.28276168 264.72144213 -190.29156214 259.64497086 -190.29664493 254.56839728 C-190.30028867 251.39583418 -190.30652882 248.22328684 -190.31364632 245.05072975 C-190.33814008 233.98002047 -190.35119258 222.90935804 -190.35473633 211.83862305 C-190.35837166 201.52356031 -190.38826712 191.20879512 -190.43014091 180.89382333 C-190.46484422 172.03421246 -190.48028478 163.17470019 -190.48098236 154.31502181 C-190.48177515 149.02515891 -190.4905149 143.73559911 -190.51898003 138.4458065 C-190.54516125 133.46917913 -190.54736545 128.49310617 -190.53132439 123.51644135 C-190.52950996 121.6927577 -190.53620009 119.86904218 -190.5521431 118.04542732 C-190.68869795 101.40790168 -190.68869795 101.40790168 -186.33757114 95.78390217 C-181.114567 90.57885051 -175.30542171 87.45001779 -168.68603516 84.26025391 C-163.88751651 81.92753605 -159.3140183 79.31465691 -154.74169922 76.56787109 C-148.69457433 72.94180591 -142.56667565 69.55753954 -136.30419922 66.31787109 C-129.19974447 62.6364979 -122.3148895 58.71007152 -115.48779297 54.54052734 C-111.91998677 52.36221557 -108.309687 50.26471226 -104.67919922 48.19287109 C-103.64279297 47.60119141 -102.60638672 47.00951172 -101.53857422 46.39990234 C-97.69392989 44.23327634 -93.81272021 42.1341239 -89.93652344 40.0246582 C-84.64627605 37.13215811 -79.38356475 34.19016096 -74.11669922 31.25537109 C-65.49800785 26.4545014 -56.85578153 21.70106849 -48.17919922 17.00537109 C-41.23770941 13.24521494 -34.38925734 9.37561075 -27.66845703 5.23242188 C-18.86492638 -0.18292502 -10.34524882 -3.32273368 0 0 Z " fill="#659AD2" transform="translate(207.92919921875,0.61962890625)"/>
<path d="M0 0 C3.22837932 3.01219321 5.57565943 6.1925736 8 9.875 C14.99575814 20.22533628 23.05191832 30.35283517 33 38 C33.51369141 38.40283203 34.02738281 38.80566406 34.55664062 39.22070312 C63.54191632 61.82986879 98.76865759 71.39310083 135.31030273 67.38330078 C161.71958444 63.81939032 184.82746065 53.00320786 205 36 C206.33998047 34.90751953 206.33998047 34.90751953 207.70703125 33.79296875 C216.95464425 25.94342008 224.45968491 16.05155996 230.68359375 5.671875 C232.32276326 3.59008108 233.49019989 2.85806793 236 2 C238.22314453 2.79516602 238.22314453 2.79516602 240.6328125 4.25390625 C241.96699219 5.0418457 241.96699219 5.0418457 243.328125 5.84570312 C244.25109375 6.41224609 245.1740625 6.97878906 246.125 7.5625 C247.93849774 8.64981921 249.75359844 9.7344695 251.5703125 10.81640625 C252.92805786 11.62730713 252.92805786 11.62730713 254.31323242 12.45458984 C257.63016177 14.3624647 261.03241598 16.0406318 264.46875 17.72045898 C269.0630256 20.04285466 273.48882603 22.66260302 277.9375 25.25 C279.77850099 26.32020127 281.62088741 27.38802387 283.46484375 28.453125 C284.265271 28.91879883 285.06569824 29.38447266 285.89038086 29.86425781 C288.08524074 31.12356157 288.08524074 31.12356157 291 32 C291 32.66 291 33.32 291 34 C292.65 34.66 294.3 35.32 296 36 C295.75558133 39.29965201 294.84485439 40.1429998 292.35546875 42.4375 C289.26439623 44.92936729 286.04139075 46.62957072 282.4375 48.3125 C276.47074796 51.17631928 270.88686309 54.4388393 265.27734375 57.9609375 C257.4080694 62.85695801 249.38879981 67.36811473 241.0625 71.4375 C235.71964892 74.06484261 230.66235119 76.96974998 225.59887695 80.09692383 C217.65612511 84.92671829 209.39085554 89.19135572 201.16162109 93.5078125 C194.73492847 96.90324994 188.54649881 100.47982503 182.453125 104.44140625 C179.1088405 106.56619847 175.65383011 108.39252168 172.125 110.1875 C165.43174221 113.66303665 158.85591258 117.31290403 152.3125 121.0625 C151.41426514 121.57031006 150.51603027 122.07812012 149.59057617 122.60131836 C145.72163588 124.79971704 141.91467704 127.00454402 138.2578125 129.54296875 C128.64309017 135.93393124 119.24950479 136.8867041 108 135 C103.78442524 133.6469191 100.62918474 131.49893929 97 129 C93.81651885 127.10247483 90.59303848 125.27562774 87.375 123.4375 C85.79890652 122.5205148 84.22337292 121.60256651 82.6484375 120.68359375 C75.7012929 116.65443908 68.66867045 112.80258971 61.5625 109.0625 C56.55349605 106.4089611 51.66102575 103.63773476 46.82421875 100.6796875 C39.98476434 96.61196219 32.96674723 92.84411133 26 89 C22.83218708 87.25206439 19.66526813 85.5025401 16.5 83.75 C15.73679443 83.32750977 14.97358887 82.90501953 14.18725586 82.46972656 C10.43236368 80.38252955 6.7193505 78.25621972 3.0625 76 C-1.46825733 73.22733141 -6.16001791 70.81419214 -10.875 68.375 C-18.6969445 64.3210143 -26.25899124 59.93678447 -33.76757812 55.33056641 C-38.24210057 52.59976571 -42.73709403 50.06094142 -47.42822266 47.72265625 C-53.6913743 44.59343677 -58.95167694 41.61377236 -62 35 C-62.875 31.5 -62.875 31.5 -63 29 C-61 32 -61 32 -61 34 C-59.68 34 -58.36 34 -57 34 C-57 33.34 -57 32.68 -57 32 C-55.94683594 31.45472656 -54.89367187 30.90945313 -53.80859375 30.34765625 C-45.77739425 26.15909557 -37.90301682 21.82201747 -30.17553711 17.09594727 C-26.10664251 14.62156806 -21.98468085 12.45197403 -17.6953125 10.39453125 C-11.62083503 7.25164943 -5.83112679 3.5686496 0 0 Z " fill="#004482" transform="translate(81,265)"/>
<path d="M0 0 C2.46712383 2.16106611 4.76389808 4.38192229 7.01953125 6.76171875 C7.73238281 7.51324219 8.44523437 8.26476562 9.1796875 9.0390625 C14.01953125 14.36000404 14.01953125 14.36000404 14.01953125 16.76171875 C15.66953125 16.43171875 17.31953125 16.10171875 19.01953125 15.76171875 C18.68953125 16.42171875 18.35953125 17.08171875 18.01953125 17.76171875 C16.97547119 18.05965332 15.93141113 18.35758789 14.85571289 18.66455078 C10.96748632 19.77660387 8.09687683 21.24070441 4.640625 23.31640625 C4.06546646 23.65922638 3.49030792 24.00204651 2.89772034 24.35525513 C1.07958471 25.44165292 -0.73158863 26.53910318 -2.54296875 27.63671875 C-3.76064874 28.36528404 -4.97874478 29.09315442 -6.19726562 29.8203125 C-12.65619807 33.67379403 -12.65619807 33.67379403 -18.93334961 37.81298828 C-22.17680577 39.88728258 -25.43340153 41.27685407 -28.98046875 42.76171875 C-31.07703221 43.90595548 -33.15409847 45.08658637 -35.2109375 46.30078125 C-36.34337891 46.96335938 -37.47582031 47.6259375 -38.64257812 48.30859375 C-40.41416761 49.35177821 -42.1847557 50.39663633 -43.95483398 51.44238281 C-45.68361207 52.46180268 -47.41598084 53.47512556 -49.1484375 54.48828125 C-50.17219482 55.09236816 -51.19595215 55.69645508 -52.25073242 56.31884766 C-54.56682325 57.54307597 -56.4238669 58.29993517 -58.98046875 58.76171875 C-58.98046875 59.42171875 -58.98046875 60.08171875 -58.98046875 60.76171875 C-59.89054687 61.11492187 -60.800625 61.468125 -61.73828125 61.83203125 C-67.38467462 64.2535363 -72.58056702 67.5082012 -77.85546875 70.63671875 C-79.93567423 71.86416919 -82.01639559 73.09074581 -84.09765625 74.31640625 C-85.09120117 74.90260742 -86.08474609 75.48880859 -87.10839844 76.09277344 C-90.4518781 78.0356523 -93.83440331 79.89669813 -97.24267578 81.72314453 C-99.14652706 82.7649633 -99.14652706 82.7649633 -100.98046875 84.76171875 C-109.11628383 64.60127132 -112.18720449 45.98361239 -103.46728516 25.25585938 C-96.98809491 10.9317515 -85.26502797 -2.42895474 -70.40625 -8.3671875 C-69.60574219 -8.65464844 -68.80523437 -8.94210938 -67.98046875 -9.23828125 C-66.48580078 -9.77775391 -66.48580078 -9.77775391 -64.9609375 -10.328125 C-42.61997003 -18.06895343 -18.95609152 -14.23570176 0 0 Z " fill="#659AD1" transform="translate(240.98046875,148.23828125)"/>
<path d="M0 0 C2.82181461 1.2601748 5.56818207 2.6425178 8.3125 4.0625 C9.05306641 4.43955078 9.79363281 4.81660156 10.55664062 5.20507812 C12.37387522 6.13128157 14.18732404 7.06490629 16 8 C16 8.66 16 9.32 16 10 C17.04051514 10.13946045 17.04051514 10.13946045 18.10205078 10.28173828 C21.62432056 11.15473893 24.23607309 12.65727481 27.3671875 14.4921875 C28.26390671 15.01209763 28.26390671 15.01209763 29.17874146 15.54251099 C31.08145239 16.64670554 32.97854918 17.7600934 34.875 18.875 C36.76490178 19.98167311 38.65598635 21.08615981 40.54983521 22.18606567 C42.27413014 23.18810888 43.99436432 24.19713022 45.71435547 25.20654297 C48.10346959 26.51063216 50.33032757 27.58278664 52.83251953 28.59814453 C56 30 56 30 57.3125 32.1875 C56.60014471 38.59869762 50.52690518 43.80433179 46 48 C45.071875 48.928125 44.14375 49.85625 43.1875 50.8125 C28.7776525 62.95704397 10.75127137 66.14774076 -7.52197266 65.21142578 C-22.3668429 63.94485853 -36.50137625 56.3378485 -47 46 C-49.89602338 42.47091441 -52.50214085 38.81878216 -55 35 C-55.66 34.01 -56.32 33.02 -57 32 C-56.94873047 30.01293945 -56.94873047 30.01293945 -56 28 C-53.76611328 26.37182617 -53.76611328 26.37182617 -50.8203125 24.79296875 C-49.74523437 24.20580078 -48.67015625 23.61863281 -47.5625 23.01367188 C-46.428125 22.41103516 -45.29375 21.80839844 -44.125 21.1875 C-41.91750759 19.99675263 -39.71176388 18.8027575 -37.5078125 17.60546875 C-35.88020996 16.7244751 -35.88020996 16.7244751 -34.21972656 15.82568359 C-30.1235807 13.50304341 -26.22243445 10.93390285 -22.33544922 8.27856445 C-20 7 -20 7 -16 7 C-16 6.34 -16 5.68 -16 5 C-14.28133783 3.9615789 -12.54955402 2.94485365 -10.8125 1.9375 C-9.36810547 1.08478516 -9.36810547 1.08478516 -7.89453125 0.21484375 C-4.46715735 -1.22363571 -3.46902001 -1.22436 0 0 Z " fill="#014582" transform="translate(198,202)"/>
<path d="M0 0 C0.66 0.33 1.32 0.66 2 1 C-3.94 6.94 -9.88 12.88 -16 19 C-16 14.80130728 -14.19810866 13.66463027 -11.375 10.625 C-10.9207666 10.13475342 -10.4665332 9.64450684 -9.99853516 9.1394043 C-6.85830473 5.79321137 -3.64356736 2.78061719 0 0 Z " fill="#E3ECF6" transform="translate(113,98)"/>
</svg>
