<?xml version="1.0" encoding="UTF-8"?>
<svg version="1.1" xmlns="http://www.w3.org/2000/svg" width="400" height="400">
<path d="M0 0 C0.93714844 -0.00773438 1.87429687 -0.01546875 2.83984375 -0.0234375 C7.47262548 -0.01029486 11.31085512 0.01342265 15.5 2.25 C15.5 2.91 15.5 3.57 15.5 4.25 C16.18449219 4.3325 16.86898437 4.415 17.57421875 4.5 C21.25342357 5.44313395 24.13629603 7.24503433 27.3125 9.25 C28.64198714 10.06972615 29.97276207 10.88736666 31.3046875 11.703125 C31.99143555 12.12400391 32.67818359 12.54488281 33.38574219 12.97851562 C36.85777005 15.06654347 40.39626216 17.0324143 43.9375 19 C48.55886595 21.57405703 53.10593882 24.19973029 57.55859375 27.05859375 C62.39184991 30.0246765 67.42815838 32.71407919 72.5 35.25 C72.5 35.91 72.5 36.57 72.5 37.25 C73.48033203 37.35634766 73.48033203 37.35634766 74.48046875 37.46484375 C78.67704385 38.55606185 82.08563903 40.63766514 85.8125 42.8125 C86.55306641 43.23724609 87.29363281 43.66199219 88.05664062 44.09960938 C89.87468118 45.14351653 91.68783748 46.19592192 93.5 47.25 C93.5 47.91 93.5 48.57 93.5 49.25 C94.18449219 49.3325 94.86898438 49.415 95.57421875 49.5 C99.25351931 50.44315849 102.13613793 52.24521946 105.3125 54.25 C106.65375253 55.07616258 107.99624157 55.90032047 109.33984375 56.72265625 C110.02804199 57.14434082 110.71624023 57.56602539 111.42529297 58.00048828 C114.69953288 59.9724299 118.03418953 61.83131008 121.375 63.6875 C127.95020907 67.34942568 134.44857338 71.12980332 140.91748047 74.97631836 C141.58924316 75.37471924 142.26100586 75.77312012 142.953125 76.18359375 C143.54254883 76.53478271 144.13197266 76.88597168 144.73925781 77.24780273 C146.62674132 78.32213992 148.54980896 79.2949847 150.5 80.25 C150.5 80.91 150.5 81.57 150.5 82.25 C151.82 82.25 153.14 82.25 154.5 82.25 C154.5 82.91 154.5 83.57 154.5 84.25 C155.07105469 84.36214844 155.64210938 84.47429687 156.23046875 84.58984375 C164.48456571 86.99077729 171.4009469 93.99059447 175.66752529 101.23140812 C179.46534721 109.52425777 179.07086904 118.0011565 179.03344727 126.91772461 C179.04051464 128.69443983 179.04926308 130.47114904 179.05955505 132.24784851 C179.08196687 137.04959422 179.0791286 141.85100903 179.07023358 146.65278697 C179.06510641 150.6710502 179.07243025 154.68925219 179.07970566 158.7075091 C179.09667857 168.19137287 179.09316508 177.67507564 179.07641602 187.15893555 C179.05949524 196.92251459 179.07533461 206.68564651 179.1076389 216.44917673 C179.13438152 224.85206202 179.14159825 233.25480852 179.13312382 241.65773207 C179.12820848 246.66757705 179.13033462 251.6771531 179.15091133 256.68696404 C179.1693421 261.39942965 179.16321985 266.11125485 179.13871193 270.8236866 C179.13372752 272.5461203 179.13713177 274.26860343 179.14986038 275.99099731 C179.23605667 288.6640399 177.52301362 298.85963854 168.5390625 308.45703125 C164.89361259 311.66251307 159.54847229 316.25 154.5 316.25 C154.5 316.91 154.5 317.57 154.5 318.25 C153.78457031 318.5903125 153.06914062 318.930625 152.33203125 319.28125 C145.46792865 322.62006317 138.98144852 326.32627516 132.515625 330.37890625 C129.37275262 332.32895271 126.18266338 334.13844021 122.9375 335.91015625 C119.79449935 337.63779923 116.67716156 339.4094713 113.5625 341.1875 C112.95760742 341.53280762 112.35271484 341.87811523 111.72949219 342.23388672 C108.23048513 344.23858525 104.7601264 346.28336679 101.3125 348.375 C97.90552562 350.44152544 94.45150248 352.37132277 90.9375 354.25 C86.54883001 356.59974116 82.4939212 359.2170481 78.47265625 362.1484375 C76.5 363.25 76.5 363.25 72.5 363.25 C72.5 363.91 72.5 364.57 72.5 365.25 C71.54222656 365.78367187 70.58445312 366.31734375 69.59765625 366.8671875 C61.51325826 371.38611658 53.49234134 375.99589446 45.52563477 380.71923828 C41.55839925 383.06382714 37.56561839 385.328268 33.5 387.5 C30.10872391 389.31381888 26.92097401 391.26144569 23.75 393.4375 C20.116067 395.92971258 16.60367083 397.6587807 12.5 399.25 C11.84 399.58 11.18 399.91 10.5 400.25 C7.17436507 400.57133703 3.83924106 400.57461365 0.5 400.625 C-0.40878906 400.66238281 -1.31757813 400.69976562 -2.25390625 400.73828125 C-9.53887615 400.83154544 -14.29406543 398.92589503 -20.5 395.25 C-21.43682617 394.71842285 -22.37365234 394.1868457 -23.33886719 393.63916016 C-26.36654984 391.9099815 -29.37240285 390.14733967 -32.375 388.375 C-33.37402344 387.78847656 -34.37304688 387.20195312 -35.40234375 386.59765625 C-37.41584336 385.41553712 -39.42862421 384.23219286 -41.44067383 383.04760742 C-45.55575496 380.62965655 -49.68087852 378.22908359 -53.80688477 375.82983398 C-56.4063452 374.30493974 -58.98735673 372.75303642 -61.5625 371.1875 C-65.89893981 368.57175951 -70.32460069 366.15358614 -74.78125 363.75 C-77.39437876 362.30827379 -79.94964215 360.79958452 -82.5 359.25 C-85.85024065 357.21461047 -89.23278243 355.2898818 -92.6875 353.4375 C-97.14020162 351.03554969 -101.48488531 348.49250888 -105.8125 345.875 C-114.95930275 340.34504755 -124.2458455 335.07365071 -133.56640625 329.84301758 C-154.53405422 318.07358235 -154.53405422 318.07358235 -162.66015625 312.4140625 C-164.60114623 311.0829522 -164.60114623 311.0829522 -167.5 310.25 C-169.4375 308.0625 -169.4375 308.0625 -171.5 305.25 C-172.180625 304.3425 -172.86125 303.435 -173.5625 302.5 C-179.24213466 292.97287089 -178.93550528 283.58748628 -178.90405273 272.87939453 C-178.90976189 271.12253385 -178.91672825 269.36567687 -178.92485046 267.60882568 C-178.94273767 262.85665164 -178.94162175 258.1046627 -178.93590808 253.35246515 C-178.93280951 249.37651179 -178.93891617 245.40059364 -178.94494683 241.4246453 C-178.95897615 232.04006556 -178.95744429 222.65557687 -178.94604492 213.27099609 C-178.93456769 203.60917713 -178.9486364 193.94763588 -178.9754414 184.28585351 C-178.99763752 175.97217332 -179.00422689 167.65858005 -178.99836498 159.34487236 C-178.99500327 154.38758369 -178.99735799 149.43047296 -179.01461601 144.47320938 C-179.03014533 139.80926575 -179.02606352 135.14573169 -179.00731087 130.48180389 C-179.00364138 128.77710673 -179.00668524 127.07237882 -179.01719666 125.36771011 C-179.08789164 112.94787137 -177.93931438 102.17555406 -169.6484375 92.29296875 C-165.49774016 88.34603291 -160.51362173 85.93805971 -155.5 83.25 C-152.63165757 81.58629236 -149.78610978 79.88471146 -146.9375 78.1875 C-141.35143894 74.88689789 -135.72725381 71.69108982 -130.00390625 68.6328125 C-126.45168886 66.6710575 -123.02170992 64.5218618 -119.59375 62.3515625 C-117.5 61.25 -117.5 61.25 -114.5 61.25 C-114.5 60.59 -114.5 59.93 -114.5 59.25 C-112.87477977 58.33581362 -111.24954795 57.42164782 -109.62426758 56.50756836 C-108.18901831 55.70012724 -106.75396464 54.89233837 -105.3190918 54.08422852 C-101.66113785 52.02471491 -98.00077883 49.96992025 -94.33203125 47.9296875 C-88.05265821 44.43035588 -81.84144656 40.88145219 -75.75 37.0625 C-70.81994066 33.98121291 -65.81664738 31.31930702 -60.546875 28.8671875 C-58.04124146 27.53727431 -55.82709852 26.14553858 -53.49609375 24.546875 C-47.50765028 20.48744341 -41.15646387 17.08612508 -34.8125 13.625 C-33.00774633 12.6384304 -31.20371631 11.6506159 -29.40141296 10.65957642 C-27.77483632 9.76539147 -26.14591472 8.87547596 -24.5168457 7.98583984 C-21.41396986 6.20049978 -18.46492564 4.25431603 -15.5 2.25 C-10.60784997 -0.4716891 -5.45008386 -0.04498006 0 0 Z " fill="#659AD2" transform="translate(200.5,-0.25)"/>
<path d="M0 0 C4.95661293 8.57630522 4.57362868 16.95868686 4.53344727 26.55419922 C4.54051293 28.33076695 4.54926066 30.10732866 4.55955505 31.88388062 C4.58198776 36.68981742 4.57912341 41.49542393 4.57023358 46.30139303 C4.56510969 50.32209143 4.57242773 54.34272853 4.57970566 58.36342061 C4.5966857 67.85350067 4.59315845 77.34341988 4.57641602 86.83349609 C4.55950029 96.60443869 4.57532604 106.37493434 4.6076389 116.14582813 C4.63438223 124.55293949 4.64159788 132.95991213 4.63312382 141.36706173 C4.62820798 146.380275 4.63033715 151.39321952 4.65091133 156.40639877 C4.6693428 161.12295481 4.66321899 165.83887101 4.63871193 170.55539322 C4.63372745 172.27943863 4.63713194 174.00353343 4.64986038 175.72753906 C4.73600934 188.40576468 3.02703024 198.60534765 -5.9609375 208.20703125 C-9.60638741 211.41251307 -14.95152771 216 -20 216 C-20 216.66 -20 217.32 -20 218 C-20.71542969 218.3403125 -21.43085938 218.680625 -22.16796875 219.03125 C-29.03207135 222.37006317 -35.51855148 226.07627516 -41.984375 230.12890625 C-45.12724738 232.07895271 -48.31733662 233.88844021 -51.5625 235.66015625 C-54.70550065 237.38779923 -57.82283844 239.1594713 -60.9375 240.9375 C-61.54239258 241.28280762 -62.14728516 241.62811523 -62.77050781 241.98388672 C-66.26951487 243.98858525 -69.7398736 246.03336679 -73.1875 248.125 C-76.59447438 250.19152544 -80.04849752 252.12132277 -83.5625 254 C-87.95116999 256.34974116 -92.0060788 258.9670481 -96.02734375 261.8984375 C-98 263 -98 263 -102 263 C-102 263.66 -102 264.32 -102 265 C-102.95777344 265.53367187 -103.91554688 266.06734375 -104.90234375 266.6171875 C-112.98674174 271.13611658 -121.00765866 275.74589446 -128.97436523 280.46923828 C-132.94160075 282.81382714 -136.93438161 285.078268 -141 287.25 C-144.39127609 289.06381888 -147.57902599 291.01144569 -150.75 293.1875 C-154.383933 295.67971258 -157.89632917 297.4087807 -162 299 C-162.66 299.33 -163.32 299.66 -164 300 C-167.32563493 300.32133703 -170.66075894 300.32461365 -174 300.375 C-174.90878906 300.41238281 -175.81757813 300.44976562 -176.75390625 300.48828125 C-184.03887615 300.58154544 -188.79406543 298.67589503 -195 295 C-195.93682617 294.46842285 -196.87365234 293.9368457 -197.83886719 293.38916016 C-200.86654984 291.6599815 -203.87240285 289.89733967 -206.875 288.125 C-207.87402344 287.53847656 -208.87304688 286.95195312 -209.90234375 286.34765625 C-211.91584336 285.16553712 -213.92862421 283.98219286 -215.94067383 282.79760742 C-220.05575496 280.37965655 -224.18087852 277.97908359 -228.30688477 275.57983398 C-230.9063452 274.05493974 -233.48735673 272.50303642 -236.0625 270.9375 C-240.39893981 268.32175951 -244.82460069 265.90358614 -249.28125 263.5 C-251.89437876 262.05827379 -254.44964215 260.54958452 -257 259 C-260.35024065 256.96461047 -263.73278243 255.0398818 -267.1875 253.1875 C-271.64020162 250.78554969 -275.98488531 248.24250888 -280.3125 245.625 C-289.45930275 240.09504755 -298.7458455 234.82365071 -308.06640625 229.59301758 C-329.03405422 217.82358235 -329.03405422 217.82358235 -337.16015625 212.1640625 C-339.10114623 210.8329522 -339.10114623 210.8329522 -342 210 C-343.640625 208.2578125 -343.640625 208.2578125 -345.25 206.125 C-346.06210937 205.07699219 -346.06210937 205.07699219 -346.890625 204.0078125 C-347.25671875 203.34523438 -347.6228125 202.68265625 -348 202 C-346.64793396 197.94380187 -344.76449923 197.35835425 -341.125 195.1875 C-340.54000732 194.8363916 -339.95501465 194.4852832 -339.35229492 194.12353516 C-334.83895009 191.43595728 -330.24394753 188.9092049 -325.61328125 186.4296875 C-322.23299779 184.58038444 -318.95445119 182.58084887 -315.66357422 180.578125 C-313.10773196 179.06382946 -310.52143838 177.64365225 -307.90234375 176.2421875 C-303.96239741 174.10466251 -300.09064941 171.88794905 -296.25390625 169.5703125 C-295.31482422 169.003125 -294.37574219 168.4359375 -293.40820312 167.8515625 C-291.48068084 166.68208432 -289.55628377 165.50744234 -287.63476562 164.328125 C-286.70470703 163.76867187 -285.77464844 163.20921875 -284.81640625 162.6328125 C-283.98568604 162.12637207 -283.15496582 161.61993164 -282.29907227 161.09814453 C-280 160 -280 160 -276 160 C-274.39453125 162.0546875 -274.39453125 162.0546875 -272.8125 164.875 C-263.83493694 179.85691168 -249.29818195 193.66645348 -234 202 C-233.23042969 202.47824219 -232.46085937 202.95648438 -231.66796875 203.44921875 C-225.61175629 207.08294623 -219.28412199 209.48295154 -212.625 211.75 C-211.77574951 212.04382568 -210.92649902 212.33765137 -210.05151367 212.64038086 C-198.7379163 216.34864919 -187.47878281 217.34977645 -175.625 217.25 C-174.44325195 217.24250732 -173.26150391 217.23501465 -172.04394531 217.22729492 C-154.3225752 217.00924947 -139.01911553 213.73777636 -123 206 C-122.38511719 205.72929687 -121.77023438 205.45859375 -121.13671875 205.1796875 C-111.72584695 200.85419363 -102.98713167 194.29619928 -95.48828125 187.21484375 C-94 186 -94 186 -92 186 C-91.67 185.01 -91.34 184.02 -91 183 C-90.34 183 -89.68 183 -89 183 C-88.77054687 182.45988281 -88.54109375 181.91976562 -88.3046875 181.36328125 C-86.61746632 178.30708719 -84.40291811 175.80855278 -82.125 173.1875 C-78.5535972 169.00403926 -75.46490605 164.9298121 -73 160 C-76.53422418 157.0461189 -80.13813732 154.61568759 -84.125 152.3125 C-85.15882813 151.71050781 -86.19265625 151.10851562 -87.2578125 150.48828125 C-89.96990043 148.9130341 -89.96990043 148.9130341 -93 148 C-93 147.34 -93 146.68 -93 146 C-93.79519043 145.85703491 -93.79519043 145.85703491 -94.60644531 145.71118164 C-97.78170062 144.76773828 -100.40843981 143.24243237 -103.296875 141.62109375 C-103.89050842 141.28956802 -104.48414185 140.9580423 -105.09576416 140.61647034 C-106.98299971 139.5611889 -108.86651347 138.49945558 -110.75 137.4375 C-112.0323116 136.7189717 -113.31486116 136.00086789 -114.59765625 135.28320312 C-117.73454256 133.52704475 -120.86812499 131.76508322 -124 130 C-124.30236572 130.78463623 -124.60473145 131.56927246 -124.91625977 132.37768555 C-128.41337734 140.83962289 -136.66142234 146.09301076 -144 151 C-144.89332031 151.61875 -144.89332031 151.61875 -145.8046875 152.25 C-158.00315685 160.01817949 -174.42414922 161.4031181 -188.37792969 158.50634766 C-203.83314257 154.22386607 -217.53378592 144.69264949 -226 131 C-226.34675781 130.443125 -226.69351563 129.88625 -227.05078125 129.3125 C-234.47225241 116.01689144 -236.46221307 99.51057188 -232.66064453 84.82397461 C-228.1359784 69.60816879 -218.44396618 56.50093555 -205 48 C-190.38213158 40.2443489 -173.54582967 37.91784711 -157.53491211 42.54907227 C-151.52691705 44.55736922 -146.04167431 47.17707753 -141 51 C-140.19046875 51.58652344 -139.3809375 52.17304688 -138.546875 52.77734375 C-132.77864869 57.13805376 -127.86194176 61.83623864 -124 68 C-124 68.66 -124 69.32 -124 70 C-120.22588634 67.92255875 -116.45399778 65.84114878 -112.68408203 63.75610352 C-111.40245368 63.04798848 -110.12023347 62.34094351 -108.83740234 61.63500977 C-106.98897541 60.61758625 -105.14274167 59.59627825 -103.296875 58.57421875 C-101.63156738 57.65515747 -101.63156738 57.65515747 -99.93261719 56.7175293 C-97.45888672 55.26875358 -95.28115741 53.72071561 -93 52 C-91.32820702 51.04488326 -89.63910894 50.1196755 -87.9375 49.21875 C-82.19653294 46.13097887 -76.59386054 42.84519217 -71 39.5 C-65.5274342 36.22734346 -60.04866387 32.99925201 -54.4375 29.96875 C-50.03762406 27.59228585 -45.74486669 25.07972684 -41.46972656 22.48681641 C-37.31172627 19.98363118 -33.09278628 17.58811839 -28.875 15.1875 C-27.97354248 14.67413086 -27.07208496 14.16076172 -26.14331055 13.63183594 C-24.31219016 12.58973227 -22.4807328 11.54822046 -20.64892578 10.50732422 C-18.1473248 9.08383256 -15.64948558 7.65395117 -13.15234375 6.22265625 C-11.70588448 5.39816497 -10.25927901 4.57393009 -8.8125 3.75 C-8.14782715 3.36739014 -7.4831543 2.98478027 -6.79833984 2.59057617 C-2.22801809 0 -2.22801809 0 0 0 Z " fill="#01599C" transform="translate(375,100)"/>
<path d="M0 0 C10.34554749 8.32856731 22.34867998 19.55385243 26.62890625 32.39453125 C24.31755918 33.7923024 22.00486792 35.18776734 19.69140625 36.58203125 C19.05138672 36.96939453 18.41136719 37.35675781 17.75195312 37.75585938 C14.33196624 39.81465745 10.89185492 41.81741143 7.39453125 43.7421875 C3.77314723 45.7385965 0.20146466 47.80762145 -3.359375 49.91015625 C-4.39513672 50.52117187 -5.43089844 51.1321875 -6.49804688 51.76171875 C-8.64306581 53.02952883 -10.78626387 54.30042414 -12.92773438 55.57421875 C-13.95705078 56.18007812 -14.98636719 56.7859375 -16.046875 57.41015625 C-16.97411377 57.95961914 -17.90135254 58.50908203 -18.85668945 59.07519531 C-21.07774658 60.24060872 -22.92161994 60.93397709 -25.37109375 61.39453125 C-29.37109375 55.64453125 -29.37109375 55.64453125 -29.37109375 53.39453125 C-30.36109375 53.06453125 -31.35109375 52.73453125 -32.37109375 52.39453125 C-34.06106698 50.75150172 -35.72325769 49.07981813 -37.37109375 47.39453125 C-41.97014889 43.00912415 -46.48070008 39.80242866 -52.37109375 37.39453125 C-53.23734375 37.02070313 -54.10359375 36.646875 -54.99609375 36.26171875 C-70.44705352 30.50784571 -87.32802774 31.80985645 -102.27734375 38.3359375 C-107.68337974 40.9316733 -112.15417479 44.12809856 -116.37109375 48.39453125 C-116.99886719 49.00941406 -117.62664062 49.62429687 -118.2734375 50.2578125 C-129.36040528 61.97554869 -135.05868577 76.80439891 -134.91430664 92.85058594 C-134.16248922 110.13652835 -126.56989309 124.38834453 -114.37109375 136.39453125 C-109.87261714 140.27612815 -104.79752896 143.02577432 -99.37109375 145.39453125 C-98.57832031 145.76964844 -97.78554687 146.14476562 -96.96875 146.53125 C-83.56343536 152.01261969 -66.9961556 151.14862989 -53.6484375 145.95703125 C-44.59704542 141.64170726 -36.33472275 136.21443856 -30.12109375 128.26953125 C-29.4353125 127.40070313 -28.74953125 126.531875 -28.04296875 125.63671875 C-26.35678819 123.51270055 -26.35678819 123.51270055 -25.37109375 121.39453125 C-21.25242609 122.64787501 -17.75709372 124.16955337 -14.078125 126.3984375 C-13.11841797 126.97400391 -12.15871094 127.54957031 -11.16992188 128.14257812 C-10.18443359 128.74134766 -9.19894531 129.34011719 -8.18359375 129.95703125 C-6.21246875 131.14837054 -4.23987763 132.33728842 -2.265625 133.5234375 C-1.39784424 134.0501001 -0.53006348 134.5767627 0.36401367 135.11938477 C2.67720125 136.51610906 2.67720125 136.51610906 5.62890625 137.39453125 C5.62890625 138.05453125 5.62890625 138.71453125 5.62890625 139.39453125 C6.14324219 139.47960937 6.65757812 139.5646875 7.1875 139.65234375 C10.62766619 140.69815427 13.59821859 142.4772169 16.69140625 144.26953125 C17.31595703 144.62144531 17.94050781 144.97335938 18.58398438 145.3359375 C21.61813048 147.07806195 24.33592865 148.72359031 26.62890625 151.39453125 C22.57256035 158.25510342 18.20933385 164.29844652 12.7421875 170.10546875 C10.59439613 172.357074 10.59439613 172.357074 8.7734375 174.84765625 C6.14817258 177.96545722 3.23029601 180.30200933 0.00390625 182.76953125 C-0.61492432 183.24777344 -1.23375488 183.72601563 -1.87133789 184.21875 C-16.23800547 195.25544455 -16.23800547 195.25544455 -24.37109375 198.39453125 C-26.08092673 199.20387061 -27.78910263 200.01671515 -29.49609375 200.83203125 C-56.93301785 213.2421931 -90.39802093 212.89445257 -118.37109375 202.39453125 C-119.62792969 201.94980469 -119.62792969 201.94980469 -120.91015625 201.49609375 C-130.94502569 197.76885653 -140.08258226 192.12894683 -148.37109375 185.39453125 C-149.38171875 184.59144531 -150.39234375 183.78835938 -151.43359375 182.9609375 C-158.69343471 177.08908546 -164.78773039 170.93426996 -170.37109375 163.39453125 C-171.29148437 162.16089844 -171.29148437 162.16089844 -172.23046875 160.90234375 C-191.91070742 133.646084 -197.80163699 102.29618775 -193.1328125 69.31640625 C-191.19899998 59.35975104 -188.04988457 49.40871539 -183.37109375 40.39453125 C-183.07219238 39.81735352 -182.77329102 39.24017578 -182.46533203 38.64550781 C-177.61800618 29.3929875 -172.32265751 21.24722364 -165.37109375 13.39453125 C-164.79875 12.69070312 -164.22640625 11.986875 -163.63671875 11.26171875 C-158.88066424 5.48650971 -153.28698184 0.9426792 -147.37109375 -3.60546875 C-146.58992188 -4.21390625 -145.80875 -4.82234375 -145.00390625 -5.44921875 C-135.06990116 -12.80774104 -123.84259745 -17.99639354 -112.18359375 -21.98046875 C-111.49652344 -22.21902588 -110.80945313 -22.45758301 -110.1015625 -22.70336914 C-71.93662976 -35.06319696 -30.68058472 -24.01128005 0 0 Z " fill="#FEFEFE" transform="translate(276.37109375,108.60546875)"/>
<path d="M0 0 C1.60546875 2.0546875 1.60546875 2.0546875 3.1875 4.875 C12.16506306 19.85691168 26.70181805 33.66645348 42 42 C42.76957031 42.47824219 43.53914063 42.95648438 44.33203125 43.44921875 C50.38824371 47.08294623 56.71587801 49.48295154 63.375 51.75 C64.64887573 52.19073853 64.64887573 52.19073853 65.94848633 52.64038086 C77.2620837 56.34864919 88.52121719 57.34977645 100.375 57.25 C101.55674805 57.24250732 102.73849609 57.23501465 103.95605469 57.22729492 C121.6774248 57.00924947 136.98088447 53.73777636 153 46 C153.61488281 45.72929687 154.22976562 45.45859375 154.86328125 45.1796875 C164.27415305 40.85419363 173.01286833 34.29619928 180.51171875 27.21484375 C182 26 182 26 184 26 C184.33 25.01 184.66 24.02 185 23 C185.66 23 186.32 23 187 23 C187.22816406 22.46246094 187.45632813 21.92492187 187.69140625 21.37109375 C189.39969004 18.2757855 191.63571801 15.72300127 193.9375 13.0625 C196.3804462 10.23550986 198.7030338 7.54379525 200.50390625 4.24609375 C202 2 202 2 204.15234375 0.3828125 C208.82387546 -0.2451849 211.74808449 2.37286586 215.5625 4.875 C217.3455337 5.99557198 219.1308254 7.11255649 220.91796875 8.2265625 C221.88653809 8.8340332 222.85510742 9.44150391 223.85302734 10.06738281 C229.61124998 13.60361946 235.49798388 16.91664277 241.375 20.25 C243.08345093 21.22235596 243.08345093 21.22235596 244.82641602 22.21435547 C249.46659747 24.85527242 254.10712106 27.49549148 258.75488281 30.12304688 C259.99547508 30.82676585 261.23603586 31.53054034 262.4765625 32.234375 C264.13679443 33.17361816 264.13679443 33.17361816 265.83056641 34.13183594 C268.97556035 35.9855945 271.98348805 37.9465673 275 40 C271.61017014 48.01232512 265.57450487 52.21945067 258 56 C257.34 56 256.68 56 256 56 C256 56.66 256 57.32 256 58 C255.28457031 58.3403125 254.56914062 58.680625 253.83203125 59.03125 C246.96792865 62.37006317 240.48144852 66.07627516 234.015625 70.12890625 C230.87275262 72.07895271 227.68266338 73.88844021 224.4375 75.66015625 C221.29449935 77.38779923 218.17716156 79.1594713 215.0625 80.9375 C214.45760742 81.28280762 213.85271484 81.62811523 213.22949219 81.98388672 C209.73048513 83.98858525 206.2601264 86.03336679 202.8125 88.125 C199.40552562 90.19152544 195.95150248 92.12132277 192.4375 94 C188.04883001 96.34974116 183.9939212 98.9670481 179.97265625 101.8984375 C178 103 178 103 174 103 C174 103.66 174 104.32 174 105 C173.04222656 105.53367187 172.08445312 106.06734375 171.09765625 106.6171875 C163.01325826 111.13611658 154.99234134 115.74589446 147.02563477 120.46923828 C143.05839925 122.81382714 139.06561839 125.078268 135 127.25 C131.60872391 129.06381888 128.42097401 131.01144569 125.25 133.1875 C121.616067 135.67971258 118.10367083 137.4087807 114 139 C113.34 139.33 112.68 139.66 112 140 C108.67436507 140.32133703 105.33924106 140.32461365 102 140.375 C100.63681641 140.43107422 100.63681641 140.43107422 99.24609375 140.48828125 C91.96112385 140.58154544 87.20593457 138.67589503 81 135 C80.06317383 134.46842285 79.12634766 133.9368457 78.16113281 133.38916016 C75.13345016 131.6599815 72.12759715 129.89733967 69.125 128.125 C68.12597656 127.53847656 67.12695312 126.95195312 66.09765625 126.34765625 C64.08415664 125.16553712 62.07137579 123.98219286 60.05932617 122.79760742 C55.94424504 120.37965655 51.81912148 117.97908359 47.69311523 115.57983398 C45.0936548 114.05493974 42.51264327 112.50303642 39.9375 110.9375 C35.60106019 108.32175951 31.17539931 105.90358614 26.71875 103.5 C24.10562124 102.05827379 21.55035785 100.54958452 19 99 C15.64975935 96.96461047 12.26721757 95.0398818 8.8125 93.1875 C4.35979838 90.78554969 0.01511469 88.24250888 -4.3125 85.625 C-13.45930275 80.09504755 -22.7458455 74.82365071 -32.06640625 69.59301758 C-53.03405422 57.82358235 -53.03405422 57.82358235 -61.16015625 52.1640625 C-63.10114623 50.8329522 -63.10114623 50.8329522 -66 50 C-67.640625 48.2578125 -67.640625 48.2578125 -69.25 46.125 C-69.79140625 45.42632812 -70.3328125 44.72765625 -70.890625 44.0078125 C-71.25671875 43.34523438 -71.6228125 42.68265625 -72 42 C-70.64793396 37.94380187 -68.76449923 37.35835425 -65.125 35.1875 C-64.54000732 34.8363916 -63.95501465 34.4852832 -63.35229492 34.12353516 C-58.83895009 31.43595728 -54.24394753 28.9092049 -49.61328125 26.4296875 C-46.23299779 24.58038444 -42.95445119 22.58084887 -39.66357422 20.578125 C-37.10773196 19.06382946 -34.52143838 17.64365225 -31.90234375 16.2421875 C-27.96239741 14.10466251 -24.09064941 11.88794905 -20.25390625 9.5703125 C-19.31482422 9.003125 -18.37574219 8.4359375 -17.40820312 7.8515625 C-15.48068084 6.68208432 -13.55628377 5.50744234 -11.63476562 4.328125 C-10.70470703 3.76867187 -9.77464844 3.20921875 -8.81640625 2.6328125 C-7.57032593 1.87315186 -7.57032593 1.87315186 -6.29907227 1.09814453 C-4 0 -4 0 0 0 Z " fill="#004482" transform="translate(99,260)"/>
<path d="M0 0 C1.24730465 0.87040172 2.47554383 1.76851671 3.6875 2.6875 C4.49703125 3.27402344 5.3065625 3.86054688 6.140625 4.46484375 C11.90885131 8.82555376 16.82555824 13.52373864 20.6875 19.6875 C20.6875 20.3475 20.6875 21.0075 20.6875 21.6875 C21.3475 22.0175 22.0075 22.3475 22.6875 22.6875 C22.04167969 22.99300781 21.39585937 23.29851562 20.73046875 23.61328125 C6.8082873 30.37439536 -6.41970147 38.46865939 -19.625 46.51953125 C-23.44032689 48.80184711 -27.35274652 50.89802644 -31.26074219 53.01635742 C-36.86119738 56.08316669 -42.39698174 59.26409385 -47.9375 62.4375 C-48.54623962 62.78588928 -49.15497925 63.13427856 -49.78216553 63.4932251 C-57.34838095 67.82460749 -64.91000728 72.16407613 -72.4375 76.5625 C-73.12279785 76.96049805 -73.8080957 77.35849609 -74.51416016 77.76855469 C-77.0430049 79.25533302 -79.22871666 80.60371666 -81.3125 82.6875 C-89.30113747 68.70738443 -92.02552903 52.16704901 -87.97314453 36.51147461 C-83.4484784 21.29566879 -73.75646618 8.18843555 -60.3125 -0.3125 C-41.2839215 -10.40829588 -18.78745058 -10.9376445 0 0 Z " fill="#659AD2" transform="translate(230.3125,148.3125)"/>
<path d="M0 0 C2.87450742 1.620242 5.36232943 3.56928859 7.88916016 5.68188477 C9.41998983 6.71889842 10.96060545 7.74173598 12.51416016 8.74438477 C13.56216797 9.4772168 13.56216797 9.4772168 14.63134766 10.22485352 C17.21575363 11.89264491 19.87122211 13.2162777 22.63916016 14.55688477 C30.42450324 18.33462506 37.69211122 22.88385214 44.88916016 27.68188477 C43.55611344 35.53605189 36.42778843 41.56308822 30.32666016 46.05688477 C28.5263758 47.28334387 26.71514515 48.49402766 24.88916016 49.68188477 C24.29490234 50.09180664 23.70064453 50.50172852 23.08837891 50.92407227 C10.91561834 58.71705546 -5.55194022 60.08148385 -19.48876953 57.18823242 C-33.47530777 53.31270557 -46.01909611 45.11805742 -54.67333984 33.43188477 C-56.11083984 30.68188477 -56.11083984 30.68188477 -56.01171875 28.7109375 C-54.70848617 25.77566218 -52.91747303 25.02460705 -50.13427734 23.46704102 C-49.08208008 22.86843262 -48.02988281 22.26982422 -46.94580078 21.65307617 C-45.80401367 21.02320801 -44.66222656 20.39333984 -43.48583984 19.74438477 C-41.10158662 18.42274929 -38.71932136 17.09756507 -36.33740234 15.77172852 C-35.73202637 15.43677368 -35.12665039 15.10181885 -34.50292969 14.75671387 C-30.47869701 12.51061177 -26.60886375 10.09942733 -22.75927734 7.56079102 C-6.75916097 -2.78055663 -6.75916097 -2.78055663 0 0 Z " fill="#014582" transform="translate(206.11083984375,201.318115234375)"/>
<path d="M0 0 C4.62 0 9.24 0 14 0 C14 4.29 14 8.58 14 13 C18.29 13 22.58 13 27 13 C27 17.29 27 21.58 27 26 C22.71 26 18.42 26 14 26 C14 30.62 14 35.24 14 40 C9.38 40 4.76 40 0 40 C0 35.71 0 31.42 0 27 C-3.96 27 -7.92 27 -12 27 C-12 22.38 -12 17.76 -12 13 C-8.04 13 -4.08 13 0 13 C0 8.71 0 4.42 0 0 Z " fill="#F3F7FA" transform="translate(292,180)"/>
<path d="M0 0 C4.29 0 8.58 0 13 0 C13 4.62 13 9.24 13 14 C17.29 14 21.58 14 26 14 C26 17.96 26 21.92 26 26 C21.71 26 17.42 26 13 26 C13 30.62 13 35.24 13 40 C8.71 40 4.42 40 0 40 C0 35.38 0 30.76 0 26 C-4.29 26 -8.58 26 -13 26 C-13 22.04 -13 18.08 -13 14 C-8.71 14 -4.42 14 0 14 C0 9.38 0 4.76 0 0 Z " fill="#FCFDFD" transform="translate(342,180)"/>
</svg>
