<?xml version="1.0" encoding="UTF-8"?>
<svg version="1.1" xmlns="http://www.w3.org/2000/svg" width="1333" height="1259">
<path d="M0 0 C0.93134766 0.53834473 1.86269531 1.07668945 2.82226562 1.63134766 C7.80164213 4.51685414 12.77052599 7.4199065 17.734375 10.33203125 C24.09771035 14.06325971 30.48349555 17.75478058 36.875 21.4375 C37.95475098 22.05979492 39.03450195 22.68208984 40.14697266 23.32324219 C42.33714534 24.58528726 44.52741243 25.84716852 46.71777344 27.10888672 C52.14659942 30.23680148 57.57319281 33.36858448 63 36.5 C65.16665583 37.75001879 67.3333225 39.00001878 69.5 40.25 C99.83333333 57.75 130.16666667 75.25 160.5 92.75 C161.57266113 93.36883057 162.64532227 93.98766113 163.75048828 94.62524414 C165.91557071 95.87435518 168.08060982 97.12354129 170.24560547 98.37280273 C175.68615706 101.51202309 181.12747216 104.64990563 186.5703125 107.78515625 C197.02206199 113.80747329 207.46299548 119.84669337 217.875 125.9375 C226.55262241 131.01275123 235.26605568 136.02258767 244 141 C253.72115617 146.5400173 263.40894658 152.13374809 273.06689453 157.78344727 C283.59084625 163.93766742 294.15380137 170.02369996 304.71777344 176.10888672 C310.14659942 179.23680148 315.57319281 182.36858448 321 185.5 C323.16665583 186.75001879 325.3333225 188.00001878 327.5 189.25 C340.5 196.75 353.5 204.25 366.5 211.75 C367.57282227 212.36891113 368.64564453 212.98782227 369.75097656 213.62548828 C371.91447476 214.87371034 374.07788643 216.12208239 376.24121094 217.37060547 C382.80994909 221.16132714 389.38203672 224.94616236 395.95629883 228.72729492 C399.21224967 230.6032497 402.46386898 232.48653157 405.71484375 234.37109375 C409.81580088 236.74746154 413.93298021 239.09078142 418.06640625 241.41015625 C428.98448898 247.59682604 438.34008584 253.89787746 447 263 C447.89847656 263.90363281 448.79695313 264.80726563 449.72265625 265.73828125 C466.92564669 283.66779315 477.17908669 308.19671214 477.13422108 333.03582287 C477.13657331 333.92768078 477.13892554 334.81953869 477.14134905 335.7384226 C477.14801205 338.73034641 477.14758164 341.72222652 477.14717102 344.7141571 C477.15047134 346.8797151 477.15419726 349.04527248 477.1583125 351.21082908 C477.16832174 357.16503167 477.17204757 363.11922418 477.17470181 369.073434 C477.17860811 375.49434405 477.18818631 381.91524615 477.19691467 388.33615112 C477.21573721 403.11242066 477.22593445 417.88868994 477.23437535 432.66496857 C477.23858539 439.9722287 477.24380697 447.27948801 477.24905988 454.58674745 C477.26695026 479.61632272 477.28194396 504.64589823 477.28938007 529.67547894 C477.28985483 531.2463416 477.29033071 532.81720427 477.29080774 534.38806694 C477.2911623 535.55654175 477.2911623 535.55654175 477.29152403 536.74862212 C477.29272518 540.69512634 477.29394065 544.64163055 477.29516602 548.58813477 C477.29540617 549.37132148 477.29564632 550.15450819 477.29589374 550.96142784 C477.30378086 576.33532689 477.32720044 601.70917911 477.35972196 627.08305773 C477.39406787 653.92955853 477.41373571 680.77603195 477.41702431 707.62255508 C477.41744183 710.57340579 477.41792139 713.52425649 477.41844749 716.47510719 C477.41857069 717.20165353 477.41869388 717.92819987 477.4188208 718.67676277 C477.42114711 730.33906916 477.43677533 742.00132092 477.45728934 753.66360789 C477.4776081 765.40177233 477.4826644 777.13986598 477.47351871 788.87804481 C477.46898385 795.22984882 477.47081299 801.58147649 477.49028015 807.93325615 C477.50798274 813.75987175 477.50685661 819.58618328 477.49138286 825.41280244 C477.48901753 827.50917038 477.49327379 829.60555979 477.50521151 831.70189508 C477.67302721 863.1451623 469.47519141 890.30851474 447.07421875 913.03125 C435.78575182 924.0766891 422.20369957 931.25523177 408.52459717 938.90112305 C402.27431383 942.3966602 396.07240068 945.97413374 389.875 949.5625 C387.72665181 950.80354004 385.57821435 952.04442554 383.4296875 953.28515625 C382.36975586 953.89762207 381.30982422 954.51008789 380.21777344 955.14111328 C374.81329351 958.26324607 369.40649893 961.38136526 364 964.5 C362.92878906 965.11810547 361.85757813 965.73621094 360.75390625 966.37304688 C355.31353925 969.51222374 349.87237045 972.64999629 344.4296875 975.78515625 C333.97793801 981.80747329 323.53700452 987.84669337 313.125 993.9375 C303.85500223 999.35921178 294.54168248 1004.70204915 285.21154785 1010.01922607 C276.0871716 1015.22045129 266.99867226 1020.48027878 257.93310547 1025.78344727 C247.40915375 1031.93766742 236.84619863 1038.02369996 226.28222656 1044.10888672 C220.85340058 1047.23680148 215.42680719 1050.36858448 210 1053.5 C207.83334417 1054.75001879 205.6666775 1056.00001878 203.5 1057.25 C202.4275 1057.86875 201.355 1058.4875 200.25 1059.125 C86.49999998 1124.75000001 86.49999998 1124.75000001 83.24951172 1126.62524414 C81.08442929 1127.87435518 78.91939018 1129.12354129 76.75439453 1130.37280273 C71.31384294 1133.51202309 65.87252784 1136.64990563 60.4296875 1139.78515625 C50.96171861 1145.24061712 41.49728148 1150.70112101 32.06494141 1156.21801758 C-46.02890778 1201.89273771 -46.02890778 1201.89273771 -90 1191 C-102.32560972 1187.6992435 -113.03086192 1181.34432278 -124 1175 C-124.93134766 1174.46165527 -125.86269531 1173.92331055 -126.82226562 1173.36865234 C-131.80164213 1170.48314586 -136.77052599 1167.5800935 -141.734375 1164.66796875 C-148.09771035 1160.93674029 -154.48349555 1157.24521942 -160.875 1153.5625 C-162.49462646 1152.62905762 -162.49462646 1152.62905762 -164.14697266 1151.67675781 C-166.33714534 1150.41471274 -168.52741243 1149.15283148 -170.71777344 1147.89111328 C-176.14659942 1144.76319852 -181.57319281 1141.63141552 -187 1138.5 C-189.16665583 1137.24998121 -191.3333225 1135.99998122 -193.5 1134.75 C-223.83333333 1117.25 -254.16666667 1099.75 -284.5 1082.25 C-285.57266113 1081.63116943 -286.64532227 1081.01233887 -287.75048828 1080.37475586 C-289.91557071 1079.12564482 -292.08060982 1077.87645871 -294.24560547 1076.62719727 C-299.68615706 1073.48797691 -305.12747216 1070.35009437 -310.5703125 1067.21484375 C-322.0544882 1060.59777108 -333.52196894 1053.95366023 -344.96582031 1047.26708984 C-355.52620282 1041.10080946 -366.12126766 1034.9950405 -376.71777344 1028.89111328 C-382.14659942 1025.76319852 -387.57319281 1022.63141552 -393 1019.5 C-395.16665583 1018.24998121 -397.3333225 1016.99998122 -399.5 1015.75 C-429.83333333 998.25 -460.16666667 980.75 -490.5 963.25 C-492.1092334 962.3216333 -492.1092334 962.3216333 -493.75097656 961.37451172 C-495.91447476 960.12628966 -498.07788643 958.87791761 -500.24121094 957.62939453 C-505.70565017 954.47594744 -511.17163645 951.32523904 -516.640625 948.1796875 C-521.00414571 945.66985979 -525.36315652 943.15246379 -529.71875 940.62890625 C-533.80981513 938.25863593 -537.91426151 935.91475517 -542.03125 933.58984375 C-569.03742334 918.20255259 -589.20252216 897.37017983 -597.85424805 866.93139648 C-600.21328567 858.1820544 -601.15087736 849.8424515 -601.13142776 840.82716274 C-601.1334804 839.932653 -601.13553303 839.03814326 -601.13764787 838.11652717 C-601.14329854 835.12165173 -601.14186301 832.12682256 -601.14044189 829.13194275 C-601.14302664 826.96195837 -601.1460401 824.79197446 -601.1494453 822.62199122 C-601.15750569 816.66039345 -601.15930433 810.69880772 -601.16004276 804.73720515 C-601.16189498 798.30686599 -601.16944315 791.87653306 -601.17617798 785.44619751 C-601.19073056 770.65318341 -601.19628688 755.86017062 -601.20086992 741.06715065 C-601.20320772 733.75333267 -601.20681057 726.43951546 -601.2105653 719.12569809 C-601.22339899 694.07824259 -601.23411844 669.03078753 -601.2375679 643.98332882 C-601.23778953 642.41173616 -601.23801132 640.8401435 -601.23823325 639.26855085 C-601.23845389 637.6932166 -601.23867437 636.11788236 -601.2388947 634.54254812 C-601.23933725 631.38228794 -601.23978436 628.22202776 -601.24023438 625.06176758 C-601.24034377 624.27820996 -601.24045316 623.49465233 -601.24056586 622.68735054 C-601.24419583 597.2851949 -601.26011453 571.8830678 -601.28342474 546.48092309 C-601.30803814 519.60939119 -601.32174143 492.73787561 -601.32293582 465.86633211 C-601.32310727 462.9147441 -601.32332269 459.96315608 -601.32357025 457.01156807 C-601.32362602 456.28483111 -601.32368179 455.55809416 -601.32373925 454.80933487 C-601.32488835 443.1303004 -601.33589833 431.4512953 -601.35045731 419.77227074 C-601.36484598 408.02648077 -601.36779406 396.28073153 -601.36001733 384.53493511 C-601.35611358 378.17567258 -601.3570272 371.8165086 -601.37107468 365.45725822 C-601.38382962 359.62975321 -601.38260192 353.80242064 -601.37048396 347.97491581 C-601.36852975 345.8726123 -601.37159255 343.7702965 -601.38032833 341.66801023 C-601.49995251 310.92058569 -592.25804784 283.84441648 -570.8125 261.25 C-559.36686434 250.34410305 -545.25964529 243.22741348 -531.53125 235.63671875 C-525.32383707 232.1974516 -519.18378807 228.65237882 -513.0625 225.0625 C-504.76627155 220.20050842 -496.45656671 215.36373127 -488.125 210.5625 C-487.04484619 209.93996338 -485.96469238 209.31742676 -484.85180664 208.67602539 C-482.66203666 207.41423174 -480.47217645 206.15259466 -478.28222656 204.89111328 C-472.85340062 201.76319854 -467.42677993 198.63146269 -462 195.5 C-455.47766725 191.73636081 -448.95486238 187.97355378 -442.4296875 184.21484375 C-431.93767906 178.16944841 -421.45518324 172.10889781 -411 166 C-399.45270484 159.25298806 -387.87097973 152.56660682 -376.28222656 145.89111328 C-370.85340058 142.76319852 -365.42680719 139.63141552 -360 136.5 C-357.83334417 135.24998121 -355.6666775 133.99998122 -353.5 132.75 C-352.4275 132.13125 -351.355 131.5125 -350.25 130.875 C-210.5 50.25 -210.5 50.25 -207.24951172 48.37475586 C-205.08442929 47.12564482 -202.91939018 45.87645871 -200.75439453 44.62719727 C-195.31384294 41.48797691 -189.87252784 38.35009437 -184.4296875 35.21484375 C-174.96171861 29.75938288 -165.49728148 24.29887899 -156.06494141 18.78198242 C-102.36598031 -12.62490871 -58.98031593 -34.11299589 0 0 Z " fill="#9E73D9" transform="translate(728,55)"/>
<path d="M0 0 C3.04097206 2.8552029 4.69981086 6.00110543 6.4375 9.75 C6.74316895 10.40742188 7.04883789 11.06484375 7.36376953 11.7421875 C12.68758904 23.61427678 15.15768552 36.0451154 15.13422108 49.03582287 C15.13657331 49.92768078 15.13892554 50.81953869 15.14134905 51.7384226 C15.14801205 54.73034641 15.14758164 57.72222652 15.14717102 60.7141571 C15.15047134 62.8797151 15.15419726 65.04527248 15.1583125 67.21082908 C15.16832174 73.16503167 15.17204757 79.11922418 15.17470181 85.073434 C15.17860811 91.49434405 15.18818631 97.91524615 15.19691467 104.33615112 C15.21573721 119.11242066 15.22593445 133.88868994 15.23437535 148.66496857 C15.23858539 155.9722287 15.24380697 163.27948801 15.24905988 170.58674745 C15.26695026 195.61632272 15.28194396 220.64589823 15.28938007 245.67547894 C15.28985483 247.2463416 15.29033071 248.81720427 15.29080774 250.38806694 C15.2911623 251.55654175 15.2911623 251.55654175 15.29152403 252.74862212 C15.29272518 256.69512634 15.29394065 260.64163055 15.29516602 264.58813477 C15.29540617 265.37132148 15.29564632 266.15450819 15.29589374 266.96142784 C15.30378086 292.33532689 15.32720044 317.70917911 15.35972196 343.08305773 C15.39406787 369.92955853 15.41373571 396.77603195 15.41702431 423.62255508 C15.41744183 426.57340579 15.41792139 429.52425649 15.41844749 432.47510719 C15.41857069 433.20165353 15.41869388 433.92819987 15.4188208 434.67676277 C15.42114711 446.33906916 15.43677533 458.00132092 15.45728934 469.66360789 C15.4776081 481.40177233 15.4826644 493.13986598 15.47351871 504.87804481 C15.46898385 511.22984882 15.47081299 517.58147649 15.49028015 523.93325615 C15.50798274 529.75987175 15.50685661 535.58618328 15.49138286 541.41280244 C15.48901753 543.50917038 15.49327379 545.60555979 15.50521151 547.70189508 C15.67302721 579.1451623 7.47519141 606.30851474 -14.92578125 629.03125 C-26.21424818 640.0766891 -39.79630043 647.25523177 -53.47540283 654.90112305 C-59.72568617 658.3966602 -65.92759932 661.97413374 -72.125 665.5625 C-74.27334819 666.80354004 -76.42178565 668.04442554 -78.5703125 669.28515625 C-79.63024414 669.89762207 -80.69017578 670.51008789 -81.78222656 671.14111328 C-87.18670649 674.26324607 -92.59350107 677.38136526 -98 680.5 C-99.07121094 681.11810547 -100.14242187 681.73621094 -101.24609375 682.37304688 C-106.68646075 685.51222374 -112.12762955 688.64999629 -117.5703125 691.78515625 C-128.02206199 697.80747329 -138.46299548 703.84669337 -148.875 709.9375 C-158.14499777 715.35921178 -167.45831752 720.70204915 -176.78845215 726.01922607 C-185.9128284 731.22045129 -195.00132774 736.48027878 -204.06689453 741.78344727 C-214.59084625 747.93766742 -225.15380137 754.02369996 -235.71777344 760.10888672 C-241.14659942 763.23680148 -246.57319281 766.36858448 -252 769.5 C-254.16665583 770.75001879 -256.3333225 772.00001878 -258.5 773.25 C-260.10875 774.178125 -260.10875 774.178125 -261.75 775.125 C-375.50000002 840.75000001 -375.50000002 840.75000001 -378.75048828 842.62524414 C-380.91557071 843.87435518 -383.08060982 845.12354129 -385.24560547 846.37280273 C-390.68615706 849.51202309 -396.12747216 852.64990563 -401.5703125 855.78515625 C-411.03828139 861.24061712 -420.50271852 866.70112101 -429.93505859 872.21801758 C-508.02890778 917.89273771 -508.02890778 917.89273771 -552 907 C-564.32560972 903.6992435 -575.03086192 897.34432278 -586 891 C-587.39702148 890.19248291 -587.39702148 890.19248291 -588.82226562 889.36865234 C-593.80164213 886.48314586 -598.77052599 883.5800935 -603.734375 880.66796875 C-610.09771035 876.93674029 -616.48349555 873.24521942 -622.875 869.5625 C-624.49462646 868.62905762 -624.49462646 868.62905762 -626.14697266 867.67675781 C-628.33714534 866.41471274 -630.52741243 865.15283148 -632.71777344 863.89111328 C-638.14659942 860.76319852 -643.57319281 857.63141552 -649 854.5 C-651.16665583 853.24998121 -653.3333225 851.99998122 -655.5 850.75 C-685.83333333 833.25 -716.16666667 815.75 -746.5 798.25 C-747.57266113 797.63116943 -748.64532227 797.01233887 -749.75048828 796.37475586 C-751.91557071 795.12564482 -754.08060982 793.87645871 -756.24560547 792.62719727 C-761.68615706 789.48797691 -767.12747216 786.35009437 -772.5703125 783.21484375 C-784.0544882 776.59777108 -795.52196894 769.95366023 -806.96582031 763.26708984 C-817.52620282 757.10080946 -828.12126766 750.9950405 -838.71777344 744.89111328 C-844.14659942 741.76319852 -849.57319281 738.63141552 -855 735.5 C-857.16665583 734.24998121 -859.3333225 732.99998122 -861.5 731.75 C-891.83333333 714.25 -922.16666667 696.75 -952.5 679.25 C-954.1092334 678.3216333 -954.1092334 678.3216333 -955.75097656 677.37451172 C-957.91447476 676.12628966 -960.07788643 674.87791761 -962.24121094 673.62939453 C-967.70565017 670.47594744 -973.17163645 667.32523904 -978.640625 664.1796875 C-983.00414571 661.66985979 -987.36315652 659.15246379 -991.71875 656.62890625 C-995.80981513 654.25863593 -999.91426151 651.91475517 -1004.03125 649.58984375 C-1022.16177456 639.25962567 -1038.01057491 627.16689335 -1049 609 C-1049 608.34 -1049 607.68 -1049 607 C-1047.9790625 606.44054687 -1046.958125 605.88109375 -1045.90625 605.3046875 C-1036.00197797 599.85246465 -1026.20288134 594.23743204 -1016.44677734 588.5246582 C-1009.02161201 584.17689815 -1001.58002227 579.85886151 -994.125 575.5625 C-993.04686035 574.94101074 -991.9687207 574.31952148 -990.85791016 573.67919922 C-986.47536799 571.1535448 -982.09216077 568.62904571 -977.70898438 566.10449219 C-966.12318234 559.43043688 -954.54446647 552.74535916 -943 546 C-929.26944812 537.97732489 -915.48922034 530.04141741 -901.70898438 522.10449219 C-888.98630101 514.77553109 -876.27693032 507.42515451 -863.59912109 500.01879883 C-854.41419241 494.65359741 -845.2100893 489.32186764 -836 484 C-831.81419751 487.6700164 -829.24688629 492.17702141 -826.375 496.875 C-815.27906664 514.69369403 -802.70389042 531.11361429 -788.359375 546.453125 C-786.43753368 548.52769543 -784.60843582 550.63034142 -782.8125 552.8125 C-780.16813008 555.94937435 -777.18184445 558.5404808 -774.05859375 561.19140625 C-771.99675493 563.00285098 -770.09623288 564.90381369 -768.1875 566.875 C-763.95640791 571.14685405 -759.41629555 574.9216537 -754.70214844 578.6484375 C-752.82520749 580.13879107 -750.96421717 581.64808602 -749.1015625 583.15625 C-731.93074121 596.92207023 -713.48868128 608.79320911 -694 619 C-693.18837402 619.43231934 -692.37674805 619.86463867 -691.54052734 620.31005859 C-652.77270551 640.87334536 -610.42810698 653.27739943 -567 659 C-565.77708252 659.17660156 -564.55416504 659.35320313 -563.29418945 659.53515625 C-550.09857135 661.31789921 -536.89813089 661.372268 -523.6003418 661.37060547 C-519.732452 661.37494951 -515.86573396 661.41130749 -511.99804688 661.44921875 C-475.34867693 661.61409081 -439.49008615 654.39357664 -404.8125 642.8125 C-404.09422028 642.57322784 -403.37594055 642.33395569 -402.63589478 642.08743286 C-391.54631752 638.37462353 -380.78432434 634.28515842 -370.27734375 629.11816406 C-367.91463748 627.95808744 -365.53682555 626.83383258 -363.15625 625.7109375 C-338.45315355 613.89291769 -315.86984559 598.68526174 -295 581 C-293.96542848 580.15032919 -292.93023777 579.30141194 -291.89453125 578.453125 C-278.57367972 567.42447263 -265.65053578 555.24468477 -255.015625 541.57421875 C-253.12569258 539.16052599 -251.14948529 536.844874 -249.13525391 534.53466797 C-235.69879709 519.04272217 -222.96896143 501.48102154 -214 483 C-214.57105469 482.67950684 -215.14210938 482.35901367 -215.73046875 482.02880859 C-227.81374282 475.24037143 -239.84560648 468.37311092 -251.80712891 461.37231445 C-259.14828545 457.07647908 -266.50577629 452.81000416 -273.875 448.5625 C-274.95354248 447.94076904 -276.03208496 447.31903809 -277.14331055 446.6784668 C-280.42860776 444.78518248 -283.71423989 442.89248083 -287 441 C-300.65876116 433.13303994 -314.30774389 425.25095385 -327.9152832 417.2956543 C-333.32654217 414.13463073 -338.74562051 410.98778218 -344.17578125 407.859375 C-344.77349335 407.5149939 -345.37120544 407.17061279 -345.98703003 406.8157959 C-348.89465649 405.14108368 -351.80326482 403.46811326 -354.71289062 401.796875 C-355.75251953 401.19875 -356.79214844 400.600625 -357.86328125 399.984375 C-358.78407471 399.45553711 -359.70486816 398.92669922 -360.65356445 398.38183594 C-362.47062767 397.31175189 -364.24541946 396.16972036 -366 395 C-368.03802566 394.90771527 -368.03802566 394.90771527 -370 396 C-371.93170542 398.38307466 -371.93170542 398.38307466 -373.6875 401.375 C-397.08647989 437.94673894 -432.1871214 463.37545189 -473 477 C-473.76465576 477.25998779 -474.52931152 477.51997559 -475.31713867 477.7878418 C-518.31630152 491.63502983 -565.91968909 483.59050232 -605.57641602 463.84106445 C-615.34147578 458.79422138 -624.22814148 452.59634453 -633 446 C-633.96164062 445.28457031 -634.92328125 444.56914063 -635.9140625 443.83203125 C-672.43242658 415.3124025 -696.1564771 372.367572 -702.60888672 326.63232422 C-705.51936753 299.60227832 -702.10455722 272.84128585 -694 247 C-693.78005371 246.29214355 -693.56010742 245.58428711 -693.33349609 244.85498047 C-686.10113089 222.23365652 -673.29290869 200.37116223 -656.9921875 183.11328125 C-655.16842602 181.17866368 -653.49582305 179.18099905 -651.8125 177.125 C-625.57994203 147.29894093 -581.18293259 126.70189655 -541.72216797 124.12890625 C-488.70214538 121.61818231 -441.21144247 135.69519591 -401.5625 171.6875 C-397.04400748 175.87188377 -392.91980284 180.25451807 -389 185 C-388.24332031 185.86882812 -387.48664062 186.73765625 -386.70703125 187.6328125 C-380.08568211 195.33205569 -374.4795994 203.4658154 -369 212 C-365.19439766 211.41933397 -362.473423 210.33578266 -359.17578125 208.3671875 C-358.24314453 207.81611328 -357.31050781 207.26503906 -356.34960938 206.69726562 C-355.34736328 206.09591797 -354.34511719 205.49457031 -353.3125 204.875 C-351.14235965 203.59041478 -348.97177137 202.30658605 -346.80078125 201.0234375 C-345.67881348 200.35795898 -344.5568457 199.69248047 -343.40087891 199.00683594 C-337.95842745 195.79528167 -332.47889887 192.64883038 -327 189.5 C-318.65150737 184.69237053 -310.31756214 179.86093965 -302 175 C-288.26953183 166.97718322 -274.48921914 159.04141672 -260.70898438 151.10449219 C-245.11034959 142.11882586 -229.54162208 133.08389858 -214 124 C-196.27238229 113.63841222 -178.50230086 103.35280889 -160.70898438 93.10449219 C-149.01788272 86.36977855 -137.33530863 79.62187233 -125.6875 72.8125 C-117.3469638 67.93691338 -108.97903105 63.11278704 -100.58520508 58.32958984 C-92.48211801 53.71093045 -84.4100258 49.03978095 -76.34277344 44.35888672 C-72.39667282 42.07001677 -68.44820941 39.78522976 -64.5 37.5 C-62.91665553 36.58335258 -61.33332219 35.66668592 -59.75 34.75 C-50.25000001 29.25 -50.25000001 29.25 -47.87451172 27.87475586 C-46.2927614 26.95898 -44.7110556 26.04312725 -43.12939453 25.12719727 C-39.14720428 22.8212656 -35.16422545 20.51671664 -31.1796875 18.21484375 C-20.75763036 12.19168627 -10.36617753 6.11883206 0 0 Z " fill="#3A0092" transform="translate(1190,339)"/>
<path d="M0 0 C1.47572479 0.00140488 1.47572479 0.00140488 2.98126221 0.00283813 C16.93010056 0.0316645 30.73942314 0.1334685 44.5625 2.1875 C45.72378418 2.35942871 46.88506836 2.53135742 48.08154297 2.70849609 C68.91631166 5.86976091 89.02810758 9.99979744 109 16.75 C109.77664001 17.0110553 110.55328003 17.2721106 111.35345459 17.54107666 C141.58473862 27.74055791 170.24554662 40.99957653 196.5625 59.1875 C197.1694873 59.60451172 197.77647461 60.02152344 198.40185547 60.45117188 C207.40238413 66.66645749 216.08219156 73.28156485 224.5625 80.1875 C225.11389648 80.63303223 225.66529297 81.07856445 226.23339844 81.53759766 C235.49103328 89.08216282 243.97975336 97.397348 252.4375 105.8125 C252.97170563 106.3414386 253.50591125 106.8703772 254.05630493 107.41534424 C261.03327467 114.33906695 267.43053842 121.49070083 273.5625 129.1875 C274.49731406 130.28929887 275.43867671 131.38562703 276.390625 132.47265625 C288.80195426 146.70564836 299.21952647 162.42145387 309.5625 178.1875 C306.14751433 182.07776718 302.31217408 184.16969838 297.8125 186.5625 C290.48788522 190.54454458 283.25389093 194.65714258 276.0625 198.875 C267.62008804 203.81964847 259.1644193 208.73971483 250.6875 213.625 C249.07029053 214.55723389 249.07029053 214.55723389 247.42041016 215.50830078 C243.03786799 218.0339552 238.65466077 220.55845429 234.27148438 223.08300781 C221.70879811 230.31980183 209.15956747 237.57804255 196.64282227 244.89404297 C187.79005283 250.0645831 178.9110288 255.18895894 170.02539062 260.30273438 C168.99220703 260.89763672 167.95902344 261.49253906 166.89453125 262.10546875 C165.98421143 262.62906982 165.0738916 263.1526709 164.13598633 263.69213867 C162.37914006 264.71297952 160.65993041 265.80072869 158.97924805 266.94262695 C156.5625 268.1875 156.5625 268.1875 154.40063477 268.07128906 C151.05483661 266.46260407 149.43959473 262.9826463 147.5 259.9375 C142.36430656 252.17007873 136.71832991 245.15972809 130.5625 238.1875 C129.840625 237.34316406 129.11875 236.49882813 128.375 235.62890625 C124.10716295 230.68588404 119.60030637 226.33738131 114.5625 222.1875 C113.83675781 221.57390625 113.11101562 220.9603125 112.36328125 220.328125 C94.6969869 205.72788174 75.20856857 195.4955943 53.5625 188.1875 C52.42167969 187.78660156 51.28085937 187.38570312 50.10546875 186.97265625 C41.1158487 183.97611623 31.91521798 182.52830495 22.5625 181.1875 C21.36496094 181.00058594 20.16742187 180.81367188 18.93359375 180.62109375 C-15.15797195 176.51402928 -49.81728459 183.01832836 -80.4375 198.1875 C-81.07945312 198.49768066 -81.72140625 198.80786133 -82.3828125 199.12744141 C-96.22594853 205.86030412 -109.11277727 214.60817988 -120.3125 225.18359375 C-122.31255666 227.06967659 -124.38148998 228.81224661 -126.5 230.5625 C-131.46063919 234.89558845 -135.40833719 240.00124428 -139.4375 245.1875 C-140.18128906 246.12722656 -140.92507813 247.06695313 -141.69140625 248.03515625 C-156.45638035 267.11407061 -167.16295696 288.91226893 -173.4375 312.1875 C-173.63569336 312.91420898 -173.83388672 313.64091797 -174.03808594 314.38964844 C-186.24963605 360.04395974 -178.98106324 406.91649828 -156.4375 448.1875 C-153.40597046 453.40840136 -150.01206714 458.32724622 -146.4375 463.1875 C-146.02983398 463.75452637 -145.62216797 464.32155273 -145.20214844 464.90576172 C-130.37003115 485.40349107 -111.31849285 501.65398303 -89.4375 514.1875 C-88.31472656 514.84234375 -87.19195313 515.4971875 -86.03515625 516.171875 C-47.35371761 538.14923879 0.16237426 544.35985783 43.21826172 533.24365234 C56.98322855 529.27395246 70.06760564 524.18352148 82.5625 517.1875 C83.75547374 516.55533145 84.94948953 515.92512551 86.14453125 515.296875 C98.96298523 508.42639453 110.03919001 499.16564636 120.5625 489.1875 C121.51769531 488.28515625 122.47289062 487.3828125 123.45703125 486.453125 C135.07996025 475.2675575 144.33398187 462.3596582 153.5625 449.1875 C156.9539178 449.85763395 159.5737775 451.16296055 162.578125 452.85546875 C163.56949463 453.41169922 164.56086426 453.96792969 165.58227539 454.54101562 C166.64824951 455.14623047 167.71422363 455.75144531 168.8125 456.375 C170.48010376 457.31569336 170.48010376 457.31569336 172.18139648 458.27539062 C182.70800134 464.23151666 193.15711869 470.31899181 203.58740234 476.44189453 C208.53308271 479.34371749 213.48493134 482.23495317 218.4375 485.125 C219.42387451 485.70064697 220.41024902 486.27629395 221.42651367 486.86938477 C232.02343357 493.04812886 242.65097407 499.17356934 253.28027344 505.29638672 C258.70909942 508.42430148 264.13569329 511.55608365 269.5625 514.6875 C271.69530164 515.91798758 273.82811418 517.14845625 275.9609375 518.37890625 C286.828125 524.6484375 297.6953125 530.91796875 308.5625 537.1875 C308.5625 540.48939501 308.04081633 541.4489517 306.39453125 544.22265625 C305.92023682 545.0228418 305.44594238 545.82302734 304.95727539 546.64746094 C304.43512451 547.50629883 303.91297363 548.36513672 303.375 549.25 C302.83544678 550.14106445 302.29589355 551.03212891 301.73999023 551.95019531 C292.9664456 566.23582848 282.85027423 579.47945038 272.109375 592.33203125 C270.6549065 594.07665887 269.21710502 595.83380199 267.78125 597.59375 C255.82559998 612.07116283 242.41470256 625.69053436 227.5625 637.1875 C225.70519596 638.76715191 223.85122867 640.35073257 222 641.9375 C201.39236637 659.07074495 178.49436704 672.27724191 154.5625 684.1875 C153.77037109 684.58533691 152.97824219 684.98317383 152.16210938 685.39306641 C127.57703983 697.58518924 100.45116366 706.02753527 73.5625 711.1875 C72.0472876 711.48043945 72.0472876 711.48043945 70.50146484 711.77929688 C63.87280329 713.0390713 57.23902564 714.21169595 50.5625 715.1875 C49.43078369 715.36627686 48.29906738 715.54505371 47.13305664 715.72924805 C34.14565031 717.54779275 21.16924371 717.52510433 8.07348633 717.50317383 C4.16393662 717.5000313 0.25515893 717.52348519 -3.65429688 717.54882812 C-24.4896124 717.60167397 -45.06383606 716.07930571 -65.5 711.875 C-66.55687012 711.66335205 -67.61374023 711.4517041 -68.70263672 711.23364258 C-71.95216339 710.57145215 -75.19548648 709.88549166 -78.4375 709.1875 C-79.48824707 708.96191406 -80.53899414 708.73632812 -81.62158203 708.50390625 C-134.55511534 696.93516367 -184.05717719 672.83923301 -226.4375 639.1875 C-227.37078125 638.44886719 -228.3040625 637.71023438 -229.265625 636.94921875 C-235.232769 632.14993008 -240.91052761 627.09745098 -246.515625 621.88671875 C-249.22628029 619.38262409 -251.9802361 616.93823155 -254.75 614.5 C-258.27215481 611.33508435 -261.43941837 608.07044054 -264.484375 604.44921875 C-266.43811451 602.1867884 -268.47904802 600.02382725 -270.53979492 597.85913086 C-306.81233083 559.5278363 -329.79126154 511.00453282 -345.4375 461.1875 C-345.71464844 460.30868164 -345.99179687 459.42986328 -346.27734375 458.52441406 C-352.47675173 438.5438897 -355.78921485 417.65119759 -358.12890625 396.90087891 C-358.32750818 395.15462748 -358.53512462 393.40936546 -358.75390625 391.66552734 C-361.81506049 367.20051139 -362.19142972 340.95718621 -358.76269531 316.50976562 C-358.39724239 313.90001474 -358.06926638 311.28670392 -357.7421875 308.671875 C-357.0404243 303.16674468 -356.26008877 297.67577746 -355.4375 292.1875 C-355.24671875 290.90359375 -355.0559375 289.6196875 -354.859375 288.296875 C-344.01987855 224.09370373 -311.78821716 159.45773645 -265.0402832 113.81884766 C-263.42697435 112.17678676 -261.95822183 110.46767032 -260.5 108.6875 C-257.84333571 105.53705779 -254.94523213 102.90666835 -251.8046875 100.24609375 C-249.50967357 98.2502648 -247.30575028 96.1756607 -245.10302734 94.07910156 C-237.70440515 87.07936945 -229.82771919 80.87697809 -221.64355469 74.82421875 C-219.48235673 73.22078016 -217.33848083 71.59617205 -215.1953125 69.96875 C-203.21755508 60.97997261 -190.52077876 53.44871971 -177.4375 46.1875 C-176.49777344 45.66269043 -175.55804688 45.13788086 -174.58984375 44.59716797 C-121.3368674 15.09644215 -60.76415253 -0.07453301 0 0 Z " fill="#FEFEFE" transform="translate(667.4375,283.8125)"/>
<path d="M0 0 C4.18580249 3.6700164 6.75311371 8.17702141 9.625 12.875 C20.72093336 30.69369403 33.29610958 47.11361429 47.640625 62.453125 C49.56246632 64.52769543 51.39156418 66.63034142 53.1875 68.8125 C55.83186992 71.94937435 58.81815555 74.5404808 61.94140625 77.19140625 C64.00324507 79.00285098 65.90376712 80.90381369 67.8125 82.875 C72.04359209 87.14685405 76.58370445 90.9216537 81.29785156 94.6484375 C83.17479251 96.13879107 85.03578283 97.64808602 86.8984375 99.15625 C104.06925879 112.92207023 122.51131872 124.79320911 142 135 C142.81162598 135.43231934 143.62325195 135.86463867 144.45947266 136.31005859 C183.22729449 156.87334536 225.57189302 169.27739943 269 175 C270.22291748 175.17660156 271.44583496 175.35320312 272.70581055 175.53515625 C285.90142865 177.31789921 299.10186911 177.372268 312.3996582 177.37060547 C316.267548 177.37494951 320.13426604 177.41130749 324.00195312 177.44921875 C360.65132307 177.61409081 396.50991385 170.39357664 431.1875 158.8125 C431.90577972 158.57322784 432.62405945 158.33395569 433.36410522 158.08743286 C444.45368248 154.37462353 455.21567566 150.28515842 465.72265625 145.11816406 C468.08536252 143.95808744 470.46317445 142.83383258 472.84375 141.7109375 C497.54684645 129.89291769 520.13015441 114.68526174 541 97 C542.03457152 96.15032919 543.06976223 95.30141194 544.10546875 94.453125 C557.42632028 83.42447263 570.34946422 71.24468477 580.984375 57.57421875 C582.87430742 55.16052599 584.85051471 52.844874 586.86474609 50.53466797 C597.81523322 37.90899177 607.19394637 24.25020858 615.59912109 9.81640625 C620.24115551 2.02075933 620.24115551 2.02075933 625 0 C635.94673878 5.99859171 646.78153793 12.1678856 657.55322266 18.4753418 C664.97838752 22.82310157 672.41994096 27.14120282 679.875 31.4375 C680.95458984 32.05971436 682.03417969 32.68192871 683.14648438 33.32299805 C685.3368252 34.58511517 687.52725502 35.84707785 689.71777344 37.10888672 C695.14659942 40.23680148 700.57319281 43.36858448 706 46.5 C708.16665583 47.75001879 710.3333225 49.00001878 712.5 50.25 C777.5 87.75 777.5 87.75 780.75292969 89.62670898 C782.90980903 90.87104998 785.06670992 92.11535364 787.22363281 93.35961914 C792.21034826 96.23636737 797.19687102 99.11344738 802.18258667 101.9919281 C819.57060073 112.03201808 819.57060073 112.03201808 837 122 C834.64612119 134.63056921 819.32324576 147.95573834 809.265625 155.19140625 C800.72313636 160.99662892 791.53486493 165.86483665 782.52458191 170.90113831 C776.27429505 174.39665493 770.07239457 177.97413728 763.875 181.5625 C761.72665181 182.80354004 759.57821435 184.04442554 757.4296875 185.28515625 C756.36975586 185.89762207 755.30982422 186.51008789 754.21777344 187.14111328 C748.81329351 190.26324607 743.40649893 193.38136526 738 196.5 C736.92878906 197.11810547 735.85757813 197.73621094 734.75390625 198.37304688 C729.31353925 201.51222374 723.87237045 204.64999629 718.4296875 207.78515625 C707.97793801 213.80747329 697.53700452 219.84669337 687.125 225.9375 C677.85500223 231.35921178 668.54168248 236.70204915 659.21154785 242.01922607 C650.0871716 247.22045129 640.99867226 252.48027878 631.93310547 257.78344727 C621.40915375 263.93766742 610.84619863 270.02369996 600.28222656 276.10888672 C594.85340058 279.23680148 589.42680719 282.36858448 584 285.5 C581.83334417 286.75001879 579.6666775 288.00001878 577.5 289.25 C576.4275 289.86875 575.355 290.4875 574.25 291.125 C460.5 356.75 460.5 356.75 457.24951172 358.62524414 C455.08442929 359.87435518 452.91939018 361.12354129 450.75439453 362.37280273 C445.31384294 365.51202309 439.87252784 368.64990563 434.4296875 371.78515625 C424.96171861 377.24061712 415.49728148 382.70112101 406.06494141 388.21801758 C327.97109222 433.89273771 327.97109222 433.89273771 284 423 C271.67439028 419.6992435 260.96913808 413.34432278 250 407 C248.60297852 406.19248291 248.60297852 406.19248291 247.17773438 405.36865234 C242.19835787 402.48314586 237.22947401 399.5800935 232.265625 396.66796875 C225.90228965 392.93674029 219.51650445 389.24521942 213.125 385.5625 C212.04524902 384.94020508 210.96549805 384.31791016 209.85302734 383.67675781 C207.66285466 382.41471274 205.47258757 381.15283148 203.28222656 379.89111328 C197.85340058 376.76319852 192.42680719 373.63141552 187 370.5 C184.83334417 369.24998121 182.6666775 367.99998122 180.5 366.75 C150.16666667 349.25 119.83333333 331.75 89.5 314.25 C88.42733887 313.63116943 87.35467773 313.01233887 86.24951172 312.37475586 C84.08442929 311.12564482 81.91939018 309.87645871 79.75439453 308.62719727 C74.31384294 305.48797691 68.87252784 302.35009437 63.4296875 299.21484375 C51.9455118 292.59777108 40.47803106 285.95366023 29.03417969 279.26708984 C18.47379718 273.10080946 7.87873234 266.9950405 -2.71777344 260.89111328 C-8.14659942 257.76319852 -13.57319281 254.63141552 -19 251.5 C-21.16665583 250.24998121 -23.3333225 248.99998122 -25.5 247.75 C-55.83333333 230.25 -86.16666667 212.75 -116.5 195.25 C-117.57282227 194.63108887 -118.64564453 194.01217773 -119.75097656 193.37451172 C-121.91447476 192.12628966 -124.07788643 190.87791761 -126.24121094 189.62939453 C-131.70565017 186.47594744 -137.17163645 183.32523904 -142.640625 180.1796875 C-147.00414571 177.66985979 -151.36315652 175.15246379 -155.71875 172.62890625 C-159.80981513 170.25863593 -163.91426151 167.91475517 -168.03125 165.58984375 C-186.16177456 155.25962567 -202.01057491 143.16689335 -213 125 C-213 124.34 -213 123.68 -213 123 C-211.9790625 122.44054687 -210.958125 121.88109375 -209.90625 121.3046875 C-200.00197797 115.85246465 -190.20288134 110.23743204 -180.44677734 104.5246582 C-173.02161201 100.17689815 -165.58002227 95.85886151 -158.125 91.5625 C-156.50779053 90.63026611 -156.50779053 90.63026611 -154.85791016 89.67919922 C-150.47536799 87.1535448 -146.09216077 84.62904571 -141.70898438 82.10449219 C-130.12318234 75.43043688 -118.54446647 68.74535916 -107 62 C-93.26944812 53.97732489 -79.48922034 46.04141741 -65.70898438 38.10449219 C-52.98630101 30.77553109 -40.27693032 23.42515451 -27.59912109 16.01879883 C-18.41419241 10.65359741 -9.2100893 5.32186764 0 0 Z " fill="#2D006F" transform="translate(354,823)"/>
<path d="M0 0 C4.51849252 4.18438377 8.64269716 8.56701807 12.5625 13.3125 C13.31917969 14.18132813 14.07585937 15.05015625 14.85546875 15.9453125 C20.68336763 22.7219391 25.6875565 29.7596599 30.53125 37.2578125 C32.39120062 40.27271688 32.39120062 40.27271688 34.5625 42.3125 C33.91998291 42.65933838 33.27746582 43.00617676 32.61547852 43.36352539 C25.18560911 47.39298173 17.83323933 51.54768467 10.5 55.75 C9.2703663 56.4537318 8.04071091 57.15742568 6.81103516 57.86108398 C-4.54555123 64.36283466 -15.88058717 70.90187519 -27.2109375 77.44921875 C-30.47274007 79.3328505 -33.73611844 81.21372321 -37 83.09375 C-47.49488916 89.13997312 -57.97980539 95.20213481 -68.4375 101.3125 C-82.16805188 109.33517511 -95.94827966 117.27108259 -109.72851562 125.20800781 C-121.31431766 131.88206312 -132.89303353 138.56714084 -144.4375 145.3125 C-158.16805188 153.33517511 -171.94827966 161.27108259 -185.72851562 169.20800781 C-198.30001995 176.44988151 -210.85795752 183.71338563 -223.38354492 191.03442383 C-231.95853367 196.04268058 -240.55861126 201.00682783 -249.16821289 205.95532227 C-254.04908314 208.76419156 -258.91918218 211.58620594 -263.75 214.48046875 C-264.93638062 215.18961426 -264.93638062 215.18961426 -266.14672852 215.91308594 C-267.58562807 216.77639414 -269.02127358 217.64516011 -270.45288086 218.52050781 C-275.1076064 221.3125 -275.1076064 221.3125 -278.4375 221.3125 C-302.36102873 173.97887877 -308.43071723 126.30668599 -292.4375 75.3125 C-292.21755371 74.60464355 -291.99760742 73.89678711 -291.77099609 73.16748047 C-284.53863089 50.54615652 -271.73040869 28.68366223 -255.4296875 11.42578125 C-253.60592602 9.49116368 -251.93332305 7.49349905 -250.25 5.4375 C-224.01744203 -24.38855907 -179.62043259 -44.98560345 -140.15966797 -47.55859375 C-87.13964538 -50.06931769 -39.64894247 -35.99230409 0 0 Z " fill="#9969D4" transform="translate(788.4375,510.6875)"/>
<path d="M0 0 C3.54241612 1.27002178 6.63300843 3.11024461 9.82421875 5.0703125 C11.34945977 5.98701055 12.87555824 6.9022829 14.40234375 7.81640625 C15.23701172 8.31769043 16.07167969 8.81897461 16.93164062 9.33544922 C21.94832901 12.32101269 27.01386321 15.22209871 32.07421875 18.1328125 C34.32294634 19.42833391 36.57164386 20.72390752 38.8203125 22.01953125 C39.94937012 22.66970215 41.07842773 23.31987305 42.24169922 23.98974609 C47.70841855 27.13863304 53.17246762 30.29214514 58.63671875 33.4453125 C60.80337186 34.695336 62.97003854 35.94533597 65.13671875 37.1953125 C78.13671875 44.6953125 91.13671875 52.1953125 104.13671875 59.6953125 C105.21099121 60.3150293 106.28526367 60.93474609 107.39208984 61.57324219 C109.54104832 62.81313787 111.68981398 64.05336779 113.83837891 65.29394531 C118.91396641 68.22403824 123.9914561 71.15067659 129.0758667 74.06542969 C131.47712105 75.44227776 133.87727401 76.82103942 136.27734375 78.19995117 C137.97158478 79.17227953 139.66741456 80.1418379 141.36328125 81.11132812 C142.389375 81.70107422 143.41546875 82.29082031 144.47265625 82.8984375 C145.3754834 83.41567383 146.27831055 83.93291016 147.20849609 84.46582031 C149.46722758 85.8420432 151.55337353 87.31866566 153.63671875 88.9453125 C152.15061725 93.23583136 149.90560671 96.7331982 147.26171875 100.3828125 C146.82037598 100.99334473 146.3790332 101.60387695 145.92431641 102.23291016 C121.17947572 135.95543159 89.27859733 159.71167889 49.63671875 172.9453125 C48.87206299 173.20530029 48.10740723 173.46528809 47.31958008 173.7331543 C4.32041723 187.58034233 -43.28297034 179.53581482 -82.93969727 159.78637695 C-92.70475703 154.73953388 -101.59142273 148.54165703 -110.36328125 141.9453125 C-111.80574219 140.87216797 -111.80574219 140.87216797 -113.27734375 139.77734375 C-130.63367407 126.22262657 -145.76221227 109.28761379 -156.36328125 89.9453125 C-153.05789548 87.18784251 -149.77385668 84.91635777 -146.00390625 82.84375 C-144.46778687 81.9930896 -144.46778687 81.9930896 -142.90063477 81.12524414 C-141.81580811 80.5296167 -140.73098145 79.93398926 -139.61328125 79.3203125 C-132.3401435 75.28823263 -125.07569693 71.25530505 -117.92578125 67.0078125 C-110.91629668 62.84704212 -103.86526052 58.76202048 -96.80078125 54.6953125 C-88.30671826 49.80385926 -79.82562555 44.89143949 -71.36328125 39.9453125 C-58.72588254 32.56109065 -46.04612578 25.25111544 -33.36328125 17.9453125 C-29.16696815 15.52747588 -24.97107841 13.10890588 -20.77557373 10.68966675 C-19.09229903 9.71924777 -17.40870238 8.74938731 -15.72509766 7.77954102 C-14.70206543 7.18971436 -13.6790332 6.5998877 -12.625 5.9921875 C-11.72740967 5.47495117 -10.82981934 4.95771484 -9.9050293 4.42480469 C-8.14444459 3.40000944 -6.40435087 2.33949762 -4.68212891 1.25146484 C-2.36328125 -0.0546875 -2.36328125 -0.0546875 0 0 Z " fill="#32007D" transform="translate(667.36328125,643.0546875)"/>
<path d="M0 0 C9.57 0 19.14 0 29 0 C29 13.50844024 29 13.50844024 28.37890625 19.33984375 C28.24806641 20.58701172 28.11722656 21.83417969 27.98242188 23.11914062 C27.84384766 24.37919922 27.70527344 25.63925781 27.5625 26.9375 C27.36043945 28.86819336 27.36043945 28.86819336 27.15429688 30.83789062 C26.6074082 35.9626377 26.01177787 40.94111065 25 46 C36.22 46 47.44 46 59 46 C59.103125 43.23625 59.20625 40.4725 59.3125 37.625 C59.86848484 25.00328214 61.4662846 12.53645634 63 0 C72.9 0 82.8 0 93 0 C92.28033337 15.40086585 90.65619378 30.67760345 89 46 C97.58 46 106.16 46 115 46 C115 55.57 115 65.14 115 75 C105.1 75 95.2 75 85 75 C84.814375 78.8671875 84.814375 78.8671875 84.625 82.8125 C84.26333853 89.68726287 83.718178 96.52832528 83 103.375 C82.9170166 104.17655518 82.8340332 104.97811035 82.74853516 105.80395508 C82.36746236 109.30286219 81.85552281 112.57790877 81 116 C89.58 116 98.16 116 107 116 C107 125.24 107 134.48 107 144 C97.43 144 87.86 144 78 144 C77.896875 146.371875 77.79375 148.74375 77.6875 151.1875 C77.24326724 159.94438548 76.39928717 168.65445909 75.5 177.375 C75.36940186 178.65270264 75.23880371 179.93040527 75.10424805 181.24682617 C74.12914901 190.48340398 74.12914901 190.48340398 73 195 C63.1 195 53.2 195 43 195 C43 184.875 43 184.875 43.45898438 181.12280273 C43.55908813 180.28261093 43.65919189 179.44241913 43.7623291 178.57676697 C43.871698 177.70451981 43.98106689 176.83227264 44.09375 175.93359375 C44.26022034 174.55434471 44.26022034 174.55434471 44.43005371 173.14723206 C44.78169637 170.24335279 45.1407189 167.34044304 45.5 164.4375 C45.74137613 162.45513781 45.9822662 160.47271638 46.22265625 158.49023438 C46.80858918 153.65931839 47.40451777 148.82978621 48 144 C36.78 144 25.56 144 14 144 C14 148.29 14 152.58 14 157 C13.76207199 160.21661585 13.49130146 163.38307014 13.125 166.58203125 C12.99182373 167.81961433 12.99182373 167.81961433 12.85595703 169.0821991 C12.57711542 171.6597229 12.28877311 174.2360721 12 176.8125 C11.80665446 178.58391494 11.61394171 180.35539907 11.421875 182.12695312 C10.95635421 186.41897458 10.47793296 190.70927148 10 195 C0.1 195 -9.8 195 -20 195 C-20 188.59725967 -19.89763649 182.62002767 -19.16015625 176.32421875 C-19.07374374 175.55116898 -18.98733124 174.7781192 -18.89830017 173.98164368 C-18.71678171 172.36726952 -18.53264589 170.75318759 -18.34594727 169.1394043 C-18.06120089 166.67626231 -17.78481985 164.21228821 -17.50976562 161.74804688 C-17.33121221 160.16921613 -17.15219233 158.59043805 -16.97265625 157.01171875 C-16.8491555 155.91630013 -16.8491555 155.91630013 -16.72315979 154.79875183 C-16.29783387 151.14079904 -15.7238537 147.6192685 -15 144 C-23.58 144 -32.16 144 -41 144 C-41 134.76 -41 125.52 -41 116 C-31.43 116 -21.86 116 -12 116 C-11.87625 113.793125 -11.7525 111.58625 -11.625 109.3125 C-11.21151821 102.44621847 -10.6415858 95.59854157 -10 88.75 C-9.9170166 87.84548096 -9.8340332 86.94096191 -9.74853516 86.0090332 C-9.66651855 85.155271 -9.58450195 84.30150879 -9.5 83.421875 C-9.4278125 82.66487305 -9.355625 81.90787109 -9.28125 81.12792969 C-9 79 -9 79 -8 75 C-16.25 75 -24.5 75 -33 75 C-33 65.43 -33 55.86 -33 46 C-23.76 46 -14.52 46 -5 46 C-4.896875 44.22625 -4.79375 42.4525 -4.6875 40.625 C-4.163298 33.22539492 -3.35147893 25.8685479 -2.5 18.5 C-2.36940186 17.36643066 -2.23880371 16.23286133 -2.10424805 15.06494141 C-1.51080774 10.00998755 -0.83744054 5.02464321 0 0 Z " fill="#FDFCFE" transform="translate(899,541)"/>
<path d="M0 0 C10.89 0 21.78 0 33 0 C33 6.04918139 32.97011892 11.56742848 32.37890625 17.50390625 C32.31468979 18.15326645 32.25047333 18.80262665 32.18431091 19.47166443 C32.04968633 20.8203014 31.91264555 22.16869936 31.77319336 23.5168457 C31.55973435 25.58935213 31.35657205 27.6627033 31.15429688 29.73632812 C30.1282409 39.8717591 30.1282409 39.8717591 29 41 C26.55169574 41.08843793 24.13179401 41.11528752 21.68359375 41.09765625 C20.95253922 41.0962413 20.22148468 41.09482635 19.46827698 41.09336853 C17.12464368 41.08775408 14.78110461 41.07519922 12.4375 41.0625 C10.85221492 41.05748686 9.26692834 41.05292363 7.68164062 41.04882812 C3.7877239 41.03777997 -0.10612205 41.02050572 -4 41 C-3.39994538 27.20189087 -1.8003229 13.69810906 0 0 Z " fill="#3D0397" transform="translate(921,616)"/>
</svg>
