<?xml version="1.0" encoding="UTF-8"?>
<svg version="1.1" xmlns="http://www.w3.org/2000/svg" width="400" height="400">
<path d="M0 0 C1.43666016 0.88558594 1.43666016 0.88558594 2.90234375 1.7890625 C3.61519531 2.31242187 4.32804687 2.83578125 5.0625 3.375 C5.0625 4.035 5.0625 4.695 5.0625 5.375 C5.78824219 5.62894531 6.51398438 5.88289063 7.26171875 6.14453125 C12.16864418 8.30029347 15.98437067 11.95085207 20.0625 15.375 C20.86300781 16.03886719 21.66351563 16.70273438 22.48828125 17.38671875 C26.63694598 20.90166205 26.63694598 20.90166205 28.0625 22.375 C28.0625 23.035 28.0625 23.695 28.0625 24.375 C28.61292969 24.57996094 29.16335938 24.78492188 29.73046875 24.99609375 C32.94941655 26.89942469 35.0415313 29.57769411 37.375 32.4375 C37.86282959 33.0267627 38.35065918 33.61602539 38.85327148 34.22314453 C40.26419075 35.93418485 41.66435356 37.6535191 43.0625 39.375 C43.69671875 40.14457031 44.3309375 40.91414063 44.984375 41.70703125 C53.78296007 52.66336456 61.37842809 64.51433527 67.0625 77.375 C67.36816895 78.06464844 67.67383789 78.75429687 67.98876953 79.46484375 C72.09463648 88.90981087 74.90941879 97.89751606 76.26171875 108.1171875 C76.78185816 111.56460806 77.85268002 114.57641785 79.08154297 117.83520508 C81.3003879 124.41746329 81.62806959 130.36806728 81.55859375 137.26953125 C81.56004898 138.45995529 81.56150421 139.65037933 81.56300354 140.87687683 C81.56135434 143.3786363 81.54990405 145.88040696 81.52905273 148.38208008 C81.50015438 152.16727846 81.50845633 155.95106707 81.52148438 159.73632812 C81.51127697 171.94549217 81.371166 183.54535889 78.0625 195.375 C77.83828369 196.23391846 77.61406738 197.09283691 77.38305664 197.9777832 C76.76905433 200.21595064 76.09381006 202.41848467 75.375 204.625 C75.12298828 205.4080249 74.87097656 206.1910498 74.61132812 206.99780273 C70.40212863 219.72809553 65.39330513 232.11221758 58.0625 243.375 C57.44375 244.509375 56.825 245.64375 56.1875 246.8125 C51.2753161 255.45956753 44.80528325 264.07823221 38.0625 271.375 C37.4025 271.375 36.7425 271.375 36.0625 271.375 C35.8459375 271.91640625 35.629375 272.4578125 35.40625 273.015625 C33.59750003 276.19145344 31.14526201 278.58228081 28.5625 281.125 C28.06363281 281.63160156 27.56476563 282.13820313 27.05078125 282.66015625 C23.31591139 286.375 23.31591139 286.375 21.0625 286.375 C21.0625 287.035 21.0625 287.695 21.0625 288.375 C20.4025 288.375 19.7425 288.375 19.0625 288.375 C19.0625 289.035 19.0625 289.695 19.0625 290.375 C17.20213528 291.9856922 15.34363875 293.46888158 13.375 294.9375 C12.78630127 295.38077637 12.19760254 295.82405273 11.59106445 296.28076172 C9.75478228 297.65461087 7.90956705 299.0156973 6.0625 300.375 C4.48082031 301.55255859 4.48082031 301.55255859 2.8671875 302.75390625 C-15.67226787 316.11253637 -37.57817598 324.99581633 -59.9375 329.375 C-60.96488281 329.58769531 -61.99226562 329.80039062 -63.05078125 330.01953125 C-73.96922814 332.16615659 -84.89101476 332.56157222 -95.98754883 332.56030273 C-98.10453741 332.56247896 -100.22099424 332.58067998 -102.33789062 332.59960938 C-112.01750984 332.63977057 -121.36950917 331.81336813 -130.9375 330.375 C-131.85861572 330.23956787 -132.77973145 330.10413574 -133.72875977 329.96459961 C-147.14873713 327.85424932 -159.48820796 323.75323523 -171.9375 318.375 C-173.01209473 317.9111792 -173.01209473 317.9111792 -174.10839844 317.43798828 C-191.15390213 309.89439414 -206.03306389 298.64709071 -219.9375 286.375 C-220.98506891 285.51199887 -222.03455989 284.65132572 -223.0859375 283.79296875 C-225.38858179 281.84045256 -227.31954831 279.98708199 -229.25 277.6875 C-232.74854979 273.56281154 -236.41410572 269.61346035 -240.1171875 265.671875 C-241.87291942 263.45648794 -242.54519494 262.13379044 -242.9375 259.375 C-243.5975 259.375 -244.2575 259.375 -244.9375 259.375 C-246.5638542 257.26289161 -248.04356304 255.16396901 -249.5 252.9375 C-250.1638269 251.92683472 -250.1638269 251.92683472 -250.84106445 250.89575195 C-277.63286998 209.38779162 -285.29803014 159.14656052 -275.0234375 110.92578125 C-274.13260045 107.03389085 -273.06658327 103.20494792 -271.9375 99.375 C-271.57914062 98.14910156 -271.22078125 96.92320312 -270.8515625 95.66015625 C-261.50970216 65.78501227 -241.77255901 32.83656114 -215.9375 14.375 C-215.2775 14.375 -214.6175 14.375 -213.9375 14.375 C-213.9375 13.715 -213.9375 13.055 -213.9375 12.375 C-211.72332461 10.57825112 -209.50649704 8.90211783 -207.1875 7.25 C-206.50300781 6.75790039 -205.81851563 6.26580078 -205.11328125 5.75878906 C-203.06015113 4.28967314 -200.99919802 2.83205562 -198.9375 1.375 C-197.90109375 0.62992188 -196.8646875 -0.11515625 -195.796875 -0.8828125 C-185.48884512 -8.0646366 -174.25661368 -12.7999635 -162.625 -17.375 C-161.55064697 -17.79761108 -161.55064697 -17.79761108 -160.45458984 -18.22875977 C-150.65462144 -21.99219022 -141.08942183 -24.28963346 -130.6875 -25.75 C-129.48456299 -25.92104248 -128.28162598 -26.09208496 -127.04223633 -26.26831055 C-81.81335821 -32.56398393 -38.7828232 -24.15281445 0 0 Z " fill="#3F3179" transform="translate(318.9375,49.625)"/>
<path d="M0 0 C1.43666016 0.88558594 1.43666016 0.88558594 2.90234375 1.7890625 C3.61519531 2.31242187 4.32804687 2.83578125 5.0625 3.375 C5.0625 4.035 5.0625 4.695 5.0625 5.375 C5.78824219 5.62894531 6.51398438 5.88289063 7.26171875 6.14453125 C12.16864418 8.30029347 15.98437067 11.95085207 20.0625 15.375 C20.86300781 16.03886719 21.66351563 16.70273438 22.48828125 17.38671875 C26.63694598 20.90166205 26.63694598 20.90166205 28.0625 22.375 C28.0625 23.035 28.0625 23.695 28.0625 24.375 C28.61292969 24.57996094 29.16335938 24.78492188 29.73046875 24.99609375 C32.94941655 26.89942469 35.0415313 29.57769411 37.375 32.4375 C37.86282959 33.0267627 38.35065918 33.61602539 38.85327148 34.22314453 C40.26419075 35.93418485 41.66435356 37.6535191 43.0625 39.375 C43.69671875 40.14457031 44.3309375 40.91414063 44.984375 41.70703125 C56.06072069 55.49971886 64.444289 70.44589121 70.9375 86.875 C71.23615967 87.62885986 71.53481934 88.38271973 71.8425293 89.15942383 C72.1187915 89.88025146 72.39505371 90.6010791 72.6796875 91.34375 C72.92315918 91.97732422 73.16663086 92.61089844 73.41748047 93.26367188 C74.22353446 95.90211051 74.60895297 98.65371785 75.0625 101.375 C-39.4475 101.045 -153.9575 100.715 -271.9375 100.375 C-267.28328645 84.08525259 -267.28328645 84.08525259 -263.75 76.9375 C-263.35981689 76.13530029 -262.96963379 75.33310059 -262.56762695 74.5065918 C-251.70593869 52.53680476 -236.1508464 28.81932274 -215.9375 14.375 C-215.2775 14.375 -214.6175 14.375 -213.9375 14.375 C-213.9375 13.715 -213.9375 13.055 -213.9375 12.375 C-211.72332461 10.57825112 -209.50649704 8.90211783 -207.1875 7.25 C-206.50300781 6.75790039 -205.81851563 6.26580078 -205.11328125 5.75878906 C-203.06015113 4.28967314 -200.99919802 2.83205562 -198.9375 1.375 C-197.90109375 0.62992188 -196.8646875 -0.11515625 -195.796875 -0.8828125 C-185.48884512 -8.0646366 -174.25661368 -12.7999635 -162.625 -17.375 C-161.55064697 -17.79761108 -161.55064697 -17.79761108 -160.45458984 -18.22875977 C-150.65462144 -21.99219022 -141.08942183 -24.28963346 -130.6875 -25.75 C-129.48456299 -25.92104248 -128.28162598 -26.09208496 -127.04223633 -26.26831055 C-81.81335821 -32.56398393 -38.7828232 -24.15281445 0 0 Z " fill="#2B2154" transform="translate(318.9375,49.625)"/>
<path d="M0 0 C1.57147259 0.00056958 1.57147259 0.00056958 3.17469209 0.00115067 C4.98033588 -0.00183591 4.98033588 -0.00183591 6.82245731 -0.00488281 C8.17545177 -0.00202923 9.52844603 0.00091638 10.8814401 0.00394398 C12.30535948 0.0035084 13.72927878 0.00263375 15.15319765 0.00135481 C19.0844914 -0.00089282 23.01575817 0.00313478 26.94704849 0.00813287 C31.17951763 0.01243337 35.41198514 0.01099124 39.64445585 0.0102306 C46.98363255 0.00970511 54.32280038 0.01285452 61.66197485 0.01846844 C72.27331536 0.02658005 82.88465158 0.02919831 93.49599486 0.03045643 C110.71033007 0.03264749 127.92466056 0.03930901 145.1389932 0.04875904 C161.86555546 0.05793178 178.59211644 0.06501329 195.3186807 0.06926686 C196.34893145 0.06952958 197.37918221 0.0697923 198.44065268 0.07006299 C203.60888662 0.07136798 208.77712057 0.0726317 213.94535452 0.07387489 C256.85145676 0.08424917 299.75755384 0.10186893 342.66365141 0.1241985 C344.83816705 4.33252367 346.26618617 8.04046675 347.22615141 12.6866985 C348.08720529 16.81683832 349.07672001 20.15687001 350.66365141 24.1241985 C350.66365141 36.6641985 350.66365141 49.2041985 350.66365141 62.1241985 C231.86365141 62.1241985 113.06365141 62.1241985 -9.33634859 62.1241985 C-9.33634859 34.39436721 -9.33634859 34.39436721 -8.02384859 25.9991985 C-7.88994723 25.06253346 -7.75604586 24.12586842 -7.61808687 23.16081959 C-4.23086042 0.22490929 -4.23086042 0.22490929 0 0 Z " fill="#33295C" transform="translate(49.336348593235016,149.8758015036583)"/>
<path d="M0 0 C8.0228501 -0.44257116 16.04052778 -0.77885294 24.07260609 -0.98443127 C27.80403914 -1.0831796 31.52707138 -1.21662283 35.25366211 -1.43334961 C59.32738139 -2.79749436 59.32738139 -2.79749436 65.37805176 1.81140137 C69.12817143 6.27875836 71.1389037 11.20131644 73.03404236 16.66200256 C74.5634905 20.36386865 76.96292622 23.17571796 79.625 26.125 C80.08486298 26.64211548 80.54472595 27.15923096 81.01852417 27.6920166 C82.32946336 29.14283311 83.66418234 30.57205698 85 32 C85.72574219 32.80566406 86.45148438 33.61132812 87.19921875 34.44140625 C93.37619964 41.00658927 100.55587585 45.99598186 108 51 C108.79792969 51.55558594 109.59585938 52.11117187 110.41796875 52.68359375 C135.87146948 69.3072075 170.16605324 73.32882366 199.625 67.5 C220.25384986 62.92573056 239.35357732 53.16172564 255 39 C256.46373047 37.67742187 256.46373047 37.67742187 257.95703125 36.328125 C269.20639967 25.80049608 276.63691627 13.49898685 284 0 C304.79 0 325.58 0 347 0 C342.321875 15.20390625 342.321875 15.20390625 339.25 21.9375 C338.91000977 22.69184326 338.57001953 23.44618652 338.21972656 24.22338867 C334.02832814 33.34997591 329.38858044 42.20965337 323 50 C321.67800564 51.80558673 320.36564292 53.61826087 319.0625 55.4375 C313.19493007 63.52316434 313.19493007 63.52316434 310 67 C309.34 67 308.68 67 308 67 C307.7834375 67.54140625 307.566875 68.0828125 307.34375 68.640625 C305.53500003 71.81645344 303.08276201 74.20728081 300.5 76.75 C300.00113281 77.25660156 299.50226563 77.76320313 298.98828125 78.28515625 C295.25341139 82 295.25341139 82 293 82 C293 82.66 293 83.32 293 84 C292.34 84 291.68 84 291 84 C291 84.66 291 85.32 291 86 C289.13963528 87.6106922 287.28113875 89.09388158 285.3125 90.5625 C284.72380127 91.00577637 284.13510254 91.44905273 283.52856445 91.90576172 C281.69228228 93.27961087 279.84706705 94.6406973 278 96 C276.41832031 97.17755859 276.41832031 97.17755859 274.8046875 98.37890625 C256.26523213 111.73753637 234.35932402 120.62081633 212 125 C210.45892578 125.31904297 210.45892578 125.31904297 208.88671875 125.64453125 C197.96827186 127.79115659 187.04648524 128.18657222 175.94995117 128.18530273 C173.83296259 128.18747896 171.71650576 128.20567998 169.59960938 128.22460938 C159.91999016 128.26477057 150.56799083 127.43836813 141 126 C140.07888428 125.86456787 139.15776855 125.72913574 138.20874023 125.58959961 C124.78876287 123.47924932 112.44929204 119.37823523 100 114 C99.28360352 113.69078613 98.56720703 113.38157227 97.82910156 113.06298828 C80.78359787 105.51939414 65.90443611 94.27209071 52 82 C50.95243109 81.13699887 49.90294011 80.27632572 48.8515625 79.41796875 C46.54891821 77.46545256 44.61795169 75.61208199 42.6875 73.3125 C39.18895021 69.18781154 35.52339428 65.23846035 31.8203125 61.296875 C30.06458058 59.08148794 29.39230506 57.75879044 29 55 C28.34 55 27.68 55 27 55 C25.3736458 52.88789161 23.89393696 50.78896901 22.4375 48.5625 C21.99494873 47.88872314 21.55239746 47.21494629 21.09643555 46.52075195 C12.01004346 32.44340274 3.22091857 16.59130753 0 0 Z " fill="#2B2155" transform="translate(47,254)"/>
<path d="M0 0 C1.2890625 0.00322266 2.578125 0.00644531 3.90625 0.00976562 C5.25260486 0.01811892 6.59895902 0.02658384 7.9453125 0.03515625 C9.31510254 0.04017795 10.68489435 0.04473968 12.0546875 0.04882812 C15.3932744 0.06058371 18.73177065 0.07701661 22.0703125 0.09765625 C22.0703125 0.75765625 22.0703125 1.41765625 22.0703125 2.09765625 C21.34030029 2.2584668 20.61028809 2.41927734 19.8581543 2.58496094 C16.48963275 3.33156867 13.12376251 4.08954298 9.7578125 4.84765625 C8.60990234 5.1003125 7.46199219 5.35296875 6.27929688 5.61328125 C-0.20231143 7.08220098 -6.39252688 8.82212277 -12.59570312 11.21484375 C-14.75141169 12.03022473 -16.90319445 12.71147396 -19.1171875 13.34765625 C-25.70754915 15.5169345 -31.81328969 18.88924589 -37.95458984 22.07763672 C-39.73615965 22.99771072 -41.52954281 23.89482236 -43.32421875 24.7890625 C-50.33941428 28.3788358 -56.59294291 32.56665341 -62.81860352 37.36645508 C-66.07991846 39.86102678 -68.97408096 41.80159578 -72.9296875 43.09765625 C-72.9296875 43.75765625 -72.9296875 44.41765625 -72.9296875 45.09765625 C-74.3984375 46.578125 -74.3984375 46.578125 -76.4296875 48.28515625 C-77.16316406 48.91292969 -77.89664063 49.54070313 -78.65234375 50.1875 C-80.06940814 51.37608403 -81.49281704 52.5571964 -82.92578125 53.7265625 C-88.13886846 58.07954276 -92.32342793 62.97743102 -96.50195312 68.31884766 C-97.62997892 69.72425052 -98.78576343 71.10737092 -99.95117188 72.48193359 C-105.48525531 79.05690676 -110.17793727 85.83206591 -114.5546875 93.22265625 C-115.20421387 94.31433105 -115.85374023 95.40600586 -116.52294922 96.53076172 C-121.5458522 105.12753167 -125.64148305 113.71459948 -128.9296875 123.09765625 C-129.373125 124.29648438 -129.8165625 125.4953125 -130.2734375 126.73046875 C-146.51599957 172.58599459 -143.76737947 220.50775076 -124.0546875 264.84765625 C-121.28895755 270.62645784 -118.14583919 276.19163058 -114.91259766 281.71972656 C-113.1085858 284.83084619 -111.68532201 287.58465232 -110.9296875 291.09765625 C-110.2696875 291.09765625 -109.6096875 291.09765625 -108.9296875 291.09765625 C-105.9296875 295.48227163 -105.9296875 295.48227163 -105.9296875 298.09765625 C-105.2696875 298.09765625 -104.6096875 298.09765625 -103.9296875 298.09765625 C-103.2696875 299.74765625 -102.6096875 301.39765625 -101.9296875 303.09765625 C-101.2696875 303.09765625 -100.6096875 303.09765625 -99.9296875 303.09765625 C-98.23828125 304.9609375 -98.23828125 304.9609375 -96.3671875 307.41015625 C-95.74714844 308.21066406 -95.12710938 309.01117188 -94.48828125 309.8359375 C-92.9296875 312.09765625 -92.9296875 312.09765625 -91.9296875 315.09765625 C-91.2696875 315.09765625 -90.6096875 315.09765625 -89.9296875 315.09765625 C-89.9296875 315.75765625 -89.9296875 316.41765625 -89.9296875 317.09765625 C-89.3934375 317.30390625 -88.8571875 317.51015625 -88.3046875 317.72265625 C-85.00990741 319.63016051 -82.33605122 322.14585009 -79.9296875 325.09765625 C-79.9296875 325.75765625 -79.9296875 326.41765625 -79.9296875 327.09765625 C-79.05920776 327.50407349 -79.05920776 327.50407349 -78.17114258 327.91870117 C-75.92964522 329.09767849 -74.06448502 330.40892291 -72.06640625 331.9609375 C-71.34388672 332.51845703 -70.62136719 333.07597656 -69.87695312 333.65039062 C-69.13123047 334.23111328 -68.38550781 334.81183594 -67.6171875 335.41015625 C-57.54987758 343.42094265 -57.54987758 343.42094265 -46.4921875 349.91015625 C-43.10457113 351.5433967 -39.75296224 353.19284645 -36.44140625 354.9765625 C-18.15570447 364.77965637 1.83792333 369.99812567 22.0703125 374.09765625 C22.0703125 374.75765625 22.0703125 375.41765625 22.0703125 376.09765625 C-0.26854838 376.74530387 -21.71503326 375.70090326 -42.9296875 368.09765625 C-44.25958288 367.66021735 -45.590376 367.2255019 -46.921875 366.79296875 C-56.43740978 363.64466189 -65.3119949 359.73363549 -74.16064453 355.03515625 C-75.76187537 354.18658788 -77.37448334 353.35957409 -78.98828125 352.53515625 C-84.86886101 349.46557703 -90.16519495 345.90724665 -95.46875 341.92578125 C-97.47932333 340.43221249 -99.49936439 339.05499567 -101.6171875 337.72265625 C-102.3803125 337.18640625 -103.1434375 336.65015625 -103.9296875 336.09765625 C-103.9296875 335.43765625 -103.9296875 334.77765625 -103.9296875 334.09765625 C-104.4865625 333.85015625 -105.0434375 333.60265625 -105.6171875 333.34765625 C-108.35379663 331.86840807 -110.60619619 330.16298186 -112.9296875 328.09765625 C-112.9296875 327.43765625 -112.9296875 326.77765625 -112.9296875 326.09765625 C-113.4659375 325.88753906 -114.0021875 325.67742187 -114.5546875 325.4609375 C-117.84283863 323.57349549 -120.3018787 320.97475759 -122.9296875 318.28515625 C-123.71085937 317.50301758 -123.71085937 317.50301758 -124.5078125 316.70507812 C-132.9296875 308.1875 -132.9296875 308.1875 -132.9296875 305.09765625 C-133.5896875 305.09765625 -134.2496875 305.09765625 -134.9296875 305.09765625 C-135.5896875 303.44765625 -136.2496875 301.79765625 -136.9296875 300.09765625 C-137.5896875 300.09765625 -138.2496875 300.09765625 -138.9296875 300.09765625 C-140.23480686 298.21048366 -141.44750594 296.25913751 -142.6171875 294.28515625 C-143.26042969 293.20621094 -143.90367187 292.12726563 -144.56640625 291.015625 C-144.92597412 290.40847656 -145.28554199 289.80132812 -145.65600586 289.17578125 C-146.59620291 287.64176606 -147.57123025 286.12897172 -148.56469727 284.62890625 C-152.99099846 277.9232323 -156.4152457 271.13827105 -159.4921875 263.72265625 C-160.19879517 262.0355957 -160.19879517 262.0355957 -160.91967773 260.31445312 C-165.09100928 250.12665355 -168.3738796 239.80035524 -170.9296875 229.09765625 C-171.10588623 228.38583694 -171.28208496 227.67401764 -171.46362305 226.94062805 C-173.09446873 219.71878966 -173.26881733 212.6799395 -173.30078125 205.296875 C-173.30980972 203.98467484 -173.3188382 202.67247467 -173.32814026 201.32051086 C-173.34453605 198.54950525 -173.35231137 195.77861893 -173.35522461 193.00756836 C-173.35950385 190.21193023 -173.38017088 187.41722611 -173.41674805 184.62182617 C-173.63196239 167.86533129 -172.99049317 152.22160704 -167.9296875 136.09765625 C-167.61475342 135.02765381 -167.29981934 133.95765137 -166.9753418 132.85522461 C-166.23273177 130.44722029 -165.42536901 128.08684255 -164.5546875 125.72265625 C-164.26142578 124.90796875 -163.96816406 124.09328125 -163.66601562 123.25390625 C-159.24476785 111.22509567 -153.65084413 100.01764782 -146.9296875 89.09765625 C-146.38699219 88.19660156 -145.84429687 87.29554687 -145.28515625 86.3671875 C-141.98643004 81.0135171 -138.4120602 75.91922432 -134.6171875 70.91015625 C-133.96786255 70.0440271 -133.96786255 70.0440271 -133.30541992 69.16040039 C-132.22978671 67.76642214 -131.08509185 66.42626565 -129.9296875 65.09765625 C-129.2696875 65.09765625 -128.6096875 65.09765625 -127.9296875 65.09765625 C-127.5265332 64.20771973 -127.5265332 64.20771973 -127.11523438 63.29980469 C-125.92678018 61.09225592 -124.72226361 59.63222743 -122.9609375 57.86328125 C-122.38988281 57.28964844 -121.81882813 56.71601562 -121.23046875 56.125 C-120.63621094 55.53847656 -120.04195312 54.95195313 -119.4296875 54.34765625 C-118.83542969 53.74566406 -118.24117187 53.14367187 -117.62890625 52.5234375 C-117.05785156 51.95496094 -116.48679688 51.38648438 -115.8984375 50.80078125 C-115.37701172 50.28161133 -114.85558594 49.76244141 -114.31835938 49.22753906 C-112.9296875 48.09765625 -112.9296875 48.09765625 -110.9296875 48.09765625 C-110.5996875 47.10765625 -110.2696875 46.11765625 -109.9296875 45.09765625 C-107.98355516 43.41864011 -106.0522195 41.87378818 -103.9921875 40.34765625 C-103.40026611 39.90301025 -102.80834473 39.45836426 -102.19848633 39.00024414 C-100.44802032 37.69135416 -98.68946676 36.3939822 -96.9296875 35.09765625 C-96.09695312 34.47246094 -95.26421875 33.84726562 -94.40625 33.203125 C-70.36947456 15.68827327 -42.01786484 6.05705946 -12.9296875 1.09765625 C-11.99624512 0.91968506 -11.06280273 0.74171387 -10.10107422 0.55834961 C-6.6874541 0.06246807 -3.44876682 -0.01526003 0 0 Z " fill="#F7931D" transform="translate(172.9296875,13.90234375)"/>
<path d="M0 0 C118.8 0 237.6 0 360 0 C360 18 360 18 359 22 C241.52 22 124.04 22 3 22 C1 14 1 14 0 0 Z " fill="#3D316C" transform="translate(40,212)"/>
<path d="M0 0 C118.8 0 237.6 0 360 0 C360 6.6 360 13.2 360 20 C241.2 20 122.4 20 0 20 C0 13.4 0 6.8 0 0 Z " fill="#FDFDFD" transform="translate(40,192)"/>
<path d="M0 0 C117.48 0 234.96 0 356 0 C352 18 352 18 351 20 C236.49 20 121.98 20 4 20 C0 5 0 5 0 0 Z " fill="#FBFBFC" transform="translate(43,234)"/>
<path d="M0 0 C1.57147259 0.00056958 1.57147259 0.00056958 3.17469209 0.00115067 C4.98033588 -0.00183591 4.98033588 -0.00183591 6.82245731 -0.00488281 C8.17545177 -0.00202923 9.52844603 0.00091638 10.8814401 0.00394398 C12.30535948 0.0035084 13.72927878 0.00263375 15.15319765 0.00135481 C19.0844914 -0.00089282 23.01575817 0.00313478 26.94704849 0.00813287 C31.17951763 0.01243337 35.41198514 0.01099124 39.64445585 0.0102306 C46.98363255 0.00970511 54.32280038 0.01285452 61.66197485 0.01846844 C72.27331536 0.02658005 82.88465158 0.02919831 93.49599486 0.03045643 C110.71033007 0.03264749 127.92466056 0.03930901 145.1389932 0.04875904 C161.86555546 0.05793178 178.59211644 0.06501329 195.3186807 0.06926686 C196.34893145 0.06952958 197.37918221 0.0697923 198.44065268 0.07006299 C203.60888662 0.07136798 208.77712057 0.0726317 213.94535452 0.07387489 C256.85145676 0.08424917 299.75755384 0.10186893 342.66365141 0.1241985 C344.45698307 3.64011599 346.04059534 6.81404175 346.85115141 10.6866985 C347.08898344 11.77144459 347.08898344 11.77144459 347.33162016 12.87810475 C347.66365141 15.1241985 347.66365141 15.1241985 347.66365141 20.1241985 C230.84365141 20.1241985 114.02365141 20.1241985 -6.33634859 20.1241985 C-5.74872871 15.42323944 -5.17040713 10.83266518 -4.33634859 6.1866985 C-4.17134859 5.24955006 -4.00634859 4.31240162 -3.83634859 3.34685475 C-3.16144637 0.34670344 -3.10034333 0.16481187 0 0 Z " fill="#FCFCFC" transform="translate(49.336348593235016,149.8758015036583)"/>
<path d="M0 0 C29.205 0.495 29.205 0.495 59 1 C62 17 62 17 62 21 C42.53 21 23.06 21 3 21 C1 14 1 14 0 0 Z " fill="#2B2154" transform="translate(40,212)"/>
<path d="M0 0 C19.14 0 38.28 0 58 0 C58 17 58 17 56 21 C26.795 20.505 26.795 20.505 -3 20 C-2.01 13.4 -1.02 6.8 0 0 Z " fill="#2B2155" transform="translate(342,213)"/>
</svg>
