<?xml version="1.0" encoding="UTF-8"?>
<svg version="1.1" xmlns="http://www.w3.org/2000/svg" width="400" height="400">
<path d="M0 0 C-5.01419542 6.04939244 -10.44348811 11.59442635 -15.99575806 17.1496582 C-17.0088645 18.16678642 -18.02176174 19.18412305 -19.03446901 20.20164871 C-21.80432812 22.98339681 -24.57727398 25.76204951 -27.35079002 28.54015088 C-30.34637984 31.54172506 -33.33915596 34.54610274 -36.3323822 37.55003357 C-43.54925308 44.79134744 -50.77100327 52.02778535 -57.9936381 59.26334953 C-60.03306591 61.30649248 -62.07236468 63.34976413 -64.11161757 65.39308167 C-76.77763532 78.08431783 -89.44523733 90.77397032 -102.11763954 103.45883179 C-105.04784686 106.39196868 -107.97803811 109.32512163 -110.90820312 112.25830078 C-111.63646149 112.9873052 -112.36471986 113.71630962 -113.11504667 114.46740508 C-124.93780831 126.30284713 -136.7502398 138.14854465 -148.55852683 149.99842632 C-160.68124212 162.1634941 -172.81330111 174.31917982 -184.95459402 186.46570683 C-191.77188568 193.28641806 -198.58491789 200.11127154 -205.38747025 206.94668579 C-211.1739026 212.76102657 -216.96865276 218.56690826 -222.77467252 224.36169261 C-225.73850383 227.32031554 -228.69805781 230.28291944 -231.64695168 233.2564373 C-234.34286133 235.97467136 -237.04989694 238.68126732 -239.76651709 241.37879884 C-240.75059809 242.36005627 -241.73040849 243.34561781 -242.70560785 244.33570254 C-244.02501191 245.67401677 -245.36120494 246.99571856 -246.69831276 248.31634521 C-247.43779329 249.05718227 -248.17727382 249.79801933 -248.93916285 250.561306 C-251 252 -251 252 -253.10354555 251.87299061 C-256.18623614 250.45394259 -258.34385632 248.04544154 -260.68652344 245.65405273 C-261.24306107 245.09795319 -261.79959869 244.54185364 -262.3730011 243.96890259 C-264.20899358 242.13082172 -266.03413439 240.28234668 -267.859375 238.43359375 C-269.13095686 237.15641614 -270.40320311 235.87989969 -271.67608643 234.60401917 C-275.02329412 231.24536118 -278.36139483 227.87779136 -281.69769287 224.50830078 C-285.10421627 221.07108069 -288.51925585 217.64234523 -291.93359375 214.21289062 C-298.63076904 207.48354791 -305.31835621 200.74476188 -312 194 C-310.68009923 191.12915645 -309.21754885 188.89973415 -307.12180138 186.54050827 C-306.52997798 185.87069892 -305.93815459 185.20088956 -305.32839715 184.51078296 C-304.67679703 183.78315415 -304.0251969 183.05552534 -303.35385132 182.30584717 C-302.66093542 181.52655452 -301.96801952 180.74726187 -301.25410616 179.9443543 C-298.92055139 177.32575937 -296.57893151 174.71455568 -294.23583984 172.10449219 C-293.416409 171.18933712 -292.59697815 170.27418205 -291.75271606 169.33129501 C-275.89710062 151.64144222 -259.69973897 134.27979508 -243.34577336 117.05049901 C-240.64959824 114.20967361 -237.95605989 111.36636107 -235.26416016 108.52148438 C-234.7285516 107.95552957 -234.19294305 107.38957477 -233.64110394 106.80646983 C-226.15886666 98.88886071 -218.84026995 90.84592974 -211.63519147 82.67561918 C-199.19165054 68.5651365 -186.48124265 54.76122332 -173.2109375 41.421875 C-172.69536801 40.9023862 -172.17979851 40.38289739 -171.6486057 39.8476665 C-121.01149331 -11.02046724 -68.43083346 -11.28343652 0 0 Z " fill="#48D1FD" transform="translate(356,7)"/>
<path d="M0 0 C1.01112083 0.0640248 1.01112083 0.0640248 2.04266834 0.12934303 C19.39514024 1.24858678 36.56066305 3.30939218 53.6875 6.3125 C48.82471083 12.1712357 43.58671475 17.54894152 38.19384766 22.91967773 C37.24694681 23.86629596 36.30026719 24.81313551 35.35379028 25.76017761 C32.80274132 28.31151164 30.24863695 30.8597664 27.6939435 33.40745044 C25.01757869 36.07753319 22.34407504 38.75047774 19.67025757 41.42311096 C14.61506335 46.47520611 9.55732708 51.52474829 4.49865663 56.57336241 C-1.26393942 62.32475297 -7.02367162 68.07900792 -12.78317332 73.83349693 C-24.6231142 85.66300567 -36.46661938 97.48893916 -48.3125 109.3125 C-46.89463488 112.53461452 -45.19115325 114.67960792 -42.7023468 117.15643311 C-41.95243973 117.90764435 -41.20253265 118.65885559 -40.42990112 119.43283081 C-39.60652252 120.24744781 -38.78314392 121.06206482 -37.93481445 121.90136719 C-37.0679451 122.7669223 -36.20107574 123.63247742 -35.30793762 124.52426147 C-33.42328768 126.40464628 -31.53692635 128.28310333 -29.64736366 130.15853119 C-26.65356694 133.13001005 -23.6669212 136.10860782 -20.68119812 139.0881958 C-15.95118617 143.80682716 -11.21652935 148.52076603 -6.47982138 153.23267484 C1.98461555 161.65285492 10.44361693 170.07848594 18.89725524 178.50950742 C21.85982446 181.46372034 24.82517838 184.41509992 27.79287851 187.36415815 C30.08481261 189.64283627 32.37352109 191.92475144 34.6628418 194.20605469 C35.47609924 195.01257477 36.28935669 195.81909485 37.1272583 196.65005493 C49.56063098 209.05876196 49.56063098 209.05876196 51.6875 213.3125 C50.49544952 213.3664241 49.30339905 213.42034821 48.07522583 213.47590637 C39.09866668 213.89620398 30.13924769 214.40271978 21.17919922 215.0925293 C-61.28456849 221.29133173 -61.28456849 221.29133173 -80.74609375 205.203125 C-90.03562523 197.20646287 -97.56448773 187.28452119 -104.08813477 176.96264648 C-106.64934737 173.03781873 -109.37650638 170.25577943 -112.98374939 167.29551697 C-115.85318659 164.85208544 -118.51544661 162.22445147 -121.17773438 159.56079102 C-121.97653094 158.76276817 -121.97653094 158.76276817 -122.79146481 157.94862366 C-124.49838603 156.23986046 -126.20234888 154.52818051 -127.90625 152.81640625 C-129.10528954 151.61549797 -130.30455277 150.414813 -131.50402832 149.21434021 C-134.63630208 146.07827715 -137.7655591 142.93922111 -140.89416504 139.79949951 C-144.0968727 136.58649999 -147.30246908 133.37638529 -150.5078125 130.16601562 C-156.77884789 123.88430629 -163.04669523 117.59942642 -169.3125 111.3125 C-160.12313135 91.33201101 -138.98430295 72.67578979 -124.1875 56.5625 C-123.64031956 55.96470875 -123.09313912 55.36691751 -122.52937746 54.75101137 C-85.68121831 14.57917399 -55.20929859 -3.59219912 0 0 Z " fill="#44D0FD" transform="translate(302.3125,178.6875)"/>
<path d="M0 0 C3.43244136 1.93169734 6.18973572 3.94016661 8.97091675 6.72367859 C9.72494781 7.47351517 10.47897888 8.22335175 11.25585938 8.99591064 C12.06845215 9.81412292 12.88104492 10.63233521 13.71826172 11.4753418 C14.58556915 12.34075089 15.45287659 13.20615997 16.34646606 14.09779358 C18.71805726 16.46631935 21.08509932 18.83921914 23.45006704 21.2143476 C25.93387935 23.70697415 28.42299339 26.19429628 30.91140747 28.68232727 C35.0926314 32.86448704 39.2699704 37.05049541 43.44482422 41.23901367 C48.25557864 46.06545672 53.07150214 50.88669084 57.8904742 55.7049281 C63.03797229 60.85174755 68.18164208 66.00238014 73.32421732 71.15411782 C74.79731921 72.62933986 76.27112017 74.10386034 77.74508286 75.57822227 C80.50737672 78.34171895 83.26537663 81.10947735 86.02294922 83.87768555 C86.83149353 84.68577667 87.64003784 85.4938678 88.4730835 86.32644653 C100.9232615 98.84652299 100.9232615 98.84652299 103 103 C101.80794952 103.0539241 100.61589905 103.10784821 99.38772583 103.16340637 C90.41116738 103.58370395 81.45174578 104.09019897 72.49169922 104.7800293 C60.29649973 105.69699202 48.09854318 106.30556621 35.875 106.6875 C34.78636028 106.7219157 33.69772057 106.75633141 32.57609177 106.79179001 C-14.93114754 108.11684553 -14.93114754 108.11684553 -32.78582764 91.89918518 C-41.39103944 83.63745506 -48.66469791 73.90655845 -54.81773376 63.71473694 C-55.90105765 61.84842382 -55.90105765 61.84842382 -58 61 C-57.55812238 56.6190259 -54.63715726 54.2358039 -51.65405273 51.31347656 C-51.09795319 50.75693893 -50.54185364 50.20040131 -49.96890259 49.6269989 C-48.13082172 47.79100642 -46.28234668 45.96586561 -44.43359375 44.140625 C-43.15641614 42.86904314 -41.87989969 41.59679689 -40.60401917 40.32391357 C-37.24536118 36.97670588 -33.87779136 33.63860517 -30.50830078 30.30230713 C-27.07108069 26.89578373 -23.64234523 23.48074415 -20.21289062 20.06640625 C-13.48354791 13.36923096 -6.74476188 6.68164379 0 0 Z " fill="#0E5C9E" transform="translate(251,289)"/>
<path d="M0 0 C2.98646841 1.66789251 5.239033 3.95792729 7.61116028 6.3802948 C8.15794434 6.92664078 8.70472839 7.47298676 9.26808167 8.03588867 C11.07161029 9.84150544 12.8642835 11.65751173 14.65705872 13.47380066 C15.90622026 14.72855804 17.15604629 15.98265423 18.4065094 17.2361145 C21.6945345 20.53558922 24.97345079 23.84397404 28.25056458 27.15428162 C31.59676392 30.53117911 34.95148105 33.89959096 38.30549622 37.26872253 C44.88418329 43.87957585 51.45328075 50.49987135 58.01643372 57.12614441 C52.47770235 63.87699754 46.30729773 69.96251733 40.12580872 76.11442566 C38.97310298 77.2652627 37.82062051 78.4163234 36.66835022 79.56759644 C33.65304768 82.57910483 30.6347543 85.58759778 27.61579895 88.59544373 C24.5365821 91.66439652 21.46022288 94.73621093 18.38362122 97.80778503 C12.98821781 103.1936459 7.59035133 108.5770272 2.19068909 113.95861816 C0.79823861 115.34675913 -0.5932689 116.73584702 -1.98356628 118.12614441 C-21.45356628 98.65614441 -40.92356628 79.18614441 -60.98356628 59.12614441 C-58.50856628 56.65114441 -58.50856628 56.65114441 -55.98356628 54.12614441 C-54.16159881 52.28081879 -52.34114281 50.43409724 -50.52238464 48.58561707 C-45.24500774 43.22688653 -39.9551962 37.88061705 -34.65798092 32.54149818 C-31.45930462 29.31660734 -28.26551973 26.0871509 -25.08195496 22.84733582 C-21.99425068 19.7054484 -18.89461541 16.57580755 -15.78621101 13.45440292 C-14.60444265 12.26338503 -13.42708935 11.06796977 -12.25424004 9.86816788 C-10.61931304 8.19712411 -8.96958402 6.54220911 -7.31535339 4.89030457 C-6.83264984 4.38962463 -6.34994629 3.8889447 -5.85261536 3.37309265 C-2.5950912 0.16503419 -2.5950912 0.16503419 0 0 Z " fill="#1FBBFD" transform="translate(193.9835662841797,230.8738555908203)"/>
</svg>
