<?xml version="1.0" encoding="UTF-8"?>
<svg version="1.1" xmlns="http://www.w3.org/2000/svg" width="400" height="400">
<path d="M0 0 C17.40317927 -1.27860093 33.0301404 6.57546132 47.0625 16.125 C54.14953664 20.36568271 60.26862291 18.7327526 68 17 C70.01837933 16.63210564 72.03914611 16.27697083 74.0625 15.9375 C75.51076172 15.69193359 75.51076172 15.69193359 76.98828125 15.44140625 C91.74611856 13.27845474 106.62775441 13.5784028 121.4375 14.875 C122.80455078 14.99258667 122.80455078 14.99258667 124.19921875 15.11254883 C129.23359712 15.59234202 134.05254414 16.34761906 138.95703125 17.58984375 C142.32873367 18.26676297 145.57251019 18.12463599 149 18 C149 17.34 149 16.68 149 16 C157.82447705 11.14171551 166.59736188 6.66447226 176 3 C177.32257813 2.45859375 177.32257813 2.45859375 178.671875 1.90625 C184.91074372 -0.52230293 191.41476844 -0.10545744 198 0 C198.82022612 2.35171843 199.6312654 4.7059851 200.4375 7.0625 C200.78264648 8.04766602 200.78264648 8.04766602 201.13476562 9.05273438 C203.52612716 16.08818931 204.19251502 22.92119213 204.1875 30.3125 C204.18959473 31.05653076 204.19168945 31.80056152 204.19384766 32.56713867 C204.15351727 37.57955155 203.6302985 42.17827994 202.2421875 47.01953125 C201.92186376 49.63895279 202.51571467 50.84825303 204 53 C204.99 53.33 205.98 53.66 207 54 C223.57589102 74.99612862 225.22764613 98.82835649 223.125 124.625 C223.04636719 125.69234375 222.96773438 126.7596875 222.88671875 127.859375 C222.80292969 128.90867188 222.71914063 129.95796875 222.6328125 131.0390625 C222.52283936 132.43439209 222.52283936 132.43439209 222.41064453 133.85791016 C221.87310147 137.97097745 220.95231302 141.96559977 220 146 C221.77938965 145.97643433 221.77938965 145.97643433 223.59472656 145.95239258 C250.8757594 145.62315549 277.05431525 146.34780842 304 151 C304 152.32 304 153.64 304 155 C302.98667603 154.81171631 302.98667603 154.81171631 301.95288086 154.61962891 C293.19578468 153.06888551 284.41755505 152.12714047 275.5625 151.375 C274.79973755 151.30896576 274.0369751 151.24293152 273.25109863 151.17489624 C255.17320476 149.64595853 237.12686589 149.69454383 219 150 C218.34 151.65 217.68 153.3 217 155 C218.37091797 155.07347656 218.37091797 155.07347656 219.76953125 155.1484375 C223.5801688 155.35768933 227.3888307 155.59530665 231.19775391 155.83349609 C233.10577572 155.94686697 235.01436393 156.05099775 236.92333984 156.14697266 C250.99196652 156.85478569 264.718346 158.40032359 278.5625 160.9375 C279.2627832 161.06474457 279.96306641 161.19198914 280.68457031 161.3230896 C288.5976131 162.77638439 296.3576704 164.45104429 304 167 C304 167.99 304 168.98 304 170 C298.20768439 169.72152329 292.89477182 168.75348384 287.3125 167.1875 C264.11000166 160.96724362 238.87148432 160.06852834 215 158 C214.86207031 158.60884033 214.72414063 159.21768066 214.58203125 159.8449707 C211.63171957 170.7687967 201.07638438 180.72056076 191.734375 186.53515625 C175.66181605 195.14545569 157.90933864 199.18986958 140 202 C140.45890625 202.46148437 140.9178125 202.92296875 141.390625 203.3984375 C151.02949097 213.64479502 153.34595906 226.03549736 153.1953125 239.72265625 C153.1924826 240.70874374 153.18965271 241.69483124 153.18673706 242.71080017 C153.17563505 245.82816237 153.15054945 248.94522617 153.125 252.0625 C153.11495729 254.18944895 153.10583371 256.31640244 153.09765625 258.44335938 C153.07572848 263.6290194 153.04126846 268.81445929 153 274 C153.61211838 274.06629608 154.22423676 274.13259216 154.85490417 274.20089722 C155.66099625 274.2891275 156.46708832 274.37735779 157.29760742 274.46826172 C158.49422249 274.59864334 158.49422249 274.59864334 159.7150116 274.73165894 C179.00028565 276.99645422 202.66639656 284.12790386 216 299 C219.72762116 304.25255708 220.61537093 308.64116707 220 315 C219 318.5 219 318.5 218 321 C217.34 321 216.68 321 216 321 C215.90138672 321.87011719 215.90138672 321.87011719 215.80078125 322.7578125 C213.28452961 329.8033171 201.84187128 334.5066007 195.421875 337.55859375 C183.62265149 342.52881461 171.62194464 345.85762494 159 348 C157.60134895 348.25665147 156.20291822 348.51450589 154.8046875 348.7734375 C106.7458552 357.48118531 42.14007943 358.23077975 -0.46875 330.38671875 C-0.9740625 329.92910156 -1.479375 329.47148437 -2 329 C-2 328.34 -2 327.68 -2 327 C-2.556875 326.814375 -3.11375 326.62875 -3.6875 326.4375 C-7.62395658 323.99051348 -10.24845978 320.45695843 -11.609375 316.0078125 C-12.61578109 309.84956572 -11.10672828 305.13440453 -8.25 299.625 C-1.55140992 290.85162538 10.93516867 285.60268055 21 282 C22.18464844 281.56945312 23.36929688 281.13890625 24.58984375 280.6953125 C43.53898067 274 43.53898067 274 53 274 C53 265.09 53 256.18 53 247 C50.03 247.99 50.03 247.99 47 249 C43.62914173 249.40493856 40.26838643 249.38044636 36.875 249.375 C35.94373291 249.37483887 35.01246582 249.37467773 34.05297852 249.37451172 C25.12647702 249.22699191 17.9077845 247.05433755 10 243 C10 242.34 10 241.68 10 241 C9.319375 240.835 8.63875 240.67 7.9375 240.5 C-1.09414513 235.88809611 -6.34696769 224.63079463 -11 216 C-11 215.34 -11 214.68 -11 214 C-11.66 214 -12.32 214 -13 214 C-13.2475 213.21625 -13.495 212.4325 -13.75 211.625 C-15.2215669 208.53470952 -15.891049 208.2090365 -19 207 C-21 206 -23 205 -25 204 C-24.649375 205.175625 -24.29875 206.35125 -23.9375 207.5625 C-22.87088402 211.74691653 -23.12477305 214.79891062 -24 219 C-25.75 219.75 -25.75 219.75 -28 220 C-30.375 218.6875 -30.375 218.6875 -32 216 C-31.76186517 212.54994905 -30.88829402 209.33238624 -30 206 C-29.25233746 203.39627223 -29.25233746 203.39627223 -29 201 C-30.31266518 199.64631404 -31.64567325 198.31200404 -33 197 C-33 194.875 -33 194.875 -32 193 C-29.07883727 190.66306982 -25.86123886 190.63865295 -22.20703125 190.75390625 C-11.54788644 191.94244806 -4.21911892 198.08438224 2.47265625 206.05078125 C4.47283179 208.60343494 6.24394745 211.27509087 8 214 C12.02459585 219.96236422 17.74093737 223.64718155 24.3125 226.375 C33.82968073 227.98808148 44.47921021 228.07417819 53 223 C54.88796243 220.08223989 55.90074696 217.36593526 56.94921875 214.05859375 C58.56444719 209.35701802 61.49432481 205.50567519 65 202 C60.55382184 200.99954457 56.10660819 200.01395985 51.640625 199.10546875 C42.37137783 197.18848383 33.71972091 194.77616329 25 191 C24.07703125 190.60167969 23.1540625 190.20335937 22.203125 189.79296875 C20.12625995 188.88030911 18.05890898 187.95231191 16 187 C16 186.34 16 185.68 16 185 C15.12988281 184.83757812 15.12988281 184.83757812 14.2421875 184.671875 C10.22256244 183.46738805 7.24540764 180.58016125 4 178 C3.38898438 177.53722656 2.77796875 177.07445312 2.1484375 176.59765625 C0.70491218 175.47225381 -0.65631805 174.2429058 -2 173 C-2 172.01 -2 171.02 -2 170 C-2.99 169.67 -3.98 169.34 -5 169 C-5 168.34 -5 167.68 -5 167 C-5.66 167 -6.32 167 -7 167 C-11 160.25 -11 160.25 -11 158 C-51.47640535 161.43768046 -51.47640535 161.43768046 -91.17260742 169.58862305 C-93 170 -93 170 -96 170 C-96 168.68 -96 167.36 -96 166 C-92.17330635 165.12997538 -88.33758046 164.31239187 -84.49462891 163.51806641 C-82.75098454 163.15595901 -81.00855684 162.78796544 -79.26708984 162.41552734 C-58.0843492 157.93436021 -35.7208938 154.67973269 -14 155 C-14.33 153.02 -14.66 151.04 -15 149 C-42.13592834 149.45393743 -69.00355399 151.23930149 -96 154 C-96 153.01 -96 152.02 -96 151 C-70.08669246 144.79806375 -43.44792388 145.63087996 -17 146 C-17.29003906 145.16082031 -17.29003906 145.16082031 -17.5859375 144.3046875 C-21.55662036 132.07812937 -22.34544782 119.78375492 -22.3125 107 C-22.32861328 105.74960938 -22.34472656 104.49921875 -22.36132812 103.2109375 C-22.37121175 84.11577514 -16.98181524 69.09084675 -4.52734375 54.71875 C-2.63585017 52.07153557 -2.63585017 52.07153557 -3.69140625 49.09375 C-4.12324219 48.0728125 -4.55507812 47.051875 -5 46 C-7.82352363 30.51558062 -6.53389899 14.33651622 0 0 Z M102 224 C100.79949544 224.98077719 100.79949544 224.98077719 100.87974548 226.82862854 C100.88196609 227.62582809 100.88418671 228.42302765 100.88647461 229.24438477 C100.88655014 230.14524307 100.88662567 231.04610138 100.88670349 231.97425842 C100.89186478 232.95341721 100.89702606 233.93257599 100.90234375 234.94140625 C100.9037587 235.93881332 100.90517365 236.9362204 100.90663147 237.96385193 C100.91224886 241.16343124 100.92480429 244.36294169 100.9375 247.5625 C100.94251276 249.72591045 100.94707605 251.88932199 100.95117188 254.05273438 C100.96222393 259.36851325 100.97897896 264.68425171 101 270 C101.99 270 102.98 270 104 270 C104 254.82 104 239.64 104 224 C103.34 224 102.68 224 102 224 Z M78 230 C71.86857392 237.99751227 72.73681177 249.09001206 72.875 258.625 C72.88402344 259.81996094 72.89304688 261.01492188 72.90234375 262.24609375 C72.92568923 265.16427834 72.95843344 268.08202776 73 271 C74.98 271 76.96 271 79 271 C79 257.47 79 243.94 79 230 C78.67 230 78.34 230 78 230 Z M127 231 C127 244.2 127 257.4 127 271 C128.65 271 130.3 271 132 271 C132.94366721 251.21371185 132.94366721 251.21371185 129 232 C128.34 231.67 127.68 231.34 127 231 Z " fill="#201F1F" transform="translate(96,29)"/>
<path d="M0 0 C8.18134138 4.88143231 13.90065201 12.08721863 19 20 C23.02459585 25.96236422 28.74093737 29.64718155 35.3125 32.375 C44.81354927 33.98534733 55.50376341 34.0906222 64 29 C66.50078167 25.19103632 67.70160626 21.33407487 69 17 C72.03765559 12.44351661 75.80370606 12.10893111 81 11 C91.35703944 9.89091093 101.81780001 9.75693671 112.22558594 9.70483398 C113.82886537 9.69325148 115.4321044 9.672702 117.03515625 9.64331055 C129.78027138 9.41146343 144.00296579 9.92576895 154 19 C156.62764321 22.16909697 158.89853684 25.46209366 161 29 C161.52078125 29.82846436 162.0415625 30.65692871 162.578125 31.51049805 C164.50645485 36.24291882 164.37512359 40.37135378 164.29296875 45.4296875 C164.28872391 46.42001984 164.28447906 47.41035217 164.28010559 48.43069458 C164.26337622 51.57907845 164.22573419 54.72681113 164.1875 57.875 C164.17244576 60.01561572 164.15875865 62.15624153 164.14648438 64.296875 C164.1134916 69.53147041 164.06334956 74.76568867 164 80 C164.61211838 80.06629608 165.22423676 80.13259216 165.85490417 80.20089722 C166.66099625 80.2891275 167.46708832 80.37735779 168.29760742 80.46826172 C169.0953508 80.5551828 169.89309418 80.64210388 170.7150116 80.73165894 C190.00028565 82.99645422 213.66639656 90.12790386 227 105 C230.72762116 110.25255708 231.61537093 114.64116707 231 121 C230 124.5 230 124.5 229 127 C228.34 127 227.68 127 227 127 C226.90138672 127.87011719 226.90138672 127.87011719 226.80078125 128.7578125 C224.28452961 135.8033171 212.84187128 140.5066007 206.421875 143.55859375 C194.62265149 148.52881461 182.62194464 151.85762494 170 154 C168.60134895 154.25665147 167.20291822 154.51450589 165.8046875 154.7734375 C117.7458552 163.48118531 53.14007943 164.23077975 10.53125 136.38671875 C9.77328125 135.70029297 9.77328125 135.70029297 9 135 C9 134.34 9 133.68 9 133 C8.443125 132.814375 7.88625 132.62875 7.3125 132.4375 C3.37604342 129.99051348 0.75154022 126.45695843 -0.609375 122.0078125 C-1.61578109 115.84956572 -0.10672828 111.13440453 2.75 105.625 C9.44859008 96.85162538 21.93516867 91.60268055 32 88 C33.18464844 87.56945312 34.36929688 87.13890625 35.58984375 86.6953125 C54.53898067 80 54.53898067 80 64 80 C64 71.09 64 62.18 64 53 C62.02 53.66 60.04 54.32 58 55 C54.62914173 55.40493856 51.26838643 55.38044636 47.875 55.375 C46.94373291 55.37483887 46.01246582 55.37467773 45.05297852 55.37451172 C36.12647702 55.22699191 28.9077845 53.05433755 21 49 C21 48.34 21 47.68 21 47 C20.319375 46.835 19.63875 46.67 18.9375 46.5 C9.90585487 41.88809611 4.65303231 30.63079463 0 22 C0 21.34 0 20.68 0 20 C-0.66 20 -1.32 20 -2 20 C-2.2475 19.21625 -2.495 18.4325 -2.75 17.625 C-4.2215669 14.53470952 -4.891049 14.2090365 -8 13 C-10 12 -12 11 -14 10 C-13.649375 11.175625 -13.29875 12.35125 -12.9375 13.5625 C-11.87088402 17.74691653 -12.12477305 20.79891062 -13 25 C-14.75 25.75 -14.75 25.75 -17 26 C-19.375 24.6875 -19.375 24.6875 -21 22 C-20.76186517 18.54994905 -19.88829402 15.33238624 -19 12 C-18.25233746 9.39627223 -18.25233746 9.39627223 -18 7 C-19.31266518 5.64631404 -20.64567325 4.31200404 -22 3 C-22 0.875 -22 0.875 -21 -1 C-15.17932018 -5.65654385 -6.06128838 -2.8179674 0 0 Z M113 30 C111.79949544 30.98077719 111.79949544 30.98077719 111.87974548 32.82862854 C111.88196609 33.62582809 111.88418671 34.42302765 111.88647461 35.24438477 C111.88655014 36.14524307 111.88662567 37.04610138 111.88670349 37.97425842 C111.89186478 38.95341721 111.89702606 39.93257599 111.90234375 40.94140625 C111.9037587 41.93881332 111.90517365 42.9362204 111.90663147 43.96385193 C111.91224886 47.16343124 111.92480429 50.36294169 111.9375 53.5625 C111.94251276 55.72591045 111.94707605 57.88932199 111.95117188 60.05273438 C111.96222393 65.36851325 111.97897896 70.68425171 112 76 C112.99 76 113.98 76 115 76 C115 60.82 115 45.64 115 30 C114.34 30 113.68 30 113 30 Z M89 36 C82.86857392 43.99751227 83.73681177 55.09001206 83.875 64.625 C83.88402344 65.81996094 83.89304687 67.01492188 83.90234375 68.24609375 C83.92568923 71.16427834 83.95843344 74.08202776 84 77 C85.98 77 87.96 77 90 77 C90 63.47 90 49.94 90 36 C89.67 36 89.34 36 89 36 Z M138 37 C138 50.2 138 63.4 138 77 C139.65 77 141.3 77 143 77 C143.94366721 57.21371185 143.94366721 57.21371185 140 38 C139.34 37.67 138.68 37.34 138 37 Z " fill="#202020" transform="translate(85,223)"/>
<path d="M0 0 C5.04348477 0.65584229 10.05474689 0.6391093 15.1340332 0.62841797 C16.65341492 0.62985306 16.65341492 0.62985306 18.20349121 0.63131714 C20.33479881 0.63199449 22.46610853 0.63017141 24.59741211 0.62597656 C27.8427396 0.62062204 31.08792872 0.62593675 34.33325195 0.63232422 C36.41267934 0.63166336 38.49210664 0.63038203 40.5715332 0.62841797 C41.53321411 0.6304422 42.49489502 0.63246643 43.48571777 0.634552 C48.87610568 0.61597305 54.01426129 0.22347314 59.3527832 -0.50439453 C63.3318563 -0.69911026 67.30681405 -0.68941879 71.2902832 -0.69189453 C72.3234668 -0.70414062 73.35665039 -0.71638672 74.42114258 -0.72900391 C88.16386028 -0.7551142 99.12852039 2.71603959 109.3137207 12.25341797 C112.67979844 15.95481379 115.12995741 20.02974638 117.3527832 24.49560547 C117.89290039 25.53458984 118.43301758 26.57357422 118.98950195 27.64404297 C120.95142485 32.33557021 120.84388819 37.03912268 120.7902832 42.05810547 C120.78416016 43.0295752 120.77803711 44.00104492 120.77172852 45.00195312 C120.59795272 53.05846618 119.34308315 59.96294678 116.3527832 67.49560547 C116.05243164 68.26904297 115.75208008 69.04248047 115.44262695 69.83935547 C110.74350735 80.41746021 102.30511223 86.79108954 91.7277832 90.90576172 C76.9617286 96.14811465 62.47665885 97.63092859 46.8684082 97.69873047 C45.81030945 97.70443054 44.75221069 97.71013062 43.66204834 97.71600342 C41.43348161 97.7253828 39.20490145 97.73195899 36.97631836 97.73583984 C33.65232502 97.74546206 30.32897371 97.77652029 27.00512695 97.80810547 C1.51845471 97.93349432 -30.00436791 97.53614816 -49.6159668 78.74169922 C-60.53188235 66.67121568 -63.88284582 52.24641004 -63.2175293 36.34716797 C-62.14939384 23.88558758 -53.99385225 13.76675409 -44.75268555 5.87841797 C-32.67825959 -2.71348934 -14.03965784 -1.94162481 0 0 Z " fill="#F2C9B0" transform="translate(168.647216796875,123.50439453125)"/>
<path d="M0 0 C1.65 0 3.3 0 5 0 C5.0093457 1.01312256 5.01869141 2.02624512 5.02832031 3.07006836 C5.06851122 6.86688512 5.13434669 10.66291611 5.20751953 14.45922852 C5.23556187 16.09519272 5.25685881 17.73128819 5.27099609 19.36743164 C5.24295624 34.30870082 5.24295624 34.30870082 12.6875 46.8125 C19.24317675 51.1417205 25.16149718 53.42992707 33 54 C33.9363921 50.70054409 33.9363921 50.70054409 34 47 C32.38263741 45.6072711 30.7074998 44.28062485 29 43 C26.43628206 37.39487151 25.57231886 32.89241729 25.70703125 26.78125 C25.71127609 26.03790405 25.71552094 25.29455811 25.71989441 24.52868652 C25.73650919 22.18540142 25.77412546 19.84301923 25.8125 17.5 C25.82756922 15.89845004 25.84125368 14.29688642 25.85351562 12.6953125 C25.88635574 8.79653417 25.93801437 4.89841944 26 1 C27.98 1 29.96 1 32 1 C32.05607422 2.79244141 32.05607422 2.79244141 32.11328125 4.62109375 C32.6273246 18.26863246 32.6273246 18.26863246 37.625 30.8125 C43.63686988 36.34974857 51.28658252 38.14905889 59.25 38.0625 C60.32765625 38.05347656 61.4053125 38.04445313 62.515625 38.03515625 C63.33546875 38.02355469 64.1553125 38.01195312 65 38 C65.33 37.01 65.66 36.02 66 35 C64.15658318 32.95175909 62.53278223 31.72576348 60.125 30.3125 C56.08062611 27.31966332 53.61095414 24.82588861 52 20 C51.4205159 14.68111575 51.70893133 9.3297908 52 4 C73.63871036 5.44590461 100.95202313 12.21571811 116 29 C119.72762116 34.25255708 120.61537093 38.64116707 120 45 C119 48.5 119 48.5 118 51 C117.34 51 116.68 51 116 51 C115.90138672 51.87011719 115.90138672 51.87011719 115.80078125 52.7578125 C113.28452961 59.8033171 101.84187128 64.5066007 95.421875 67.55859375 C83.62265149 72.52881461 71.62194464 75.85762494 59 78 C57.60134895 78.25665147 56.20291822 78.51450589 54.8046875 78.7734375 C6.7458552 87.48118531 -57.85992057 88.23077975 -100.46875 60.38671875 C-100.9740625 59.92910156 -101.479375 59.47148437 -102 59 C-102 58.34 -102 57.68 -102 57 C-102.8353125 56.7215625 -102.8353125 56.7215625 -103.6875 56.4375 C-107.62395658 53.99051348 -110.24845978 50.45695843 -111.609375 46.0078125 C-112.61578109 39.84956572 -111.10672828 35.13440453 -108.25 29.625 C-101.55140992 20.85162538 -89.06483133 15.60268055 -79 12 C-77.81535156 11.56945312 -76.63070312 11.13890625 -75.41015625 10.6953125 C-56.46101933 4 -56.46101933 4 -47 4 C-45.79501602 21.90261911 -45.79501602 21.90261911 -50.0625 26.875 C-53.38276506 29.8429104 -57.01012455 32.04577529 -61 34 C-61 35.32 -61 36.64 -61 38 C-50.8124801 38.4726169 -41.07582211 37.92213323 -33 31 C-28.0853376 24.37863812 -27.81870862 17.60539059 -27.4375 9.6875 C-27.37272461 8.43356445 -27.37272461 8.43356445 -27.30664062 7.15429688 C-27.20114693 5.10303065 -27.10012685 3.0515352 -27 1 C-25.02 1 -23.04 1 -21 1 C-20.95045037 6.0353859 -20.91420963 11.0706289 -20.89013672 16.10620117 C-20.88009792 17.81814039 -20.86646405 19.53006255 -20.84912109 21.24194336 C-20.82477927 23.70691142 -20.81349562 26.17165215 -20.8046875 28.63671875 C-20.79436493 29.39836838 -20.78404236 30.16001801 -20.77340698 30.94474792 C-20.77237259 35.87746995 -21.04432021 39.94034737 -24.54296875 43.625 C-25.35701172 44.305625 -25.35701172 44.305625 -26.1875 45 C-27.80333098 46.43880005 -27.80333098 46.43880005 -29 48 C-29.04097782 50.81416116 -29.04097782 50.81416116 -28 53 C-20.18537758 53.9016872 -14.56357931 51.13647157 -8 47 C-4.06274558 43.6835222 -2.34272714 39.91707977 -1 35 C-0.77267723 32.22373797 -0.62960903 29.53516171 -0.5859375 26.7578125 C-0.56657135 25.98944061 -0.5472052 25.22106873 -0.5272522 24.42941284 C-0.46785883 21.99471862 -0.42123372 19.55997607 -0.375 17.125 C-0.33678307 15.46612614 -0.29772921 13.80727133 -0.2578125 12.1484375 C-0.16219093 8.09911458 -0.07801299 4.04969887 0 0 Z " fill="#92D0EC" transform="translate(196,299)"/>
<path d="M0 0 C1.20498398 17.90261911 1.20498398 17.90261911 -3.0625 22.875 C-6.38276506 25.8429104 -10.01012455 28.04577529 -14 30 C-14 31.32 -14 32.64 -14 34 C-12.2226869 35.38937166 -10.35180627 36.26155243 -8.3359375 37.265625 C-3.64817348 40.7461722 -0.41372656 44.24717585 0.47802734 50.18066406 C0.58955872 53.80518151 0.5242036 57.37703044 0.375 61 C0.33439453 62.87751953 0.33439453 62.87751953 0.29296875 64.79296875 C0.22264472 67.86378464 0.12426501 70.93097285 0 74 C-8.3261281 73.60238067 -15.81275047 71.9306368 -23.75 69.4375 C-24.8851001 69.0854248 -26.0202002 68.73334961 -27.18969727 68.37060547 C-37.29561563 65.12039568 -46.16068443 60.89287705 -55 55 C-55 54.34 -55 53.68 -55 53 C-55.8353125 52.7215625 -55.8353125 52.7215625 -56.6875 52.4375 C-60.62395658 49.99051348 -63.24845978 46.45695843 -64.609375 42.0078125 C-65.61578109 35.84956572 -64.10672828 31.13440453 -61.25 25.625 C-54.55140992 16.85162538 -42.06483133 11.60268055 -32 8 C-30.22302734 7.35417969 -30.22302734 7.35417969 -28.41015625 6.6953125 C-9.46101933 0 -9.46101933 0 0 0 Z " fill="#9BD9EF" transform="translate(149,303)"/>
<path d="M0 0 C8.18134138 4.88143231 13.90065201 12.08721863 19 20 C23.02459585 25.96236422 28.74093737 29.64718155 35.3125 32.375 C45.41195475 34.08677199 54.16158914 32.56654196 64 30 C63.67 37.59 63.34 45.18 63 53 C57.53517824 55.1859287 53.70543313 55.38417244 47.9375 55.375 C47.00172119 55.37483887 46.06594238 55.37467773 45.10180664 55.37451172 C36.1544301 55.22736366 28.92688095 53.06412834 21 49 C21 48.34 21 47.68 21 47 C20.319375 46.835 19.63875 46.67 18.9375 46.5 C9.90585487 41.88809611 4.65303231 30.63079463 0 22 C0 21.34 0 20.68 0 20 C-0.66 20 -1.32 20 -2 20 C-2.2475 19.21625 -2.495 18.4325 -2.75 17.625 C-4.2215669 14.53470952 -4.891049 14.2090365 -8 13 C-10 12 -12 11 -14 10 C-13.649375 11.175625 -13.29875 12.35125 -12.9375 13.5625 C-11.87088402 17.74691653 -12.12477305 20.79891062 -13 25 C-14.75 25.75 -14.75 25.75 -17 26 C-19.375 24.6875 -19.375 24.6875 -21 22 C-20.76186517 18.54994905 -19.88829402 15.33238624 -19 12 C-18.25233746 9.39627223 -18.25233746 9.39627223 -18 7 C-19.31266518 5.64631404 -20.64567325 4.31200404 -22 3 C-22 0.875 -22 0.875 -21 -1 C-15.17932018 -5.65654385 -6.06128838 -2.8179674 0 0 Z " fill="#222324" transform="translate(85,223)"/>
<path d="M0 0 C6.86099779 2.97741414 10.55207737 9.57763742 13.375 16.25 C15.20669742 27.24018449 14.67729165 37.95788319 8.3125 47.375 C4.70637954 51.76467257 0.70019982 54.52487707 -5.0078125 55.2578125 C-10.25988837 55.07244512 -13.52507888 52.58447773 -17.23828125 49.0390625 C-24.40141575 40.74825051 -24.90159765 30.64958522 -24.26953125 20.14599609 C-23.40643114 13.27403056 -19.54309206 7.17484342 -14.8125 2.25 C-10.32524397 -1.12042786 -5.34538613 -0.9151949 0 0 Z " fill="#FDFBFA" transform="translate(153,140)"/>
<path d="M0 0 C7.18842418 3.9404983 10.50191697 10.50575091 13 18 C13.69379959 28.55485282 14.21904072 39.49072872 7.24609375 48.1875 C3.21297208 52.3637596 0.69902276 54.16389711 -5.1875 54.375 C-9.91132966 54.30707565 -12.88230459 53.75414071 -16.50390625 50.6796875 C-23.34374257 43.0004979 -25.48219821 33.84216486 -25.24609375 23.80078125 C-24.42131528 14.41401678 -20.73864536 7.33247576 -13.8125 1 C-9.15421563 -0.65627889 -4.86082104 -0.93948642 0 0 Z " fill="#FDFBFA" transform="translate(256,140)"/>
<path d="M0 0 C1.98 0 3.96 0 6 0 C6.05607422 1.79244141 6.05607422 1.79244141 6.11328125 3.62109375 C6.6273246 17.26863246 6.6273246 17.26863246 11.625 29.8125 C19.21852738 36.80653837 29.19667017 37.08582446 39 38 C37.84564453 38.91652344 37.84564453 38.91652344 36.66796875 39.8515625 C31.69275599 43.85795638 28.559255 46.70850822 27 53 C26.62366319 57.1209433 26.4919035 61.23953867 26.375 65.375 C26.33632812 66.49261719 26.29765625 67.61023438 26.2578125 68.76171875 C26.16393445 71.50765161 26.07825089 74.25358476 26 77 C19.58202409 78.15379342 13.54928773 79.132142 7 79 C6.97093388 74.43751341 6.95317887 69.8750507 6.9375 65.3125 C6.92912109 64.01892578 6.92074219 62.72535156 6.91210938 61.39257812 C6.90888672 60.14541016 6.90566406 58.89824219 6.90234375 57.61328125 C6.89710693 56.46641846 6.89187012 55.31955566 6.88647461 54.13793945 C6.98924193 51.29736223 7.34683584 48.75956208 8 46 C7.236875 45.505 6.47375 45.01 5.6875 44.5 C1.47765368 40.58386389 -0.10663199 35.62531576 -0.34057617 29.97070312 C-0.34011087 28.57412866 -0.32374686 27.17748535 -0.29296875 25.78125 C-0.28660149 24.66623108 -0.28660149 24.66623108 -0.28010559 23.52868652 C-0.26349081 21.18540142 -0.22587454 18.84301923 -0.1875 16.5 C-0.17243078 14.89845004 -0.15874632 13.29688642 -0.14648438 11.6953125 C-0.11364426 7.79653417 -0.06198563 3.89841944 0 0 Z " fill="#7CB9E5" transform="translate(222,300)"/>
<path d="M0 0 C4.20401199 2.10200599 7.13039847 4.57849492 9.30859375 8.81640625 C11.67165443 16.27940579 10.48058529 24.1588496 7 31 C4.33373422 34.4809581 2.75851495 35.76554993 -1.4375 37.0625 C-6.00690583 36.98233499 -7.6296049 36.07080442 -11 33 C-15.48003176 27.46584312 -15.65679549 21.2584332 -15.45703125 14.35546875 C-14.6600552 8.50416596 -12.06303588 5.12958542 -8.0625 1 C-5.11567528 -0.4287635 -3.24401422 -0.45416199 0 0 Z " fill="#AE6055" transform="translate(251,149)"/>
<path d="M0 0 C3.83761987 1.2958197 5.99912522 4.37285674 8.10546875 7.7109375 C10.29803179 14.28862663 10.38549517 22.95934424 7.48046875 29.3359375 C5.30702179 32.8820878 2.94084413 34.98125841 -0.89453125 36.7109375 C-4.55614676 36.90709547 -6.74031813 36.67762401 -9.6015625 34.28125 C-14.893093 28.48760346 -16.33059978 22.91697751 -16.14453125 15.171875 C-15.4993856 8.82122252 -12.59821857 4.81158799 -7.89453125 0.7109375 C-5.20595265 -0.6333518 -2.92823465 -0.39469829 0 0 Z " fill="#AE6055" transform="translate(152.89453125,149.2890625)"/>
<path d="M0 0 C5.04348477 0.65584229 10.05474689 0.6391093 15.1340332 0.62841797 C16.65341492 0.62985306 16.65341492 0.62985306 18.20349121 0.63131714 C20.33479881 0.63199449 22.46610853 0.63017141 24.59741211 0.62597656 C27.8427396 0.62062204 31.08792872 0.62593675 34.33325195 0.63232422 C36.41267934 0.63166336 38.49210664 0.63038203 40.5715332 0.62841797 C41.53321411 0.6304422 42.49489502 0.63246643 43.48571777 0.634552 C48.87610568 0.61597305 54.01426129 0.22347314 59.3527832 -0.50439453 C63.3318563 -0.69911026 67.30681405 -0.68941879 71.2902832 -0.69189453 C72.3234668 -0.70414062 73.35665039 -0.71638672 74.42114258 -0.72900391 C88.16386028 -0.7551142 99.12852039 2.71603959 109.3137207 12.25341797 C112.68883316 15.96474853 115.07984977 20.04414159 117.3527832 24.49560547 C117.70469727 25.17236328 118.05661133 25.84912109 118.41918945 26.54638672 C120.06823155 29.99976186 120.48740659 31.8804606 119.3527832 35.49560547 C118.6431543 33.91972656 118.6431543 33.91972656 117.91918945 32.31201172 C112.95828095 21.6430087 107.66620832 12.45904991 96.56762695 7.24951172 C88.40893959 4.47239239 81.0704594 4.18336789 72.4777832 4.24560547 C71.18364502 4.24947266 69.88950684 4.25333984 68.55615234 4.25732422 C60.83578325 4.32673379 53.31904001 4.76667868 45.671875 5.77490234 C31.6758474 7.55796014 17.73185756 6.4455641 3.73510742 5.21630859 C-3.21152073 4.62875616 -10.11282807 4.27585501 -17.0847168 4.24560547 C-18.31629517 4.23207031 -18.31629517 4.23207031 -19.57275391 4.21826172 C-31.24586116 4.27566456 -40.85739334 6.99114148 -49.7097168 14.80810547 C-55.29213983 20.61517329 -58.34173944 28.251687 -61.6472168 35.49560547 C-63.22256221 30.50228696 -61.1256946 27.51577262 -58.81494141 22.99975586 C-53.64779948 13.34282209 -46.42957643 5.35300916 -36.0300293 1.53466797 C-24.66284694 -1.68357327 -11.64995552 -1.61113917 0 0 Z " fill="#BF9883" transform="translate(168.647216796875,123.50439453125)"/>
<path d="M0 0 C2.08369901 0.95753798 4.16694547 1.9160608 6.25 2.875 C7.41015625 3.40867187 8.5703125 3.94234375 9.765625 4.4921875 C12.19853869 5.6263719 14.60910636 6.78088096 17 8 C16.68289062 8.76570313 16.36578125 9.53140625 16.0390625 10.3203125 C14.66573216 15.18376053 14.53860147 19.84425471 14.375 24.875 C14.33632812 25.84953125 14.29765625 26.8240625 14.2578125 27.828125 C14.16406967 30.2185672 14.0783617 32.60901244 14 35 C10.05707672 35.73383801 6.32241131 36.13618525 2.3125 36.125 C1.38050781 36.12757813 0.44851562 36.13015625 -0.51171875 36.1328125 C-3 36 -3 36 -6 35 C-6.89288073 10.33932109 -6.89288073 10.33932109 0 0 Z " fill="#7CBAE5" transform="translate(208,346)"/>
<path d="M0 0 C1.65 0 3.3 0 5 0 C5.0093457 1.01312256 5.01869141 2.02624512 5.02832031 3.07006836 C5.06851122 6.86688512 5.13434669 10.66291611 5.20751953 14.45922852 C5.23556187 16.09519272 5.25685881 17.73128819 5.27099609 19.36743164 C5.06170228 33.83325609 5.06170228 33.83325609 12 46 C11.69757223 48.23513026 10.99600468 50.00877305 10.0625 52.05859375 C5.81300037 61.57309845 6.16544504 71.75809604 6 82 C6.99 82.33 7.98 82.66 9 83 C5.04 83 1.08 83 -3 83 C-1.515 82.505 -1.515 82.505 0 82 C-0.13986204 65.25837238 -0.13986204 65.25837238 -6 50 C-6.83020703 45.01875783 -4.51455183 42.11472118 -2 38 C-0.77681134 34.33043403 -0.76883876 30.87678997 -0.68359375 27.05078125 C-0.66281265 26.27816452 -0.64203156 25.50554779 -0.62062073 24.70951843 C-0.55528962 22.2439352 -0.49631685 19.77824639 -0.4375 17.3125 C-0.39429913 15.63996309 -0.35068434 13.96743681 -0.30664062 12.29492188 C-0.1996251 8.1967225 -0.09831143 4.09841704 0 0 Z " fill="#99D6EC" transform="translate(196,299)"/>
<path d="M0 0 C1.03498627 -0.02234207 1.03498627 -0.02234207 2.09088135 -0.0451355 C4.36829695 -0.08886385 6.64508553 -0.10938253 8.92285156 -0.12597656 C10.51222743 -0.14324498 12.10160324 -0.160518 13.690979 -0.17779541 C17.02318215 -0.20928824 20.35516904 -0.22683914 23.6875 -0.23730469 C27.94318927 -0.2537367 32.19598728 -0.32576716 36.45077133 -0.41122055 C39.73496637 -0.46730243 43.01847495 -0.48272666 46.30310822 -0.48731232 C47.87082955 -0.496352 49.43854259 -0.5203052 51.00579071 -0.55986786 C63.1615976 -0.84476863 63.1615976 -0.84476863 67.76989746 2.37341309 C74.02435324 9.1637334 77.2694079 17.35160877 78.06347656 26.48339844 C75.06990655 24.98661343 74.51171072 22.45482724 73.16113281 19.49121094 C72.02994035 17.42205462 70.71978279 16.13498584 69.06347656 14.48339844 C69.06347656 13.82339844 69.06347656 13.16339844 69.06347656 12.48339844 C66.33283739 11.10577867 63.59169497 9.76257813 60.81347656 8.48339844 C60.10707031 8.15339844 59.40066406 7.82339844 58.67285156 7.48339844 C52.29923097 5.0408133 46.47341223 4.18558172 39.71582031 4.25292969 C38.94146133 4.25338791 38.16710236 4.25384613 37.36927795 4.25431824 C35.73811298 4.25732075 34.10695036 4.26514646 32.47583008 4.27758789 C30.03162978 4.29567165 27.58781454 4.29809813 25.14355469 4.29785156 C5.92853752 4.27259567 5.92853752 4.27259567 -12.93652344 7.48339844 C-10.29920139 1.10987016 -6.63346542 0.10904767 0 0 Z " fill="#010101" transform="translate(169.9365234375,229.5166015625)"/>
<path d="M0 0 C1.98 0 3.96 0 6 0 C6.04954963 5.0353859 6.08579037 10.0706289 6.10986328 15.10620117 C6.11990208 16.81814039 6.13353595 18.53006255 6.15087891 20.24194336 C6.17522073 22.70691142 6.18650438 25.17165215 6.1953125 27.63671875 C6.20563507 28.39836838 6.21595764 29.16001801 6.22659302 29.94474792 C6.22775827 35.50150672 5.66943231 39.18326484 1.875 43.3125 C1.25625 43.869375 0.6375 44.42625 0 45 C-2.74876408 43.83706135 -4.86660742 42.35270547 -7.125 40.4375 C-9.72238036 38.03993582 -9.72238036 38.03993582 -12 37 C-12 36.01 -12 35.02 -12 34 C-11.0925 33.4225 -10.185 32.845 -9.25 32.25 C-4.91978333 29.25215769 -2.81257943 26.04995565 -1.4296875 20.859375 C-0.82169697 16.81347436 -0.63412232 12.77144232 -0.4375 8.6875 C-0.39431641 7.85154297 -0.35113281 7.01558594 -0.30664062 6.15429688 C-0.20114693 4.10303065 -0.10012685 2.0515352 0 0 Z " fill="#99D6EC" transform="translate(169,300)"/>
<path d="M0 0 C1.98 0 3.96 0 6 0 C6.05607422 1.79244141 6.05607422 1.79244141 6.11328125 3.62109375 C6.37696255 19.07011938 6.37696255 19.07011938 14 32 C16.11660427 33.31165257 16.11660427 33.31165257 18 34 C18 34.99 18 35.98 18 37 C16.5390625 38.28125 16.5390625 38.28125 14.625 39.5 C11.88542214 41.25874134 10.88476668 42.17284998 9 45 C6.3019032 44.47537007 4.54746378 43.72555441 2.86523438 41.49609375 C-1.19198724 33.56783277 -0.43996424 25.08893764 -0.25 16.4375 C-0.22990197 14.84051722 -0.21165705 13.24350998 -0.1953125 11.64648438 C-0.15158265 7.76371119 -0.0827407 3.88212978 0 0 Z " fill="#97D2E8" transform="translate(222,300)"/>
<path d="M0 0 C1.32 0.33 2.64 0.66 4 1 C5.86434751 4.38119829 6.24215007 7.26476954 6.1953125 11.08203125 C6.18886719 12.01337891 6.18242187 12.94472656 6.17578125 13.90429688 C6.15902344 14.86400391 6.14226562 15.82371094 6.125 16.8125 C6.11597656 17.79154297 6.10695312 18.77058594 6.09765625 19.77929688 C6.07417182 22.18645061 6.0413284 24.59309743 6 27 C4.02 27 2.04 27 0 27 C0 18.09 0 9.18 0 0 Z " fill="#9BD9EF" transform="translate(169,353)"/>
<path d="M0 0 C3.14777543 2.28929122 3.89069386 5.15962854 4.7265625 8.859375 C5.14076749 12.10200833 4.66466038 14.80963016 4 18 C2.25 18.75 2.25 18.75 0 19 C-2.375 17.6875 -2.375 17.6875 -4 15 C-3.71999745 9.80245274 -2.19604506 4.70581083 0 0 Z " fill="#97D9EE" transform="translate(68,230)"/>
<path d="M0 0 C0.99 0 1.98 0 3 0 C3.433125 0.9590625 3.433125 0.9590625 3.875 1.9375 C4.82823451 4.15206079 4.82823451 4.15206079 7 5 C10.37357334 5.50070321 10.37357334 5.50070321 14 5 C16.75041666 2.58333229 16.75041666 2.58333229 19 0 C19.99 0 20.98 0 22 0 C21.4568634 3.80195622 19.84334437 5.50130343 17 8 C13.53431742 9.73284129 9.78929407 9.47120755 6 9 C2.56196792 7.06610695 1.30723538 6.0398736 0.1875 2.25 C0.125625 1.5075 0.06375 0.765 0 0 Z " fill="#B3675A" transform="translate(187,202)"/>
<path d="M0 0 C2.33944736 0.28730055 4.6739143 0.61936779 7 1 C7.6875 3.3125 7.6875 3.3125 8 6 C6.875 7.8125 6.875 7.8125 5 9 C2.4375 9.375 2.4375 9.375 0 9 C-2 6 -2 6 -1.6875 3.375 C-1 1 -1 1 0 0 Z " fill="#B06256" transform="translate(195,187)"/>
<path d="M0 0 C1.2065625 0.0309375 1.2065625 0.0309375 2.4375 0.0625 C3.0625 2.4375 3.0625 2.4375 3.4375 5.0625 C2.7775 5.7225 2.1175 6.3825 1.4375 7.0625 C-0.6875 6.6875 -0.6875 6.6875 -2.5625 6.0625 C-2.94468767 4.40635343 -3.27645102 2.73792976 -3.5625 1.0625 C-2.5625 0.0625 -2.5625 0.0625 0 0 Z " fill="#F8F1F1" transform="translate(144.5625,155.9375)"/>
<path d="M0 0 C1.67542976 0.28604898 3.34385343 0.61781233 5 1 C5.5625 2.9375 5.5625 2.9375 6 5 C5 6 5 6 2.4375 6.0625 C1.2309375 6.0315625 1.2309375 6.0315625 0 6 C-0.38218767 4.34385343 -0.71395102 2.67542976 -1 1 C-0.67 0.67 -0.34 0.34 0 0 Z " fill="#F4E9E8" transform="translate(242,156)"/>
<path d="M0 0 C1 3 1 3 0.37915039 4.80932617 C0.03875732 5.46392822 -0.30163574 6.11853027 -0.65234375 6.79296875 C-1.01650391 7.50517578 -1.38066406 8.21738281 -1.75585938 8.95117188 C-2.14580078 9.68916016 -2.53574219 10.42714844 -2.9375 11.1875 C-3.51661133 12.31188477 -3.51661133 12.31188477 -4.10742188 13.45898438 C-5.06271757 15.31060689 -6.03021577 17.15592452 -7 19 C-8.10223382 15.64794478 -8.03703796 15.09052574 -6.6015625 11.58203125 C-5.95490768 10.3191992 -5.29557703 9.06279344 -4.625 7.8125 C-4.13 6.85053711 -4.13 6.85053711 -3.625 5.86914062 C-1.19836882 1.19836882 -1.19836882 1.19836882 0 0 Z " fill="#B18E7C" transform="translate(114,140)"/>
<path d="M0 0 C3.18786625 2.89433681 5.03313319 5.58646816 6.8125 9.5 C7.25207031 10.4384375 7.69164062 11.376875 8.14453125 12.34375 C9.07069192 15.21950003 8.84400732 16.20327171 8 19 C6.65929682 16.39939496 5.32726646 13.79495084 4 11.1875 C3.6184375 10.44951172 3.236875 9.71152344 2.84375 8.95117188 C2.4828125 8.23896484 2.121875 7.52675781 1.75 6.79296875 C1.41484375 6.1383667 1.0796875 5.48376465 0.734375 4.80932617 C0 3 0 3 0 0 Z " fill="#B5917E" transform="translate(280,140)"/>
<path d="M0 0 C1.67542976 0.28604898 3.34385343 0.61781233 5 1 C5 2.32 5 3.64 5 5 C3.35 5 1.7 5 0 5 C-0.5625 3.0625 -0.5625 3.0625 -1 1 C-0.67 0.67 -0.34 0.34 0 0 Z " fill="#85B8CA" transform="translate(121,259)"/>
<path d="M0 0 C1.98 0.495 1.98 0.495 4 1 C4.33 2.32 4.66 3.64 5 5 C3.125 5.625 3.125 5.625 1 6 C0.34 5.34 -0.32 4.68 -1 4 C-0.625 1.875 -0.625 1.875 0 0 Z " fill="#89BDD0" transform="translate(101,247)"/>
<path d="M0 0 C1.98 0 3.96 0 6 0 C5.67 1.32 5.34 2.64 5 4 C3.35 4 1.7 4 0 4 C0 2.68 0 1.36 0 0 Z " fill="#90C8DC" transform="translate(133,260)"/>
<path d="M0 0 C1.32 0.33 2.64 0.66 4 1 C4.33 2.32 4.66 3.64 5 5 C3.68 5 2.36 5 1 5 C0.67 3.35 0.34 1.7 0 0 Z " fill="#8DC4D8" transform="translate(93,238)"/>
<path d="M0 0 C1.65 0 3.3 0 5 0 C5.33 1.32 5.66 2.64 6 4 C4.35 4 2.7 4 1 4 C0.67 2.68 0.34 1.36 0 0 Z " fill="#92CBE0" transform="translate(109,256)"/>
</svg>
