<?xml version="1.0" encoding="UTF-8"?>
<svg version="1.1" xmlns="http://www.w3.org/2000/svg" width="400" height="400">
<path d="M0 0 C1.00393295 -0.00095673 2.00786591 -0.00191345 3.04222107 -0.00289917 C5.14720727 -0.00357442 7.25219563 -0.00176629 9.35717773 0.00244141 C12.55392182 0.00780466 15.75052579 0.00247104 18.94726562 -0.00390625 C21.00651072 -0.00324546 23.06575573 -0.00196429 25.125 0 C26.06694717 -0.00202423 27.00889435 -0.00404846 27.97938538 -0.00613403 C34.04008465 0.01498233 39.97772923 0.41913223 45.99609375 1.1328125 C45.99609375 1.7928125 45.99609375 2.4528125 45.99609375 3.1328125 C47.14207031 3.09671875 48.28804687 3.060625 49.46875 3.0234375 C53.9778957 3.02740595 58.0703879 3.80380416 62.43359375 4.8828125 C63.17569092 5.06110596 63.91778809 5.23939941 64.68237305 5.4230957 C69.43359949 6.61181351 73.85476745 8.07100134 78.234375 10.30078125 C80.12822424 11.19521559 81.95429414 11.68659139 83.99609375 12.1328125 C83.99609375 12.7928125 83.99609375 13.4528125 83.99609375 14.1328125 C87.95609375 14.6278125 87.95609375 14.6278125 91.99609375 15.1328125 C91.99609375 15.7928125 91.99609375 16.4528125 91.99609375 17.1328125 C93.97609375 17.4628125 95.95609375 17.7928125 97.99609375 18.1328125 C97.99609375 18.7928125 97.99609375 19.4528125 97.99609375 20.1328125 C99.23359375 20.225625 99.23359375 20.225625 100.49609375 20.3203125 C104.90680261 21.34422706 108.48050677 23.26859062 111.99609375 26.1328125 C111.99609375 26.7928125 111.99609375 27.4528125 111.99609375 28.1328125 C112.69089844 28.21660156 113.38570313 28.30039062 114.1015625 28.38671875 C117.72500966 29.32069771 120.21260666 30.97985968 123.30859375 33.0703125 C124.37722656 33.78058594 125.44585937 34.49085937 126.546875 35.22265625 C127.75923828 36.16818359 127.75923828 36.16818359 128.99609375 37.1328125 C128.99609375 37.7928125 128.99609375 38.4528125 128.99609375 39.1328125 C129.86234375 39.53886719 129.86234375 39.53886719 130.74609375 39.953125 C135.98340973 42.69907886 141.14664812 46.6417926 144.99609375 51.1328125 C144.99609375 51.7928125 144.99609375 52.4528125 144.99609375 53.1328125 C145.59421875 53.4009375 146.19234375 53.6690625 146.80859375 53.9453125 C148.99457229 55.13198656 150.40941969 56.22880363 151.99609375 58.1328125 C151.99609375 58.7928125 151.99609375 59.4528125 151.99609375 60.1328125 C152.98609375 60.4628125 153.97609375 60.7928125 154.99609375 61.1328125 C154.99609375 61.7928125 154.99609375 62.4528125 154.99609375 63.1328125 C155.86234375 63.473125 155.86234375 63.473125 156.74609375 63.8203125 C159.59349184 65.48129472 161.11676568 67.44805811 162.99609375 70.1328125 C162.99609375 70.7928125 162.99609375 71.4528125 162.99609375 72.1328125 C163.65609375 72.1328125 164.31609375 72.1328125 164.99609375 72.1328125 C165.32609375 73.4528125 165.65609375 74.7728125 165.99609375 76.1328125 C166.65609375 76.1328125 167.31609375 76.1328125 167.99609375 76.1328125 C169.50390625 78.03125 169.50390625 78.03125 171.12109375 80.5078125 C171.92933594 81.72597656 171.92933594 81.72597656 172.75390625 82.96875 C173.99609375 85.1328125 173.99609375 85.1328125 173.99609375 87.1328125 C174.65609375 87.1328125 175.31609375 87.1328125 175.99609375 87.1328125 C176.32609375 88.7828125 176.65609375 90.4328125 176.99609375 92.1328125 C177.65609375 92.1328125 178.31609375 92.1328125 178.99609375 92.1328125 C179.32609375 93.7828125 179.65609375 95.4328125 179.99609375 97.1328125 C180.65609375 97.1328125 181.31609375 97.1328125 181.99609375 97.1328125 C184.99609375 102.7578125 184.99609375 102.7578125 184.99609375 106.1328125 C185.65609375 106.1328125 186.31609375 106.1328125 186.99609375 106.1328125 C187.32609375 108.1128125 187.65609375 110.0928125 187.99609375 112.1328125 C188.65609375 112.1328125 189.31609375 112.1328125 189.99609375 112.1328125 C190.32609375 114.4428125 190.65609375 116.7528125 190.99609375 119.1328125 C191.65609375 119.1328125 192.31609375 119.1328125 192.99609375 119.1328125 C196.42466518 127.56138393 196.42466518 127.56138393 195.99609375 132.1328125 C196.65609375 132.1328125 197.31609375 132.1328125 197.99609375 132.1328125 C198.32609375 135.4328125 198.65609375 138.7328125 198.99609375 142.1328125 C199.65609375 142.1328125 200.31609375 142.1328125 200.99609375 142.1328125 C201.97857899 146.1855641 202.07768949 149.97142987 201.99609375 154.1328125 C202.65609375 154.1328125 203.31609375 154.1328125 203.99609375 154.1328125 C204.95814463 160.50639961 205.10264953 166.69210779 204.99609375 173.1328125 C205.65609375 173.1328125 206.31609375 173.1328125 206.99609375 173.1328125 C207.0213632 179.8080159 207.03892643 186.48320707 207.05102539 193.15844727 C207.056067 195.43123841 207.06290012 197.7040263 207.0715332 199.97680664 C207.08360636 203.23584801 207.08932362 206.49484667 207.09375 209.75390625 C207.09891129 210.77681259 207.10407257 211.79971893 207.10939026 212.85362244 C207.10950356 214.26497215 207.10950356 214.26497215 207.10961914 215.70483398 C207.11183975 216.53756332 207.11406036 217.37029266 207.11634827 218.22825623 C206.99609375 220.1328125 206.99609375 220.1328125 205.99609375 221.1328125 C205.77096274 222.47083436 205.60248568 223.81854273 205.4609375 225.16796875 C205.37392578 225.97685547 205.28691406 226.78574219 205.19726562 227.61914062 C205.11025391 228.46927734 205.02324219 229.31941406 204.93359375 230.1953125 C204.84271484 231.04931641 204.75183594 231.90332031 204.65820312 232.78320312 C204.43358653 234.89932785 204.21434148 237.01602144 203.99609375 239.1328125 C203.33609375 239.1328125 202.67609375 239.1328125 201.99609375 239.1328125 C201.66609375 243.4228125 201.33609375 247.7128125 200.99609375 252.1328125 C200.33609375 252.1328125 199.67609375 252.1328125 198.99609375 252.1328125 C198.66609375 255.4328125 198.33609375 258.7328125 197.99609375 262.1328125 C197.33609375 262.1328125 196.67609375 262.1328125 195.99609375 262.1328125 C195.87234375 263.1846875 195.74859375 264.2365625 195.62109375 265.3203125 C195.08468593 268.59240021 194.3572934 271.13817326 192.99609375 274.1328125 C192.33609375 274.1328125 191.67609375 274.1328125 190.99609375 274.1328125 C190.89296875 275.1434375 190.78984375 276.1540625 190.68359375 277.1953125 C189.95904608 281.34499458 188.77340109 284.34637513 186.99609375 288.1328125 C186.33609375 288.1328125 185.67609375 288.1328125 184.99609375 288.1328125 C184.87234375 288.8959375 184.74859375 289.6590625 184.62109375 290.4453125 C183.99609375 293.1328125 183.99609375 293.1328125 181.99609375 296.1328125 C181.33609375 296.1328125 180.67609375 296.1328125 179.99609375 296.1328125 C179.66609375 298.1128125 179.33609375 300.0928125 178.99609375 302.1328125 C178.33609375 302.1328125 177.67609375 302.1328125 176.99609375 302.1328125 C176.70734375 302.8753125 176.41859375 303.6178125 176.12109375 304.3828125 C175.17306731 306.70021047 174.14763464 308.91198365 172.99609375 311.1328125 C172.33609375 311.1328125 171.67609375 311.1328125 170.99609375 311.1328125 C170.74859375 311.8546875 170.50109375 312.5765625 170.24609375 313.3203125 C168.87339783 316.40887832 167.27256079 318.64292668 164.99609375 321.1328125 C164.33609375 321.1328125 163.67609375 321.1328125 162.99609375 321.1328125 C162.66609375 322.4528125 162.33609375 323.7728125 161.99609375 325.1328125 C161.33609375 325.1328125 160.67609375 325.1328125 159.99609375 325.1328125 C159.75616699 325.69653564 159.51624023 326.26025879 159.26904297 326.84106445 C156.56023164 331.71786 152.05640165 335.41408364 148.12109375 339.3203125 C147.64655762 339.79369049 147.17202148 340.26706848 146.68310547 340.75479126 C129.76382885 357.59200853 129.76382885 357.59200853 119.99609375 361.1328125 C119.99609375 361.7928125 119.99609375 362.4528125 119.99609375 363.1328125 C118.70695888 363.80436183 117.41469171 364.46990109 116.12109375 365.1328125 C115.40179688 365.5040625 114.6825 365.8753125 113.94140625 366.2578125 C111.99609375 367.1328125 111.99609375 367.1328125 109.99609375 367.1328125 C109.99609375 367.7928125 109.99609375 368.4528125 109.99609375 369.1328125 C108.06239144 370.14013649 106.12399069 371.13844538 104.18359375 372.1328125 C103.10464844 372.6896875 102.02570313 373.2465625 100.9140625 373.8203125 C97.99609375 375.1328125 97.99609375 375.1328125 94.99609375 375.1328125 C94.99609375 375.7928125 94.99609375 376.4528125 94.99609375 377.1328125 C92.68609375 377.4628125 90.37609375 377.7928125 87.99609375 378.1328125 C87.99609375 378.7928125 87.99609375 379.4528125 87.99609375 380.1328125 C86.74946044 380.64114841 85.49859988 381.13912395 84.24609375 381.6328125 C83.55 381.91125 82.85390625 382.1896875 82.13671875 382.4765625 C79.99609375 383.1328125 79.99609375 383.1328125 75.99609375 383.1328125 C75.99609375 383.7928125 75.99609375 384.4528125 75.99609375 385.1328125 C72.69609375 385.4628125 69.39609375 385.7928125 65.99609375 386.1328125 C65.99609375 386.7928125 65.99609375 387.4528125 65.99609375 388.1328125 C61.94334215 389.11529774 58.15747638 389.21440824 53.99609375 389.1328125 C53.99609375 389.7928125 53.99609375 390.4528125 53.99609375 391.1328125 C52.70832031 391.26558594 51.42054688 391.39835937 50.09375 391.53515625 C48.41534013 391.71331149 46.73695602 391.89170942 45.05859375 392.0703125 C44.20845703 392.15732422 43.35832031 392.24433594 42.48242188 392.33398438 C41.67353516 392.42099609 40.86464844 392.50800781 40.03125 392.59765625 C39.28238525 392.6762085 38.53352051 392.75476074 37.76196289 392.83569336 C35.97469362 392.9608863 35.97469362 392.9608863 34.99609375 394.1328125 C33.55869022 394.23095237 32.11653048 394.2607953 30.67578125 394.26220703 C29.75812988 394.26535919 28.84047852 394.26851135 27.89501953 394.27175903 C26.89712402 394.2697348 25.89922852 394.26771057 24.87109375 394.265625 C23.8538623 394.26658173 22.83663086 394.26753845 21.78857422 394.26852417 C19.63313739 394.26920611 17.47769853 394.26735085 15.32226562 394.26318359 C12.01037004 394.25783555 8.69861008 394.26312813 5.38671875 394.26953125 C3.29817678 394.26887047 1.2096349 394.26758931 -0.87890625 394.265625 C-2.37574951 394.26866135 -2.37574951 394.26866135 -3.90283203 394.27175903 C-4.8204834 394.26860687 -5.73813477 394.26545471 -6.68359375 394.26220703 C-7.49554199 394.26141144 -8.30749023 394.26061584 -9.14404297 394.25979614 C-11.00390625 394.1328125 -11.00390625 394.1328125 -12.00390625 393.1328125 C-13.34192811 392.90768149 -14.68963648 392.73920443 -16.0390625 392.59765625 C-16.84794922 392.51064453 -17.65683594 392.42363281 -18.49023438 392.33398438 C-19.34037109 392.24697266 -20.19050781 392.15996094 -21.06640625 392.0703125 C-21.92041016 391.97943359 -22.77441406 391.88855469 -23.65429688 391.79492188 C-25.7704216 391.57030528 -27.88711519 391.35106023 -30.00390625 391.1328125 C-30.00390625 390.4728125 -30.00390625 389.8128125 -30.00390625 389.1328125 C-33.96390625 388.8028125 -37.92390625 388.4728125 -42.00390625 388.1328125 C-42.00390625 387.4728125 -42.00390625 386.8128125 -42.00390625 386.1328125 C-43.30328125 386.0503125 -44.60265625 385.9678125 -45.94140625 385.8828125 C-50.42181985 385.40226341 -53.94379317 384.06059166 -57.9609375 382.0703125 C-59.96532764 381.15051588 -61.85307729 380.59681156 -64.00390625 380.1328125 C-64.00390625 379.4728125 -64.00390625 378.8128125 -64.00390625 378.1328125 C-66.31390625 377.8028125 -68.62390625 377.4728125 -71.00390625 377.1328125 C-71.00390625 376.4728125 -71.00390625 375.8128125 -71.00390625 375.1328125 C-72.98390625 374.8028125 -74.96390625 374.4728125 -77.00390625 374.1328125 C-77.00390625 373.4728125 -77.00390625 372.8128125 -77.00390625 372.1328125 C-78.98390625 371.8028125 -80.96390625 371.4728125 -83.00390625 371.1328125 C-83.00390625 370.4728125 -83.00390625 369.8128125 -83.00390625 369.1328125 C-83.99390625 369.1328125 -84.98390625 369.1328125 -86.00390625 369.1328125 C-86.00390625 368.4728125 -86.00390625 367.8128125 -86.00390625 367.1328125 C-87.65390625 366.8028125 -89.30390625 366.4728125 -91.00390625 366.1328125 C-91.00390625 365.4728125 -91.00390625 364.8128125 -91.00390625 364.1328125 C-92.65390625 363.8028125 -94.30390625 363.4728125 -96.00390625 363.1328125 C-96.00390625 362.4728125 -96.00390625 361.8128125 -96.00390625 361.1328125 C-96.68195313 360.91496094 -97.36 360.69710938 -98.05859375 360.47265625 C-101.90059696 358.72490147 -104.87431558 356.35793826 -108.12890625 353.6953125 C-108.81106201 353.13980713 -109.49321777 352.58430176 -110.19604492 352.01196289 C-120.24863679 343.63687539 -131.65952746 334.05452708 -139.00390625 323.1328125 C-139.00390625 322.4728125 -139.00390625 321.8128125 -139.00390625 321.1328125 C-139.66390625 321.1328125 -140.32390625 321.1328125 -141.00390625 321.1328125 C-142.73046875 319.015625 -142.73046875 319.015625 -144.62890625 316.2578125 C-145.57636719 314.90042969 -145.57636719 314.90042969 -146.54296875 313.515625 C-148.00390625 311.1328125 -148.00390625 311.1328125 -148.00390625 309.1328125 C-148.66390625 309.1328125 -149.32390625 309.1328125 -150.00390625 309.1328125 C-151.51171875 307.05078125 -151.51171875 307.05078125 -153.12890625 304.3203125 C-153.66773438 303.42699219 -154.2065625 302.53367187 -154.76171875 301.61328125 C-156.00390625 299.1328125 -156.00390625 299.1328125 -156.00390625 296.1328125 C-156.66390625 296.1328125 -157.32390625 296.1328125 -158.00390625 296.1328125 C-158.33390625 294.4828125 -158.66390625 292.8328125 -159.00390625 291.1328125 C-159.66390625 291.1328125 -160.32390625 291.1328125 -161.00390625 291.1328125 C-161.33390625 289.1528125 -161.66390625 287.1728125 -162.00390625 285.1328125 C-162.66390625 285.1328125 -163.32390625 285.1328125 -164.00390625 285.1328125 C-167.00390625 278.6328125 -167.00390625 278.6328125 -167.00390625 274.1328125 C-167.66390625 274.1328125 -168.32390625 274.1328125 -169.00390625 274.1328125 C-169.68001048 272.24032431 -170.34441064 270.3436523 -171.00390625 268.4453125 C-171.37515625 267.38957031 -171.74640625 266.33382813 -172.12890625 265.24609375 C-172.94309195 262.34919194 -173.18100421 260.11580627 -173.00390625 257.1328125 C-173.66390625 257.1328125 -174.32390625 257.1328125 -175.00390625 257.1328125 C-176.86133793 251.01876654 -178.43156042 245.54762508 -178.00390625 239.1328125 C-178.66390625 239.1328125 -179.32390625 239.1328125 -180.00390625 239.1328125 C-180.13667969 237.84503906 -180.26945313 236.55726563 -180.40625 235.23046875 C-180.58440524 233.55205888 -180.76280317 231.87367477 -180.94140625 230.1953125 C-181.02841797 229.34517578 -181.11542969 228.49503906 -181.20507812 227.61914062 C-181.29208984 226.81025391 -181.37910156 226.00136719 -181.46875 225.16796875 C-181.54730225 224.419104 -181.62585449 223.67023926 -181.70678711 222.89868164 C-181.83198005 221.11141237 -181.83198005 221.11141237 -183.00390625 220.1328125 C-183.09694643 218.65926902 -183.1213689 217.18130659 -183.11743164 215.70483398 C-183.11735611 214.76393417 -183.11728058 213.82303436 -183.11720276 212.85362244 C-183.10946083 211.31926292 -183.10946083 211.31926292 -183.1015625 209.75390625 C-183.10014755 208.71210709 -183.0987326 207.67030792 -183.09727478 206.59693909 C-183.09165705 203.25470156 -183.07910155 199.91252993 -183.06640625 196.5703125 C-183.06139353 194.31054784 -183.05683023 192.05078213 -183.05273438 189.79101562 C-183.04168186 184.23825859 -183.02492649 178.68554025 -183.00390625 173.1328125 C-182.34390625 173.1328125 -181.68390625 173.1328125 -181.00390625 173.1328125 C-181.01550781 172.41996094 -181.02710938 171.70710937 -181.0390625 170.97265625 C-181.08986865 165.57994651 -181.04099648 160.43349588 -180.00390625 155.1328125 C-179.67390625 154.8028125 -179.34390625 154.4728125 -179.00390625 154.1328125 C-178.65369956 152.43180859 -178.34888572 150.72136564 -178.06640625 149.0078125 C-177.30171629 144.59790872 -176.3325407 140.40342325 -175.00390625 136.1328125 C-174.34390625 136.1328125 -173.68390625 136.1328125 -173.00390625 136.1328125 C-172.94203125 135.0603125 -172.88015625 133.9878125 -172.81640625 132.8828125 C-172.08065369 126.87949811 -169.45209322 121.60567083 -167.00390625 116.1328125 C-166.39722426 114.71722119 -165.79252955 113.30077321 -165.19140625 111.8828125 C-164.79953125 110.9753125 -164.40765625 110.0678125 -164.00390625 109.1328125 C-163.34390625 109.1328125 -162.68390625 109.1328125 -162.00390625 109.1328125 C-161.67390625 107.1528125 -161.34390625 105.1728125 -161.00390625 103.1328125 C-160.34390625 103.1328125 -159.68390625 103.1328125 -159.00390625 103.1328125 C-158.67390625 101.1528125 -158.34390625 99.1728125 -158.00390625 97.1328125 C-157.34390625 97.1328125 -156.68390625 97.1328125 -156.00390625 97.1328125 C-155.67390625 95.4828125 -155.34390625 93.8328125 -155.00390625 92.1328125 C-154.34390625 92.1328125 -153.68390625 92.1328125 -153.00390625 92.1328125 C-152.88015625 91.5346875 -152.75640625 90.9365625 -152.62890625 90.3203125 C-152.00390625 88.1328125 -152.00390625 88.1328125 -150.00390625 85.1328125 C-149.34390625 85.1328125 -148.68390625 85.1328125 -148.00390625 85.1328125 C-147.67390625 83.4828125 -147.34390625 81.8328125 -147.00390625 80.1328125 C-146.34390625 80.1328125 -145.68390625 80.1328125 -145.00390625 80.1328125 C-144.50890625 78.1528125 -144.50890625 78.1528125 -144.00390625 76.1328125 C-143.34390625 76.1328125 -142.68390625 76.1328125 -142.00390625 76.1328125 C-141.69453125 75.5140625 -141.38515625 74.8953125 -141.06640625 74.2578125 C-140.37890625 72.8828125 -139.69140625 71.5078125 -139.00390625 70.1328125 C-138.34390625 70.1328125 -137.68390625 70.1328125 -137.00390625 70.1328125 C-136.77703125 69.5965625 -136.55015625 69.0603125 -136.31640625 68.5078125 C-133.21049622 62.88759435 -128.93467057 59.13905851 -124.00390625 55.1328125 C-121.38493865 52.57772216 -118.84417065 49.96564733 -116.31640625 47.3203125 C-114.00390625 45.1328125 -114.00390625 45.1328125 -112.00390625 45.1328125 C-112.00390625 44.4728125 -112.00390625 43.8128125 -112.00390625 43.1328125 C-109.1294558 40.54922153 -105.93393878 38.35104564 -102.81640625 36.0703125 C-101.95208984 35.41998047 -101.08777344 34.76964844 -100.19726562 34.09960938 C-98.9355957 33.17051758 -98.9355957 33.17051758 -97.6484375 32.22265625 C-96.87862549 31.65409912 -96.10881348 31.08554199 -95.31567383 30.49975586 C-92.84625343 29.03959271 -90.82864835 28.52511178 -88.00390625 28.1328125 C-88.00390625 27.4728125 -88.00390625 26.8128125 -88.00390625 26.1328125 C-85.09841743 24.09111765 -83.60248579 23.1328125 -80.00390625 23.1328125 C-80.00390625 22.4728125 -80.00390625 21.8128125 -80.00390625 21.1328125 C-78.02390625 20.8028125 -76.04390625 20.4728125 -74.00390625 20.1328125 C-74.00390625 19.4728125 -74.00390625 18.8128125 -74.00390625 18.1328125 C-72.42422818 17.45753027 -70.83998722 16.79291556 -69.25390625 16.1328125 C-68.3721875 15.7615625 -67.49046875 15.3903125 -66.58203125 15.0078125 C-64.00390625 14.1328125 -64.00390625 14.1328125 -60.00390625 14.1328125 C-60.00390625 13.4728125 -60.00390625 12.8128125 -60.00390625 12.1328125 C-56.00390625 10.79947917 -52.00390625 9.46614583 -48.00390625 8.1328125 C-47.00359375 7.7925 -46.00328125 7.4521875 -44.97265625 7.1015625 C-37.32384104 4.60563333 -30.08254261 2.66673733 -22.00390625 3.1328125 C-22.00390625 2.4728125 -22.00390625 1.8128125 -22.00390625 1.1328125 C-14.64863292 0.35306227 -7.39446438 -0.01592482 0 0 Z " fill="#2FBCA4" transform="translate(191.00390625,3.8671875)"/>
<path d="M0 0 C6.00806652 0.09225438 11.23317098 2.4610304 15.5625 6.5625 C19.47686775 13.18681466 20.45750355 18.25140009 20.5 25.8125 C20.50547852 26.52438477 20.51095703 27.23626953 20.51660156 27.96972656 C20.40125424 36.62077602 18.47752016 43.36422278 12.7109375 50.015625 C8.28564916 54.18748273 4.00526096 54.87923764 -1.9375 54.9375 C-2.61844727 54.9482959 -3.29939453 54.9590918 -4.00097656 54.97021484 C-9.03813017 54.82927259 -11.88204384 53.35433129 -15.8125 50.3125 C-16.8025 49.6525 -17.7925 48.9925 -18.8125 48.3125 C-18.8125 56.2325 -18.8125 64.1525 -18.8125 72.3125 C-22.7725 72.3125 -26.7325 72.3125 -30.8125 72.3125 C-30.8125 49.2125 -30.8125 26.1125 -30.8125 2.3125 C-26.8525 2.3125 -22.8925 2.3125 -18.8125 2.3125 C-18.8125 3.9625 -18.8125 5.6125 -18.8125 7.3125 C-18.23242188 6.89097656 -17.65234375 6.46945313 -17.0546875 6.03515625 C-11.1082959 1.86483211 -7.21892165 0.59171489 0 0 Z " fill="#FBFDFC" transform="translate(221.8125,171.6875)"/>
<path d="M0 0 C3.96 0 7.92 0 12 0 C12 8.91 12 17.82 12 27 C15.3 24.69 18.6 22.38 22 20 C27.9107637 18.02974543 34.62848544 18.19537899 40.5 20.1875 C43.85570098 22.62038321 46.14707145 25.29414291 48 29 C48.08934406 30.41973273 48.11758978 31.84357791 48.11352539 33.26611328 C48.11344986 34.14687531 48.11337433 35.02763733 48.11329651 35.93508911 C48.10813522 36.88721283 48.10297394 37.83933655 48.09765625 38.8203125 C48.0962413 39.79410858 48.09482635 40.76790466 48.09336853 41.77120972 C48.08775973 44.88917073 48.07520573 48.0070606 48.0625 51.125 C48.05748613 53.23567605 48.05292303 55.34635322 48.04882812 57.45703125 C48.03778744 62.63804835 48.02051689 67.8190121 48 73 C44.04 73 40.08 73 36 73 C35.970271 71.44889526 35.970271 71.44889526 35.93994141 69.86645508 C35.86367773 66.01774381 35.77499286 62.1694004 35.68261719 58.32104492 C35.64441304 56.65770752 35.60954537 54.99428992 35.578125 53.33081055 C35.53228766 50.9350932 35.47432533 48.53992391 35.4140625 46.14453125 C35.40251129 45.4047554 35.39096008 44.66497955 35.37905884 43.90278625 C35.26418865 39.85394684 34.78649164 36.65133817 33 33 C29.06284099 32.07950681 25.56442472 31.31744122 21.76171875 32.9765625 C20.42390138 33.83820759 19.1084652 34.73615439 17.82421875 35.67578125 C16 37 16 37 12 39 C12 50.55 12 62.1 12 74 C8.04 74 4.08 74 0 74 C0 49.58 0 25.16 0 0 Z " fill="#FCFDFD" transform="translate(47,153)"/>
<path d="M0 0 C4.29 0 8.58 0 13 0 C13 4.29 13 8.58 13 13 C17.62 13 22.24 13 27 13 C27 16.63 27 20.26 27 24 C22.05 24 17.1 24 12 24 C12.11374782 28.25057651 12.24050863 32.50007273 12.375 36.75 C12.4059375 37.9565625 12.436875 39.163125 12.46875 40.40625 C12.50742188 41.56640625 12.54609375 42.7265625 12.5859375 43.921875 C12.63306885 45.52434082 12.63306885 45.52434082 12.68115234 47.15917969 C12.9970377 49.97360697 13.36355885 51.69595599 15 54 C18.33975372 54.70788435 18.33975372 54.70788435 22.125 54.75 C24.04699219 54.83507812 24.04699219 54.83507812 26.0078125 54.921875 C27.48894531 54.96054688 27.48894531 54.96054688 29 55 C29.495 59.455 29.495 59.455 30 64 C25.4737067 66.24518517 21.44300014 66.36646287 16.5 66.375 C15.38044922 66.41173828 15.38044922 66.41173828 14.23828125 66.44921875 C10.590457 66.46858773 8.41981524 66.22490102 5.15625 64.4765625 C-1.39969872 56.94672285 -0.36277792 47.88784133 -0.1875 38.5 C-0.17242613 37.09116014 -0.1587425 35.68230468 -0.14648438 34.2734375 C-0.11129724 30.84855604 -0.06206079 27.42448237 0 24 C-2.64 24 -5.28 24 -8 24 C-8 20.37 -8 16.74 -8 13 C-5.36 13 -2.72 13 0 13 C0 8.71 0 4.42 0 0 Z " fill="#F7FCFB" transform="translate(150,160)"/>
<path d="M0 0 C3.96 0 7.92 0 12 0 C12 4.62 12 9.24 12 14 C16.95 14 21.9 14 27 14 C27 17.3 27 20.6 27 24 C22.05 24 17.1 24 12 24 C12.11374782 28.25057651 12.24050863 32.50007273 12.375 36.75 C12.4059375 37.9565625 12.436875 39.163125 12.46875 40.40625 C12.50742188 41.56640625 12.54609375 42.7265625 12.5859375 43.921875 C12.63306885 45.52434082 12.63306885 45.52434082 12.68115234 47.15917969 C12.9970377 49.97360697 13.36355885 51.69595599 15 54 C18.33975372 54.70788435 18.33975372 54.70788435 22.125 54.75 C24.04699219 54.83507812 24.04699219 54.83507812 26.0078125 54.921875 C27.48894531 54.96054688 27.48894531 54.96054688 29 55 C29 57.97 29 60.94 29 64 C24.65106888 66.17446556 21.35216159 66.40094978 16.625 66.4375 C15.8825 66.47037109 15.14 66.50324219 14.375 66.53710938 C10.48862075 66.57487454 7.75971964 66.26206949 4.5859375 63.91015625 C0.08260562 58.84220723 -0.25184167 53.33955424 -0.1953125 46.75390625 C-0.1924826 46.09792953 -0.18965271 45.44195282 -0.18673706 44.76609802 C-0.17565984 42.69803591 -0.15058063 40.63042827 -0.125 38.5625 C-0.11495402 37.14909485 -0.10583102 35.73568283 -0.09765625 34.32226562 C-0.07576184 30.88136606 -0.04132051 27.44072748 0 24 C-2.64 24 -5.28 24 -8 24 C-8 20.37 -8 16.74 -8 13 C-5.36 13 -2.72 13 0 13 C0 8.71 0 4.42 0 0 Z " fill="#FAFDFC" transform="translate(111,160)"/>
<path d="M0 0 C3.63 0 7.26 0 11 0 C10.31962539 6.44087965 8.54058058 12.43252528 6.6875 18.625 C6.39166016 19.62917969 6.09582031 20.63335937 5.79101562 21.66796875 C3.58489253 29.12971556 1.29919934 36.56649836 -1 44 C-9.34440295 70.89920954 -9.34440295 70.89920954 -17 98 C-20.63 98 -24.26 98 -28 98 C-26.71697547 91.2217572 -25.17233207 84.62346211 -23.25 78 C-22.98759521 77.08629639 -22.72519043 76.17259277 -22.45483398 75.23120117 C-20.79921927 69.53808021 -18.99505167 63.9167705 -17.0625 58.3125 C-14.16155331 49.88771509 -11.88527275 41.32761118 -9.61889648 32.71362305 C-7.38221546 24.26580773 -4.87022455 15.94069229 -2.1640625 7.6328125 C-1.35708411 5.11439002 -0.64139856 2.56559424 0 0 Z " fill="#F8FCFB" transform="translate(308,152)"/>
<path d="M0 0 C3.63 0 7.26 0 11 0 C9.27436222 8.24471385 7.06751723 16.02805076 4.33789062 23.98071289 C2.49982904 29.38086975 0.8714766 34.80827201 -0.625 40.3125 C-2.26130121 46.33102039 -3.97485283 52.30776087 -5.8359375 58.26171875 C-7.41529412 63.33367945 -8.95619995 68.41712267 -10.5 73.5 C-12.98438155 81.67155984 -15.48116781 89.83898371 -18 98 C-21.63 98 -25.26 98 -29 98 C-27.05615732 90.07194072 -24.98230833 82.20830846 -22.6875 74.375 C-22.23129272 72.81096436 -22.23129272 72.81096436 -21.76586914 71.21533203 C-19.95129772 65.05400935 -18.02234516 58.9496882 -15.9375 52.875 C-13.40563138 45.49665018 -11.33294275 38.03914808 -9.33325195 30.50097656 C-6.57865678 20.22077311 -3.3060728 10.11384401 0 0 Z " fill="#F9FCFB" transform="translate(357,152)"/>
<path d="M0 0 C3.75959289 2.74136982 5.89566177 5.48225268 7 10 C7.84923343 17.3164726 6.68538595 23.58380347 3 30 C0.06146404 32.77528397 -1.74454188 32.96168128 -5.75 33.5625 C-11.2821028 33.39390258 -16.16864036 29.83135964 -20 26 C-20.90825323 19.34347205 -22.13825725 10.19033826 -18.28515625 4.44140625 C-16.22658899 2.94866579 -14.37018053 1.90428575 -12 1 C-8.2781653 -0.86091735 -4.05280619 -0.5680311 0 0 Z " fill="#2EBDA4" transform="translate(223,183)"/>
<path d="M0 0 C0.66 0 1.32 0 2 0 C2 3.63 2 7.26 2 11 C2.66 11 3.32 11 4 11 C4.02526945 17.6752034 4.04283268 24.35039457 4.05493164 31.02563477 C4.05997325 33.29842591 4.06680637 35.5712138 4.07543945 37.84399414 C4.08751261 41.10303551 4.09322987 44.36203417 4.09765625 47.62109375 C4.10281754 48.64400009 4.10797882 49.66690643 4.11329651 50.72080994 C4.11337204 51.66170975 4.11344757 52.60260956 4.11352539 53.57202148 C4.115746 54.40475082 4.11796661 55.23748016 4.12025452 56.09544373 C4 58 4 58 3 59 C2.71693766 61.54756104 2.55184214 64.09510022 2.37890625 66.65234375 C2 69 2 69 0 71 C0 47.57 0 24.14 0 0 Z " fill="#28A18B" transform="translate(394,166)"/>
<path d="M0 0 C3.39470755 1.15564512 4.87501175 2.06492057 6.9375 5 C7.5 7.9375 7.5 7.9375 6.9375 11 C4.875 13.9375 4.875 13.9375 1.9375 16 C-1.88144541 16.06584389 -4.04221812 15.85572029 -7 13.375 C-8.51509656 9.98831357 -8.58618962 7.66582737 -8.0625 4 C-5.42319379 0.89493388 -4.09839632 0 0 0 Z " fill="#F4FAF9" transform="translate(262.0625,175)"/>
<path d="M0 0 C3.78885375 1.08252964 5.30401609 1.74994382 7.5 5 C8.10024477 8.60146865 7.95562482 10.27859404 6 13.375 C2.23102871 15.82483134 -0.04334931 15.5659239 -4.5 15 C-7.41781637 12.72045596 -7.47820387 11.17436907 -7.9375 7.5 C-7.5 4 -7.5 4 -5.9375 1.5 C-3.5 0 -3.5 0 0 0 Z " fill="#F5FBF9" transform="translate(261.5,211)"/>
<path d="M0 0 C1.00630463 -0.00095673 2.01260925 -0.00191345 3.04940796 -0.00289917 C5.15859032 -0.00357437 7.26777485 -0.00176659 9.37695312 0.00244141 C12.58468324 0.0078104 15.79227409 0.00246801 19 -0.00390625 C21.06250031 -0.00324557 23.12500052 -0.00196462 25.1875 0 C26.60816269 -0.00303635 26.60816269 -0.00303635 28.05752563 -0.00613403 C33.7691202 0.01376434 39.29480663 0.40475409 44.9609375 1.1328125 C42.9609375 2.1328125 40.9609375 3.1328125 38.9609375 4.1328125 C38.9609375 3.4728125 38.9609375 2.8128125 38.9609375 2.1328125 C37.11254272 2.37729126 37.11254272 2.37729126 35.22680664 2.62670898 C29.3830074 3.27272815 23.58046593 3.25825508 17.70703125 3.23046875 C16.56557144 3.2290538 15.42411163 3.22763885 14.24806213 3.22618103 C10.63149301 3.22062001 7.01498766 3.20807481 3.3984375 3.1953125 C0.93424569 3.19029246 -1.5299471 3.18573044 -3.99414062 3.18164062 C-10.00913604 3.17066337 -16.02409471 3.15396444 -22.0390625 3.1328125 C-22.0390625 2.4728125 -22.0390625 1.8128125 -22.0390625 1.1328125 C-14.67205526 0.35134003 -7.40628802 -0.01589723 0 0 Z " fill="#29B39A" transform="translate(191.0390625,3.8671875)"/>
<path d="M0 0 C2.64 0 5.28 0 8 0 C8 10.56 8 21.12 8 32 C7.34 31.67 6.68 31.34 6 31 C6 21.43 6 11.86 6 2 C3.03 1.505 3.03 1.505 0 1 C0 0.67 0 0.34 0 0 Z " fill="#14B99F" transform="translate(142,185)"/>
<path d="M0 0 C2.31 0 4.62 0 7 0 C7 10.56 7 21.12 7 32 C4.96372425 27.92744851 4.76151142 26.32583525 4.8046875 21.921875 C4.81113281 20.76171875 4.81757812 19.6015625 4.82421875 18.40625 C4.84097656 17.1996875 4.85773438 15.993125 4.875 14.75 C4.88402344 13.52796875 4.89304687 12.3059375 4.90234375 11.046875 C4.92590487 8.03105218 4.95880294 5.01562508 5 2 C3.35 1.67 1.7 1.34 0 1 C0 0.67 0 0.34 0 0 Z " fill="#17B7A0" transform="translate(104,185)"/>
<path d="M0 0 C2 2 2 2 2.1953125 4.3828125 C2.17210938 5.28773438 2.14890625 6.19265625 2.125 7.125 C2.10695313 8.03507813 2.08890625 8.94515625 2.0703125 9.8828125 C2.04710938 10.58148438 2.02390625 11.28015625 2 12 C-0.64 12 -3.28 12 -6 12 C-6 15.3 -6 18.6 -6 22 C-8 20 -8 20 -8.1953125 18.0546875 C-8.13020833 16.03645833 -8.06510417 14.01822917 -8 12 C-5.625 10.9375 -5.625 10.9375 -3 10 C-2.34 10.33 -1.68 10.66 -1 11 C-0.67 7.37 -0.34 3.74 0 0 Z " fill="#1DBBA3" transform="translate(109,161)"/>
<path d="M0 0 C2 2 2 2 2.1953125 4.1640625 C2.13020833 6.44270833 2.06510417 8.72135417 2 11 C5.96 11 9.92 11 14 11 C14.33 11.66 14.66 12.32 15 13 C10.05 13 5.1 13 0 13 C0 8.71 0 4.42 0 0 Z " fill="#1DB69C" transform="translate(163,160)"/>
<path d="M0 0 C4.95 0 9.9 0 15 0 C15 0.33 15 0.66 15 1 C14.22914063 1.06058594 13.45828125 1.12117187 12.6640625 1.18359375 C11.15972656 1.30927734 11.15972656 1.30927734 9.625 1.4375 C8.12839844 1.55931641 8.12839844 1.55931641 6.6015625 1.68359375 C4.02072387 1.84965626 4.02072387 1.84965626 2 3 C1.67 10.26 1.34 17.52 1 25 C0.67 25 0.34 25 0 25 C0 16.75 0 8.5 0 0 Z " fill="#16B59F" transform="translate(124,185)"/>
<path d="M0 0 C0.66 0 1.32 0 2 0 C2 4.29 2 8.58 2 13 C0.02 13 -1.96 13 -4 13 C-3.27876953 12.41798828 -3.27876953 12.41798828 -2.54296875 11.82421875 C-0.54250502 9.45911353 -0.51123932 7.87308547 -0.3125 4.8125 C-0.21388672 3.46091797 -0.21388672 3.46091797 -0.11328125 2.08203125 C-0.05720703 1.05142578 -0.05720703 1.05142578 0 0 Z " fill="#15B79E" transform="translate(148,160)"/>
<path d="M0 0 C1.53690745 2.41040161 2.09752136 3.50082285 1.5390625 6.359375 C1.23742187 7.14828125 0.93578125 7.9371875 0.625 8.75 C0.32851563 9.54921875 0.03203125 10.3484375 -0.2734375 11.171875 C-0.51320313 11.77515625 -0.75296875 12.3784375 -1 13 C-1.66 13 -2.32 13 -3 13 C-2.45144652 8.428721 -1.58255197 4.32564205 0 0 Z " fill="#38C2A8" transform="translate(347,221)"/>
<path d="M0 0 C0.66 0.33 1.32 0.66 2 1 C0.484375 3.015625 0.484375 3.015625 -2 5 C-4.76839049 5.12958424 -7.03973571 5.0727725 -9.75 4.75 C-10.44738281 4.68425781 -11.14476562 4.61851562 -11.86328125 4.55078125 C-13.57747263 4.38640673 -15.28911023 4.19577346 -17 4 C-17 3.67 -17 3.34 -17 3 C-16.02417969 2.95101562 -15.04835937 2.90203125 -14.04296875 2.8515625 C-12.77066406 2.77679688 -11.49835938 2.70203125 -10.1875 2.625 C-8.29064453 2.52058594 -8.29064453 2.52058594 -6.35546875 2.4140625 C-2.87244766 2.23897061 -2.87244766 2.23897061 0 0 Z " fill="#55CDB8" transform="translate(231,223)"/>
<path d="M0 0 C6.75 0.75 6.75 0.75 9 3 C4.71 3 0.42 3 -4 3 C-2.68 2.67 -1.36 2.34 0 2 C0 1.34 0 0.68 0 0 Z " fill="#1DB8A0" transform="translate(76,169)"/>
<path d="M0 0 C2 2 2 2 2.1953125 4.3828125 C2.17210938 5.28773438 2.14890625 6.19265625 2.125 7.125 C2.10695313 8.03507813 2.08890625 8.94515625 2.0703125 9.8828125 C2.03550781 10.93082031 2.03550781 10.93082031 2 12 C1.01 12 0.02 12 -1 12 C-0.67 8.04 -0.34 4.08 0 0 Z " fill="#17B59D" transform="translate(109,161)"/>
<path d="M0 0 C0.99 0 1.98 0 3 0 C2.34 3.3 1.68 6.6 1 10 C0.34 9.34 -0.32 8.68 -1 8 C-0.96712417 5.27130593 -0.43602229 2.7033382 0 0 Z " fill="#40C3AA" transform="translate(352,203)"/>
<path d="M0 0 C1.8871875 0.0309375 1.8871875 0.0309375 3.8125 0.0625 C2.8125 1.5625 2.8125 1.5625 0.8125 3.0625 C-1.90596235 3.33595479 -4.44427199 3.19741285 -7.1875 3.0625 C-7.1875 2.4025 -7.1875 1.7425 -7.1875 1.0625 C-4.43671116 0.14557039 -2.82801087 -0.04636083 0 0 Z " fill="#35C2AA" transform="translate(220.1875,212.9375)"/>
<path d="M0 0 C0.96661363 3.12180401 0.98988909 5.52083795 0.5625 8.75 C0.40974609 9.94882813 0.40974609 9.94882813 0.25390625 11.171875 C0.12822266 12.07679688 0.12822266 12.07679688 0 13 C-0.66 13 -1.32 13 -2 13 C-1.85851011 11.3954444 -1.71164314 9.79136233 -1.5625 8.1875 C-1.48128906 7.29417969 -1.40007812 6.40085938 -1.31640625 5.48046875 C-1 3 -1 3 0 0 Z " fill="#44C5AB" transform="translate(309,185)"/>
<path d="M0 0 C0.33 0 0.66 0 1 0 C1.1953125 6.0546875 1.1953125 6.0546875 1 8 C0.34 8.66 -0.32 9.32 -1 10 C-2.15837626 5.94568308 -1.83691257 3.78187881 0 0 Z " fill="#42C4AC" transform="translate(360,178)"/>
<path d="M0 0 C0.66 0.33 1.32 0.66 2 1 C1.34 3.64 0.68 6.28 0 9 C-0.66 9 -1.32 9 -2 9 C-1.125 1.125 -1.125 1.125 0 0 Z " fill="#3EC3A9" transform="translate(314,171)"/>
<path d="" fill="#00FFFF" transform="translate(0,0)"/>
<path d="" fill="#00FFFF" transform="translate(0,0)"/>
<path d="" fill="#00FFFF" transform="translate(0,0)"/>
<path d="" fill="#00FFFF" transform="translate(0,0)"/>
<path d="" fill="#00FFFF" transform="translate(0,0)"/>
<path d="" fill="#00FFFF" transform="translate(0,0)"/>
<path d="" fill="#00FFFF" transform="translate(0,0)"/>
<path d="" fill="#00FFFF" transform="translate(0,0)"/>
<path d="" fill="#00FFFF" transform="translate(0,0)"/>
<path d="" fill="#00FFFF" transform="translate(0,0)"/>
<path d="" fill="#00FFFF" transform="translate(0,0)"/>
<path d="" fill="#00FFFF" transform="translate(0,0)"/>
<path d="" fill="#00FFFF" transform="translate(0,0)"/>
<path d="" fill="#00FFFF" transform="translate(0,0)"/>
<path d="" fill="#00FFFF" transform="translate(0,0)"/>
<path d="" fill="#00FFFF" transform="translate(0,0)"/>
</svg>
