<?xml version="1.0" encoding="UTF-8"?>
<svg version="1.1" xmlns="http://www.w3.org/2000/svg" width="256" height="256">
<path d="M0 0 C3.11243004 4.1229779 3.41726915 7.66918663 3.328125 12.671875 C3.32625183 13.39489807 3.32437866 14.11792114 3.32244873 14.862854 C3.31575428 16.38241222 3.30189184 17.90195396 3.28125 19.42138672 C3.24991483 21.75634632 3.24025822 24.0906316 3.234375 26.42578125 C3.22521157 27.90365414 3.21483791 29.38152012 3.203125 30.859375 C3.19675018 31.91085724 3.19675018 31.91085724 3.19024658 32.98358154 C3.11721092 37.88278908 3.11721092 37.88278908 2 39 C-0.9375 39.25 -0.9375 39.25 -4 39 C-4.66 38.01 -5.32 37.02 -6 36 C-6.763125 36.495 -7.52625 36.99 -8.3125 37.5 C-13.28981967 39.52467241 -17.69371149 39.86601148 -23 39 C-26.17052662 37.33454828 -28.37546311 35.24907378 -30 32 C-30.3501723 26.65987245 -30.48069602 23.32086403 -27 19 C-22.17662308 14.17662308 -16.65766359 12.9019541 -10 12.875 C-9.01 12.91625 -8.02 12.9575 -7 13 C-7.33 10.36 -7.66 7.72 -8 5 C-14.43311296 4.90492937 -20.65758005 4.84683274 -27 6 C-27.33 4.02 -27.66 2.04 -28 0 C-18.70982291 -4.18968771 -8.77735089 -6.79222941 0 0 Z M-18.5625 21.0625 C-20.78375862 24.05637032 -20.45864353 26.39637228 -20 30 C-17.11279881 32.36721366 -17.11279881 32.36721366 -13.5 31.75 C-9.90879501 31.20500944 -9.90879501 31.20500944 -7 29 C-6.63637182 26.79274927 -6.63637182 26.79274927 -6.8125 24.375 C-6.83957031 23.55773437 -6.86664063 22.74046875 -6.89453125 21.8984375 C-6.92933594 21.27195313 -6.96414062 20.64546875 -7 20 C-12.91117828 19.62125199 -12.91117828 19.62125199 -18.5625 21.0625 Z " fill="#E01E21" transform="translate(187,203)"/>
<path d="M0 0 C3.05482223 2.95041605 3.94171854 4.51479121 4.45410156 8.78051758 C4.45347396 10.23534254 4.43120943 11.69027234 4.390625 13.14453125 C4.38496521 13.91431808 4.37930542 14.68410492 4.37347412 15.47721863 C4.35117872 17.92295943 4.30099875 20.3672061 4.25 22.8125 C4.229926 24.47589022 4.2116768 26.13930353 4.1953125 27.80273438 C4.15133684 31.86906058 4.08235979 35.93427744 4 40 C0.625 40.1875 0.625 40.1875 -3 40 C-3.66 39.01 -4.32 38.02 -5 37 C-5.78375 37.495 -6.5675 37.99 -7.375 38.5 C-12.92101322 40.79490202 -18.32537498 41.08123139 -23.9375 38.8125 C-27.4939931 35.68709697 -28.83634352 33.28587237 -29.4375 28.5625 C-28.82535397 23.57788231 -26.75099557 20.75099557 -23.25 17.25 C-17.40944334 14.0052463 -11.50425247 13.76770527 -5 14 C-5.99 11.36 -6.98 8.72 -8 6 C-13.80411537 5.90705153 -19.27243724 5.94492265 -25 7 C-26 6 -26 6 -26.0625 2.9375 C-26.041875 1.968125 -26.02125 0.99875 -26 0 C-16.6369068 -2.89154349 -9.07190272 -5.05933036 0 0 Z M-18 23 C-19.2764826 27.58191945 -19.2764826 27.58191945 -18 32 C-14.78176644 33.60911678 -12.4113678 32.83787981 -9 32 C-6.46041766 31.11670357 -6.46041766 31.11670357 -5 29 C-4.66794554 26.24558102 -4.81686938 23.79274192 -5 21 C-6.41623216 20.94552953 -7.83308191 20.90699492 -9.25 20.875 C-10.43335938 20.84019531 -10.43335938 20.84019531 -11.640625 20.8046875 C-14.28102131 21.02326335 -15.81586891 21.50355542 -18 23 Z " fill="#E01E21" transform="translate(111,202)"/>
<path d="M0 0 C4.61859787 4.00278482 5.71618538 7.64839316 6.4375 13.625 C6.06301647 24.52663169 -0.59444301 32.68320825 -8 40 C-8.79277344 40.80953125 -9.58554688 41.6190625 -10.40234375 42.453125 C-12.7016879 44.70751957 -15.07428697 46.83314859 -17.50488281 48.94384766 C-23.97652708 54.63037395 -28.89243707 59.4616048 -29.5625 68.375 C-29.07611171 77.55361776 -22.63456926 85.27278051 -17.57421875 92.53125 C-16 95 -16 95 -16 97 C-20.31607157 95.32620639 -23.18030074 92.16331794 -26.375 88.9375 C-27.24282104 88.06339478 -27.24282104 88.06339478 -28.12817383 87.17163086 C-33.95970009 81.18514672 -40.90213312 73.92058655 -41.02734375 65.06640625 C-40.65960974 60.07842445 -39.10619983 56.99368549 -36 53 C-35.14341797 51.83404297 -35.14341797 51.83404297 -34.26953125 50.64453125 C-31.649936 47.5920941 -28.69889392 45.27274374 -25.5 42.875 C-9.28502978 31.23776011 -9.28502978 31.23776011 -0.4921875 14.20703125 C0.00489822 9.48471695 0.12830263 4.7471972 0 0 Z " fill="#E01E21" transform="translate(145,0)"/>
<path d="M0 0 C0.33 0.66 0.66 1.32 1 2 C-0.22976562 2.27263672 -0.22976562 2.27263672 -1.484375 2.55078125 C-2.56203125 2.80214844 -3.6396875 3.05351562 -4.75 3.3125 C-5.81734375 3.55613281 -6.8846875 3.79976562 -7.984375 4.05078125 C-10.92210901 4.9754825 -12.69294262 6.00092358 -15 8 C-13.16830682 8.48539869 -11.33453941 8.96297186 -9.5 9.4375 C-8.4790625 9.70433594 -7.458125 9.97117188 -6.40625 10.24609375 C1.1902143 11.92742128 8.59700285 12.1709575 16.34765625 12.203125 C17.98014565 12.21167511 17.98014565 12.21167511 19.64561462 12.22039795 C21.94936157 12.22981623 24.25312181 12.23636927 26.55688477 12.24023438 C29.99976852 12.24982525 33.44202458 12.28083124 36.88476562 12.3125 C47.88464752 12.36591909 58.70067549 12.07002144 69.62109375 10.671875 C70.53866959 10.55515442 71.45624542 10.43843384 72.40162659 10.31817627 C78.1894556 9.48852366 83.52282067 8.04036146 89 6 C89.33 4.35 89.66 2.7 90 1 C91.32 1.66 92.64 2.32 94 3 C94 5.1875 94 5.1875 93 8 C72.87684201 25.18853078 29.23492027 21.01009008 4.68603516 19.22705078 C-0.32712903 18.80328758 -5.31938969 18.23883555 -10.3125 17.625 C-11.28509766 17.51115967 -12.25769531 17.39731934 -13.25976562 17.2800293 C-18.35687307 16.61168045 -22.58761305 15.83808195 -27 13 C-27.875 10.8125 -27.875 10.8125 -28 9 C-20.04660652 1.2615631 -10.86833188 -0.75678907 0 0 Z " fill="#0A6EB6" transform="translate(91,148)"/>
<path d="M0 0 C3.3 0 6.6 0 10 0 C10.23710693 0.74161377 10.47421387 1.48322754 10.71850586 2.24731445 C11.79131436 5.60243694 12.86440386 8.9574695 13.9375 12.3125 C14.31068359 13.47974609 14.68386719 14.64699219 15.06835938 15.84960938 C15.60493164 17.52700195 15.60493164 17.52700195 16.15234375 19.23828125 C16.48226318 20.26993408 16.81218262 21.30158691 17.15209961 22.36450195 C17.75755457 24.24641566 18.37484603 26.12453808 19 28 C21.77870808 18.71883291 24.09445726 9.49884183 26 0 C29.3 0 32.6 0 36 0 C35.24303442 8.32662133 33.26003916 15.90738253 30.625 23.8125 C30.33294678 24.69510498 30.04089355 25.57770996 29.73999023 26.48706055 C27.88322123 31.91041798 25.67381987 36.9291654 23 42 C21.37536158 42.05395478 19.75021459 42.09277195 18.125 42.125 C16.76761719 42.15980469 16.76761719 42.15980469 15.3828125 42.1953125 C13 42 13 42 11 40 C10.05976296 37.36340162 9.204879 34.74778855 8.3984375 32.0703125 C8.1571109 31.28357147 7.9157843 30.49683044 7.66714478 29.68624878 C7.15813625 28.02110589 6.65230786 26.35498808 6.14941406 24.68798828 C5.37936213 22.13943683 4.5967034 19.595009 3.8125 17.05078125 C3.3195497 15.43252383 2.82733768 13.8140413 2.3359375 12.1953125 C1.9844313 11.05450729 1.9844313 11.05450729 1.62582397 9.89065552 C0.58425643 6.41187782 0 3.66481576 0 0 Z " fill="#E01E21" transform="translate(119,200)"/>
<path d="M0 0 C3.3 0 6.6 0 10 0 C10.0743563 7.54392357 10.12870056 15.08763208 10.16479492 22.63183594 C10.17984779 25.19632688 10.20029461 27.76079223 10.22631836 30.32519531 C10.26285467 34.01894463 10.27976194 37.71235246 10.29296875 41.40625 C10.30845261 42.5461438 10.32393646 43.6860376 10.33988953 44.86047363 C10.34142079 52.16237109 9.96993553 58.44461516 5.09765625 64.27734375 C4.42605469 64.82519531 3.75445312 65.37304688 3.0625 65.9375 C2.39347656 66.50339844 1.72445312 67.06929688 1.03515625 67.65234375 C-1.05612125 69.03716283 -2.50558605 69.75210793 -5 70 C-7.25 68.0625 -7.25 68.0625 -9 66 C-8 63 -8 63 -5.5625 61.4375 C-0.77203593 56.8807171 -0.92955037 49.72217324 -0.68115234 43.36669922 C-0.64019715 41.34619444 -0.60881783 39.32547778 -0.5859375 37.3046875 C-0.55688828 35.69450241 -0.55688828 35.69450241 -0.5272522 34.05178833 C-0.46798967 30.65960364 -0.42128608 27.26738402 -0.375 23.875 C-0.33677107 21.55988192 -0.29771656 19.24477731 -0.2578125 16.9296875 C-0.16233254 11.28656919 -0.07810693 5.64338442 0 0 Z " fill="#E01E21" transform="translate(68,186)"/>
<path d="M0 0 C0 0.66 0 1.32 0 2 C-2.47274522 3.6414947 -4.94880093 5.1773026 -7.5 6.6875 C-19.5801011 13.67036187 -19.5801011 13.67036187 -27 25 C-27.73322563 30.79081602 -25.60153944 33.88960354 -22.5 38.5 C-17.18169045 46.40559528 -17.18169045 46.40559528 -18 52 C-20.3606033 58.07174407 -25.49542008 63.60282202 -31 67 C-31.99 66.67 -32.98 66.34 -34 66 C-33.360625 65.319375 -32.72125 64.63875 -32.0625 63.9375 C-29.56629275 60.38229574 -29.15398633 58.32973341 -29 54 C-30.51422206 50.52791841 -30.51422206 50.52791841 -32.8125 47.3125 C-37.92743859 39.60840665 -39.87018846 35.35452595 -39 26 C-35.56200123 16.22884559 -25.94581665 10.1256616 -17 5.8125 C-16.31421875 5.47025391 -15.6284375 5.12800781 -14.921875 4.77539062 C-5.20418689 0 -5.20418689 0 0 0 Z " fill="#E01E21" transform="translate(167,36)"/>
<path d="M0 0 C0 0.66 0 1.32 0 2 C-2.45714547 2.83698386 -4.91558857 3.66972424 -7.375 4.5 C-8.07367188 4.73847656 -8.77234375 4.97695312 -9.4921875 5.22265625 C-14.7734375 7 -14.7734375 7 -17 7 C-17 7.66 -17 8.32 -17 9 C-9.59472945 10.17635655 -2.28632972 10.23993359 5.1875 10.25 C5.90821686 10.25200409 6.62893372 10.25400818 7.37149048 10.256073 C24.05684736 10.26735389 40.54089289 8.80957428 57 6 C57 6.99 57 7.98 57 9 C35.33175024 20.63665265 -0.75669254 20.31183619 -24 15 C-26.52751597 14.17229908 -28.65143716 13.26020445 -31 12 C-30.765625 10.16015625 -30.765625 10.16015625 -30 8 C-21.95195469 1.92957266 -9.93956222 -0.69345783 0 0 Z " fill="#0A6EB6" transform="translate(108,96)"/>
<path d="M0 0 C-0.33 1.32 -0.66 2.64 -1 4 C11.33213005 5.61732853 23.82717629 5.46131172 36.1875 4.25 C42.43086052 3.74323372 45.8203311 4.51165156 51 8 C51 8.66 51 9.32 51 10 C34.09473699 16.97892621 15.60710894 18.41579921 -2 13 C-5.24602521 11.58132352 -7.39416663 10.17602949 -9.0625 6.9375 C-9 5 -9 5 -7.8125 3.375 C-5.31336847 1.47910712 -3.19436955 0 0 0 Z " fill="#0A6EB6" transform="translate(105,135)"/>
<path d="M0 0 C-0.33 1.65 -0.66 3.3 -1 5 C14.86606784 8.68319432 32.07238572 6.99039998 47.96875 4.34375 C51 4 51 4 53.25 5.375 C53.8275 5.91125 54.405 6.4475 55 7 C55.99 7.33 56.98 7.66 58 8 C57.67 8.99 57.34 9.98 57 11 C44.88977437 14.26044536 33.06324378 15.43605014 20.5625 15.5 C19.88807861 15.50999023 19.21365723 15.51998047 18.51879883 15.53027344 C9.14272421 15.64421285 0.70123769 14.67588292 -8 11 C-10 9 -10 9 -10.0625 6.625 C-8.44322145 2.62442945 -4.46876874 0 0 0 Z " fill="#0A6EB6" transform="translate(101,116)"/>
<path d="M0 0 C0.495 1.485 0.495 1.485 1 3 C-3.13658018 10.01420117 -10.43285987 11.96995423 -17.8125 14.125 C-41.35183239 20.19316351 -80.67333222 23.83223469 -103.53515625 13.8984375 C-104.26025391 13.45371094 -104.26025391 13.45371094 -105 13 C-105 12.34 -105 11.68 -105 11 C-103.71351562 11.144375 -102.42703125 11.28875 -101.1015625 11.4375 C-70.7482585 14.63918109 -29.83241662 17.35221479 -2 2 C-1.34 1.34 -0.68 0.68 0 0 Z " fill="#0A6EB6" transform="translate(192,158)"/>
<path d="M0 0 C3.88754896 3.25469215 5.42719147 5.52545599 6.1875 10.5625 C5.38501697 16.48081232 2.9762609 20.22469359 -1.484375 24.171875 C-7.72335072 28.82130277 -15.33717505 33.25 -23.3125 33.25 C-23.3125 32.59 -23.3125 31.93 -23.3125 31.25 C-21.3359375 29.91796875 -21.3359375 29.91796875 -18.6875 28.4375 C-9.92444564 23.39400002 -9.92444564 23.39400002 -4.3125 15.25 C-3.80943181 12.13656687 -3.72164189 9.35490145 -4.3125 6.25 C-6.04526023 3.44599043 -6.04526023 3.44599043 -9.3125 2.25 C-12.67532066 1.94708944 -15.94725855 2.01475982 -19.3125 2.25 C-18.9825 1.26 -18.6525 0.27 -18.3125 -0.75 C-11.76448579 -3.42265886 -6.27864733 -3.31702123 0 0 Z " fill="#0A6EB6" transform="translate(187.3125,96.75)"/>
<path d="M0 0 C2.64 0 5.28 0 8 0 C8 1.65 8 3.3 8 5 C5.69 5 3.38 5 1 5 C0.67 3.35 0.34 1.7 0 0 Z " fill="#E01E21" transform="translate(189,199)"/>
</svg>
