<?xml version="1.0" encoding="UTF-8"?>
<svg version="1.1" xmlns="http://www.w3.org/2000/svg" width="400" height="400">
<path d="M0 0 C1.65234375 1.046875 1.65234375 1.046875 3 3 C3.330812 5.62563398 3.47560502 7.93990667 3.4375 10.5625 C3.42614014 11.63951172 3.42614014 11.63951172 3.41455078 12.73828125 C3.0904672 23.26035249 -1.36567879 31.27352868 -8.671875 38.69921875 C-12.8182798 42.50008981 -17.34802207 45.70533575 -21.9375 48.9375 C-36.43845478 59.22055498 -43.37437645 68.67311707 -47.1484375 86.40234375 C-47.40684921 87.55086319 -47.66526093 88.69938263 -47.9315033 89.88270569 C-48.47783385 92.31546763 -49.01761085 94.74970961 -49.55117798 97.18530273 C-50.93652998 103.49505636 -52.37991505 109.7915736 -53.81640625 116.08984375 C-54.2334507 117.92644058 -54.2334507 117.92644058 -54.65892029 119.80014038 C-65.26061449 166.37150834 -65.26061449 166.37150834 -80 185 C-80.59167969 185.75539062 -81.18335938 186.51078125 -81.79296875 187.2890625 C-90.9056052 198.22422624 -102.5679519 205.52265063 -116 210 C-117.34358872 212.34556356 -117.34358872 212.34556356 -118.5625 215.25 C-127.91116917 234.68782698 -144.18988765 247.88959432 -164.32495117 255.12011719 C-172.82034475 258.04508212 -180.01446427 259.33766105 -189 259 C-186.18287768 253.64888323 -183.0786958 248.54618156 -179.75 243.5 C-176.24398611 238.16588786 -173.15032474 232.69153183 -170.203125 227.03125 C-169.79529785 226.25426758 -169.3874707 225.47728516 -168.96728516 224.67675781 C-167.97535829 222.78598812 -166.98727062 220.89320513 -166 219 C-166.84300911 218.97240852 -166.84300911 218.97240852 -167.70304871 218.94425964 C-215.3803469 217.36759808 -215.3803469 217.36759808 -232.5625 215.375 C-262.51933873 211.92138803 -285.0942852 217.17245557 -310.33203125 233.828125 C-335.37607892 250.33604016 -359.03310869 259.51933637 -389 260 C-387.5400772 254.45576936 -384.79221126 250.46027614 -381.5 245.875 C-380.50813139 244.47818245 -379.51847062 243.07979395 -378.53125 241.6796875 C-378.09361328 241.06851074 -377.65597656 240.45733398 -377.20507812 239.82763672 C-375.96522379 237.94725796 -374.96658416 236.03240579 -374 234 C-374.66644531 233.56655273 -375.33289063 233.13310547 -376.01953125 232.68652344 C-379.02261975 230.72191554 -382.0112661 228.73636983 -385 226.75 C-386.04929687 226.06808594 -387.09859375 225.38617188 -388.1796875 224.68359375 C-389.17226563 224.01972656 -390.16484375 223.35585938 -391.1875 222.671875 C-392.10917969 222.0644043 -393.03085937 221.45693359 -393.98046875 220.83105469 C-394.64691406 220.22680664 -395.31335938 219.62255859 -396 219 C-396 217.68 -396 216.36 -396 215 C-394.69303325 214.36351028 -393.37896647 213.74160139 -392.0625 213.125 C-391.33160156 212.77695312 -390.60070312 212.42890625 -389.84765625 212.0703125 C-382.35372125 209.25366203 -375.08295653 208.64484996 -367.125 208.6875 C-366.12702393 208.68806396 -365.12904785 208.68862793 -364.10083008 208.68920898 C-357.49834854 208.76945203 -351.18324527 209.40838379 -344.6875 210.5625 C-335.2348385 212.63892337 -335.2348385 212.63892337 -326 211 C-318.88347034 205.61088379 -313.96392648 198.69516777 -308.97167969 191.41430664 C-291.8577058 166.99664187 -267.56134055 156.94242588 -240.25 147.8125 C-238.00953268 147.05676119 -235.76930013 146.30032605 -233.52929688 145.54321289 C-223.70547402 142.22793934 -213.87166593 138.94482568 -204.015625 135.7265625 C-190.02274675 131.15269485 -176.19963438 126.59083296 -163 120 C-161.84371094 119.44054687 -160.68742188 118.88109375 -159.49609375 118.3046875 C-134.72187438 105.72745689 -121.87224118 84.76973937 -108.37799072 61.50292969 C-103.03730378 52.30856945 -97.60897542 43.35545372 -91 35 C-90.40445312 34.23558594 -89.80890625 33.47117188 -89.1953125 32.68359375 C-78.28351843 19.43355809 -63.02038093 11.02966776 -46 9 C-41.35829871 8.58691079 -36.70961824 8.25819105 -32.06274414 7.90893555 C-24.28800271 7.23207888 -18.0706769 5.36801709 -11 2 C-7.09053299 0.3195644 -4.30035715 -0.46743012 0 0 Z " fill="#005F63" transform="translate(397,66)"/>
</svg>
