<?xml version="1.0" encoding="UTF-8"?>
<svg version="1.1" xmlns="http://www.w3.org/2000/svg" width="300" height="300">
<path d="M0 0 C1.85625 -0.00386719 1.85625 -0.00386719 3.75 -0.0078125 C7 0.125 7 0.125 10 1.125 C10.8556463 4.15242031 11.46434447 7.03280674 12 10.125 C12.3079248 11.83647217 12.3079248 11.83647217 12.62207031 13.58251953 C13.3068422 17.44802174 13.96894424 21.31705544 14.625 25.1875 C14.8565663 26.54365473 15.08833562 27.89977481 15.3203125 29.25585938 C15.88219938 32.54523882 16.44204059 35.83495249 17 39.125 C20.37153781 33.61352689 23.61819883 28.12686924 26.4375 22.3125 C28.82793577 17.47332514 31.24153284 12.65429006 33.75 7.875 C34.30171875 6.81796875 34.8534375 5.7609375 35.421875 4.671875 C37 2.125 37 2.125 40 0.125 C42.7278805 -0.04388242 45.33909602 -0.10825126 48.0625 -0.0625 C48.79533203 -0.06185547 49.52816406 -0.06121094 50.28320312 -0.06054688 C55.71875 -0.015625 55.71875 -0.015625 58 1.125 C58.20150663 5.8604057 57.71196743 9.85505588 56.58618164 14.44848633 C55.95926128 17.31101357 55.5314358 20.16113762 55.12109375 23.0625 C54.05554059 30.12477162 52.54370184 37.04370006 50.9375 44 C50.4024371 46.33015404 49.86980906 48.66086879 49.33984375 50.9921875 C49.0960498 52.06178711 48.85225586 53.13138672 48.60107422 54.23339844 C48.10720578 56.60926269 47.75358044 58.91073866 47.50390625 61.3203125 C47.33761719 62.24585938 47.17132813 63.17140625 47 64.125 C43.72872414 66.30585057 42.72623277 66.37387859 38.9375 66.3125 C38.05964844 66.30605469 37.18179688 66.29960937 36.27734375 66.29296875 C34 66.125 34 66.125 32 65.125 C32.49594571 57.40819774 33.73221005 50.13072687 35.5625 42.625 C36.024989 40.69859952 36.48475378 38.77154237 36.94140625 36.84375 C37.24606812 35.58981445 37.24606812 35.58981445 37.55688477 34.31054688 C38.09935253 32.00663948 38.09935253 32.00663948 38 29.125 C34.80254138 33.99069791 32.2649731 38.7456889 30 44.125 C28.41806187 47.17465691 26.72039588 50.15165475 25 53.125 C24.48824219 54.01316406 23.97648437 54.90132812 23.44921875 55.81640625 C18.54739499 64.17261698 18.54739499 64.17261698 16 66.125 C13.80859375 66.48828125 13.80859375 66.48828125 11.4375 66.4375 C10.65246094 66.43363281 9.86742188 66.42976563 9.05859375 66.42578125 C7 66.125 7 66.125 5 64.125 C4.40170646 61.77968931 3.91673832 59.50344392 3.5 57.125 C3.37326904 56.42890625 3.24653809 55.7328125 3.1159668 55.015625 C1.67289717 46.76846837 0.81933526 38.4533019 0 30.125 C-1.83658344 33.36765696 -2.56146471 36.36991501 -3.21875 40.02734375 C-3.42886719 41.16494141 -3.63898437 42.30253906 -3.85546875 43.47460938 C-4.06816406 44.65861328 -4.28085937 45.84261719 -4.5 47.0625 C-4.92233314 49.40580901 -5.34924997 51.7482976 -5.78125 54.08984375 C-5.96751953 55.1274585 -6.15378906 56.16507324 -6.34570312 57.23413086 C-6.98321348 60.05083239 -7.75068844 62.52197678 -9 65.125 C-11.50139602 66.37569801 -13.27392691 66.25802467 -16.0625 66.25 C-17.41021484 66.25386719 -17.41021484 66.25386719 -18.78515625 66.2578125 C-21 66.125 -21 66.125 -22 65.125 C-21.99910779 54.06515278 -20.10263148 43.59226705 -17.5625 32.875 C-16.93347418 30.16266908 -16.31177667 27.44869683 -15.69140625 24.734375 C-15.39637207 23.44982422 -15.10133789 22.16527344 -14.79736328 20.84179688 C-13.85410022 16.44490869 -13.13443366 12.03893705 -12.50756836 7.58691406 C-11.99150709 5.08380592 -11.39635023 3.26488488 -10 1.125 C-6.49904689 -0.04198437 -3.6877768 -0.00768287 0 0 Z " fill="#000000" transform="translate(28,112.875)"/>
<path d="M0 0 C5.12933168 3.19158416 5.12933168 3.19158416 6.8125 5.75 C7.52933965 11.8915078 6.37965562 17.63925672 4.875 23.5625 C3.34449852 29.89826311 2.34008786 35.91970793 2.18359375 42.46484375 C1.8125 44.75 1.8125 44.75 0.59375 46.546875 C-1.76051965 48.13703959 -3.30195767 48.11768729 -6.125 48.0625 C-6.97964844 48.05863281 -7.83429688 48.05476563 -8.71484375 48.05078125 C-11.1875 47.75 -11.1875 47.75 -13.27734375 46.64453125 C-13.90769531 46.34933594 -14.53804687 46.05414063 -15.1875 45.75 C-17.10282801 46.47650373 -19.01617684 47.21011868 -20.90625 48 C-26.21915736 49.74670927 -31.42882815 49.38951704 -36.625 47.5 C-40.51274649 44.84495362 -41.83248801 43.06861594 -43.0625 38.5 C-43.26710078 32.36197669 -41.75235105 28.42662612 -37.5625 23.9375 C-31.06051987 19.20444094 -23.72442051 18.39124269 -15.88671875 17.9609375 C-13.5249247 17.77636893 -11.45560792 17.40726643 -9.1875 16.75 C-8.8575 15.1 -8.5275 13.45 -8.1875 11.75 C-11.04612458 9.43236857 -11.04612458 9.43236857 -14.5 9.8125 C-18.34295994 10.78952371 -19.57742862 12.01931738 -22.3671875 14.671875 C-26.17165054 16.92516212 -30.92103947 16.09162051 -35.1875 15.75 C-36.3515625 11.125 -36.3515625 11.125 -34.875 7.75 C-27.90539153 -1.74731859 -10.43933877 -4.20314734 0 0 Z M-27.125 31.1875 C-28.40019991 32.72043316 -28.40019991 32.72043316 -28.0625 34.8125 C-27.23497907 37.1011243 -27.23497907 37.1011243 -24.1875 38.75 C-19.92488563 38.6710627 -17.76414778 38.19850383 -14.375 35.5625 C-12.11198434 32.65290844 -11.0955469 30.29963786 -10.1875 26.75 C-17.0358979 26.33909613 -21.46121498 26.98533692 -27.125 31.1875 Z " fill="#000000" transform="translate(126.1875,131.25)"/>
<path d="M0 0 C4.57423748 2.67226763 6.84388686 6.40666059 8.5 11.375 C8.59467365 13.56084749 8.62988914 15.74960867 8.625 17.9375 C8.62886719 19.67193359 8.62886719 19.67193359 8.6328125 21.44140625 C8.5 24.375 8.5 24.375 7.5 26.375 C-8.34 26.87 -8.34 26.87 -24.5 27.375 C-25.80813281 30.24242597 -25.80813281 30.24242597 -24.6875 32.5 C-23.63144799 34.52442042 -23.63144799 34.52442042 -21.5 35.375 C-15.79789821 35.85822897 -13.31627017 35.47783232 -8.44140625 32.265625 C-4.68246686 30.5412021 -0.54285786 31.08215718 3.5 31.375 C3.5803258 35.31096412 3.44690097 37.35987254 0.7109375 40.29296875 C-6.33446073 45.97044601 -12.83110126 49.01703247 -21.9609375 48.734375 C-26.13123463 48.14411756 -30.00893564 46.75274087 -33.5 44.375 C-33.995 42.89 -33.995 42.89 -34.5 41.375 C-35.49 41.045 -36.48 40.715 -37.5 40.375 C-40.66449936 34.48432721 -40.26283638 27.84548715 -39.5 21.375 C-36.33107659 11.42551252 -30.41959727 4.72956801 -21.25 -0.0625 C-14.45085958 -2.77511043 -6.74012452 -2.98724327 0 0 Z M-20.5 12.375 C-21.16 14.025 -21.82 15.675 -22.5 17.375 C-16.89 17.375 -11.28 17.375 -5.5 17.375 C-5.5 15.725 -5.5 14.075 -5.5 12.375 C-10.75815077 8.13926744 -15.00417182 8.91023875 -20.5 12.375 Z " fill="#000000" transform="translate(221.5,131.625)"/>
<path d="M0 0 C4.86658196 4.10617853 4.86658196 4.10617853 5.875 8.5 C6.30377412 13.82537456 5.12815571 18.61127826 3.890625 23.76953125 C3.22034376 26.5877592 2.69223768 29.40127558 2.234375 32.26171875 C2.11094727 33.02871094 1.98751953 33.79570312 1.86035156 34.5859375 C1.62422831 36.08586408 1.39669092 37.58717324 1.17871094 39.08984375 C0.72472308 41.9064215 0.28696618 44.2429665 -1.2734375 46.66015625 C-3.64541038 48.07153378 -5.38324057 48.01743468 -8.125 47.9375 C-9.01445312 47.92203125 -9.90390625 47.9065625 -10.8203125 47.890625 C-13 47.6875 -13 47.6875 -14 46.6875 C-14.61031614 39.70168666 -13.52815025 33.16391076 -12 26.375 C-10.29241954 19.10866586 -10.29241954 19.10866586 -10 11.6875 C-16.39715287 11.19350787 -16.39715287 11.19350787 -22 13.6875 C-26.33645341 20.8593268 -27.29938499 28.43645445 -28.5 36.578125 C-29.0685057 40.1135198 -29.77692046 43.32403125 -31 46.6875 C-33.50139602 47.93819801 -35.27392691 47.82052467 -38.0625 47.8125 C-39.41021484 47.81636719 -39.41021484 47.81636719 -40.78515625 47.8203125 C-43 47.6875 -43 47.6875 -44 46.6875 C-45.15308891 37.57010824 -42.74493043 28.74958044 -40.63696289 19.95898438 C-40.05598535 17.53532287 -39.4924351 15.10809085 -38.93164062 12.6796875 C-38.57129573 11.13779072 -38.21000327 9.59611501 -37.84765625 8.0546875 C-37.6778273 7.32877411 -37.50799835 6.60286072 -37.33302307 5.85494995 C-36.11760215 0.80510215 -36.11760215 0.80510215 -35 -0.3125 C-33.14712498 -0.38476502 -31.29166122 -0.3963122 -29.4375 -0.375 C-28.42558594 -0.36597656 -27.41367188 -0.35695312 -26.37109375 -0.34765625 C-25.19740234 -0.33025391 -25.19740234 -0.33025391 -24 -0.3125 C-23.67 1.0075 -23.34 2.3275 -23 3.6875 C-22.34 3.6875 -21.68 3.6875 -21 3.6875 C-21 3.0275 -21 2.3675 -21 1.6875 C-14.37803082 -1.84421689 -7.06656874 -3.09162382 0 0 Z " fill="#000000" transform="translate(276,131.3125)"/>
<path d="M0 0 C5.42128603 0.36141907 5.42128603 0.36141907 7.8125 3 C9.11826881 6.29878436 9.40543171 9.090091 9.69140625 12.59765625 C10.20458179 16.59263038 11.61819328 20.2352817 13 24 C14 27 14 27 15 30 C15.495 29.05125 15.99 28.1025 16.5 27.125 C21.42811691 18.56110453 30.41494845 4.86873085 40.1796875 2.09765625 C41.11039063 2.06542969 42.04109375 2.03320312 43 2 C45 4 45 4 45.5625 7.4375 C45.38855806 15.40983873 38.65661316 22.14827755 34.12109375 28.3046875 C32.44994114 30.83179632 31.21977827 33.5359861 29.9921875 36.30078125 C29 38 29 38 26 40 C25.54625 40.969375 25.0925 41.93875 24.625 42.9375 C22.80256651 46.37208619 21.50173468 47.42421939 18 49 C17.01 49 16.02 49 15 49 C15 49.66 15 50.32 15 51 C14.34 51 13.68 51 13 51 C13.66 54.3 14.32 57.6 15 61 C14.01 61 13.02 61 12 61 C11.34 59.35 10.68 57.7 10 56 C9.566875 56.825 9.13375 57.65 8.6875 58.5 C8.130625 59.325 7.57375 60.15 7 61 C6.01 61 5.02 61 4 61 C4.33 60.071875 4.66 59.14375 5 58.1875 C6.49110513 53.43460239 5.78811239 50.56962056 4 46 C3.34 45.67 2.68 45.34 2 45 C2.33 44.01 2.66 43.02 3 42 C2.53031734 39.86631345 2.53031734 39.86631345 1.6875 37.5625 C-2.0482325 25.72125615 -4.52455478 11.8859336 0 0 Z " fill="#BE2041" transform="translate(141,127)"/>
<path d="M0 0 C1.78835592 1.78835592 1.56205174 4.06640554 1.56640625 6.45703125 C0.33406393 11.98982332 -3.66115509 16.52833271 -7 21 C-8.46184058 20.77139942 -9.91955419 20.51629608 -11.375 20.25 C-12.18710938 20.11078125 -12.99921875 19.9715625 -13.8359375 19.828125 C-16 19 -16 19 -17.1640625 17.046875 C-17.43992188 16.37140625 -17.71578125 15.6959375 -18 15 C-18.66 14.34 -19.32 13.68 -20 13 C-17.87801168 10.85111324 -15.75260401 8.70581417 -13.625 6.5625 C-13.02171875 5.95083984 -12.4184375 5.33917969 -11.796875 4.70898438 C-11.21679688 4.12568359 -10.63671875 3.54238281 -10.0390625 2.94140625 C-9.23782959 2.13231812 -9.23782959 2.13231812 -8.42041016 1.30688477 C-5.47390984 -1.40411836 -3.72917398 -0.95619846 0 0 Z " fill="#E26628" transform="translate(185,130)"/>
<path d="M0 0 C0.66 0 1.32 0 2 0 C2.66 1.32 3.32 2.64 4 4 C6.97 4 9.94 4 13 4 C12.02738378 7.27152729 11.34232413 8.74545129 8.5625 10.8125 C6 12 6 12 3 12 C3 12.66 3 13.32 3 14 C2.34 14 1.68 14 1 14 C1.66 17.3 2.32 20.6 3 24 C2.01 24 1.02 24 0 24 C-0.66 22.35 -1.32 20.7 -2 19 C-2.433125 19.825 -2.86625 20.65 -3.3125 21.5 C-4.1478125 22.7375 -4.1478125 22.7375 -5 24 C-5.99 24 -6.98 24 -8 24 C-7.67 23.071875 -7.34 22.14375 -7 21.1875 C-5.50889487 16.43460239 -6.21188761 13.56962056 -8 9 C-8.66 8.67 -9.32 8.34 -10 8 C-9.67 6.35 -9.34 4.7 -9 3 C-8.2575 3.20625 -7.515 3.4125 -6.75 3.625 C-3.67669159 4.04408751 -2.57213134 3.61949011 0 2 C0 1.34 0 0.68 0 0 Z " fill="#782778" transform="translate(153,164)"/>
<path d="M0 0 C5.38004751 0.35866983 5.38004751 0.35866983 7.8125 2.875 C9.57794787 7.52091544 10.3750576 12.02474616 10 17 C7.9375 19.6875 7.9375 19.6875 5 21 C1.75 21.3125 1.75 21.3125 -1 21 C-2.90268707 19.09731293 -2.17427843 15.84310855 -2.1875 13.3125 C-2.20167969 12.09175781 -2.21585938 10.87101563 -2.23046875 9.61328125 C-2.00356517 6.05589459 -1.28540452 3.30750332 0 0 Z " fill="#F39423" transform="translate(141,127)"/>
<path d="M0 0 C5.61 0 11.22 0 17 0 C16.67 2.64 16.34 5.28 16 8 C12.26562152 8.87867729 8.83225427 9.08912219 5 9 C5 7.68 5 6.36 5 5 C4.34 6.32 3.68 7.64 3 9 C2.34 9 1.68 9 1 9 C1.020625 8.2575 1.04125 7.515 1.0625 6.75 C1.09557707 3.7577566 1.09557707 3.7577566 0 0 Z " fill="#000000" transform="translate(282,130)"/>
<path d="M0 0 C0.99 0.495 0.99 0.495 2 1 C1.01 1.495 1.01 1.495 0 2 C0 1.34 0 0.68 0 0 Z M6 0 C6.8125 3.25 6.8125 3.25 7 7 C4.36224628 10.1173453 2.81703133 10.92143929 -1.25 11.3125 C-4 11 -4 11 -5 10 C-5.04092937 7.66702567 -5.04241723 5.33294775 -5 3 C-3.1875 1.9375 -3.1875 1.9375 -1 1 C-0.01 1.33 0.98 1.66 2 2 C5 0 5 0 6 0 Z " fill="#E05F29" transform="translate(144,137)"/>
<path d="M0 0 C2.25 0.8125 2.25 0.8125 3.25 1.8125 C3.39115161 4.48308851 3.29247107 7.13682238 3.25 9.8125 C0.28 9.4825 -2.69 9.1525 -5.75 8.8125 C-6.41 7.1625 -7.07 5.5125 -7.75 3.8125 C-3.45648683 -0.23566956 -3.45648683 -0.23566956 0 0 Z " fill="#F49323" transform="translate(182.75,129.1875)"/>
<path d="M0 0 C1.60355101 3.50776784 2.22036864 6.14354879 2 10 C3.65 10 5.3 10 7 10 C6.67 10.99 6.34 11.98 6 13 C4.53815942 12.77139942 3.08044581 12.51629608 1.625 12.25 C0.81289062 12.11078125 0.00078125 11.9715625 -0.8359375 11.828125 C-3 11 -3 11 -4.1640625 9.046875 C-4.43992188 8.37140625 -4.71578125 7.6959375 -5 7 C-5.66 6.34 -6.32 5.68 -7 5 C-2.25 0 -2.25 0 0 0 Z " fill="#D43A30" transform="translate(172,138)"/>
<path d="M0 0 C0.99 0.33 1.98 0.66 3 1 C2.8125 3.375 2.8125 3.375 2 6 C-1.46840476 7.91675 -4.10644836 8 -8 8 C-8 6.35 -8 4.7 -8 3 C-6.8553125 3.0928125 -6.8553125 3.0928125 -5.6875 3.1875 C-2.95474688 3.25898085 -2.95474688 3.25898085 -1.1875 1.5 C-0.795625 1.005 -0.40375 0.51 0 0 Z M-3 5 C-2.67 5.66 -2.34 6.32 -2 7 C-1.67 6.34 -1.34 5.68 -1 5 C-1.66 5 -2.32 5 -3 5 Z " fill="#E77426" transform="translate(147,132)"/>
<path d="M0 0 C-1.36983503 3.16115776 -1.9890638 3.9927092 -5 6 C-8.1875 6.125 -8.1875 6.125 -11 6 C-11.33 4.68 -11.66 3.36 -12 2 C-10.56342755 1.66269158 -9.12569907 1.33030409 -7.6875 1 C-6.88699219 0.814375 -6.08648437 0.62875 -5.26171875 0.4375 C-3 0 -3 0 0 0 Z " fill="#D33530" transform="translate(151,142)"/>
<path d="M0 0 C0.66 0 1.32 0 2 0 C3.60355101 3.50776784 4.22036864 6.14354879 4 10 C3.01 9.67 2.02 9.34 1 9 C0.234375 7.1875 0.234375 7.1875 -0.25 5 C-0.42015625 4.278125 -0.5903125 3.55625 -0.765625 2.8125 C-0.84296875 2.214375 -0.9203125 1.61625 -1 1 C-0.67 0.67 -0.34 0.34 0 0 Z " fill="#DA4E2C" transform="translate(170,138)"/>
<path d="M0 0 C0.66 0.33 1.32 0.66 2 1 C0.68 1.33 -0.64 1.66 -2 2 C-1.34 1.34 -0.68 0.68 0 0 Z M-2 2 C-2 2.66 -2 3.32 -2 4 C-4.31 4.33 -6.62 4.66 -9 5 C-9 4.01 -9 3.02 -9 2 C-6.3333581 0.66667905 -4.83319697 1.32897967 -2 2 Z " fill="#D8462D" transform="translate(148,142)"/>
<path d="M0 0 C0.66 0 1.32 0 2 0 C0.84826645 2.46800047 -0.04783565 4.04783565 -2 6 C-5.29714793 5.67028521 -6.6226839 5.3773161 -9 3 C-8.2575 3.20625 -7.515 3.4125 -6.75 3.625 C-3.67669159 4.04408751 -2.57213134 3.61949011 0 2 C0 1.34 0 0.68 0 0 Z " fill="#962267" transform="translate(153,164)"/>
<path d="M0 0 C0.99 0 1.98 0 3 0 C2.34 1.98 1.68 3.96 1 6 C0.01 6 -0.98 6 -2 6 C-1.34 4.02 -0.68 2.04 0 0 Z " fill="#332769" transform="translate(147,182)"/>
<path d="M0 0 C0.33 0.99 0.66 1.98 1 3 C-1.35438733 4.42944945 -2.48032433 5.08661261 -5.25 4.625 C-5.8275 4.41875 -6.405 4.2125 -7 4 C-4.69 2.68 -2.38 1.36 0 0 Z " fill="#DC532B" transform="translate(149,139)"/>
</svg>
