<?xml version="1.0" encoding="UTF-8"?>
<svg version="1.1" xmlns="http://www.w3.org/2000/svg" width="400" height="400">
<path d="M0 0 C4.81053113 -0.61673476 8.59942075 0.31888328 12.7421875 2.69921875 C17.61123467 7.66092944 22 17.94872925 22 25 C22.66 25 23.32 25 24 25 C25.17780436 27.91229133 26.34025075 30.83047678 27.5 33.75 C27.83386719 34.575 28.16773438 35.4 28.51171875 36.25 C28.82753906 37.04921875 29.14335938 37.8484375 29.46875 38.671875 C29.76201172 39.4050293 30.05527344 40.13818359 30.35742188 40.89355469 C31 43 31 43 31 47 C31.99 47.33 32.98 47.66 34 48 C35.98 43.05 37.96 38.1 40 33 C40.66 33 41.32 33 42 33 C42.226875 31.9275 42.45375 30.855 42.6875 29.75 C44.12497478 23.91616076 46.60201404 18.4915709 49 13 C49.66 13 50.32 13 51 13 C51.2475 11.9275 51.495 10.855 51.75 9.75 C53.01476975 5.95569076 53.77984355 4.30011175 57 2 C59.75 1.75 59.75 1.75 62 2 C62 1.34 62 0.68 62 0 C67.58347005 -0.72044775 73.22826448 1.8706475 77.60908508 5.23616028 C79.53533514 7.67886639 79.36178289 9.30029234 79.34057617 12.3894043 C79.34034958 13.49031906 79.34012299 14.59123383 79.33988953 15.72550964 C79.32440567 16.91308365 79.30892181 18.10065765 79.29296875 19.32421875 C79.28872391 20.54075638 79.28447906 21.75729401 79.28010559 23.01069641 C79.26328851 26.90318771 79.22562959 30.79516471 79.1875 34.6875 C79.17245713 37.32356024 79.15876804 39.95962858 79.14648438 42.59570312 C79.11337488 49.06400079 79.06157076 55.53191315 79 62 C74.05 62 69.1 62 64 62 C63.505 41.21 63.505 41.21 63 20 C62.01 22.31 61.02 24.62 60 27 C59.34 27 58.68 27 58 27 C57.89300781 27.67417969 57.78601563 28.34835938 57.67578125 29.04296875 C56.85861318 32.61866949 55.56990172 35.9272519 54.1875 39.3125 C53.91832764 39.97749512 53.64915527 40.64249023 53.37182617 41.32763672 C46.378878 58.41408133 46.378878 58.41408133 41 62 C37.85546875 62.37109375 37.85546875 62.37109375 34.1875 62.4375 C32.38345703 62.49744141 32.38345703 62.49744141 30.54296875 62.55859375 C26.20938001 61.87534878 23.6917989 60.37594139 21 57 C19.49395442 54.20194997 18.45781572 51.31678026 17.4375 48.3125 C16.8500726 46.69135612 16.25894809 45.07154694 15.6640625 43.453125 C15.38208008 42.68033203 15.10009766 41.90753906 14.80957031 41.11132812 C13.80848406 38.50053383 12.61328249 36.03638081 11.3125 33.5625 C5 21.54366722 5 21.54366722 5 16 C4.34 16 3.68 16 3 16 C3 31.18 3 46.36 3 62 C-1.62 62 -6.24 62 -11 62 C-11.07416671 54.40114477 -11.12861088 46.80250035 -11.16479492 39.20336914 C-11.17987962 36.61837087 -11.20035002 34.03339818 -11.22631836 31.44848633 C-11.26271442 27.7325204 -11.27972985 24.01689293 -11.29296875 20.30078125 C-11.30845261 19.14540359 -11.32393646 17.99002594 -11.33988953 16.79963684 C-11.34011612 15.71889389 -11.34034271 14.63815094 -11.34057617 13.5246582 C-11.34723801 12.57645706 -11.35389984 11.62825592 -11.36076355 10.65132141 C-10.92753924 7.46747181 -9.88538166 5.58077923 -8 3 C-5.27721265 2.05769692 -2.91760113 2.14348858 0 2 C0 1.34 0 0.68 0 0 Z " fill="#00608A" transform="translate(17,226)"/>
<path d="M0 0 C0.75152344 0.68449219 1.50304687 1.36898437 2.27734375 2.07421875 C5.70562871 4.49910323 8.15253211 4.66006391 12.3125 5 C18.34330213 5.63661693 22.89461245 6.70783541 28 10 C28.9178125 10.55300781 29.835625 11.10601562 30.78125 11.67578125 C35.33572617 14.474387 39.28932076 17.13308163 43 21 C44.4540625 22.2065625 44.4540625 22.2065625 45.9375 23.4375 C52.06169953 28.56183022 56.8186597 34.19176579 61 41 C61 41.66 61 42.32 61 43 C61.66 43 62.32 43 63 43 C63.24492187 43.62261719 63.48984375 44.24523437 63.7421875 44.88671875 C66.62858299 52.02308276 69.82168619 58.98565146 73.125 65.9375 C73.5566748 66.84910889 73.98834961 67.76071777 74.43310547 68.69995117 C75.25316034 70.41508721 76.08405065 72.12509943 76.92749023 73.82885742 C77.74815992 75.49018578 78.52950616 77.17099249 79.29296875 78.859375 C81.9385855 82.17699052 85.38630337 83.56295361 89.1875 85.3125 C89.93708984 85.67150391 90.68667969 86.03050781 91.45898438 86.40039062 C93.29989266 87.27980541 95.14916554 88.14167286 97 89 C97 89.66 97 90.32 97 91 C97.54527344 91.07605469 98.09054687 91.15210938 98.65234375 91.23046875 C101.88676438 92.29066986 103.95200674 94.14241648 106.5625 96.3125 C107.51253906 97.09238281 108.46257812 97.87226563 109.44140625 98.67578125 C111.67799838 100.70749471 113.46376183 102.40856793 115 105 C115 106.32 115 107.64 115 109 C108.73 110.32 102.46 111.64 96 113 C97.65 113.99 99.3 114.98 101 116 C101 116.66 101 117.32 101 118 C102.051875 118.37125 102.051875 118.37125 103.125 118.75 C109.23296157 121.40563546 112.48965587 124.38344939 116 130 C116.7425 130.721875 117.485 131.44375 118.25 132.1875 C120 134 120 134 120 137 C116.68106435 136.39655716 114.78250231 135.24962511 112.1875 133.125 C108.59835134 130.32371324 105.25246373 128.5946739 101 127 C101 126.34 101 125.68 101 125 C99.7315625 124.6596875 99.7315625 124.6596875 98.4375 124.3125 C92.93055163 122.20984699 88.6587488 119.51328255 85.5 114.4375 C84 111 84 111 84.125 108.890625 C85 107 85 107 86.96875 105.98828125 C92.66441756 104.46767865 98.11978539 103.47421086 104 103 C103.01 102.319375 103.01 102.319375 102 101.625 C101.34 101.08875 100.68 100.5525 100 100 C100 99.34 100 98.68 100 98 C99.40960938 97.86980469 98.81921875 97.73960937 98.2109375 97.60546875 C95.4488087 96.84905539 93.07012767 95.54761443 90.546875 94.21484375 C87.89408712 92.89961599 87.89408712 92.89961599 84.578125 91.75390625 C77.26663275 89.03137802 72.67690052 86.94393171 69.17578125 79.80078125 C68.78777344 78.87652344 68.39976562 77.95226562 68 77 C67.51917969 75.94167969 67.03835938 74.88335937 66.54296875 73.79296875 C63 65.72124656 63 65.72124656 63 62 C62.34 62 61.68 62 61 62 C60.5978125 60.78376953 60.5978125 60.78376953 60.1875 59.54296875 C57.25926603 51.26878132 53.49325877 44.81469875 48 38 C47.32066406 37.12472656 46.64132812 36.24945313 45.94140625 35.34765625 C43.57781999 32.48947648 40.87461842 30.33562746 38 28 C37.38125 27.34 36.7625 26.68 36.125 26 C33.52856266 23.55629427 30.69401634 21.91591447 27.609375 20.1484375 C27.07828125 19.76945312 26.5471875 19.39046875 26 19 C26 18.34 26 17.68 26 17 C25.34 16.896875 24.68 16.79375 24 16.6875 C21 16 21 16 17.375 14.5 C13.09505968 12.81248067 8.98672305 12.52124381 4.41796875 12.30859375 C2 12 2 12 -1 10 C-1 9.34 -1 8.68 -1 8 C-1.804375 7.731875 -2.60875 7.46375 -3.4375 7.1875 C-5.40470007 6.53176664 -7.37082436 5.872665 -9.33203125 5.19921875 C-10.52892578 4.79123047 -10.52892578 4.79123047 -11.75 4.375 C-12.50796875 4.11460938 -13.2659375 3.85421875 -14.046875 3.5859375 C-15.9794217 2.90421737 -15.9794217 2.90421737 -18 3 C-16.08321777 7.11753219 -14.45144348 10.46955391 -11.5 13.9375 C-6.31588917 20.28803576 -3 28.78164173 -3 37 C-2.34 37 -1.68 37 -1 37 C6.78997802 47.36360713 6.78997802 47.36360713 6.0625 53.3125 C5.39156809 55.64102839 4.69207632 57.96168701 3.953125 60.26953125 C1.77762488 68.78429607 1.93066117 78.11213501 5.34375 86.265625 C6 88 6 88 6 91 C6.66 91 7.32 91 8 91 C8.17015625 89.98679687 8.3403125 88.97359375 8.515625 87.9296875 C8.75968113 86.57799199 9.00451432 85.22643662 9.25 83.875 C9.35957031 83.20984375 9.46914063 82.5446875 9.58203125 81.859375 C10.45829435 77.1552257 11.87985323 73.7652899 15 70 C15.99 70 16.98 70 18 70 C18.36351562 70.97839844 18.72703125 71.95679688 19.1015625 72.96484375 C21.69134419 79.77726579 24.26482192 86.07161756 28.56640625 92.015625 C30.00945328 94.0130852 31.25099421 96.06458921 32.5 98.1875 C34.18339365 100.94015021 35.97475345 103.08972459 38.3125 105.3125 C41 108 41 108 41 111 C37.59113977 109.5390599 35.56924083 107.64480674 33 105 C32.030625 104.195625 31.06125 103.39125 30.0625 102.5625 C24.40199886 97.82616231 20.97413266 93.69595229 18 87 C17.80664062 87.62648438 17.61328125 88.25296875 17.4140625 88.8984375 C17.15367187 89.71570313 16.89328125 90.53296875 16.625 91.375 C16.36976563 92.18710938 16.11453125 92.99921875 15.8515625 93.8359375 C15 96 15 96 13 98 C9.23030064 98.42675842 6.79233228 98.39616614 3.375 96.6875 C-5.17300325 87.01475948 -4.60475744 76.42781857 -4.19287109 64.20727539 C-4.00377192 62.04316696 -3.58864117 60.08762277 -3 58 C-2.34 58 -1.68 58 -1 58 C-0.66582071 54.6675213 -0.66582071 54.6675213 -1 51 C-1.6084375 50.40832031 -2.216875 49.81664062 -2.84375 49.20703125 C-5.61861063 46.36682064 -6.47471513 43.68069726 -7.75 39.9375 C-8.17796875 38.70902344 -8.6059375 37.48054688 -9.046875 36.21484375 C-10 33 -10 33 -10 30 C-10.66 30 -11.32 30 -12 30 C-12.4125 28.80375 -12.825 27.6075 -13.25 26.375 C-14.30258276 23.53453743 -15.45795092 21.1116115 -17.1875 18.625 C-19 16 -19 16 -19 14 C-19.99 13.67 -20.98 13.34 -22 13 C-23.99558101 10.01663976 -24.29646473 7.48129367 -24.3125 3.9375 C-24.32925781 3.08027344 -24.34601563 2.22304687 -24.36328125 1.33984375 C-24 -1 -24 -1 -22.73046875 -2.74609375 C-15.9173385 -7.68292176 -6.36410475 -4.07457926 0 0 Z " fill="#005F89" transform="translate(270,110)"/>
<path d="M0 0 C1.99678554 -0.00961959 3.99342981 -0.04077724 5.98999023 -0.07226562 C25.46211935 -0.14995991 25.46211935 -0.14995991 31.73242188 5.16113281 C34.18781396 8.10829546 34.58988703 10.55556202 34.62573242 14.26513672 C34.63533997 15.0696225 34.64494751 15.87410828 34.65484619 16.70297241 C34.65909607 17.56862823 34.66334595 18.43428406 34.66772461 19.32617188 C34.67342468 20.22010651 34.67912476 21.11404114 34.68499756 22.0350647 C34.69444217 23.92635923 34.7009794 25.81767019 34.70483398 27.70898438 C34.71453934 30.59729813 34.74556747 33.48490012 34.77709961 36.37304688 C34.78362997 38.21158432 34.78888031 40.05012685 34.79272461 41.88867188 C34.80507141 42.75027924 34.81741821 43.6118866 34.83013916 44.49960327 C34.8127589 49.19513238 34.61833273 52.47514155 31.46459961 56.24023438 C30.80459961 56.24023438 30.14459961 56.24023438 29.46459961 56.24023438 C30.12459961 57.02398437 30.78459961 57.80773437 31.46459961 58.61523438 C33.46459961 61.24023438 33.46459961 61.24023438 33.46459961 63.24023438 C34.26897461 63.50835937 35.07334961 63.77648437 35.90209961 64.05273438 C36.74772461 64.44460938 37.59334961 64.83648437 38.46459961 65.24023438 C38.79459961 66.23023438 39.12459961 67.22023438 39.46459961 68.24023438 C36.79450124 68.43138914 34.13831458 68.56873934 31.46459961 68.67773438 C30.34891602 68.76571289 30.34891602 68.76571289 29.21069336 68.85546875 C25.70536061 68.96215279 23.38298164 69.02784078 20.64208984 66.67724609 C20.045979 66.04447754 19.44986816 65.41170898 18.83569336 64.75976562 C14.20054215 60.23186179 9.79280674 60.459873 3.53686523 60.41601562 C2.20023762 60.43854581 0.8636457 60.463299 -0.47290039 60.49023438 C-20.9174508 60.63006032 -20.9174508 60.63006032 -27.23803711 54.70800781 C-30.38869504 50.71395225 -30.24133318 46.81752344 -30.16430664 41.89648438 C-30.1667186 41.00916626 -30.16913055 40.12184814 -30.1716156 39.2076416 C-30.17063952 37.33841466 -30.15730304 35.46915795 -30.13232422 33.60009766 C-30.09800192 30.74866957 -30.11168038 27.90034158 -30.13110352 25.04882812 C-30.12420462 23.22720043 -30.11453185 21.40558069 -30.10180664 19.58398438 C-30.10676651 18.73694946 -30.11172638 17.88991455 -30.11683655 17.01721191 C-30.01043304 11.63512298 -29.11297075 8.51030519 -25.53540039 4.24023438 C-23.57055664 3.03320312 -23.57055664 3.03320312 -21.59790039 2.42773438 C-20.62530273 2.10869141 -20.62530273 2.10869141 -19.63305664 1.78320312 C-13.06299636 0.082573 -6.76692188 0.01964986 0 0 Z M-14.53540039 14.24023438 C-14.95919192 18.76376376 -14.90699242 23.3021237 -14.90600586 27.84326172 C-14.91037103 30.10005593 -14.94665838 32.35488125 -14.98461914 34.61132812 C-14.990489 36.04751936 -14.99445726 37.48371988 -14.99633789 38.91992188 C-15.00455566 40.22687012 -15.01277344 41.53381836 -15.02124023 42.88037109 C-14.80252952 46.28961727 -14.80252952 46.28961727 -12.70874023 48.67333984 C-9.66451049 50.86811254 -7.49057866 50.63844151 -3.78540039 50.49023438 C-2.61493164 50.45414062 -1.44446289 50.41804688 -0.23852539 50.38085938 C0.65350586 50.33445312 1.54553711 50.28804688 2.46459961 50.24023438 C1.83231445 49.51707031 1.83231445 49.51707031 1.18725586 48.77929688 C0.6394043 48.14765625 0.09155273 47.51601563 -0.47290039 46.86523438 C-1.01817383 46.23875 -1.56344727 45.61226563 -2.12524414 44.96679688 C-3.53540039 43.24023438 -3.53540039 43.24023438 -4.53540039 41.24023438 C-1.96949482 41.27340119 0.58792027 41.34069957 3.15209961 41.42773438 C3.87333008 41.43353516 4.59456055 41.43933594 5.33764648 41.4453125 C9.5389866 41.61797031 11.03852961 41.87081955 14.34350586 44.73632812 C15.0434668 45.56261719 15.74342773 46.38890625 16.46459961 47.24023438 C18.58579089 48.19255035 18.58579089 48.19255035 20.46459961 48.24023438 C21.83777049 47.09435337 21.83777049 47.09435337 21.578125 44.00561523 C21.57796592 42.57209311 21.57227368 41.13856525 21.56225586 39.70507812 C21.56084091 38.95182755 21.55942596 38.19857697 21.55796814 37.42250061 C21.55235337 35.00753878 21.53979844 32.59266837 21.52709961 30.17773438 C21.52208651 28.54427217 21.51752327 26.91080851 21.51342773 25.27734375 C21.50237915 21.26493853 21.48510467 17.25260197 21.46459961 13.24023438 C17.18437397 11.24396142 13.93168893 9.8602266 9.14428711 9.87695312 C8.19682617 9.87759766 7.24936523 9.87824219 6.27319336 9.87890625 C5.30510742 9.89501953 4.33702148 9.91113281 3.33959961 9.92773438 C2.3637793 9.92451172 1.38795898 9.92128906 0.38256836 9.91796875 C-7.80802442 9.94563524 -7.80802442 9.94563524 -14.53540039 14.24023438 Z " fill="#E38D00" transform="translate(268.535400390625,227.759765625)"/>
<path d="M0 0 C4.62 0 9.24 0 14 0 C14.06058594 2.15402344 14.12117188 4.30804688 14.18359375 6.52734375 C14.24534241 8.6057501 14.30874691 10.68409975 14.37231445 12.76245117 C14.4157163 14.2106424 14.45738744 15.65888654 14.49731445 17.10717773 C14.55489062 19.18489559 14.61862028 21.26234573 14.68359375 23.33984375 C14.72025146 24.59144287 14.75690918 25.84304199 14.79467773 27.13256836 C14.67803906 29.89630504 14.67803906 29.89630504 16 31 C18.28988781 31.15888092 20.58443441 31.25138073 22.87890625 31.31640625 C24.13517822 31.35451416 25.3914502 31.39262207 26.68579102 31.43188477 C29.09976196 31.49653931 29.09976196 31.49653931 31.5625 31.5625 C36.656875 31.706875 41.75125 31.85125 47 32 C47 21.44 47 10.88 47 0 C51.62 0 56.24 0 61 0 C61.09901273 7.01086321 61.17153827 14.02131773 61.21972656 21.03271484 C61.23981893 23.41690157 61.26709781 25.80103915 61.30175781 28.18505859 C61.35037859 31.61568338 61.37299312 35.04565555 61.390625 38.4765625 C61.41127014 39.53928375 61.43191528 40.602005 61.45318604 41.69692993 C61.45502047 47.77228458 61.16419547 51.43429038 57 56 C49.34542875 60.18835031 41.40385083 60.14612626 32.91015625 60.09765625 C31.96563095 60.0962413 31.02110565 60.09482635 30.04795837 60.09336853 C27.05277237 60.0878036 24.05766313 60.07525767 21.0625 60.0625 C19.02278754 60.05748046 16.98307391 60.05291835 14.94335938 60.04882812 C9.96221034 60.03784567 4.98111815 60.0206054 0 60 C0 56.37 0 52.74 0 49 C22.275 48.505 22.275 48.505 45 48 C45.66 46.02 46.32 44.04 47 42 C46.22922119 42.00523682 45.45844238 42.01047363 44.66430664 42.01586914 C41.13037958 42.03681447 37.59646564 42.04971563 34.0625 42.0625 C32.85013672 42.07087891 31.63777344 42.07925781 30.38867188 42.08789062 C12.19534045 42.13719505 12.19534045 42.13719505 6.625 39.1875 C5.68527344 38.71376953 5.68527344 38.71376953 4.7265625 38.23046875 C2.50062067 36.64410749 1.39845916 35.37837308 0 33 C-0.25630289 30.37854506 -0.3506943 28.00473833 -0.29296875 25.390625 C-0.28872391 24.66381531 -0.28447906 23.93700562 -0.28010559 23.18817139 C-0.2633613 20.87506496 -0.22571885 18.56284145 -0.1875 16.25 C-0.17244758 14.67839803 -0.15876015 13.10678236 -0.14648438 11.53515625 C-0.11347195 7.68976585 -0.06172056 3.84503244 0 0 Z " fill="#006089" transform="translate(105,246)"/>
<path d="M0 0 C0.94594025 0.00141495 1.89188049 0.0028299 2.8664856 0.00428772 C5.87196079 0.00986141 8.87736003 0.02240905 11.8828125 0.03515625 C13.92708225 0.04017465 15.97135318 0.04473696 18.015625 0.04882812 C23.01304986 0.05982222 28.01041833 0.07706868 33.0078125 0.09765625 C33.0078125 3.39765625 33.0078125 6.69765625 33.0078125 10.09765625 C18.8178125 10.42765625 4.6278125 10.75765625 -9.9921875 11.09765625 C-9.9921875 14.39765625 -9.9921875 17.69765625 -9.9921875 21.09765625 C-6.44261312 24.64723063 -5.62205316 24.49601621 -0.79296875 24.609375 C1.01977539 24.66254883 1.01977539 24.66254883 2.86914062 24.71679688 C4.7630957 24.75063477 4.7630957 24.75063477 6.6953125 24.78515625 C8.60666992 24.83639648 8.60666992 24.83639648 10.55664062 24.88867188 C13.70694353 24.97126409 16.85696407 25.0403796 20.0078125 25.09765625 C20.0078125 25.75765625 20.0078125 26.41765625 20.0078125 27.09765625 C20.8534375 27.13890625 21.6990625 27.18015625 22.5703125 27.22265625 C26.35599863 28.18628545 28.75467215 29.13000582 31.63671875 31.76171875 C34.8421368 37.22280135 33.97246823 44.07474162 33.0078125 50.09765625 C31.32808052 54.09642118 28.97191066 56.18145262 25.06044006 58.00605774 C19.10260937 60.0903996 13.78418336 60.49678599 7.50390625 60.390625 C6.05806908 60.38425774 6.05806908 60.38425774 4.58302307 60.37776184 C1.53682235 60.36111306 -1.50869038 60.32348736 -4.5546875 60.28515625 C-6.63345391 60.27009155 -8.71223081 60.25640629 -10.79101562 60.24414062 C-15.85833366 60.21125489 -20.92514437 60.15956949 -25.9921875 60.09765625 C-25.9921875 56.79765625 -25.9921875 53.49765625 -25.9921875 50.09765625 C-24.7961792 50.07783691 -23.6001709 50.05801758 -22.36791992 50.03759766 C-17.93411056 49.96157353 -13.50063076 49.87285128 -9.06713867 49.78027344 C-7.14760846 49.74197048 -5.22800615 49.70711992 -3.30834961 49.67578125 C-0.5503562 49.63015923 2.20714027 49.57216045 4.96484375 49.51171875 C6.25404472 49.49439194 6.25404472 49.49439194 7.56929016 49.47671509 C8.36989365 49.4568454 9.17049713 49.43697571 9.99536133 49.41650391 C11.05126213 49.3965184 11.05126213 49.3965184 12.12849426 49.37612915 C14.33878714 49.1852144 14.33878714 49.1852144 17.0078125 47.09765625 C17.48468553 44.9651198 17.48468553 44.9651198 17.3828125 42.59765625 C17.39054687 41.80359375 17.39828125 41.00953125 17.40625 40.19140625 C17.27476562 39.50046875 17.14328125 38.80953125 17.0078125 38.09765625 C16.0178125 37.43765625 15.0278125 36.77765625 14.0078125 36.09765625 C14.0078125 35.43765625 14.0078125 34.77765625 14.0078125 34.09765625 C13.29761963 34.1133667 12.58742676 34.12907715 11.85571289 34.14526367 C8.5939959 34.20816765 5.33240713 34.24682162 2.0703125 34.28515625 C0.95333984 34.31029297 -0.16363281 34.33542969 -1.31445312 34.36132812 C-9.45981274 34.43298818 -16.07101712 33.63007879 -22.9921875 29.16015625 C-26.1368559 25.91721696 -26.14511173 22.6762795 -26.1796875 18.28515625 C-26.09502628 13.8567234 -25.90778974 10.16831101 -23.9921875 6.09765625 C-16.89710069 -0.16750068 -9.00277712 -0.05108362 0 0 Z " fill="#E38D00" transform="translate(199.9921875,227.90234375)"/>
<path d="M0 0 C2.31243792 -0.02685412 4.6249627 -0.04632841 6.9375 -0.0625 C8.22527344 -0.07410156 9.51304687 -0.08570313 10.83984375 -0.09765625 C14 0 14 0 15 1 C15.12232644 2.47250645 15.1777456 3.95065711 15.20532227 5.42797852 C15.22526749 6.36887833 15.24521271 7.30977814 15.26576233 8.27919006 C15.28247482 9.30209641 15.29918732 10.32500275 15.31640625 11.37890625 C15.33718735 12.42070541 15.35796844 13.46250458 15.37937927 14.53587341 C15.44499057 17.87801247 15.50381331 21.22023285 15.5625 24.5625 C15.60567422 26.82227418 15.64928814 29.08204001 15.69335938 31.34179688 C15.80068367 36.89444421 15.90242812 42.44717321 16 48 C19.86323338 49.28774446 23.57490537 49.23382793 27.60546875 49.31640625 C28.44467361 49.33718735 29.28387848 49.35796844 30.14851379 49.37937927 C32.82809294 49.44474018 35.50776969 49.50369714 38.1875 49.5625 C40.00456737 49.60569802 41.82162488 49.64931273 43.63867188 49.69335938 C48.09234799 49.8004078 52.54612226 49.90171319 57 50 C57 53.3 57 56.6 57 60 C51.46819339 60.0497499 45.93651948 60.08588418 40.40454102 60.10986328 C38.52593718 60.11986873 36.64734871 60.13347733 34.76879883 60.15087891 C32.05546252 60.1753688 29.34233362 60.1865379 26.62890625 60.1953125 C25.80040665 60.20563507 24.97190704 60.21595764 24.11830139 60.22659302 C15.94219296 60.2281366 8.48035583 59.37395362 2 54 C0.05863365 50.92088368 -0.24527272 48.56399787 -0.22705078 44.95605469 C-0.22682419 43.45495148 -0.22682419 43.45495148 -0.22659302 41.92352295 C-0.21627045 40.85047913 -0.20594788 39.7774353 -0.1953125 38.671875 C-0.1924826 37.56773254 -0.18965271 36.46359009 -0.18673706 35.32598877 C-0.17554489 31.8005488 -0.15044175 28.27536315 -0.125 24.75 C-0.11496897 22.35937867 -0.10584333 19.96875336 -0.09765625 17.578125 C-0.0756087 11.71866327 -0.04214053 5.85934981 0 0 Z " fill="#E49100" transform="translate(310,228)"/>
<path d="M0 0 C2.05725041 4.11450083 2.40529556 7.48983384 1.5 12 C-0.375 15.0625 -0.375 15.0625 -3.5 17 C-8.58021562 18.0077149 -12.23018243 17.81268324 -16.625 15 C-18.96935628 11.24902995 -19.4062252 8.25676426 -18.5 4 C-15.8 -1.30357143 -15.8 -1.30357143 -12.75 -2.9375 C-7.82180752 -3.07439424 -3.97411349 -3.17929079 0 0 Z M-14.5 4 C-15.43065133 6.60582371 -15.64917407 7.64198224 -14.5625 10.25 C-14.211875 10.8275 -13.86125 11.405 -13.5 12 C-13.5 9.36 -13.5 6.72 -13.5 4 C-13.83 4 -14.16 4 -14.5 4 Z M-4.0625 7.5 C-4.536875 7.995 -5.01125 8.49 -5.5 9 C-5.17 9.99 -4.84 10.98 -4.5 12 C-3.84 12 -3.18 12 -2.5 12 C-2.17 10.02 -1.84 8.04 -1.5 6 C-2.74076302 5.88457803 -2.74076302 5.88457803 -4.0625 7.5 Z M-9.5 9 C-9.5 10.65 -9.5 12.3 -9.5 14 C-8.84 14 -8.18 14 -7.5 14 C-7.83 12.35 -8.16 10.7 -8.5 9 C-8.83 9 -9.16 9 -9.5 9 Z " fill="#E58D00" transform="translate(390.5,271)"/>
<path d="M0 0 C3.375 -0.125 3.375 -0.125 7 0 C9 2 9 2 9.125 5.625 C9.08375 6.73875 9.0425 7.8525 9 9 C7.68 9.33 6.36 9.66 5 10 C4.67 8.35 4.34 6.7 4 5 C3.34 5 2.68 5 2 5 C1.34 3.35 0.68 1.7 0 0 Z " fill="#00608B" transform="translate(274,130)"/>
</svg>
