<?xml version="1.0" encoding="UTF-8"?>
<svg version="1.1" xmlns="http://www.w3.org/2000/svg" width="1200" height="1200">
<path d="M0 0 C3.78299909 0.00461549 7.56567536 -0.00225401 11.34863281 -0.02050781 C31.56953327 -0.11700234 51.67755273 0.14169887 71.84692383 1.69067383 C72.64667067 1.75197165 73.4464175 1.81326946 74.27039909 1.87642479 C140.89729793 7.1135225 215.26901081 20.42493721 265.26098633 68.31567383 C266.41147461 69.38881836 266.41147461 69.38881836 267.58520508 70.48364258 C281.95099185 84.26406623 292.20032445 102.7270326 297.94848633 121.69067383 C298.15111084 122.3497876 298.35373535 123.00890137 298.5625 123.68798828 C301.64242369 134.35143706 302.55902125 145.10958961 302.52168274 156.16479492 C302.52550829 157.39023482 302.52933383 158.61567472 302.53327531 159.87824917 C302.54173857 163.24028456 302.54139863 166.60209843 302.53709471 169.96412683 C302.53460948 173.60579053 302.54366399 177.24742947 302.5511322 180.88908386 C302.56383367 188.00979219 302.56567844 195.13046272 302.56333194 202.25118047 C302.56154277 208.04684225 302.56331121 213.84249265 302.56755638 219.63815308 C302.56815157 220.46571226 302.56874676 221.29327144 302.56935998 222.14590818 C302.57057186 223.82762488 302.57178599 225.50934158 302.57300236 227.19105828 C302.5838613 242.93828888 302.58172378 258.68549804 302.57561751 274.43272984 C302.57045517 288.7960652 302.58168869 303.15933261 302.60071573 317.52265453 C302.62015458 332.31164619 302.62833924 347.10060579 302.62459248 361.88961029 C302.62268889 370.17600236 302.62508475 378.4623367 302.63930702 386.74871826 C302.65129951 393.80681731 302.65253889 400.86482311 302.64051685 407.92292362 C302.6346815 411.51444872 302.63337743 415.10580396 302.64551926 418.69731712 C302.70658197 438.07891981 302.27105379 457.38855105 296.51098633 476.06567383 C296.12583862 477.35368896 296.12583862 477.35368896 295.73291016 478.66772461 C289.87441197 497.72149887 281.47158562 514.28371791 268.26098633 529.31567383 C267.55329102 530.15614258 266.8455957 530.99661133 266.11645508 531.86254883 C237.88125544 564.62555525 192.70717471 578.92141109 150.85448253 582.09656262 C145.1845936 582.44228059 139.52800324 582.45886047 133.84913635 582.45370483 C132.56314873 582.45652611 131.27716111 582.45934739 129.95220417 582.46225417 C126.42114788 582.46992121 122.89011112 582.47162191 119.35904753 582.4723053 C115.5353644 582.47416076 111.71169229 582.48177649 107.88801575 582.48878479 C101.2710185 582.50026464 94.65402374 582.50853298 88.03701973 582.51490402 C77.55777969 582.52528396 67.07857077 582.54586182 56.59934998 582.56802368 C53.00489531 582.57550197 49.41044052 582.58291596 45.81598568 582.59031105 C44.91784487 582.59216162 44.01970407 582.59401218 43.09434687 582.59591883 C32.88923557 582.61681142 22.68412085 582.63565516 12.47900391 582.65356445 C11.08113603 582.65602173 11.08113603 582.65602173 9.6550284 582.65852864 C-5.42861678 582.68478376 -20.51226438 582.70344694 -35.5959227 582.72015636 C-51.12509935 582.73763549 -66.65422859 582.76654113 -82.18336731 582.80504572 C-91.73712983 582.828316 -101.29081502 582.84242852 -110.84460611 582.84437336 C-117.40487744 582.84649831 -123.96507213 582.85955605 -130.52530896 582.88085268 C-134.29719085 582.8927633 -138.06892077 582.90011361 -141.84082031 582.89414024 C-186.14089596 582.83349097 -226.71954625 590.73871121 -261.73901367 619.31567383 C-262.62202148 620.02594727 -263.5050293 620.7362207 -264.41479492 621.46801758 C-270.31134374 626.4480044 -275.02501868 632.2291465 -279.73901367 638.31567383 C-280.49311523 639.26571289 -281.2472168 640.21575195 -282.02416992 641.19458008 C-298.43240587 662.33108986 -307.59448257 687.36368981 -312.98901367 713.37817383 C-313.14015625 714.09545654 -313.29129883 714.81273926 -313.44702148 715.55175781 C-317.26997869 735.3159288 -317.07897747 755.30083655 -317.14373064 775.33923888 C-317.15955282 779.60464133 -317.18628012 783.86997649 -317.21176147 788.1353302 C-317.25821627 796.18117951 -317.29511949 804.22704196 -317.32843435 812.27295524 C-317.36689375 821.4461775 -317.41623996 830.61933162 -317.4664185 839.79249609 C-317.56924194 858.63350521 -317.65866065 877.47455613 -317.73901367 896.31567383 C-331.65722963 896.36266169 -345.57543307 896.39765909 -359.49371243 896.41929817 C-365.95807605 896.42968925 -372.422386 896.44376208 -378.88671875 896.46655273 C-385.13723839 896.48844906 -391.38770673 896.50027752 -397.6382618 896.50542831 C-400.01059844 896.50909416 -402.3829326 896.51625164 -404.75524712 896.52713394 C-421.22553915 896.59961049 -437.56976228 896.52014603 -453.55151367 892.00317383 C-454.3486377 891.78371094 -455.14576172 891.56424805 -455.96704102 891.33813477 C-462.47201769 889.49464047 -468.64895269 887.27193917 -474.73901367 884.31567383 C-475.70121826 883.85185303 -475.70121826 883.85185303 -476.68286133 883.37866211 C-492.07842408 875.86819639 -504.42790271 866.13771326 -516.73901367 854.31567383 C-517.57432617 853.51649536 -517.57432617 853.51649536 -518.42651367 852.70117188 C-522.66557038 848.56774144 -526.40893156 844.21541865 -529.98901367 839.50317383 C-530.54548584 838.77179199 -531.10195801 838.04041016 -531.67529297 837.28686523 C-537.63357009 829.31706562 -542.77666685 820.93066309 -547.73901367 812.31567383 C-548.0927002 811.71674316 -548.44638672 811.1178125 -548.81079102 810.50073242 C-560.81576133 790.08702011 -568.46972573 767.04140063 -574.73901367 744.31567383 C-575.01052246 743.33550293 -575.28203125 742.35533203 -575.56176758 741.34545898 C-586.15018018 702.28147599 -590.84211276 660.63770562 -590.94213867 620.23754883 C-590.94496605 619.44548286 -590.94779343 618.6534169 -590.95070648 617.83734894 C-590.9655844 613.62780953 -590.97488 609.41830325 -590.97924805 605.20874023 C-590.98358725 601.81572447 -590.99731665 598.42296952 -591.02026367 595.0300293 C-591.42397672 534.02785745 -585.24923763 469.70736255 -557.73901367 414.31567383 C-557.17512939 413.16349365 -557.17512939 413.16349365 -556.59985352 411.98803711 C-548.77506001 396.12385281 -539.39056348 381.65641043 -527.73901367 368.31567383 C-527.28413574 367.79376465 -526.82925781 367.27185547 -526.3605957 366.73413086 C-519.70399755 359.15232561 -512.81934122 352.4088556 -504.73901367 346.31567383 C-503.72838867 345.52805664 -502.71776367 344.74043945 -501.67651367 343.92895508 C-483.63413163 330.19928785 -463.11171418 321.4585162 -441.23901367 316.06567383 C-440.24289062 315.81906006 -439.24676758 315.57244629 -438.22045898 315.31835938 C-423.71201582 311.91933918 -409.50587437 311.01981914 -394.68029785 311.07516479 C-392.91344818 311.07429052 -391.14659877 311.07253547 -389.37975073 311.06998646 C-384.57019752 311.06555254 -379.7607348 311.07346158 -374.95119309 311.08354259 C-369.74760858 311.09223239 -364.54402858 311.08925304 -359.34043884 311.08773804 C-350.33996892 311.08669266 -341.33952814 311.09293279 -332.33906555 311.10421371 C-319.32613669 311.12051307 -306.31322182 311.12568125 -293.30028385 311.1281897 C-272.18431212 311.13255986 -251.0683559 311.14585049 -229.95239258 311.16479492 C-209.44816159 311.18317133 -188.94393483 311.19731921 -168.43969727 311.20581055 C-166.54179295 311.20659872 -166.54179295 311.20659872 -164.60554713 311.20740281 C-158.25764702 311.21001301 -151.90974689 311.2125404 -145.56184673 311.21502662 C-92.95422443 311.23573796 -40.34662107 311.27149791 12.26098633 311.31567383 C12.26098633 297.78567383 12.26098633 284.25567383 12.26098633 270.31567383 C-84.09901367 270.31567383 -180.45901367 270.31567383 -279.73901367 270.31567383 C-279.83182617 234.42817383 -279.83182617 234.42817383 -279.92651367 197.81567383 C-279.95382568 190.2869043 -279.9811377 182.75813477 -280.00927734 175.0012207 C-280.02282715 165.74243164 -280.02282715 165.74243164 -280.02534485 161.39538574 C-280.02811754 158.3868534 -280.03926989 155.37848306 -280.05574036 152.36999512 C-280.07657268 148.51267923 -280.08244089 144.65559327 -280.0782305 140.79822636 C-280.07951783 138.74128489 -280.09547444 136.68436786 -280.11229992 134.62749481 C-280.02040247 106.68949438 -269.43151555 83.42304783 -250.06713867 63.57739258 C-187.4657812 3.76771726 -81.49329616 -0.10778421 0 0 Z M-193.73901367 111.31567383 C-202.980463 123.26582382 -206.722788 136.34044242 -205.73901367 151.31567383 C-203.5399858 165.7398058 -196.89677311 178.10372622 -185.21777344 186.86962891 C-173.19689602 195.49824114 -159.39408785 199.09025286 -144.71166992 196.85473633 C-129.75844705 193.51433174 -117.82086214 185.89183456 -109.30932617 173.10473633 C-102.0899564 160.2822736 -99.6583496 146.572519 -102.86401367 132.12817383 C-106.85421982 118.21787185 -115.48174609 107.17674328 -127.89526367 99.78442383 C-150.7697355 87.97013618 -176.24661647 92.36060177 -193.73901367 111.31567383 Z " fill="#3672A4" transform="translate(590.739013671875,-0.315673828125)"/>
<path d="M0 0 C13.84911715 -0.06995118 27.69819128 -0.12303811 41.54745007 -0.15543652 C47.9803466 -0.17099729 54.41312099 -0.19205742 60.84594727 -0.22631836 C67.07055652 -0.25925747 73.29504937 -0.27692481 79.51973915 -0.28463173 C81.87761578 -0.29011392 84.23548707 -0.30081619 86.59331322 -0.31719017 C126.53826091 -0.58319434 160.27346577 8.44779885 191 35 C191.49532227 35.42684082 191.99064453 35.85368164 192.50097656 36.29345703 C199.7840698 42.61703163 206.09335947 49.35488017 212 57 C212.78890625 57.96164062 213.5778125 58.92328125 214.390625 59.9140625 C265.04104984 122.82889838 273.72374483 214.90807471 273.39111328 292.84204102 C273.37397942 296.88808034 273.38425184 300.93352885 273.40143585 304.97954845 C273.46133693 321.66216133 273.07460595 338.21913568 271.6171875 354.84375 C271.55573925 355.54469473 271.494291 356.24563946 271.43098068 356.96782494 C266.37826932 413.20654296 253.11179859 472.41829113 218 518 C217.33097656 518.89203125 216.66195312 519.7840625 215.97265625 520.703125 C197.05477826 544.95867682 172.6798653 563.00494771 144 574 C142.35644531 574.64195312 142.35644531 574.64195312 140.6796875 575.296875 C120.40484458 582.64480465 99.20528808 585.15972466 77.7830658 585.12025452 C76.02225799 585.12069092 74.26145024 585.12156709 72.50064284 585.12284368 C67.67529978 585.12507512 62.849979 585.12108585 58.02463877 585.11606562 C52.81615935 585.11174191 47.60768115 585.11320891 42.39920044 585.1139679 C33.37951803 585.11449191 24.35984286 585.11135787 15.34016228 585.10573006 C2.29926265 585.09759851 -10.74163348 585.09499814 -23.78253537 585.09374207 C-44.9412072 585.09155415 -66.09987518 585.08490112 -87.25854492 585.07543945 C-107.81062806 585.06625861 -128.36271015 585.05918106 -148.91479492 585.05493164 C-150.18190353 585.05466892 -151.44901214 585.05440619 -152.75451798 585.05413551 C-159.11131255 585.05283046 -165.46810712 585.05156675 -171.8249017 585.05032361 C-224.54993728 585.0399591 -277.27496814 585.02207239 -330 585 C-330 598.53 -330 612.06 -330 626 C-233.64 626 -137.28 626 -38 626 C-37.87625 662.63 -37.87625 662.63 -37.75 700 C-37.71358398 707.68539062 -37.67716797 715.37078125 -37.63964844 723.2890625 C-37.62158203 732.73828125 -37.62158203 732.73828125 -37.6182251 737.17431641 C-37.61452715 740.24539969 -37.59965357 743.31620103 -37.57769775 746.38720703 C-37.54993126 750.32410265 -37.54209512 754.26059781 -37.5477109 758.19758224 C-37.54653945 759.63016388 -37.53880457 761.06276187 -37.52313948 762.49525833 C-37.25412319 788.32943352 -47.9380012 810.14984412 -65 829 C-65.66902344 829.74121094 -66.33804688 830.48242188 -67.02734375 831.24609375 C-118.15460164 884.96754654 -213.83510669 894.0744882 -283.40909958 896.06906509 C-294.89910317 896.32865002 -306.39217263 896.33126907 -317.88452148 896.31567383 C-321.57051859 896.31105915 -325.25618431 896.31792583 -328.94213867 896.33618164 C-414.169942 896.75383098 -518.54729274 889.77988891 -583 827 C-583.68964844 826.38382813 -584.37929688 825.76765625 -585.08984375 825.1328125 C-598.90692916 812.41770323 -608.23332459 794.60651878 -614.3125 777.0625 C-614.65837158 776.08132202 -614.65837158 776.08132202 -615.01123047 775.08032227 C-620.44749397 758.35013146 -620.4458317 741.51518798 -620.40683305 724.11500669 C-620.40204823 720.50877243 -620.41465787 716.90258877 -620.42485046 713.29637146 C-620.4419439 706.25239168 -620.44289788 699.20850148 -620.43763756 692.16450638 C-620.43357509 686.4290384 -620.4350639 680.69359663 -620.44038582 674.95812988 C-620.44113424 674.13781827 -620.44188266 673.31750666 -620.44265376 672.47233713 C-620.44418546 670.80512348 -620.44572381 669.13790984 -620.44726873 667.47069621 C-620.46096084 651.87496829 -620.45558042 636.27929069 -620.44408352 620.68356395 C-620.43416554 606.47189219 -620.44707283 592.2603509 -620.47101771 578.04869926 C-620.4955103 563.39967611 -620.5049911 548.75071345 -620.49836498 534.10167027 C-620.4948938 525.90014923 -620.49696371 517.69872826 -620.51461601 509.4972229 C-620.5294663 502.51177166 -620.52980918 495.52649086 -620.5125451 488.54104251 C-620.50413457 484.98945329 -620.50163478 481.43816678 -620.51719666 477.88659477 C-620.67694274 431.7298829 -610.06575961 391.75891833 -577.2890625 358.2265625 C-538.91980088 321.70086901 -486.44649067 313.47316083 -435.60386717 313.61123729 C-431.79128988 313.6181694 -427.97875203 313.60743338 -424.16618347 313.59895325 C-417.58813935 313.58650828 -411.01016097 313.58437184 -404.43210793 313.58930969 C-394.89684782 313.59618602 -385.36168475 313.58348149 -375.82644209 313.56580251 C-360.31504444 313.53728545 -344.80365739 313.5196758 -329.29223633 313.51123047 C-328.36793824 313.51072329 -327.44364015 313.51021611 -326.49133303 313.50969356 C-318.99284922 313.50566204 -311.49436517 313.502167 -303.99588108 313.49869633 C-297.43613738 313.49563778 -290.87639382 313.49236544 -284.31665039 313.48876953 C-283.39259487 313.48826692 -282.46853935 313.4877643 -281.51648215 313.48724645 C-266.05130802 313.47847103 -250.58617018 313.4579769 -235.1210205 313.42928743 C-225.62089318 313.41222247 -216.12086921 313.40547037 -206.62072863 313.41259348 C-200.10497063 313.41680561 -193.58927746 313.41031863 -187.07353453 313.39579475 C-183.32978256 313.38782295 -179.58619193 313.38447731 -175.84244156 313.39461708 C-126.80583282 313.51704802 -81.64903724 303.43473963 -46 268 C-25.72960169 247.76554212 -13.65135963 220.32268237 -6.75 192.9375 C-6.51571289 192.03692871 -6.28142578 191.13635742 -6.04003906 190.20849609 C-0.59581505 167.26386474 -0.52930862 143.69864244 -0.49388909 120.26667738 C-0.48433735 116.01998563 -0.45812461 111.77339264 -0.43388367 107.52676392 C-0.39066719 99.53072457 -0.3618478 91.53470485 -0.33856028 83.53858531 C-0.31126405 74.41596938 -0.26737065 65.29345506 -0.22227156 56.1709125 C-0.13006989 37.44732912 -0.05809846 18.72371878 0 0 Z M-204 717 C-213.58465257 729.41773606 -216.88321971 742.52729908 -216 758 C-213.96274034 772.1226983 -206.6489359 784.31148957 -195.36328125 793.0390625 C-182.60817623 801.5909874 -169.0358777 804.73622686 -153.8046875 802.5390625 C-139.83438136 799.43860291 -128.10962153 791.53397807 -120.125 779.625 C-112.6422336 767.04195178 -109.91434326 753.39129668 -113.125 739 C-117.27910977 724.21909781 -125.54232182 712.58763903 -139 705 C-161.82925708 694.62062046 -186.66957132 697.92751783 -204 717 Z " fill="#FFD242" transform="translate(927,304)"/>
</svg>
