<?xml version="1.0" encoding="UTF-8"?>
<svg version="1.1" xmlns="http://www.w3.org/2000/svg" width="400" height="400">
<path d="M0 0 C9.94452455 0.32079111 18.719145 3.69407453 28 7 C28.02505615 7.74048584 28.0501123 8.48097168 28.07592773 9.24389648 C28.1929172 12.64189649 28.31517147 16.03968817 28.4375 19.4375 C28.47681641 20.60216797 28.51613281 21.76683594 28.55664062 22.96679688 C28.67917396 26.31289951 28.83200788 29.65589885 29 33 C29.03375732 33.89388428 29.06751465 34.78776855 29.10229492 35.70874023 C29.33950471 39.33466133 29.6727904 41.58024627 31.93359375 44.48046875 C32.75988281 45.04378906 33.58617187 45.60710937 34.4375 46.1875 C35.24058594 46.77917969 36.04367187 47.37085938 36.87109375 47.98046875 C45.21558271 50.69945953 55.15023008 45.29680747 62.93945312 42.30273438 C63.78056641 41.99271484 64.62167969 41.68269531 65.48828125 41.36328125 C66.23634033 41.07751221 66.98439941 40.79174316 67.75512695 40.49731445 C70.54023385 39.88032014 72.29151098 40.12797167 75 41 C76.51391602 42.3034668 76.51391602 42.3034668 77.75390625 43.94921875 C78.21603516 44.55056641 78.67816406 45.15191406 79.15429688 45.77148438 C79.61900391 46.40376953 80.08371094 47.03605469 80.5625 47.6875 C81.26536133 48.60692383 81.26536133 48.60692383 81.98242188 49.54492188 C83.34768316 51.34553921 84.67560608 53.16920536 86 55 C86.41749512 55.5460791 86.83499023 56.0921582 87.26513672 56.65478516 C90.0679108 60.48046948 90.0679108 60.48046948 89.74316406 62.96484375 C88.96766802 65.08854118 88.07046403 66.55834803 86.70703125 68.35546875 C86.24385498 68.97341309 85.78067871 69.59135742 85.3034668 70.22802734 C84.81144775 70.87465332 84.31942871 71.5212793 83.8125 72.1875 C82.81450512 73.53731771 81.81710608 74.88757618 80.8203125 76.23828125 C79.20157437 78.41369684 77.5609318 80.54923733 75.8671875 82.66796875 C72.81710271 86.56628447 72.81710271 86.56628447 72.0546875 91.296875 C72.55760516 93.60255904 73.24941939 95.76448695 74 98 C74.24093647 99.34874748 74.45270426 100.70327805 74.625 102.0625 C74.74875 103.031875 74.8725 104.00125 75 105 C76.36898437 105.14115234 76.36898437 105.14115234 77.765625 105.28515625 C83.24860777 106.07060872 88.47055476 107.80718075 93.75 109.4375 C94.79027344 109.75009766 95.83054687 110.06269531 96.90234375 110.38476562 C104.61812145 112.7454143 104.61812145 112.7454143 108 115 C109.36984112 120.10721113 109.1834791 125.43218109 109.1875 130.6875 C109.19974609 131.54150391 109.21199219 132.39550781 109.22460938 133.27539062 C109.22654297 134.09587891 109.22847656 134.91636719 109.23046875 135.76171875 C109.23457764 136.50381592 109.23868652 137.24591309 109.24291992 138.01049805 C109 140 109 140 107 143 C104.57324219 144.04321289 104.57324219 144.04321289 101.546875 144.97265625 C100.45246094 145.31490234 99.35804688 145.65714844 98.23046875 146.00976562 C97.08191406 146.35716797 95.93335938 146.70457031 94.75 147.0625 C92.49476946 147.76164712 90.23956045 148.46086369 87.984375 149.16015625 C86.98116211 149.46574463 85.97794922 149.77133301 84.94433594 150.08618164 C81.94811791 151.01610238 78.97283631 151.99809115 76 153 C75.86722656 153.75925781 75.73445312 154.51851562 75.59765625 155.30078125 C75.42105469 156.29464844 75.24445313 157.28851563 75.0625 158.3125 C74.88847656 159.29863281 74.71445312 160.28476563 74.53515625 161.30078125 C74 164 74 164 73 167 C73.86270811 168.85000136 73.86270811 168.85000136 75.28125 170.6953125 C75.79091309 171.4071167 76.30057617 172.1189209 76.82568359 172.85229492 C77.37820801 173.6022876 77.93073242 174.35228027 78.5 175.125 C79.04865723 175.89110596 79.59731445 176.65721191 80.16259766 177.4465332 C83.08692193 181.50311794 86.12573541 185.38364206 89.375 189.1875 C90.98828125 191.2109375 90.98828125 191.2109375 92 193 C91.5625 196.3125 91.5625 196.3125 90 199 C89.443125 200.175625 89.443125 200.175625 88.875 201.375 C88.58625 201.91125 88.2975 202.4475 88 203 C87.34 203 86.68 203 86 203 C85.73832031 203.72574219 85.47664062 204.45148438 85.20703125 205.19921875 C83.97035104 208.06879711 82.55626255 210.3139106 80.6875 212.8125 C80.11386719 213.60269531 79.54023438 214.39289063 78.94921875 215.20703125 C77 217 77 217 74.76953125 217.44921875 C71.72032991 216.95463743 69.01306477 215.9803827 66.14990234 214.83740234 C62.60086837 213.45502822 58.96273225 212.39223805 55.3125 211.3125 C54.57966797 211.08755859 53.84683594 210.86261719 53.09179688 210.63085938 C47.63898884 208.97248853 47.63898884 208.97248853 42 209 C39.78093528 210.26882508 39.78093528 210.26882508 37.8125 212 C34.18055556 215 34.18055556 215 32 215 C31.67 226.88 31.34 238.76 31 251 C26.8234375 252.7015625 26.8234375 252.7015625 22.5625 254.4375 C21.70470947 254.79384521 20.84691895 255.15019043 19.96313477 255.51733398 C14.58441119 257.65646697 9.77584587 258.58950445 4 259 C2.83148732 257.40833107 1.66341192 255.81633962 0.49731445 254.22290039 C-0.50788329 252.8564674 -1.51988104 251.49501285 -2.53833008 250.13842773 C-4.87716393 247.00506358 -7.01977799 243.96504172 -8.94921875 240.5546875 C-10.77104747 237.41868571 -12.13590435 235.24027832 -15 233 C-20.2699006 231.73836441 -25.67961063 232.36077846 -31 233 C-31.20625 233.64710938 -31.4125 234.29421875 -31.625 234.9609375 C-33.55897544 239.23546276 -36.25692046 242.83385705 -39 246.625 C-40.08354268 248.13787092 -41.16688416 249.65088596 -42.25 251.1640625 C-42.72953125 251.82873535 -43.2090625 252.4934082 -43.703125 253.17822266 C-44.83228794 254.76440749 -45.91997275 256.37995913 -47 258 C-47.66 258 -48.32 258 -49 258 C-49.33 258.99 -49.66 259.98 -50 261 C-54.57887684 260.52303366 -58.42630199 259.61424007 -62.73828125 257.89453125 C-66.38178784 256.45348978 -70.08517315 255.17747638 -73.77734375 253.8671875 C-76 253 -76 253 -77 252 C-77.15996166 249.40846893 -77.25938697 246.8404798 -77.31640625 244.24609375 C-77.33718735 243.47064713 -77.35796844 242.6952005 -77.37937927 241.89625549 C-77.44495802 239.41009692 -77.50379799 236.92382955 -77.5625 234.4375 C-77.60567733 232.75584796 -77.64929136 231.07420706 -77.69335938 229.39257812 C-77.80064779 225.26183129 -77.90189132 221.13097464 -78 217 C-78.62688721 216.86102295 -79.25377441 216.7220459 -79.8996582 216.57885742 C-82.30277164 215.91655567 -83.35274589 214.96604383 -85.1875 213.3125 C-87.3118669 211.74860437 -88.44306459 211.00621118 -91.1015625 210.9765625 C-96.20581803 212.04070058 -100.9042011 214.16323603 -105.69140625 216.1796875 C-108.54249475 217.19276463 -111.00083864 217.3157012 -114 217 C-114 217.66 -114 218.32 -114 219 C-117.2169466 220.4456402 -119.55231449 220.86192138 -123 220 C-127.52024549 216.19331629 -130.80841937 210.91913344 -134 206 C-134.4232959 205.38769531 -134.8465918 204.77539062 -135.28271484 204.14453125 C-138.14647404 199.72362547 -138.14647404 199.72362547 -137.4765625 196.4140625 C-136.98929688 195.61742187 -136.50203125 194.82078125 -136 194 C-135.45085937 193.10023438 -134.90171875 192.20046875 -134.3359375 191.2734375 C-133.68882812 190.31695312 -133.04171875 189.36046875 -132.375 188.375 C-131.67375 187.32441406 -130.9725 186.27382812 -130.25 185.19140625 C-128.77944034 183.10556034 -127.23863846 181.06708167 -125.625 179.08984375 C-121.448077 174.28150962 -121.448077 174.28150962 -119.91015625 168.34765625 C-120.73863022 164.32197336 -120.73863022 164.32197336 -123 161 C-123 159.35 -123 157.7 -123 156 C-128.28 154.68 -133.56 153.36 -139 152 C-139 151.34 -139 150.68 -139 150 C-139.763125 150.0825 -140.52625 150.165 -141.3125 150.25 C-146.59112006 149.89212745 -151.11589013 147.94669148 -156 146 C-157.33797701 136.46691381 -158.03600628 126.45822978 -156 117 C-155.10692139 116.74420166 -154.21384277 116.48840332 -153.29370117 116.22485352 C-149.96813213 115.25313709 -146.65606538 114.24913865 -143.34741211 113.22192383 C-141.91682255 112.78516307 -140.48217899 112.36145018 -139.04370117 111.95141602 C-130.69472684 109.89784142 -130.69472684 109.89784142 -124.38134766 104.64404297 C-123.62644035 102.37932104 -123.16393877 100.37662135 -123 98 C-122.34 98 -121.68 98 -121 98 C-121 95.36 -121 92.72 -121 90 C-121.66 90 -122.32 90 -123 90 C-124.37280273 88.41113281 -124.37280273 88.41113281 -125.93359375 86.203125 C-126.50013672 85.4090625 -127.06667969 84.615 -127.65039062 83.796875 C-128.24013672 82.95640625 -128.82988281 82.1159375 -129.4375 81.25 C-130.60268877 79.60925013 -131.76804773 77.96862111 -132.93359375 76.328125 C-133.7078772 75.22839355 -133.7078772 75.22839355 -134.49780273 74.10644531 C-135.51586405 72.67887616 -136.58030418 71.28347536 -137.68383789 69.92089844 C-139 68 -139 68 -139.125 64.9375 C-138.01627393 59.27203161 -134.26906558 54.61991912 -131 50 C-130.49984375 49.24203125 -129.9996875 48.4840625 -129.484375 47.703125 C-129.01515625 47.05859375 -128.5459375 46.4140625 -128.0625 45.75 C-127.66160156 45.18796875 -127.26070312 44.6259375 -126.84765625 44.046875 C-122.96377783 41.84628427 -118.22664611 43.66160758 -114.16625977 44.78173828 C-109.92656939 46.05422102 -105.70571028 47.37981629 -101.4921875 48.73632812 C-100.45835938 49.05408203 -99.42453125 49.37183594 -98.359375 49.69921875 C-97.42577148 49.99658936 -96.49216797 50.29395996 -95.53027344 50.6003418 C-91.81805148 51.18668948 -90.10629488 49.7702053 -87.1484375 47.7109375 C-85.96031972 46.81592367 -84.7728252 45.92008192 -83.5859375 45.0234375 C-82 44 -82 44 -80 44 C-80 32.45 -80 20.9 -80 9 C-58.1981789 -0.08409213 -58.1981789 -0.08409213 -52 1 C-49.60617536 3.18544417 -47.8806753 5.76806253 -46.0625 8.4375 C-45.26839722 9.53106812 -45.26839722 9.53106812 -44.45825195 10.64672852 C-42.23728333 13.71355322 -40.13321717 16.77624129 -38.1953125 20.03125 C-36.59678654 22.58226553 -35.46490792 24.25740942 -33 26 C-27.93573479 27.02127594 -23.14922367 27.16567644 -18 27 C-17.72526855 26.42040527 -17.45053711 25.84081055 -17.16748047 25.24365234 C-16.02456314 23.0472052 -14.75901687 21.11435809 -13.3203125 19.1015625 C-12.54494141 18.01101562 -12.54494141 18.01101562 -11.75390625 16.8984375 C-10.94759766 15.77308594 -10.94759766 15.77308594 -10.125 14.625 C-6.67801174 9.79418434 -3.2593538 4.95988622 0 0 Z " fill="#0485C7" transform="translate(221,23)"/>
<path d="M0 0 C0.02578125 1.00417969 0.0515625 2.00835937 0.078125 3.04296875 C0.58983859 16.96534356 2.82939799 30.19954271 13.328125 40.22265625 C22.31005842 47.81321655 30.63417827 50.32702852 42.375 49.625 C47.57622384 49.57415715 50.57757275 49.64330853 54.4375 53.25 C55.02917969 53.88679688 55.62085938 54.52359375 56.23046875 55.1796875 C61.34731729 60.44337717 68.38012682 62.09792105 75.48242188 62.29248047 C86.87602386 62.4021372 96.53913815 60.17242337 105 52 C106.7875075 49.73369584 108.37538464 47.38914024 110 45 C110.66 45 111.32 45 112 45 C112 43.68 112 42.36 112 41 C122.5 39.5 122.5 39.5 133 38 C131.5715811 41.20855904 129.81722955 43.49046907 127.4375 46.0625 C124.40636598 49.39892809 121.51086844 52.79852345 118.6875 56.3125 C115.42043812 60.34431302 112.03185073 64.20296956 108.5 68 C104.29800254 72.52110903 100.33798624 77.18368014 96.46875 81.9921875 C92.87938711 86.36530368 89.15612554 90.6190944 85.42822266 94.87426758 C84.63230713 95.78535278 84.63230713 95.78535278 83.8203125 96.71484375 C83.31701416 97.28477051 82.81371582 97.85469727 82.29516602 98.44189453 C80.87265228 100.074129 80.87265228 100.074129 79.53515625 102.42578125 C78 104 78 104 74.86328125 104.390625 C73.69152344 104.34421875 72.51976562 104.2978125 71.3125 104.25 C70.13300781 104.21390625 68.95351562 104.1778125 67.73828125 104.140625 C66.83464844 104.09421875 65.93101562 104.0478125 65 104 C64.89816406 104.71929687 64.79632813 105.43859375 64.69140625 106.1796875 C62.54463661 114.93656703 54.73618278 124.1825138 49 131 C48.34 131 47.68 131 47 131 C46.67 131.99 46.34 132.98 46 134 C41.42112316 133.52303366 37.57369801 132.61424007 33.26171875 130.89453125 C29.61821216 129.45348978 25.91482685 128.17747638 22.22265625 126.8671875 C20 126 20 126 19 125 C18.84003834 122.40846893 18.74061303 119.8404798 18.68359375 117.24609375 C18.66281265 116.47064713 18.64203156 115.6952005 18.62062073 114.89625549 C18.55504198 112.41009692 18.49620201 109.92382955 18.4375 107.4375 C18.39432267 105.75584796 18.35070864 104.07420706 18.30664062 102.39257812 C18.19935221 98.26183129 18.09810868 94.13097464 18 90 C17.37311279 89.86102295 16.74622559 89.7220459 16.1003418 89.57885742 C13.69722836 88.91655567 12.64725411 87.96604383 10.8125 86.3125 C8.6881331 84.74860437 7.55693541 84.00621118 4.8984375 83.9765625 C-0.20581803 85.04070058 -4.9042011 87.16323603 -9.69140625 89.1796875 C-12.54249475 90.19276463 -15.00083864 90.3157012 -18 90 C-18 90.66 -18 91.32 -18 92 C-21.2169466 93.4456402 -23.55231449 93.86192138 -27 93 C-31.52024549 89.19331629 -34.80841937 83.91913344 -38 79 C-38.4232959 78.38769531 -38.8465918 77.77539062 -39.28271484 77.14453125 C-42.14647404 72.72362547 -42.14647404 72.72362547 -41.4765625 69.4140625 C-40.98929687 68.61742187 -40.50203125 67.82078125 -40 67 C-39.45085937 66.10023438 -38.90171875 65.20046875 -38.3359375 64.2734375 C-37.68882813 63.31695312 -37.04171875 62.36046875 -36.375 61.375 C-35.67246094 60.323125 -34.96992187 59.27125 -34.24609375 58.1875 C-32.78654495 56.11620988 -31.25960737 54.09026882 -29.66015625 52.125 C-25.53060214 47.26521384 -25.53060214 47.26521384 -23.72265625 41.3359375 C-23.94782365 38.78879095 -23.94782365 38.78879095 -24.5 36.484375 C-25.17452099 33.13284883 -25.35622659 30.41754886 -25 27 C-23.39468509 24.60088047 -21.9511548 22.75243498 -20 20.6875 C-18.98564226 19.55849138 -17.97263293 18.42826991 -16.9609375 17.296875 C-16.45788086 16.74322266 -15.95482422 16.18957031 -15.43652344 15.61914062 C-12.74444968 12.58483859 -10.31616535 9.34027765 -7.8515625 6.12109375 C-2.50828729 0 -2.50828729 0 0 0 Z " fill="#0376A6" transform="translate(125,150)"/>
<path d="M0 0 C4.91712024 3.43301429 6.76496781 6.94523623 8.35546875 12.64453125 C8.98453125 12.42796875 9.61359375 12.21140625 10.26171875 11.98828125 C16.98975204 9.79964391 22.48409893 8.38041049 29.41796875 10.64453125 C34.24946503 13.93406063 38.59949692 17.51836539 40.01953125 23.390625 C40.26150374 25.82763363 40.39057816 28.19690364 40.35546875 30.64453125 C40.97292969 30.70769531 41.59039062 30.77085937 42.2265625 30.8359375 C49.38315614 31.87075698 54.27922979 34.45889059 59.35546875 39.64453125 C61.65256176 43.03928579 61.62414489 46.04331515 61.60546875 50.08203125 C61.61320312 51.75072266 61.61320312 51.75072266 61.62109375 53.453125 C61.35987926 56.59154025 60.68925329 58.8128855 59.35546875 61.64453125 C58.69546875 61.64453125 58.03546875 61.64453125 57.35546875 61.64453125 C57.07703125 62.51078125 57.07703125 62.51078125 56.79296875 63.39453125 C54.6460257 66.75496385 52.05944242 68.40132901 48.35546875 69.64453125 C41.72575783 70.3811658 35.61828439 69.92191876 29.35546875 67.64453125 C29.25234375 68.84078125 29.14921875 70.03703125 29.04296875 71.26953125 C28.02303718 79.00741209 24.08135403 83.65176153 18.35546875 88.64453125 C12.07439623 93.02667487 5.85071265 93.31143874 -1.64453125 92.64453125 C-9.48611474 91.04397309 -13.52022714 87.1816478 -18.24609375 80.88671875 C-19.64453125 78.64453125 -19.64453125 78.64453125 -19.64453125 76.64453125 C-21.16046875 77.13953125 -21.16046875 77.13953125 -22.70703125 77.64453125 C-32.96846965 80.1145412 -42.84329908 79.82142556 -52.109375 74.55859375 C-57.45205057 70.52483253 -60.57415233 64.93922589 -62.64453125 58.64453125 C-63.59065568 48.36003584 -62.96514771 40.45645617 -56.39453125 32.39453125 C-50.98031311 26.60574455 -45.32589547 24.26166056 -37.64453125 22.64453125 C-37.56976563 21.88269531 -37.495 21.12085938 -37.41796875 20.3359375 C-36.27677468 11.37420764 -33.61797977 5.51864355 -27.14453125 -0.79296875 C-17.82901924 -6.61516376 -9.09563396 -5.47790649 0 0 Z " fill="#0283C6" transform="translate(199.64453125,109.35546875)"/>
<path d="M0 0 C2.46044625 1.61216965 4.25564797 3.48447269 6.2890625 5.60546875 C11.49690595 10.68146806 17.07707149 10.44344219 23.98046875 10.48046875 C25.03105469 10.45984375 26.08164063 10.43921875 27.1640625 10.41796875 C27.1640625 11.07796875 27.1640625 11.73796875 27.1640625 12.41796875 C27.89753906 12.53269531 28.63101563 12.64742187 29.38671875 12.765625 C35.00291624 14.08476 39.57458903 17.27958812 43.0078125 21.8984375 C44.90238226 25.0421231 46.66252895 28.1686532 48.03125 31.578125 C49.56942455 34.07633262 51.17006622 34.60120156 53.8515625 35.73046875 C60.68245579 38.98327508 65.2871425 42.97256171 68.6015625 49.85546875 C71.28962331 57.51059845 71.66759475 66.74097317 69.17578125 74.4921875 C67.98971441 76.94877794 66.69527787 79.16355545 65.1640625 81.41796875 C64.6071875 82.32546875 64.0503125 83.23296875 63.4765625 84.16796875 C56.35690141 91.09520657 48.02917894 94.48140796 38.1640625 94.54296875 C36.83045115 94.51143064 35.49689025 94.47350324 34.1640625 94.41796875 C34.1640625 95.73796875 34.1640625 97.05796875 34.1640625 98.41796875 C33.5040625 98.41796875 32.8440625 98.41796875 32.1640625 98.41796875 C31.91785156 99.15917969 31.67164063 99.90039062 31.41796875 100.6640625 C28.24505515 107.63261107 21.08433689 111.93304855 14.20703125 114.7265625 C4.74873314 117.9275544 -6.72553112 117.87745769 -15.7890625 113.55859375 C-22.86676795 109.61452888 -22.86676795 109.61452888 -25.55078125 106.30078125 C-28.76919035 103.64903221 -30.91681399 104.08366072 -35.0234375 104.29296875 C-47.91366123 104.68409896 -57.22433903 101.54296836 -66.7265625 92.6796875 C-75.44372023 83.33295727 -78.46310632 72.05743197 -78.12109375 59.4921875 C-77.17147047 49.25446804 -71.69462557 40.83276666 -64.8359375 33.41796875 C-64.1759375 33.41796875 -63.5159375 33.41796875 -62.8359375 33.41796875 C-62.8359375 32.75796875 -62.8359375 32.09796875 -62.8359375 31.41796875 C-61.40299252 30.57682704 -59.96439345 29.74531188 -58.5234375 28.91796875 C-57.32267578 28.221875 -57.32267578 28.221875 -56.09765625 27.51171875 C-53.8359375 26.41796875 -53.8359375 26.41796875 -50.8359375 26.41796875 C-50.7225 25.53882812 -50.6090625 24.6596875 -50.4921875 23.75390625 C-48.6232336 14.25339059 -42.65585946 6.84847011 -34.8359375 1.41796875 C-25.09405024 -4.67934721 -10.34359556 -4.79126417 0 0 Z M-37.0859375 19.48046875 C-39.70173842 24.38509547 -40.15649183 29.97346328 -40.8359375 35.41796875 C-41.51398438 35.53011719 -42.19203125 35.64226562 -42.890625 35.7578125 C-51.05923323 37.48883336 -56.41068077 41.07163298 -61.8359375 47.41796875 C-66.23294411 55.20266909 -66.81294729 62.55114402 -65.8359375 71.41796875 C-63.00287045 79.80308666 -58.95736455 85.62158398 -50.9609375 89.66796875 C-42.28662728 93.3585463 -31.63004651 92.28951455 -22.8359375 89.41796875 C-22.6296875 90.09859375 -22.4234375 90.77921875 -22.2109375 91.48046875 C-19.4928036 97.28739117 -16.06062498 101.2048537 -10.1484375 103.85546875 C-3.37880897 106.22076065 2.98004965 106.33539618 9.8515625 104.35546875 C18.17675192 99.48601833 23.5619314 93.8256735 26.1640625 84.41796875 C26.1640625 83.09796875 26.1640625 81.77796875 26.1640625 80.41796875 C27.0715625 80.74796875 27.9790625 81.07796875 28.9140625 81.41796875 C35.41590009 83.2416549 43.17711435 83.91574036 49.2890625 80.66796875 C51.89979059 78.62479025 53.16409427 77.52898101 54.1640625 74.41796875 C54.8240625 74.41796875 55.4840625 74.41796875 56.1640625 74.41796875 C58.90231435 68.53620378 58.79907321 62.79219017 58.1640625 56.41796875 C55.8969522 51.33964169 52.12255336 47.8832597 47.1640625 45.41796875 C43.85830676 44.48656604 40.56567137 43.87653574 37.1640625 43.41796875 C37.17308594 42.78890625 37.18210937 42.15984375 37.19140625 41.51171875 C36.9696569 35.10991145 35.58314246 31.60294249 31.0546875 27.046875 C26.76728989 23.35298078 23.11355111 21.91391682 17.3984375 22.11328125 C13.17776528 22.68882746 9.18088013 24.03512989 5.1640625 25.41796875 C4.9165625 24.53109375 4.6690625 23.64421875 4.4140625 22.73046875 C1.80899775 15.82704715 -2.49515956 12.89843121 -8.890625 9.58984375 C-19.91257197 5.20445371 -30.33679655 10.29413801 -37.0859375 19.48046875 Z " fill="#F4FAFA" transform="translate(202.8359375,96.58203125)"/>
<path d="M0 0 C5.15625 -0.0825 10.3125 -0.165 15.625 -0.25 C17.24100098 -0.28641602 18.85700195 -0.32283203 20.52197266 -0.36035156 C21.8063623 -0.3703418 23.09075195 -0.38033203 24.4140625 -0.390625 C25.7232666 -0.41157227 27.0324707 -0.43251953 28.38134766 -0.45410156 C33.41263671 0.17727056 36.4974471 2.29019842 39.8125 6.0625 C42.97954461 11.22978331 42.43081414 17.14999752 42 23 C40.95654506 27.18821226 39.68377574 29.54414951 36 32 C36.6173269 36.05671964 38.74957049 38.80449802 41.0625 42.125 C45 47.78558875 45 47.78558875 45 50 C34.18828136 51.69016942 34.18828136 51.69016942 29 50 C25.42094224 47.06995595 23.34651223 43.13883087 21.11328125 39.16015625 C19.14889254 35.41782647 19.14889254 35.41782647 14 35 C14 39.95 14 44.9 14 50 C9.38 50 4.76 50 0 50 C0 33.5 0 17 0 0 Z M14 11 C14 15.29 14 19.58 14 24 C19.47040997 24.28295224 23.39308327 24.37091468 28 21 C29.24050807 18.05890142 29.24050807 18.05890142 29 15 C27.64809841 12.93657125 26.57553354 12.23447663 24.3125 11.3125 C20.86122833 10.84611194 17.48161204 10.94197313 14 11 Z " fill="#118DCB" transform="translate(37,320)"/>
<path d="M0 0 C12.54 0 25.08 0 38 0 C38 3.63 38 7.26 38 11 C37 12 37 12 34.77514648 12.11352539 C33.81680908 12.10828857 32.85847168 12.10305176 31.87109375 12.09765625 C30.31938477 12.09282227 30.31938477 12.09282227 28.73632812 12.08789062 C27.64771484 12.07951172 26.55910156 12.07113281 25.4375 12.0625 C23.7987793 12.05573242 23.7987793 12.05573242 22.12695312 12.04882812 C19.41791505 12.03699826 16.70898401 12.02051543 14 12 C14 14.31 14 16.62 14 19 C14.63091553 18.99476318 15.26183105 18.98952637 15.91186523 18.98413086 C18.75373347 18.96342174 21.59558588 18.95035934 24.4375 18.9375 C25.92733398 18.92493164 25.92733398 18.92493164 27.44726562 18.91210938 C28.39150391 18.90888672 29.33574219 18.90566406 30.30859375 18.90234375 C31.62041626 18.89448853 31.62041626 18.89448853 32.95874023 18.88647461 C35 19 35 19 36 20 C36.09823937 21.66429051 36.12973631 23.33281931 36.125 25 C36.12886719 26.36125 36.12886719 26.36125 36.1328125 27.75 C36 30 36 30 35 31 C33.43827255 31.08685603 31.87270656 31.10702219 30.30859375 31.09765625 C29.36435547 31.09443359 28.42011719 31.09121094 27.44726562 31.08789062 C26.45404297 31.07951172 25.46082031 31.07113281 24.4375 31.0625 C23.44041016 31.05798828 22.44332031 31.05347656 21.41601562 31.04882812 C18.94395151 31.03700007 16.47200482 31.02051849 14 31 C14 33.31 14 35.62 14 38 C14.72179443 37.99476318 15.44358887 37.98952637 16.18725586 37.98413086 C19.43732849 37.96342642 22.68738728 37.95036082 25.9375 37.9375 C27.07380859 37.92912109 28.21011719 37.92074219 29.38085938 37.91210938 C30.46044922 37.90888672 31.54003906 37.90566406 32.65234375 37.90234375 C34.15269165 37.89448853 34.15269165 37.89448853 35.68334961 37.88647461 C38 38 38 38 39 39 C39 42.63 39 46.26 39 50 C26.13 50 13.26 50 0 50 C0 33.5 0 17 0 0 Z " fill="#0284C7" transform="translate(88,320)"/>
<path d="M0 0 C3.29663381 1.61939907 5.84905448 3.29094 8.5625 5.75 C7.40664715 9.66211733 6.20715038 12.6245041 3.5625 15.75 C1.04568474 15.33053079 -1.06413215 14.95535232 -3.3125 13.71875 C-5.78569824 12.59126257 -7.48616023 12.54554883 -10.1875 12.625 C-11.38632813 12.65207031 -11.38632813 12.65207031 -12.609375 12.6796875 C-13.51429688 12.71449219 -13.51429688 12.71449219 -14.4375 12.75 C-14.4375 13.74 -14.4375 14.73 -14.4375 15.75 C-10.61289512 17.45886601 -6.89177263 18.93358439 -2.875 20.125 C2.73917441 21.94529546 6.25575953 24.78988929 9.5625 29.75 C10.25173878 35.30398223 10.2867151 40.22110145 7.875 45.3125 C5.53445695 47.77955889 3.60922854 49.26379095 0.5625 50.75 C-0.55125 51.3378125 -0.55125 51.3378125 -1.6875 51.9375 C-8.7685647 54.02963275 -14.87646205 52.77916291 -21.4375 49.75 C-22.16582031 49.43675781 -22.89414063 49.12351562 -23.64453125 48.80078125 C-27.67902494 46.96163368 -29.68537316 45.9887311 -31.4375 41.75 C-27.6875 36 -27.6875 36 -25.4375 33.75 C-22.01790624 33.95115257 -19.5615043 35.19136501 -16.625 36.8125 C-12.36601768 39.0596202 -9.19807068 39.09004076 -4.4375 38.75 C-4.49485943 36.78787236 -4.49485943 36.78787236 -5.4375 34.75 C-8.00519166 33.48514053 -8.00519166 33.48514053 -11.125 32.6875 C-18.26164897 30.50591773 -23.41903323 28.48539059 -28.4375 22.75 C-29.88682983 18.40201052 -29.95419065 14.29404655 -29.4375 9.75 C-23.71850227 -1.48374553 -11.46172645 -3.98763487 0 0 Z " fill="#0E8CCA" transform="translate(162.4375,319.25)"/>
<path d="M0 0 C4.62 0 9.24 0 14 0 C14.78503906 1.91941406 15.57007813 3.83882813 16.37890625 5.81640625 C17.43831079 8.39917608 18.50021346 10.98091433 19.5625 13.5625 C19.83567047 14.22694122 20.10884094 14.89138245 20.39028931 15.57595825 C23.95107206 24.22368604 27.61294414 32.78212415 31.79296875 41.15234375 C33 44 33 44 34 50 C29.38 50 24.76 50 20 50 C20 49.01 20 48.02 20 47 C19.34 47 18.68 47 18 47 C17.34 44.69 16.68 42.38 16 40 C9.73 40 3.46 40 -3 40 C-3.99 42.97 -4.98 45.94 -6 49 C-7 50 -7 50 -10.16015625 50.09765625 C-11.44792969 50.08605469 -12.73570312 50.07445312 -14.0625 50.0625 C-15.35285156 50.05347656 -16.64320313 50.04445313 -17.97265625 50.03515625 C-18.97167969 50.02355469 -19.97070312 50.01195312 -21 50 C-18.69994339 42.70463143 -15.90798433 35.65063041 -12.97631836 28.59008789 C-12.19416157 26.70356735 -11.42005697 24.81388205 -10.64648438 22.92382812 C-7.42164981 15.10051197 -3.87009261 7.52614423 0 0 Z M5 20 C3.74335022 22.90600261 3 24.79604584 3 28 C5.31 28 7.62 28 10 28 C9.45276317 24.62537285 8.9451 22.91765 7 20 C6.34 20 5.68 20 5 20 Z " fill="#0989C9" transform="translate(256,320)"/>
<path d="M0 0 C7.425 -0.185625 7.425 -0.185625 15 -0.375 C16.54558594 -0.42962402 18.09117187 -0.48424805 19.68359375 -0.54052734 C26.68756798 -0.62525284 32.19854449 -0.67932542 37.58349609 4.37231445 C41.52418192 8.90050342 42.41435189 11.89698439 42.375 17.9375 C42.38660156 19.71447266 42.38660156 19.71447266 42.3984375 21.52734375 C41.8303321 26.47877217 40.25229954 29.7815464 36.6875 33.25 C31.45192391 36.65921234 26.80106305 37.24152949 20.625 37.125 C19.37976563 37.10695313 18.13453125 37.08890625 16.8515625 37.0703125 C15.91054688 37.04710937 14.96953125 37.02390625 14 37 C14 41.29 14 45.58 14 50 C9.38 50 4.76 50 0 50 C0 33.5 0 17 0 0 Z M14 11 C14 15.95 14 20.9 14 26 C21.07173982 25.84032776 21.07173982 25.84032776 27.1875 22.75 C29.2407621 20.18363546 29.2407621 20.18363546 29 17.375 C27.94186161 14.86192132 27.18264211 13.61677193 25 12 C21.25953198 10.53053042 18.24891539 11 14 11 Z " fill="#1B92CD" transform="translate(293,320)"/>
<path d="M0 0 C1.72974441 0.00015918 3.45949355 0.0058569 5.18920898 0.01586914 C6.09783188 0.01728409 7.00645477 0.01869904 7.94261169 0.02015686 C10.85687494 0.02577346 13.77106254 0.03832874 16.68530273 0.05102539 C18.65600475 0.05603825 20.62670797 0.06060153 22.59741211 0.06469727 C27.43923832 0.07574828 32.28100768 0.09302401 37.12280273 0.11352539 C37.14968424 1.75927105 37.16914397 3.40513952 37.18530273 5.05102539 C37.1969043 5.96754883 37.20850586 6.88407227 37.22045898 7.82836914 C37.12280273 10.11352539 37.12280273 10.11352539 36.12280273 11.11352539 C31.83280273 11.11352539 27.54280273 11.11352539 23.12280273 11.11352539 C23.12280273 23.98352539 23.12280273 36.85352539 23.12280273 50.11352539 C18.50280273 50.11352539 13.88280273 50.11352539 9.12280273 50.11352539 C9.12280273 37.24352539 9.12280273 24.37352539 9.12280273 11.11352539 C4.83280273 11.11352539 0.54280273 11.11352539 -3.87719727 11.11352539 C-4.87719727 10.11352539 -4.87719727 10.11352539 -5.01000977 8.08227539 C-5.00743164 7.26758789 -5.00485352 6.45290039 -5.00219727 5.61352539 C-5.00477539 4.79883789 -5.00735352 3.98415039 -5.01000977 3.14477539 C-4.76836403 -0.55098294 -3.89725124 0.11411258 0 0 Z " fill="#0083C6" transform="translate(179.877197265625,319.886474609375)"/>
<path d="M0 0 C4.62 0 9.24 0 14 0 C14 16.5 14 33 14 50 C9.38 50 4.76 50 0 50 C0 33.5 0 17 0 0 Z " fill="#2D9CD1" transform="translate(341,320)"/>
<path d="M0 0 C12.54 0 25.08 0 38 0 C38 3.63 38 7.26 38 11 C37 12 37 12 34.77514648 12.11352539 C33.81680908 12.10828857 32.85847168 12.10305176 31.87109375 12.09765625 C30.31938477 12.09282227 30.31938477 12.09282227 28.73632812 12.08789062 C27.64771484 12.07951172 26.55910156 12.07113281 25.4375 12.0625 C23.7987793 12.05573242 23.7987793 12.05573242 22.12695312 12.04882812 C19.41791505 12.03699826 16.70898401 12.02051543 14 12 C14 14.31 14 16.62 14 19 C14.63091553 18.99476318 15.26183105 18.98952637 15.91186523 18.98413086 C18.75373347 18.96342174 21.59558588 18.95035934 24.4375 18.9375 C25.92733398 18.92493164 25.92733398 18.92493164 27.44726562 18.91210938 C28.39150391 18.90888672 29.33574219 18.90566406 30.30859375 18.90234375 C31.62041626 18.89448853 31.62041626 18.89448853 32.95874023 18.88647461 C35 19 35 19 36 20 C36.09823937 21.66429051 36.12973631 23.33281931 36.125 25 C36.12886719 26.36125 36.12886719 26.36125 36.1328125 27.75 C36 30 36 30 35 31 C33.43827255 31.08685603 31.87270656 31.10702219 30.30859375 31.09765625 C29.36435547 31.09443359 28.42011719 31.09121094 27.44726562 31.08789062 C26.45404297 31.07951172 25.46082031 31.07113281 24.4375 31.0625 C23.44041016 31.05798828 22.44332031 31.05347656 21.41601562 31.04882812 C18.94395151 31.03700007 16.47200482 31.02051849 14 31 C14 33.31 14 35.62 14 38 C14.72179443 37.99476318 15.44358887 37.98952637 16.18725586 37.98413086 C19.43732849 37.96342642 22.68738728 37.95036082 25.9375 37.9375 C27.07380859 37.92912109 28.21011719 37.92074219 29.38085938 37.91210938 C30.46044922 37.90888672 31.54003906 37.90566406 32.65234375 37.90234375 C34.15269165 37.89448853 34.15269165 37.89448853 35.68334961 37.88647461 C38 38 38 38 39 39 C39.07226502 40.85287502 39.0838122 42.70833878 39.0625 44.5625 C39.05347656 45.57441406 39.04445312 46.58632813 39.03515625 47.62890625 C39.02355469 48.41136719 39.01195312 49.19382812 39 50 C38.67 50 38.34 50 38 50 C38 46.7 38 43.4 38 40 C29.42 40 20.84 40 12 40 C12 36.7 12 33.4 12 30 C19.26 30 26.52 30 34 30 C34 26.7 34 23.4 34 20 C26.74 20 19.48 20 12 20 C12 10 12 10 13 9 C14.70772358 8.91286169 16.41898649 8.89299993 18.12890625 8.90234375 C19.68061523 8.90717773 19.68061523 8.90717773 21.26367188 8.91210938 C22.35228516 8.92048828 23.44089844 8.92886719 24.5625 8.9375 C26.2012207 8.94426758 26.2012207 8.94426758 27.87304688 8.95117188 C30.58208495 8.96300174 33.29101599 8.97948457 36 9 C36 6.36 36 3.72 36 1 C25.11 1 14.22 1 3 1 C3 17.17 3 33.34 3 50 C2.01 50 1.02 50 0 50 C0 33.5 0 17 0 0 Z " fill="#49AFDF" transform="translate(88,320)"/>
<path d="M0 0 C1.72974441 0.00015918 3.45949355 0.0058569 5.18920898 0.01586914 C6.09783188 0.01728409 7.00645477 0.01869904 7.94261169 0.02015686 C10.85687494 0.02577346 13.77106254 0.03832874 16.68530273 0.05102539 C18.65600475 0.05603825 20.62670797 0.06060153 22.59741211 0.06469727 C27.43923832 0.07574828 32.28100768 0.09302401 37.12280273 0.11352539 C37.14968424 1.75927105 37.16914397 3.40513952 37.18530273 5.05102539 C37.1969043 5.96754883 37.20850586 6.88407227 37.22045898 7.82836914 C37.12280273 10.11352539 37.12280273 10.11352539 36.12280273 11.11352539 C31.83280273 11.11352539 27.54280273 11.11352539 23.12280273 11.11352539 C23.12280273 23.98352539 23.12280273 36.85352539 23.12280273 50.11352539 C22.46280273 50.11352539 21.80280273 50.11352539 21.12280273 50.11352539 C21.12280273 36.91352539 21.12280273 23.71352539 21.12280273 10.11352539 C25.74280273 10.11352539 30.36280273 10.11352539 35.12280273 10.11352539 C35.12280273 7.47352539 35.12280273 4.83352539 35.12280273 2.11352539 C22.91280273 2.11352539 10.70280273 2.11352539 -1.87719727 2.11352539 C-1.87719727 4.42352539 -1.87719727 6.73352539 -1.87719727 9.11352539 C2.41280273 9.11352539 6.70280273 9.11352539 11.12280273 9.11352539 C11.12280273 22.64352539 11.12280273 36.17352539 11.12280273 50.11352539 C10.46280273 50.11352539 9.80280273 50.11352539 9.12280273 50.11352539 C9.12280273 37.24352539 9.12280273 24.37352539 9.12280273 11.11352539 C4.83280273 11.11352539 0.54280273 11.11352539 -3.87719727 11.11352539 C-4.87719727 10.11352539 -4.87719727 10.11352539 -5.01000977 8.08227539 C-5.00743164 7.26758789 -5.00485352 6.45290039 -5.00219727 5.61352539 C-5.00477539 4.79883789 -5.00735352 3.98415039 -5.01000977 3.14477539 C-4.76836403 -0.55098294 -3.89725124 0.11411258 0 0 Z " fill="#33B4DD" transform="translate(179.877197265625,319.886474609375)"/>
<path d="M0 0 C-1 1 -1 1 -3.22485352 1.11352539 C-4.18319092 1.10828857 -5.14152832 1.10305176 -6.12890625 1.09765625 C-7.68061523 1.09282227 -7.68061523 1.09282227 -9.26367188 1.08789062 C-10.35228516 1.07951172 -11.44089844 1.07113281 -12.5625 1.0625 C-14.2012207 1.05573242 -14.2012207 1.05573242 -15.87304688 1.04882812 C-18.58208495 1.03699826 -21.29101599 1.02051543 -24 1 C-24 3.31 -24 5.62 -24 8 C-23.36908447 7.99476318 -22.73816895 7.98952637 -22.08813477 7.98413086 C-19.24626653 7.96342174 -16.40441412 7.95035934 -13.5625 7.9375 C-12.07266602 7.92493164 -12.07266602 7.92493164 -10.55273438 7.91210938 C-9.60849609 7.90888672 -8.66425781 7.90566406 -7.69140625 7.90234375 C-6.81685791 7.89710693 -5.94230957 7.89187012 -5.04125977 7.88647461 C-3 8 -3 8 -2 9 C-1.90176063 10.66429051 -1.87026369 12.33281931 -1.875 14 C-1.87113281 15.36125 -1.87113281 15.36125 -1.8671875 16.75 C-2 19 -2 19 -3 20 C-4.56172745 20.08685603 -6.12729344 20.10702219 -7.69140625 20.09765625 C-8.63564453 20.09443359 -9.57988281 20.09121094 -10.55273438 20.08789062 C-12.04256836 20.07532227 -12.04256836 20.07532227 -13.5625 20.0625 C-14.55958984 20.05798828 -15.55667969 20.05347656 -16.58398438 20.04882812 C-19.05604849 20.03700007 -21.52799518 20.02051849 -24 20 C-24 22.31 -24 24.62 -24 27 C-23.27820557 26.99476318 -22.55641113 26.98952637 -21.81274414 26.98413086 C-18.56267151 26.96342642 -15.31261272 26.95036082 -12.0625 26.9375 C-10.92619141 26.92912109 -9.78988281 26.92074219 -8.61914062 26.91210938 C-7.53955078 26.90888672 -6.45996094 26.90566406 -5.34765625 26.90234375 C-3.84730835 26.89448853 -3.84730835 26.89448853 -2.31665039 26.88647461 C0 27 0 27 1 28 C1.07226502 29.85287502 1.0838122 31.70833878 1.0625 33.5625 C1.05347656 34.57441406 1.04445313 35.58632813 1.03515625 36.62890625 C1.02355469 37.41136719 1.01195313 38.19382812 1 39 C0.67 39 0.34 39 0 39 C0 35.7 0 32.4 0 29 C-8.58 29 -17.16 29 -26 29 C-26 25.7 -26 22.4 -26 19 C-18.74 19 -11.48 19 -4 19 C-4 15.7 -4 12.4 -4 9 C-10.93 9 -17.86 9 -25 9 C-25 6.03 -25 3.06 -25 0 C-21.20873402 -0.19628414 -17.41697828 -0.38053896 -13.625 -0.5625 C-12.54476562 -0.61857422 -11.46453125 -0.67464844 -10.3515625 -0.73242188 C-9.3203125 -0.78076172 -8.2890625 -0.82910156 -7.2265625 -0.87890625 C-6.27346191 -0.9260376 -5.32036133 -0.97316895 -4.33837891 -1.02172852 C-2 -1 -2 -1 0 0 Z " fill="#87CFEE" transform="translate(126,331)"/>
<path d="M0 0 C0 0.99 0 1.98 0 3 C-2.70879335 4.35439668 -5.00933268 4.06501451 -8 4 C-8 4.66 -8 5.32 -8 6 C-8.99 6.66 -9.98 7.32 -11 8 C-11.50960691 10.51385259 -11.50960691 10.51385259 -11.51171875 13.4453125 C-11.56489258 15.05986328 -11.56489258 15.05986328 -11.61914062 16.70703125 C-11.64169922 17.83496094 -11.66425781 18.96289062 -11.6875 20.125 C-11.73874023 21.82849609 -11.73874023 21.82849609 -11.79101562 23.56640625 C-11.87369502 26.37750579 -11.94277937 29.18828553 -12 32 C-11.01 32 -10.02 32 -9 32 C-9 32.66 -9 33.32 -9 34 C-10.65 33.67 -12.3 33.34 -14 33 C-15.32281669 23.57493111 -16.24247049 13.32582967 -14 4 C-12.0429132 3.32968281 -10.08428887 2.66385317 -8.125 2 C-7.03445312 1.62875 -5.94390625 1.2575 -4.8203125 0.875 C-2 0 -2 0 0 0 Z " fill="#49B1DB" transform="translate(79,136)"/>
<path d="M0 0 C1.04542969 -0.00515625 2.09085938 -0.0103125 3.16796875 -0.015625 C5.8125 0.25 5.8125 0.25 7.8125 2.25 C5.03032689 3.17739104 3.11773601 3.21467302 0.125 3.0625 C-4.26042639 2.97199401 -7.4328614 4.43234161 -11.3046875 6.375 C-13.1875 7.25 -13.1875 7.25 -15.1875 7.25 C-15.21453562 9.83340384 -15.23435611 12.41652308 -15.25 15 C-15.25837891 15.72960937 -15.26675781 16.45921875 -15.27539062 17.2109375 C-15.29141684 20.73670558 -15.14042713 23.86034916 -14.1875 27.25 C-14.8475 27.25 -15.5075 27.25 -16.1875 27.25 C-19.49703645 22.00990063 -20.08071896 17.2865897 -19.1875 11.25 C-15.07348375 3.16889666 -8.9183163 -0.04431462 0 0 Z " fill="#4CBCE1" transform="translate(152.1875,317.75)"/>
<path d="M0 0 C0.99 0.33 1.98 0.66 3 1 C3.33 11.89 3.66 22.78 4 34 C7.63 35.32 11.26 36.64 15 38 C15 38.66 15 39.32 15 40 C13.22739369 39.54857225 11.4569632 39.08859477 9.6875 38.625 C8.20830078 38.24214844 8.20830078 38.24214844 6.69921875 37.8515625 C4 37 4 37 1 35 C0.66215904 32.31215183 0.51107756 29.8428575 0.48828125 27.1484375 C0.47033005 26.37440582 0.45237885 25.60037415 0.43388367 24.80288696 C0.37963608 22.32698033 0.34583991 19.85126797 0.3125 17.375 C0.27933954 15.69788954 0.24485107 14.02080477 0.20898438 12.34375 C0.12390183 8.22930659 0.05716047 4.11492223 0 0 Z " fill="#32AAC7" transform="translate(143,240)"/>
<path d="M0 0 C0.66 0 1.32 0 2 0 C2 2.64 2 5.28 2 8 C2.72179443 7.99476318 3.44358887 7.98952637 4.18725586 7.98413086 C7.43732849 7.96342642 10.68738728 7.95036082 13.9375 7.9375 C15.07380859 7.92912109 16.21011719 7.92074219 17.38085938 7.91210938 C18.46044922 7.90888672 19.54003906 7.90566406 20.65234375 7.90234375 C22.15269165 7.89448853 22.15269165 7.89448853 23.68334961 7.88647461 C26 8 26 8 27 9 C27.07226502 10.85287502 27.0838122 12.70833878 27.0625 14.5625 C27.05347656 15.57441406 27.04445313 16.58632813 27.03515625 17.62890625 C27.02355469 18.41136719 27.01195313 19.19382812 27 20 C26.67 20 26.34 20 26 20 C26 16.7 26 13.4 26 10 C17.42 10 8.84 10 0 10 C0 6.7 0 3.4 0 0 Z " fill="#ABE2F2" transform="translate(100,350)"/>
<path d="M0 0 C0 0.66 0 1.32 0 2 C0.66 2 1.32 2 2 2 C2.62222222 10.24444444 2.62222222 10.24444444 0.25 13.125 C-2.34151241 14.13281038 -3.44694361 14.00298644 -6 13 C-5.195625 12.79375 -4.39125 12.5875 -3.5625 12.375 C-2.716875 11.92125 -1.87125 11.4675 -1 11 C-0.24936281 8.22841653 0 5.85785481 0 3 C-4.62 2.34 -9.24 1.68 -14 1 C-14 5.29 -14 9.58 -14 14 C-14.66 14 -15.32 14 -16 14 C-16 9.38 -16 4.76 -16 0 C-10.3110884 -0.78769545 -5.63643263 -1.07931689 0 0 Z " fill="#7ECAEA" transform="translate(65,330)"/>
<path d="M0 0 C3.74755761 1.36274822 7.23516556 3.12484019 10.75 5 C10.75 5.66 10.75 6.32 10.75 7 C6.69718288 5.77472971 3.30639236 4.30119506 -0.25 2 C-0.683125 2.928125 -0.683125 2.928125 -1.125 3.875 C-2.25 6 -2.25 6 -4.25 8 C-4.25 9.32 -4.25 10.64 -4.25 12 C-5.57 11.34 -6.89 10.68 -8.25 10 C-5.52272727 0 -5.52272727 0 0 0 Z " fill="#2CAAD7" transform="translate(139.25,353)"/>
<path d="M0 0 C4.37720769 -0.65658115 6.70450835 0.17021768 10.1875 2.6875 C13.33515199 5.0901456 15.31394511 7.39657171 17 11 C17.36328125 14.4453125 17.36328125 14.4453125 17.3125 18.125 C17.30863281 19.34445312 17.30476563 20.56390625 17.30078125 21.8203125 C17 25 17 25 15 28 C15.03480469 27.07058594 15.06960938 26.14117187 15.10546875 25.18359375 C15.57854906 15.56423048 15.57854906 15.56423048 12 7 C8.27050586 4.43448811 4.3915587 3.00210064 0 2 C0 1.34 0 0.68 0 0 Z " fill="#6BC2E6" transform="translate(318,320)"/>
<path d="M0 0 C0.66 0 1.32 0 2 0 C-0.93334687 9.49023987 -4.55323664 19.10647328 -9 28 C-9.66 28 -10.32 28 -11 28 C-8.94661139 21.48529224 -6.50465317 15.21269971 -3.8125 8.9375 C-3.44447266 8.07189453 -3.07644531 7.20628906 -2.69726562 6.31445312 C-1.80127408 4.20829117 -0.90215345 2.10352808 0 0 Z " fill="#5CBFE2" transform="translate(246,342)"/>
<path d="M0 0 C0.66 0.33 1.32 0.66 2 1 C1.39929688 1.76183594 0.79859375 2.52367188 0.1796875 3.30859375 C-4.2665463 8.91645872 -4.2665463 8.91645872 -6.12109375 15.58984375 C-5.57488757 17.82432358 -4.85417489 19.86666665 -4 22 C-3.64963394 23.99708656 -3.30830925 25.99598989 -3 28 C-3.66 28 -4.32 28 -5 28 C-5.72831355 25.94447045 -6.43194698 23.88018467 -7.125 21.8125 C-7.51945312 20.66394531 -7.91390625 19.51539062 -8.3203125 18.33203125 C-9.3123117 13.46895471 -7.88346913 11.36917727 -5.2734375 7.32421875 C-4.64695312 6.45410156 -4.02046875 5.58398438 -3.375 4.6875 C-2.74335938 3.80449219 -2.11171875 2.92148438 -1.4609375 2.01171875 C-0.97882813 1.34785156 -0.49671875 0.68398437 0 0 Z " fill="#55C0E0" transform="translate(299,99)"/>
<path d="M0 0 C0.99 0.309375 1.98 0.61875 3 0.9375 C3 1.5975 3 2.2575 3 2.9375 C2.33613281 2.793125 1.67226563 2.64875 0.98828125 2.5 C0.10527344 2.314375 -0.77773438 2.12875 -1.6875 1.9375 C-2.55761719 1.751875 -3.42773438 1.56625 -4.32421875 1.375 C-9.45082686 0.47587415 -9.45082686 0.47587415 -14.16796875 2.25 C-15.16763672 3.0853125 -15.16763672 3.0853125 -16.1875 3.9375 C-19.81944444 6.9375 -19.81944444 6.9375 -22 6.9375 C-22.33 7.5975 -22.66 8.2575 -23 8.9375 C-23.33 7.9475 -23.66 6.9575 -24 5.9375 C-23.46890625 5.61136719 -22.9378125 5.28523437 -22.390625 4.94921875 C-21.68421875 4.51222656 -20.9778125 4.07523438 -20.25 3.625 C-19.51265625 3.17253906 -18.7753125 2.72007812 -18.015625 2.25390625 C-15.91016614 0.96207793 -15.91016614 0.96207793 -14 -0.9375 C-9.81623202 -3.29086949 -4.39906655 -1.23138171 0 0 Z " fill="#50BDE0" transform="translate(275,231.0625)"/>
<path d="M0 0 C0.66 0 1.32 0 2 0 C1.7628125 0.58265625 1.525625 1.1653125 1.28125 1.765625 C-0.16537357 6.36588796 -0.54350061 8.90011963 1.6484375 13.3359375 C3.66722514 16.31807643 5.74953159 19.18932915 8 22 C7.34 22.66 6.68 23.32 6 24 C-1.74096261 13.83681058 -1.74096261 13.83681058 -2.34375 9.5625 C-2.0625 7.5 -2.0625 7.5 -1 4 C-0.814375 3.175 -0.62875 2.35 -0.4375 1.5 C-0.293125 1.005 -0.14875 0.51 0 0 Z " fill="#55BEDF" transform="translate(294,180)"/>
<path d="M0 0 C4.19918185 -0.07430494 8.39801274 -0.12867413 12.59765625 -0.16479492 C14.02545846 -0.17985681 15.4532146 -0.20031062 16.88085938 -0.22631836 C18.93631373 -0.26281842 20.99115505 -0.27975166 23.046875 -0.29296875 C24.90070801 -0.31653442 24.90070801 -0.31653442 26.79199219 -0.34057617 C30.20161411 0.02140424 31.54581495 0.67709778 34 3 C33.01 3.33 32.02 3.66 31 4 C30.34 3.67 29.68 3.34 29 3 C22.48916056 2.13402628 15.99592702 1.73101728 9.4375 1.4375 C8.06754883 1.37272461 8.06754883 1.37272461 6.66992188 1.30664062 C4.44672009 1.20188243 2.22343293 1.09970983 0 1 C0 0.67 0 0.34 0 0 Z " fill="#25A7D8" transform="translate(39,320)"/>
<path d="M0 0 C0.66 0.33 1.32 0.66 2 1 C1.61585937 1.50789062 1.23171875 2.01578125 0.8359375 2.5390625 C-2.37495063 6.93892195 -2.37495063 6.93892195 -2.5625 12.1875 C-1.05802979 15.08897902 -1.05802979 15.08897902 1.1875 17.6875 C1.785625 18.450625 2.38375 19.21375 3 20 C2.67 20.99 2.34 21.98 2 23 C0.84669053 21.42210402 -0.29737927 19.8374518 -1.4375 18.25 C-2.07558594 17.36828125 -2.71367188 16.4865625 -3.37109375 15.578125 C-5.87550945 11.61430159 -5.87550945 11.61430159 -6 9 C-4.78515625 6.640625 -4.78515625 6.640625 -3.0625 4.25 C-2.49660156 3.45078125 -1.93070312 2.6515625 -1.34765625 1.828125 C-0.90292969 1.22484375 -0.45820312 0.6215625 0 0 Z " fill="#60BFD7" transform="translate(89,211)"/>
<path d="M0 0 C3.12314347 0.37891079 6.02184653 1.20259468 9 2.1953125 C9 2.8553125 9 3.5153125 9 4.1953125 C5.37 3.5353125 1.74 2.8753125 -2 2.1953125 C-2.66 3.8453125 -3.32 5.4953125 -4 7.1953125 C-5.5 9.0078125 -5.5 9.0078125 -7 10.1953125 C-7.66 10.1953125 -8.32 10.1953125 -9 10.1953125 C-7.2834538 6.13802148 -4.81553278 0.47026687 0 0 Z " fill="#50BBE1" transform="translate(98,65.8046875)"/>
<path d="M0 0 C0.66 0 1.32 0 2 0 C1.49734762 3.68611749 1.0311783 6.84038931 -1 10 C-1.99 10.66 -2.98 11.32 -4 12 C-3.42415568 14.38564077 -2.77772405 16.66682784 -2 19 C-5.40424844 17.86525052 -6.21653709 17.03188696 -8 14 C-7 11 -7 11 -4.5625 8.6875 C-1.83508949 5.82704508 -0.96747167 3.78193472 0 0 Z " fill="#64C2E5" transform="translate(77,340)"/>
<path d="M0 0 C2.51292695 2.44312343 4.78637564 4.66769544 6.6875 7.625 C9.33653569 10.34563124 10.94480401 10.63157669 14.68359375 10.79492188 C15.70646484 10.80362305 15.70646484 10.80362305 16.75 10.8125 C17.44738281 10.83763672 18.14476562 10.86277344 18.86328125 10.88867188 C20.57491949 10.94728962 22.2875186 10.97657053 24 11 C24 11.33 24 11.66 24 12 C8.53173954 13.07442162 8.53173954 13.07442162 4.828125 10.4765625 C3.5625 8.5625 3.5625 8.5625 2 5 C1.34 4.67 0.68 4.34 0 4 C0 2.68 0 1.36 0 0 Z " fill="#5BC1E4" transform="translate(179,39)"/>
<path d="M0 0 C1.98 0 3.96 0 6 0 C6 0.66 6 1.32 6 2 C2.24600202 3.2039337 -1.33217412 3.09877617 -5.25 3.0625 C-6.51328125 3.05347656 -7.7765625 3.04445313 -9.078125 3.03515625 C-10.04234375 3.02355469 -11.0065625 3.01195312 -12 3 C-12 7.29 -12 11.58 -12 16 C-12.33 16 -12.66 16 -13 16 C-13 11.38 -13 6.76 -13 2 C-8.71 2 -4.42 2 0 2 C0 1.34 0 0.68 0 0 Z " fill="#67C3E5" transform="translate(319,354)"/>
<path d="M0 0 C1.258125 -0.020625 2.51625 -0.04125 3.8125 -0.0625 C4.52019531 -0.07410156 5.22789063 -0.08570313 5.95703125 -0.09765625 C8 0 8 0 11 1 C11 1.66 11 2.32 11 3 C12.093125 2.979375 13.18625 2.95875 14.3125 2.9375 C18 3 18 3 21 4 C21 4.66 21 5.32 21 6 C15.76119922 5.44854729 11.02649303 4.57077907 6 3 C6 2.34 6 1.68 6 1 C4.02 1 2.04 1 0 1 C0 0.67 0 0.34 0 0 Z " fill="#71CAE7" transform="translate(76,172)"/>
<path d="M0 0 C3.58128772 3.38232729 6.60604303 6.67246241 9 11 C8.9375 13.25 8.9375 13.25 8 15 C7.01 15.66 6.02 16.32 5 17 C5 16.01 5 15.02 5 14 C5.66 14 6.32 14 7 14 C6.81171228 11.55519921 6.81171228 11.55519921 6 9 C5.360625 8.71125 4.72125 8.4225 4.0625 8.125 C2 7 2 7 0.75 3.375 C0.5025 2.26125 0.255 1.1475 0 0 Z " fill="#83CFEE" transform="translate(302,73)"/>
<path d="M0 0 C4.875 4.625 4.875 4.625 6 8 C5.22265625 10.04296875 5.22265625 10.04296875 4.0625 12.1875 C3.68222656 12.90292969 3.30195313 13.61835938 2.91015625 14.35546875 C2.45962891 15.16951172 2.45962891 15.16951172 2 16 C1.34 16 0.68 16 0 16 C0.309375 15.29875 0.61875 14.5975 0.9375 13.875 C2.03302678 10.91063343 2.56422992 8.12301892 3 5 C2.01 4.67 1.02 4.34 0 4 C0 2.68 0 1.36 0 0 Z " fill="#61C0E3" transform="translate(307,210)"/>
<path d="M0 0 C4.08378283 0.74250597 8.01939223 1.82923301 12 3 C12 3.66 12 4.32 12 5 C13.32 5 14.64 5 16 5 C16 5.66 16 6.32 16 7 C10.59352865 5.97877763 5.78059895 4.86835937 1 2 C0.67 1.34 0.34 0.68 0 0 Z " fill="#5CC3E4" transform="translate(138,345)"/>
<path d="M0 0 C0.66 0 1.32 0 2 0 C3.18005182 3.68766192 3.20993972 7.15110517 3 11 C2.01 12.485 2.01 12.485 1 14 C0.34 14 -0.32 14 -1 14 C-1 14.99 -1 15.98 -1 17 C-1.99 16.67 -2.98 16.34 -4 16 C-3.154375 15.030625 -2.30875 14.06125 -1.4375 13.0625 C0.88163289 9.8834639 1.28141174 7.96187132 0.8125 4.0625 C0.56965731 2.70303485 0.30829774 1.3461317 0 0 Z " fill="#5DBAD2" transform="translate(100,185)"/>
<path d="M0 0 C2.55614089 1.17975733 4.63886841 2.46216013 6.9375 4.125 C10.07291096 6.04463937 11.42559616 6.4205181 15 6 C15 6.99 15 7.98 15 9 C8.65552665 8.73564694 4.54981541 6.45527379 0 2 C0 1.34 0 0.68 0 0 Z " fill="#4DB7DE" transform="translate(251,66)"/>
<path d="M0 0 C0 3.01490557 -0.51952735 4.86864114 -1.5 7.6875 C-1.91765625 8.89986328 -1.91765625 8.89986328 -2.34375 10.13671875 C-2.5603125 10.75160156 -2.776875 11.36648437 -3 12 C-3.66 11.34 -4.32 10.68 -5 10 C-5.99 10.66 -6.98 11.32 -8 12 C-7.33333333 10.66666667 -6.66666667 9.33333333 -6 8 C-5.525625 6.96875 -5.05125 5.9375 -4.5625 4.875 C-3 2 -3 2 0 0 Z " fill="#2999C0" transform="translate(129,141)"/>
<path d="M0 0 C1.44412663 2.88825327 0.47629309 5.02252604 -0.3203125 8.0234375 C-1.14166247 10.41196098 -2.29726106 12.14246661 -4 14 C-4.66 13.67 -5.32 13.34 -6 13 C-5.1905146 11.01959844 -4.37732831 9.04070923 -3.5625 7.0625 C-3.11003906 5.96035156 -2.65757812 4.85820312 -2.19140625 3.72265625 C-1 1 -1 1 0 0 Z " fill="#5DC2E2" transform="translate(253,327)"/>
<path d="M0 0 C4.62 0 9.24 0 14 0 C14.33 1.32 14.66 2.64 15 4 C14.01 4 13.02 4 12 4 C11.67 3.34 11.34 2.68 11 2 C4.80136385 1.37685789 4.80136385 1.37685789 -0.5625 4 C-1.036875 4.66 -1.51125 5.32 -2 6 C-1.34 4.02 -0.68 2.04 0 0 Z " fill="#34AEDB" transform="translate(256,320)"/>
<path d="M0 0 C0.66 0 1.32 0 2 0 C0.79618552 2.49361571 -0.45428722 4.68143083 -2 7 C-5.8168932 7.51579638 -8.54207311 6.58076658 -12 5 C-11.67 4.34 -11.34 3.68 -11 3 C-8.36 3.33 -5.72 3.66 -3 4 C-2.54625 3.34 -2.0925 2.68 -1.625 2 C-1.08875 1.34 -0.5525 0.68 0 0 Z " fill="#6DC8E4" transform="translate(300,233)"/>
<path d="M0 0 C0.66 0 1.32 0 2 0 C2.33 1.32 2.66 2.64 3 4 C-0.96 4 -4.92 4 -9 4 C-8.67 3.01 -8.34 2.02 -8 1 C-5.36 1.33 -2.72 1.66 0 2 C0 1.34 0 0.68 0 0 Z " fill="#72C8E4" transform="translate(266,346)"/>
<path d="M0 0 C0.66 0 1.32 0 2 0 C0.56 4.68 0.56 4.68 -1.75 6 C-5.01701059 6 -7.20335908 4.58900052 -10 3 C-10 2.34 -10 1.68 -10 1 C-7.36 1.66 -4.72 2.32 -2 3 C-1.34 2.01 -0.68 1.02 0 0 Z " fill="#5EC8E4" transform="translate(167,329)"/>
<path d="M0 0 C0.66 0 1.32 0 2 0 C0.59155282 3.21524305 -1.10344786 5.32183868 -3.625 7.75 C-4.57246094 8.67039062 -4.57246094 8.67039062 -5.5390625 9.609375 C-6.02117187 10.06828125 -6.50328125 10.5271875 -7 11 C-7.33 10.34 -7.66 9.68 -8 9 C-6.85459775 7.68712379 -5.70866567 6.37470979 -4.5625 5.0625 C-3.92441406 4.33160156 -3.28632813 3.60070312 -2.62890625 2.84765625 C-1.77458541 1.87860647 -0.91348825 0.91348825 0 0 Z " fill="#CDEBF4" transform="translate(165,100)"/>
<path d="M0 0 C3.16277272 1.58138636 3.43093689 4.32596051 4.625 7.5625 C5.29402344 9.35880859 5.29402344 9.35880859 5.9765625 11.19140625 C6.31429688 12.11824219 6.65203125 13.04507812 7 14 C6.34 14 5.68 14 5 14 C4.67 13.01 4.34 12.02 4 11 C3.505 10.608125 3.01 10.21625 2.5 9.8125 C0.07570317 6.88314133 0.30613199 3.73481025 0 0 Z " fill="#59C1E1" transform="translate(283,354)"/>
<path d="M0 0 C-4.72902471 3.15268314 -9.20650322 5.52668153 -15 5 C-15 4.34 -15 3.68 -15 3 C-13.44033782 2.491217 -11.87710759 1.99336531 -10.3125 1.5 C-9.44238281 1.2215625 -8.57226562 0.943125 -7.67578125 0.65625 C-5.00608323 0.00149195 -2.73603316 -0.11831495 0 0 Z " fill="#54B7D2" transform="translate(123,235)"/>
<path d="M0 0 C0.66 0 1.32 0 2 0 C0.52278578 3.45201639 -1.43794001 5.64961936 -4.125 8.25 C-4.84945312 8.95640625 -5.57390625 9.6628125 -6.3203125 10.390625 C-6.87460938 10.92171875 -7.42890625 11.4528125 -8 12 C-8 8.45595664 -7.39010515 7.89732095 -5.125 5.3125 C-4.59132812 4.68988281 -4.05765625 4.06726563 -3.5078125 3.42578125 C-2 2 -2 2 0 2 C0 1.34 0 0.68 0 0 Z " fill="#CEEBF4" transform="translate(140,128)"/>
<path d="M0 0 C0 0.99 0 1.98 0 3 C-3.3 3.66 -6.6 4.32 -10 5 C-10.33 4.34 -10.66 3.68 -11 3 C-9.54293274 2.49632243 -8.08429904 1.99717444 -6.625 1.5 C-5.81289062 1.2215625 -5.00078125 0.943125 -4.1640625 0.65625 C-2 0 -2 0 0 0 Z " fill="#55BBDF" transform="translate(79,136)"/>
<path d="M0 0 C0.66 0 1.32 0 2 0 C1.67 3.3 1.34 6.6 1 10 C-0.32 10 -1.64 10 -3 10 C-2.01 6.7 -1.02 3.4 0 0 Z " fill="#5BC3E4" transform="translate(98,121)"/>
<path d="M0 0 C1 3 1 3 0.109375 4.7890625 C-0.33921875 5.39492188 -0.7878125 6.00078125 -1.25 6.625 C-1.68828125 7.23601563 -2.1265625 7.84703125 -2.578125 8.4765625 C-4 10 -4 10 -7 11 C-5.22054913 6.95579349 -2.60470327 3.53921513 0 0 Z " fill="#56BFDF" transform="translate(218,28)"/>
<path d="M0 0 C0.33 0.66 0.66 1.32 1 2 C-0.0209375 3.0828125 -0.0209375 3.0828125 -1.0625 4.1875 C-3.31737069 6.8205652 -3.31737069 6.8205652 -2.75 9.8125 C-2.37875 10.8953125 -2.37875 10.8953125 -2 12 C-3.32 11.34 -4.64 10.68 -6 10 C-4.79157144 5.56909529 -3.48331435 3.01887244 0 0 Z " fill="#72CDE9" transform="translate(137,353)"/>
<path d="M0 0 C0.33 0 0.66 0 1 0 C1.06058594 0.89203125 1.12117187 1.7840625 1.18359375 2.703125 C1.26738281 3.87359375 1.35117188 5.0440625 1.4375 6.25 C1.55931641 7.99023438 1.55931641 7.99023438 1.68359375 9.765625 C1.93247787 12.30977376 2.28114942 14.55953248 3 17 C2.34 17 1.68 17 1 17 C-1.55694972 13.16457543 -1.04045639 11.34097467 -0.625 6.8125 C-0.51414063 5.54019531 -0.40328125 4.26789063 -0.2890625 2.95703125 C-0.19367188 1.98121094 -0.09828125 1.00539063 0 0 Z " fill="#39AAD8" transform="translate(135,328)"/>
<path d="M0 0 C4.02627499 1.34209166 4.75169153 3.48701801 7 7 C8.62351109 8.79394446 8.62351109 8.79394446 10 10 C6 10 6 10 4.296875 8.3203125 C3.78640625 7.59585937 3.2759375 6.87140625 2.75 6.125 C2.22921875 5.40570313 1.7084375 4.68640625 1.171875 3.9453125 C0 2 0 2 0 0 Z " fill="#6AC9E5" transform="translate(219,272)"/>
<path d="M0 0 C0.33 0.66 0.66 1.32 1 2 C0.34 2 -0.32 2 -1 2 C-1.28875 2.598125 -1.5775 3.19625 -1.875 3.8125 C-3 6 -3 6 -5 9 C-5.66 8.67 -6.32 8.34 -7 8 C-6.67 7.34 -6.34 6.68 -6 6 C-6.66 5.67 -7.32 5.34 -8 5 C-4.04 2.525 -4.04 2.525 0 0 Z " fill="#2299C5" transform="translate(264,182)"/>
<path d="M0 0 C0.67578125 1.765625 0.67578125 1.765625 1 4 C-0.14453125 5.921875 -0.14453125 5.921875 -1.8125 7.75 C-2.62654297 8.67039062 -2.62654297 8.67039062 -3.45703125 9.609375 C-5 11 -5 11 -7 11 C-5.22054913 6.95579349 -2.60470327 3.53921513 0 0 Z " fill="#61C4E7" transform="translate(210,39)"/>
<path d="M0 0 C4.40114397 0.50298788 6.71195019 2.08772731 10 5 C9.34 6.32 8.68 7.64 8 9 C8 7.68 8 6.36 8 5 C6.02 4.34 4.04 3.68 2 3 C2 2.34 2 1.68 2 1 C1.34 0.67 0.68 0.34 0 0 Z " fill="#5ABDE1" transform="translate(161,320)"/>
<path d="M0 0 C0.66 0.33 1.32 0.66 2 1 C-1.3 4.3 -4.6 7.6 -8 11 C-8 8 -8 8 -5.6875 5.5 C-4.800625 4.675 -3.91375 3.85 -3 3 C-2.401875 2.401875 -1.80375 1.80375 -1.1875 1.1875 C-0.795625 0.795625 -0.40375 0.40375 0 0 Z " fill="#35A6D6" transform="translate(175,107)"/>
<path d="M0 0 C1.3125 2.0625 1.3125 2.0625 2 4 C1.34 4 0.68 4 0 4 C0 3.34 0 2.68 0 2 C-3.3 2 -6.6 2 -10 2 C-6.02134432 -0.65243712 -4.62053391 -1.50167352 0 0 Z " fill="#82CEE8" transform="translate(296,64)"/>
<path d="M0 0 C3.9492568 0.55105909 7.34920174 1.38935371 11 3 C11 3.66 11 4.32 11 5 C6.87248551 4.39301257 3.6678852 2.96189209 0 1 C0 0.67 0 0.34 0 0 Z " fill="#59BCE0" transform="translate(135,365)"/>
<path d="M0 0 C0.66 0 1.32 0 2 0 C2.99 2.97 3.98 5.94 5 9 C4.34 9 3.68 9 3 9 C2.71125 8.360625 2.4225 7.72125 2.125 7.0625 C1.17176549 4.84793921 1.17176549 4.84793921 -1 4 C-0.67 2.68 -0.34 1.36 0 0 Z " fill="#5DC2E3" transform="translate(262,336)"/>
<path d="M0 0 C5.41538462 -0.36923077 5.41538462 -0.36923077 8.375 1.5 C8.91125 1.995 9.4475 2.49 10 3 C9.67 3.66 9.34 4.32 9 5 C6.03 4.01 3.06 3.02 0 2 C0 1.34 0 0.68 0 0 Z " fill="#4CB7E0" transform="translate(318,320)"/>
<path d="M0 0 C1.98 0.495 1.98 0.495 4 1 C4 2.32 4 3.64 4 5 C2.35 5.66 0.7 6.32 -1 7 C-1 6.34 -1 5.68 -1 5 C-0.34 5 0.32 5 1 5 C0.67 3.35 0.34 1.7 0 0 Z " fill="#52B9E0" transform="translate(157,353)"/>
<path d="M0 0 C0.33 0 0.66 0 1 0 C1.25 2.3125 1.25 2.3125 1 5 C-1 6.8125 -1 6.8125 -3 8 C-3.66 7.67 -4.32 7.34 -5 7 C-4.19152271 5.83054208 -3.37810888 4.66449539 -2.5625 3.5 C-2.11003906 2.8503125 -1.65757813 2.200625 -1.19140625 1.53125 C-0.79824219 1.0259375 -0.40507813 0.520625 0 0 Z " fill="#5BB2D2" transform="translate(95,202)"/>
<path d="M0 0 C2.5625 2.25 2.5625 2.25 5 5 C4.8125 7.3125 4.8125 7.3125 4 9 C1.49701566 6.06171403 0.53069061 3.82097239 0 0 Z " fill="#4FB6DC" transform="translate(302,73)"/>
<path d="M0 0 C0.33 0.99 0.66 1.98 1 3 C-0.8125 5.6875 -0.8125 5.6875 -3 8 C-3.66 8 -4.32 8 -5 8 C-3.62845496 5.04590299 -2.01136276 2.55991624 0 0 Z " fill="#64C2E5" transform="translate(94,68)"/>
<path d="M0 0 C3.16115776 1.36983503 3.9927092 1.9890638 6 5 C5.67 5.99 5.34 6.98 5 8 C0 2.25 0 2.25 0 0 Z " fill="#55BCDE" transform="translate(213,264)"/>
<path d="M0 0 C0.33 0.99 0.66 1.98 1 3 C-1.64 2.67 -4.28 2.34 -7 2 C-7 1.34 -7 0.68 -7 0 C-3.89953913 -1.03348696 -2.94389782 -1.17755913 0 0 Z " fill="#59B8D5" transform="translate(134,232)"/>
<path d="M0 0 C2.31 0.33 4.62 0.66 7 1 C7 1.66 7 2.32 7 3 C4.36 2.67 1.72 2.34 -1 2 C-0.67 1.34 -0.34 0.68 0 0 Z " fill="#49BDE2" transform="translate(90,175)"/>
</svg>
