<?xml version="1.0" encoding="UTF-8"?>
<svg version="1.1" xmlns="http://www.w3.org/2000/svg" width="452" height="452">
<path d="M0 0 C1.91243007 2.8686451 2.84565133 5.14512943 3.93603516 8.38818359 C4.3104776 9.49559906 4.68492004 10.60301453 5.07070923 11.74398804 C5.6737941 13.55294052 5.6737941 13.55294052 6.2890625 15.3984375 C6.71527347 16.66994851 7.14165833 17.94140124 7.56820679 19.21279907 C8.46738511 21.89685336 9.36296875 24.58207653 10.25634766 27.26806641 C11.15256516 29.96134435 12.05408895 32.65273304 12.96142578 35.34228516 C38.36562972 110.65641991 61.42333646 199.9448979 24.125 275.25 C11.29839638 300.32074613 -5.85328575 322.52968358 -28 340 C-29.40958984 341.11761719 -29.40958984 341.11761719 -30.84765625 342.2578125 C-70.08962733 372.57395166 -119.92639603 385.65679584 -169.0625 379.8125 C-217.98606818 373.3110944 -263.7513075 348.95273792 -294.53515625 309.93066406 C-299.3900754 303.53188063 -303.75090892 296.81095404 -308 290 C-308.41378906 289.34306152 -308.82757813 288.68612305 -309.25390625 288.00927734 C-334.35934602 247.6272189 -340.98188195 195.98482008 -330.7109375 149.9375 C-318.95549521 101.04518036 -289.30492407 58.08696682 -246.41796875 31.43530273 C-202.74810282 5.00928781 -150.98099092 -3.90295789 -101.0793457 7.94946289 C-76.10740606 14.32263077 -52.45343489 25.28044186 -32 41 C-30.5389962 42.09930057 -29.07672159 43.19691391 -27.61328125 44.29296875 C-26.92661377 44.80754639 -26.23994629 45.32212402 -25.5324707 45.85229492 C-25.02675537 46.2310376 -24.52104004 46.60978027 -24 47 C-17.38402716 34.73879525 -11.18014156 22.31025698 -5.2043457 9.72729492 C-4.40516724 8.048573 -4.40516724 8.048573 -3.58984375 6.3359375 C-3.11409912 5.33095215 -2.63835449 4.3259668 -2.14819336 3.29052734 C-1 1 -1 1 0 0 Z " fill="#8BC34A" transform="translate(372,34)"/>
<path d="M0 0 C3.60504097 3.22376248 4.47105981 7.03224096 5.75 11.5625 C6.00386475 12.43801514 6.25772949 13.31353027 6.51928711 14.21557617 C7.35997026 17.1399908 8.18177117 20.06922748 9 23 C9.28955566 24.02802734 9.57911133 25.05605469 9.87744141 26.11523438 C25.67805934 82.46817716 39.96970056 154.07433183 10.08203125 208.43359375 C-3.94594987 232.80976179 -23.80039792 247.82767314 -50.5 256.1875 C-70.26677258 261.22842688 -89.5238452 262.58169921 -109.87652016 262.40557575 C-113.34371144 262.38003683 -116.8109274 262.37817988 -120.27819824 262.37347412 C-126.80115314 262.36119457 -133.32382986 262.32858397 -139.84666395 262.28807616 C-147.29081185 262.24288123 -154.73497525 262.22125334 -162.17922688 262.20129442 C-177.45297728 262.15983182 -192.72645234 262.08978309 -208 262 C-205.15137817 259.15137817 -201.69063403 258.39684319 -197.9375 257.1875 C-197.13328613 256.92396729 -196.32907227 256.66043457 -195.50048828 256.38891602 C-188.74627884 254.19541616 -181.94427008 252.18268503 -175.125 250.203125 C-136.25257131 238.90469012 -103.02921668 224.63902176 -73.46337891 196.39599609 C-72.4889847 195.46646889 -71.5094751 194.54227418 -70.52490234 193.62353516 C-61.56094355 185.24437499 -54.16867926 175.9392958 -47 166 C-46.55414551 165.38817871 -46.10829102 164.77635742 -45.64892578 164.14599609 C-32.00130853 145.24081925 -19.44073457 122.3205343 -16 99 C-16.268125 99.69222656 -16.53625 100.38445312 -16.8125 101.09765625 C-29.79083017 133.50078981 -53.27548894 161.96455927 -81.24951172 182.69384766 C-83.00889686 184.00663852 -84.74148179 185.34951419 -86.47265625 186.69921875 C-124.23342933 215.75954425 -171.38874245 227.11624008 -217 237.5 C-218.66434082 237.88333496 -218.66434082 237.88333496 -220.36230469 238.27441406 C-233.48705719 241.17877106 -233.48705719 241.17877106 -238.58984375 238.78515625 C-249.35112518 230.88877503 -255.7773289 222.24352768 -261 210 C-261.43699219 209.01257813 -261.87398438 208.02515625 -262.32421875 207.0078125 C-269.25422114 187.89559538 -266.54185216 163.55767152 -258.625 145.1875 C-257.76874929 143.44897273 -256.8936674 141.71959325 -256 140 C-255.32130859 138.63101563 -255.32130859 138.63101563 -254.62890625 137.234375 C-242.10184312 112.92711971 -219.68591539 96.94640047 -194.0859375 88.6875 C-179.15454823 84.41240749 -163.71870848 83.70071383 -148.30233765 82.79727173 C-100.73542445 79.93692313 -61.84465287 67.22350273 -26 35 C-25.25105469 34.33613281 -24.50210938 33.67226562 -23.73046875 32.98828125 C-13.89084774 23.74985908 -6.42167341 11.76941509 0 0 Z " fill="#FEFEFE" transform="translate(369,86)"/>
<path d="M0 0 C4.08604887 1.83872199 6.48383145 4.21742188 8.9375 7.9375 C10.54661767 12.57554504 10.5595375 15.5275329 8.8125 20.125 C6.49740236 23.79722384 3.87408492 26.06295754 0 28 C-4.67470792 28.57031437 -8.12316498 28.43841751 -12.375 26.3125 C-15.79351181 23.30095388 -17.68960411 21.28773267 -18.31640625 16.66796875 C-18.58213652 10.95048191 -17.96847152 7.39749547 -14 3 C-9.81606383 -0.58623101 -5.28510806 -0.95928331 0 0 Z " fill="#FCFDFA" transform="translate(141,339)"/>
<path d="M0 0 C1.25127906 3.54667178 0.72285053 5.72253438 -0.4375 9.25 C-0.72496094 10.14203125 -1.01242187 11.0340625 -1.30859375 11.953125 C-1.53675781 12.62859375 -1.76492188 13.3040625 -2 14 C-2.99 14 -3.98 14 -5 14 C-3.45730076 9.27934033 -1.92205381 4.58335908 0 0 Z " fill="#A2CE6D" transform="translate(353,183)"/>
</svg>
