<?xml version="1.0" encoding="UTF-8"?>
<svg version="1.1" xmlns="http://www.w3.org/2000/svg" width="400" height="400">
<path d="M0 0 C0.30205905 8.59695997 0.53258967 17.19168404 0.67355824 25.79264832 C0.74124362 29.78734482 0.83289958 33.77839766 0.98071289 37.77099609 C1.12264935 41.62928538 1.19981693 45.48408841 1.23340416 49.3447876 C1.25731239 50.81242817 1.30401524 52.27989028 1.37449074 53.74603271 C1.58889533 58.39401128 1.54229905 62.54213912 0 67 C-3.96023385 70.70976585 -8.05128193 72.75472622 -13 75 C-14.59759854 75.91349546 -16.18680377 76.84227897 -17.7578125 77.80078125 C-19.21238589 78.64002721 -20.66812243 79.47726035 -22.125 80.3125 C-23.74362824 81.24324849 -25.36211326 82.1742461 -26.98046875 83.10546875 C-27.79950684 83.57645996 -28.61854492 84.04745117 -29.46240234 84.53271484 C-32.08235861 86.04762125 -34.69248419 87.57839691 -37.30078125 89.11328125 C-38.16106934 89.61754639 -39.02135742 90.12181152 -39.90771484 90.64135742 C-41.56001232 91.61037998 -43.21018114 92.58304388 -44.85791016 93.55981445 C-45.60476074 93.99640381 -46.35161133 94.43299316 -47.12109375 94.8828125 C-47.7752124 95.26840332 -48.42933105 95.65399414 -49.10327148 96.05126953 C-51.05512221 97.02757175 -52.86949863 97.55430823 -55 98 C-55 98.66 -55 99.32 -55 100 C-56.98 100.66 -58.96 101.32 -61 102 C-58.21419314 105.22621015 -54.6287379 107.17834683 -51 109.3125 C-50.33081543 109.71057861 -49.66163086 110.10865723 -48.97216797 110.51879883 C-44.20820543 113.33583477 -39.36858723 115.98759631 -34.48828125 118.59765625 C-31.3132635 120.38703046 -28.33434951 122.40008071 -25.36328125 124.5078125 C-23.3517834 125.77788221 -21.38540385 126.82703625 -19.25390625 127.87109375 C-14.90333886 130.00569669 -10.77670609 132.44324692 -6.625 134.9375 C-4.41320813 136.2416067 -2.19839099 137.54040866 0.01757812 138.83740234 C1.70834646 139.82895885 3.39380442 140.82956126 5.078125 141.83203125 C9.0481518 144.04233758 11.08667325 145.09288069 15.6875 144.625 C18.8214586 143.08758635 21.40278111 141.41391463 24.1640625 139.30859375 C27.52321247 136.91430601 31.78246508 134 36 134 C36 133.34 36 132.68 36 132 C36.680625 131.68289062 37.36125 131.36578125 38.0625 131.0390625 C44.20984723 128.07983418 49.99989264 124.84813173 55.75 121.1875 C61.31807917 117.64423811 66.93660759 114.23936779 72.6875 111 C73.3465332 110.62641357 74.00556641 110.25282715 74.68457031 109.86791992 C78.0475409 107.9896096 81.38247264 106.32804064 85 105 C85 103.68 85 102.36 85 101 C84.2884375 100.7313916 83.576875 100.4627832 82.84375 100.18603516 C79.93059694 98.97105425 77.25389621 97.56446562 74.5 96.0234375 C73.45448975 95.43908936 72.40897949 94.85474121 71.33178711 94.25268555 C70.23229736 93.63304932 69.13280762 93.01341309 68 92.375 C66.87021729 91.74053955 65.74043457 91.1060791 64.57641602 90.45239258 C58.96908584 87.28939731 53.40111215 84.09276016 47.9375 80.6875 C40.76142002 76.23077664 33.36254411 72.14143106 26 68 C26 45.56 26 23.12 26 0 C30.34330421 0.86866084 32.09363155 1.4375813 35.625 3.6875 C39.11917245 5.85718525 42.62824876 7.92523716 46.25 9.875 C61.21950684 17.96606026 75.88008136 26.66254586 90.56640625 35.25390625 C101.93429799 41.90319489 113.33361516 48.4928624 124.77645874 55.01208496 C134.04825036 60.295479 143.28463475 65.63678886 152.484375 71.04492188 C160.60095354 75.80515362 168.79326477 80.38371143 177 85 C177 143.08 177 201.16 177 261 C171.3737037 259.87474074 171.3737037 259.87474074 168.36328125 258.14453125 C167.70851807 257.77231445 167.05375488 257.40009766 166.37915039 257.01660156 C165.35615845 256.42057129 165.35615845 256.42057129 164.3125 255.8125 C163.24793579 255.20293457 163.24793579 255.20293457 162.16186523 254.58105469 C157.47271067 251.88629768 152.82510812 249.12479666 148.203125 246.31640625 C146.09627827 245.05752797 143.96619035 243.86405306 141.8125 242.6875 C136.82850071 239.9583801 131.98439953 237.00165036 127.13989258 234.03393555 C124.44577 232.39733209 122.00165026 231.00055009 119 230 C119 229.34 119 228.68 119 228 C118.34 228 117.68 228 117 228 C117 204.57 117 181.14 117 157 C108.45903137 161.27048432 100.24831199 165.4590307 92.125 170.375 C90.21562712 171.51693585 88.30546595 172.65755466 86.39453125 173.796875 C85.47494629 174.34537109 84.55536133 174.89386719 83.60791016 175.45898438 C79.42226222 177.93228617 75.18350503 180.30582202 70.93530273 182.66943359 C64.6407721 186.17855136 58.41717248 189.80788692 52.2043457 193.45947266 C51.43952881 193.90597168 50.67471191 194.3524707 49.88671875 194.8125 C49.20826904 195.21082031 48.52981934 195.60914063 47.83081055 196.01953125 C46 197 46 197 43 198 C42.67 226.38 42.34 254.76 42 284 C50.61067982 280.57194551 50.61067982 280.57194551 58.625 276.375 C59.20491699 276.03871582 59.78483398 275.70243164 60.38232422 275.35595703 C65.72507352 272.22929093 70.93820593 268.89924609 76.1628418 265.58056641 C81.06356457 262.50038487 86.07972067 259.86802308 91.3125 257.38671875 C94.79156711 255.59156057 97.86550984 253.38663117 100.96484375 251.00390625 C103.78003292 249.61522369 105.04689572 250.00531667 108 251 C109.97926389 252.09431797 111.91362881 253.27146203 113.8125 254.5 C118.79057184 257.66681511 123.83909888 260.6410256 129 263.5 C135.06433007 266.87172412 140.99144647 270.39529372 146.87109375 274.08203125 C151.11276523 276.68210702 155.4632882 279.07767702 159.83203125 281.45703125 C160.54746094 281.96621094 161.26289063 282.47539062 162 283 C162 283.99 162 284.98 162 286 C161.46334717 286.30591064 160.92669434 286.61182129 160.3737793 286.92700195 C148.33710141 293.79068142 136.32265754 300.6907708 124.33837891 307.64550781 C121.99213776 309.00455416 119.64300331 310.35846267 117.29296875 311.7109375 C108.11586447 316.99762402 98.99343755 322.3639261 89.93579102 327.85327148 C85.31565156 330.64551576 80.65657457 333.3368445 75.91992188 335.92700195 C74.29157148 336.83704773 72.70298761 337.81768172 71.125 338.8125 C69 340 69 340 66 340 C66 340.66 66 341.32 66 342 C65.06800781 342.4846875 64.13601562 342.969375 63.17578125 343.46875 C54.5527161 347.98922651 46.24956675 352.82380125 38 358 C15.93812172 371.5564865 15.93812172 371.5564865 9 371 C6.02734375 369.6706543 6.02734375 369.6706543 2.9375 367.82421875 C1.24753906 366.82938477 1.24753906 366.82938477 -0.4765625 365.81445312 C-1.65133786 365.10595964 -2.82581479 364.3969711 -4 363.6875 C-6.31027194 362.31262668 -8.62417215 360.94395235 -10.9375 359.57421875 C-11.95714844 358.96151123 -12.97679687 358.34880371 -14.02734375 357.7175293 C-16.96604325 356.01961939 -19.94940179 354.48580272 -23 353 C-23 352.34 -23 351.68 -23 351 C-23.52851563 350.90847656 -24.05703125 350.81695312 -24.6015625 350.72265625 C-27.83481736 349.74846708 -30.46021928 348.14167957 -33.375 346.4375 C-34.63138896 345.70682237 -35.88790289 344.97635959 -37.14453125 344.24609375 C-37.78471191 343.87210449 -38.42489258 343.49811523 -39.08447266 343.11279297 C-40.90764647 342.05365121 -42.73840978 341.00971302 -44.57421875 339.97265625 C-50.24013058 336.77094127 -55.84922298 333.50333526 -61.375 330.0625 C-65.96236764 327.21535826 -70.59707615 324.5008509 -75.3125 321.875 C-83.07185215 317.55358803 -90.74240357 313.08770103 -98.40649414 308.59985352 C-103.98540694 305.33542316 -109.57341096 302.0882318 -115.1796875 298.87109375 C-115.77256561 298.53055969 -116.36544373 298.19002563 -116.97628784 297.83917236 C-119.85659407 296.18502952 -122.73835188 294.53357309 -125.62255859 292.88623047 C-126.65977051 292.29084473 -127.69698242 291.69545898 -128.765625 291.08203125 C-129.68118164 290.55843018 -130.59673828 290.0348291 -131.54003906 289.49536133 C-136.01041423 286.77790917 -136.01041423 286.77790917 -138 285 C-138 284.01 -138 283.02 -138 282 C-137.31188232 281.60321045 -136.62376465 281.2064209 -135.91479492 280.79760742 C-129.26234053 276.9613652 -129.26234053 276.9613652 -122.61108398 273.12304688 C-121.40999519 272.42968455 -120.2089047 271.73632518 -119.0078125 271.04296875 C-118.4089473 270.69724823 -117.81008209 270.35152771 -117.19306946 269.99533081 C-113.60776635 267.92612371 -110.01980249 265.86162626 -106.4296875 263.80078125 C-105.60533203 263.32640625 -104.78097656 262.85203125 -103.93164062 262.36328125 C-102.36901632 261.46409595 -100.80523706 260.56691438 -99.24023438 259.671875 C-95.95220597 257.77727538 -92.72425494 255.85741271 -89.6015625 253.69921875 C-88.63992187 253.03535156 -87.67828125 252.37148438 -86.6875 251.6875 C-85.90761719 251.11386719 -85.12773438 250.54023438 -84.32421875 249.94921875 C-82 249 -82 249 -78.90625 249.69140625 C-75.97205872 251.01258109 -73.58625828 252.66991825 -71.01879883 254.59472656 C-68.76110728 256.16629175 -66.44047458 257.44282398 -64.01171875 258.734375 C-56.88934842 262.5749903 -49.93332956 266.68449237 -42.9609375 270.7890625 C-39.98035065 272.53736538 -36.9929022 274.27287067 -34 276 C-32.99066406 276.58523438 -31.98132813 277.17046875 -30.94140625 277.7734375 C-29.48541016 278.59714844 -29.48541016 278.59714844 -28 279.4375 C-27.13375 279.93121094 -26.2675 280.42492187 -25.375 280.93359375 C-22.82573292 282.27307726 -22.82573292 282.27307726 -19 282 C-18.95367568 271.50801337 -18.91813028 261.01605104 -18.89637566 250.523983 C-18.88593496 245.65218241 -18.87177048 240.78045175 -18.84912109 235.90869141 C-18.827403 231.20787111 -18.81543353 226.50711812 -18.81024551 221.80625153 C-18.80654791 220.0120869 -18.79932749 218.21792598 -18.78853989 216.42378998 C-18.77403872 213.91232825 -18.77202148 211.40114524 -18.77294922 208.88964844 C-18.76216339 207.77510536 -18.76216339 207.77510536 -18.75115967 206.63804626 C-18.76594167 202.94408791 -18.86249913 200.09130405 -21 197 C-22.86168823 195.54681028 -22.86168823 195.54681028 -25.12109375 194.37109375 C-25.96389893 193.89945801 -26.8067041 193.42782227 -27.67504883 192.94189453 C-28.58665771 192.44544434 -29.4982666 191.94899414 -30.4375 191.4375 C-32.36751696 190.3612677 -34.29719809 189.28443294 -36.2265625 188.20703125 C-37.20012695 187.66771973 -38.17369141 187.1284082 -39.17675781 186.57275391 C-43.24960058 184.30388041 -47.28248428 181.96884217 -51.3125 179.625 C-52.0655542 179.18921631 -52.8186084 178.75343262 -53.59448242 178.30444336 C-58.16662319 175.65666351 -62.72523973 172.98677148 -67.27734375 170.3046875 C-68.88838989 169.35795166 -68.88838989 169.35795166 -70.53198242 168.39208984 C-72.62926919 167.15895332 -74.72458753 165.9224609 -76.81762695 164.68212891 C-81.78111139 161.76644013 -86.6358125 159.09772696 -92 157 C-93.86025921 158.86025921 -93.17372428 161.96029719 -93.20532227 164.44750977 C-93.21522186 165.12065216 -93.22512146 165.79379456 -93.23532104 166.48733521 C-93.26701838 168.72198925 -93.29172574 170.95666458 -93.31640625 173.19140625 C-93.33696869 174.73697984 -93.35796496 176.28254772 -93.37937927 177.82810974 C-93.43467337 181.90350732 -93.48405013 185.97895625 -93.53222656 190.05444336 C-93.58238817 194.2101704 -93.63810204 198.36582252 -93.69335938 202.52148438 C-93.80103064 210.6809263 -93.90245552 218.84043076 -94 227 C-94.99 227.33 -95.98 227.66 -97 228 C-97 228.66 -97 229.32 -97 230 C-97.59683594 230.31710938 -98.19367188 230.63421875 -98.80859375 230.9609375 C-104.46513883 234.00353678 -110.03568338 237.16738355 -115.5625 240.4375 C-122.75819302 244.69275473 -129.97748253 248.90634435 -137.21408081 253.09158325 C-138.4042702 253.78028275 -139.5939887 254.46979665 -140.78323364 255.16012573 C-142.45842481 256.13231215 -144.13542346 257.10138206 -145.8125 258.0703125 C-146.78832031 258.63508301 -147.76414062 259.19985352 -148.76953125 259.78173828 C-151 261 -151 261 -152 261 C-152.56174783 238.29570563 -152.98437905 215.59256293 -153.24349213 192.88271904 C-153.36703046 182.33659889 -153.53527216 171.79480586 -153.81054688 161.25146484 C-154.05049834 152.05662656 -154.20475551 142.8649211 -154.25812387 133.66703904 C-154.28931195 128.79897872 -154.36198571 123.93987535 -154.53752136 119.07470322 C-155.56392004 89.50943926 -155.56392004 89.50943926 -149.6421051 82.01654816 C-143.9738056 77.22493049 -137.75153503 74.3879458 -130.77631092 71.98893547 C-127.21989124 70.72212146 -124.2453345 69.02862141 -121.03125 67.0625 C-119.18848169 66.03989562 -117.34476396 65.01899985 -115.5 64 C-105.01866172 58.17028114 -94.64724637 52.16673171 -84.30078125 46.1015625 C-80.21551365 43.7068737 -76.11695049 41.33974212 -72 39 C-65.55813572 35.33480136 -59.15277764 31.60801339 -52.75 27.875 C-51.23986328 26.99521484 -51.23986328 26.99521484 -49.69921875 26.09765625 C-44.97840755 23.34229477 -40.27071204 20.56884783 -35.58984375 17.74609375 C-32.3706424 15.8082972 -29.13658552 13.94141447 -25.8125 12.1875 C-22.52284336 10.42769795 -19.31003388 8.593212 -16.14453125 6.62109375 C-15.14619263 6.002948 -15.14619263 6.002948 -14.12768555 5.37231445 C-12.81720359 4.55611887 -11.51237818 3.73075238 -10.21411133 2.89526367 C-6.55831123 0.62458341 -4.26007866 -0.20450559 0 0 Z " fill="#7D7D7D" transform="translate(187,15)"/>
<path d="M0 0 C1.98 0.495 1.98 0.495 4 1 C4 59.08 4 117.16 4 177 C-1.6262963 175.87474074 -1.6262963 175.87474074 -4.63671875 174.14453125 C-5.29148193 173.77231445 -5.94624512 173.40009766 -6.62084961 173.01660156 C-7.30284424 172.61924805 -7.98483887 172.22189453 -8.6875 171.8125 C-9.75206421 171.20293457 -9.75206421 171.20293457 -10.83813477 170.58105469 C-15.52728933 167.88629768 -20.17489188 165.12479666 -24.796875 162.31640625 C-26.90372173 161.05752797 -29.03380965 159.86405306 -31.1875 158.6875 C-36.17149929 155.9583801 -41.01560047 153.00165036 -45.86010742 150.03393555 C-48.55423 148.39733209 -50.99834974 147.00055009 -54 146 C-54 145.34 -54 144.68 -54 144 C-54.66 144 -55.32 144 -56 144 C-56 120.57 -56 97.14 -56 73 C-64.54096863 77.27048432 -72.75168801 81.4590307 -80.875 86.375 C-82.78437288 87.51693585 -84.69453405 88.65755466 -86.60546875 89.796875 C-87.52505371 90.34537109 -88.44463867 90.89386719 -89.39208984 91.45898438 C-93.57773778 93.93228617 -97.81649497 96.30582202 -102.06469727 98.66943359 C-108.3592279 102.17855136 -114.58282752 105.80788692 -120.7956543 109.45947266 C-121.94287964 110.12922119 -121.94287964 110.12922119 -123.11328125 110.8125 C-123.79173096 111.21082031 -124.47018066 111.60914063 -125.16918945 112.01953125 C-127 113 -127 113 -130 114 C-130.33 142.38 -130.66 170.76 -131 200 C-122.38932018 196.57194551 -122.38932018 196.57194551 -114.375 192.375 C-113.79508301 192.03871582 -113.21516602 191.70243164 -112.61767578 191.35595703 C-107.27492648 188.22929093 -102.06179407 184.89924609 -96.8371582 181.58056641 C-91.93643543 178.50038487 -86.92027933 175.86802308 -81.6875 173.38671875 C-78.20843289 171.59156057 -75.13449016 169.38663117 -72.03515625 167.00390625 C-69.21996708 165.61522369 -67.95310428 166.00531667 -65 167 C-63.02073611 168.09431797 -61.08637119 169.27146203 -59.1875 170.5 C-54.20942816 173.66681511 -49.16090112 176.6410256 -44 179.5 C-37.93566993 182.87172412 -32.00855353 186.39529372 -26.12890625 190.08203125 C-21.88723477 192.68210702 -17.5367118 195.07767702 -13.16796875 197.45703125 C-12.45253906 197.96621094 -11.73710937 198.47539062 -11 199 C-11 199.99 -11 200.98 -11 202 C-11.53665283 202.30591064 -12.07330566 202.61182129 -12.6262207 202.92700195 C-24.66289859 209.79068142 -36.67734246 216.6907708 -48.66162109 223.64550781 C-51.00786224 225.00455416 -53.35699669 226.35846267 -55.70703125 227.7109375 C-64.88413553 232.99762402 -74.00656245 238.3639261 -83.06420898 243.85327148 C-87.68434844 246.64551576 -92.34342543 249.3368445 -97.08007812 251.92700195 C-98.70842852 252.83704773 -100.29701239 253.81768172 -101.875 254.8125 C-104 256 -104 256 -107 256 C-107 256.66 -107 257.32 -107 258 C-107.93199219 258.4846875 -108.86398438 258.969375 -109.82421875 259.46875 C-118.4472839 263.98922651 -126.75043325 268.82380125 -135 274 C-154.33329213 285.87983682 -154.33329213 285.87983682 -160 287 C-161.50125948 283.99748104 -161.13346982 280.91459662 -161.12025452 277.62228394 C-161.12110894 276.85286724 -161.12196337 276.08345055 -161.12284368 275.2907182 C-161.12449777 272.69883441 -161.11897827 270.10701459 -161.11352539 267.51513672 C-161.11324348 265.66264853 -161.11340133 263.81016024 -161.1139679 261.95767212 C-161.11425571 256.91661929 -161.10836156 251.87559008 -161.10139394 246.83454275 C-161.09515774 241.57077751 -161.09455639 236.30701177 -161.09336853 231.04324341 C-161.090256 221.07016838 -161.08204367 211.09710426 -161.07201904 201.12403405 C-161.06085547 189.77233087 -161.05534684 178.42062719 -161.05032361 167.0689199 C-161.039861 143.7126072 -161.02226307 120.35630421 -161 97 C-160.26507828 96.57604446 -159.53015656 96.15208893 -158.77296448 95.71528625 C-155.99674689 94.11374656 -153.22054429 92.51218091 -150.4443512 90.91059875 C-149.25207593 90.22278349 -148.05979502 89.534978 -146.86750793 88.84718323 C-125.92405631 76.77067493 -125.92405631 76.77067493 -105.06030273 64.55737305 C-100.72582281 62.00369835 -96.37256687 59.48792573 -92 57 C-82.50362781 51.5952076 -73.1061673 46.02214084 -63.703125 40.45703125 C-56.14960063 35.99260394 -48.56117627 31.60928508 -40.8984375 27.33496094 C-35.58105996 24.35648952 -30.34484593 21.25469701 -25.13427734 18.09350586 C-23.42591657 17.05726729 -21.71298442 16.02857733 -20 15 C-19.37883301 14.62053223 -18.75766602 14.24106445 -18.11767578 13.85009766 C-13.33997585 11 -13.33997585 11 -10 11 C-10 10.34 -10 9.68 -10 9 C-6.7 7.35 -3.4 5.7 0 4 C0 2.68 0 1.36 0 0 Z " fill="#010101" transform="translate(360,99)"/>
<path d="M0 0 C0 0.66 0 1.32 0 2 C-0.99 2.66 -1.98 3.32 -3 4 C-2.52433594 4.25652344 -2.04867187 4.51304688 -1.55859375 4.77734375 C4.34939149 8.00878319 10.11654462 11.44753534 15.85766602 14.96459961 C18.55260344 16.60167198 20.9974474 17.99914913 24 19 C24 19.66 24 20.32 24 21 C25.175625 21.309375 25.175625 21.309375 26.375 21.625 C29.45064463 22.79162382 31.81371595 24.0150715 34.58984375 25.72265625 C39.73520521 28.85192205 44.94831261 31.84382381 50.1875 34.8125 C57.28926492 38.84701972 64.34547742 42.93911637 71.29370117 47.23364258 C74.44222365 49.15873393 77.52800936 50.74334667 81 52 C81 52.66 81 53.32 81 54 C81.680625 54.268125 82.36125 54.53625 83.0625 54.8125 C86.39710809 56.16053306 89.69743237 57.57536298 93 59 C93 59.66 93 60.32 93 61 C94.98 61.66 96.96 62.32 99 63 C99 63.66 99 64.32 99 65 C100.03125 65.268125 101.0625 65.53625 102.125 65.8125 C105.6485042 66.80998897 108.76880827 68.2661898 112 70 C112 70.66 112 71.32 112 72 C112.70898438 72.26296875 113.41796875 72.5259375 114.1484375 72.796875 C117.15275854 74.06445155 119.82762631 75.57609984 122.625 77.25 C126.50895383 79.5472166 130.40435791 81.79358822 134.375 83.9375 C138.7287886 86.29791155 143.06214855 88.69076295 147.375 91.125 C148.51710937 91.76695312 149.65921875 92.40890625 150.8359375 93.0703125 C156.60447201 96.58840639 156.60447201 96.58840639 159 99 C159.50468685 101.75510842 159.67986334 103.90133948 159.63923645 106.65618896 C159.64759213 107.43139806 159.6559478 108.20660716 159.66455668 109.00530744 C159.68651979 111.60523123 159.67287024 114.20374698 159.65942383 116.80371094 C159.66787485 118.66635716 159.67851794 120.52899455 159.69119263 122.39161682 C159.71939371 127.45125867 159.71685766 132.51047737 159.70889878 137.57017422 C159.70577865 142.85668156 159.7307936 148.14305296 159.75285339 153.42950439 C159.79034239 163.44148934 159.80244426 173.45333844 159.8054778 183.46538663 C159.81016336 194.86315161 159.84307055 206.26078007 159.87837565 217.65848494 C159.95037099 241.10564007 159.98683665 264.55274326 160 288 C155.43921856 287.32927077 152.34151491 286.32808979 148.375 283.9453125 C146.82039063 283.02298828 146.82039063 283.02298828 145.234375 282.08203125 C144.16703125 281.43621094 143.0996875 280.79039062 142 280.125 C139.87594687 278.85518563 137.75097478 277.58690693 135.625 276.3203125 C134.68914062 275.75586426 133.75328125 275.19141602 132.7890625 274.60986328 C129.91247994 272.94948291 126.98430413 271.45638883 124 270 C124 269.34 124 268.68 124 268 C123.47148437 267.90847656 122.94296875 267.81695312 122.3984375 267.72265625 C119.16518264 266.74846708 116.53978072 265.14167957 113.625 263.4375 C112.36861104 262.70682237 111.11209711 261.97635959 109.85546875 261.24609375 C109.21528809 260.87210449 108.57510742 260.49811523 107.91552734 260.11279297 C106.09235353 259.05365121 104.26159022 258.00971302 102.42578125 256.97265625 C96.75986942 253.77094127 91.15077702 250.50333526 85.625 247.0625 C81.03763236 244.21535826 76.40292385 241.5008509 71.6875 238.875 C63.92814785 234.55358803 56.25759643 230.08770103 48.59350586 225.59985352 C43.01459306 222.33542316 37.42658904 219.0882318 31.8203125 215.87109375 C31.22743439 215.53055969 30.63455627 215.19002563 30.02371216 214.83917236 C27.14340593 213.18502952 24.26164812 211.53357309 21.37744141 209.88623047 C20.34022949 209.29084473 19.30301758 208.69545898 18.234375 208.08203125 C17.31881836 207.55843018 16.40326172 207.0348291 15.45996094 206.49536133 C10.98958577 203.77790917 10.98958577 203.77790917 9 202 C9 201.01 9 200.02 9 199 C9.68811768 198.60321045 10.37623535 198.2064209 11.08520508 197.79760742 C17.73765947 193.9613652 17.73765947 193.9613652 24.38891602 190.12304688 C25.59000481 189.42968455 26.7910953 188.73632518 27.9921875 188.04296875 C28.5910527 187.69724823 29.18991791 187.35152771 29.80693054 186.99533081 C33.39223365 184.92612371 36.98019751 182.86162626 40.5703125 180.80078125 C41.39466797 180.32640625 42.21902344 179.85203125 43.06835938 179.36328125 C44.63098368 178.46409595 46.19476294 177.56691438 47.75976562 176.671875 C51.04779403 174.77727538 54.27574506 172.85741271 57.3984375 170.69921875 C58.36007813 170.03535156 59.32171875 169.37148438 60.3125 168.6875 C61.09238281 168.11386719 61.87226562 167.54023438 62.67578125 166.94921875 C65 166 65 166 68.09375 166.69140625 C71.02794128 168.01258109 73.41374172 169.66991825 75.98120117 171.59472656 C78.23889272 173.16629175 80.55952542 174.44282398 82.98828125 175.734375 C90.11065158 179.5749903 97.06667044 183.68449237 104.0390625 187.7890625 C107.01964935 189.53736538 110.0070978 191.27287067 113 193 C114.00933594 193.58523438 115.01867187 194.17046875 116.05859375 194.7734375 C117.51458984 195.59714844 117.51458984 195.59714844 119 196.4375 C119.86625 196.93121094 120.7325 197.42492187 121.625 197.93359375 C124.17426708 199.27307726 124.17426708 199.27307726 128 199 C128.04632432 188.50801337 128.08186972 178.01605104 128.10362434 167.523983 C128.11406504 162.65218241 128.12822952 157.78045175 128.15087891 152.90869141 C128.172597 148.20787111 128.18456647 143.50711812 128.18975449 138.80625153 C128.19345209 137.0120869 128.20067251 135.21792598 128.21146011 133.42378998 C128.22596128 130.91232825 128.22797852 128.40114524 128.22705078 125.88964844 C128.23783661 124.77510536 128.23783661 124.77510536 128.24884033 123.63804626 C128.23405833 119.94408791 128.13750087 117.09130405 126 114 C124.13831177 112.54681028 124.13831177 112.54681028 121.87890625 111.37109375 C120.61469849 110.66364014 120.61469849 110.66364014 119.32495117 109.94189453 C118.41334229 109.44544434 117.5017334 108.94899414 116.5625 108.4375 C114.63248304 107.3612677 112.70280191 106.28443294 110.7734375 105.20703125 C109.79987305 104.66771973 108.82630859 104.1284082 107.82324219 103.57275391 C103.75039942 101.30388041 99.71751572 98.96884217 95.6875 96.625 C94.9344458 96.18921631 94.1813916 95.75343262 93.40551758 95.30444336 C88.83337681 92.65666351 84.27476027 89.98677148 79.72265625 87.3046875 C78.64862549 86.67353027 77.57459473 86.04237305 76.46801758 85.39208984 C74.37073081 84.15895332 72.27541247 82.9224609 70.18237305 81.68212891 C65.21888861 78.76644013 60.3641875 76.09772696 55 74 C53.13974079 75.86025921 53.82627572 78.96029719 53.79467773 81.44750977 C53.78477814 82.12065216 53.77487854 82.79379456 53.76467896 83.48733521 C53.73298162 85.72198925 53.70827426 87.95666458 53.68359375 90.19140625 C53.66303131 91.73697984 53.64203504 93.28254772 53.62062073 94.82810974 C53.56532663 98.90350732 53.51594987 102.97895625 53.46777344 107.05444336 C53.41761183 111.2101704 53.36189796 115.36582252 53.30664062 119.52148438 C53.19896936 127.6809263 53.09754448 135.84043076 53 144 C52.01 144.33 51.02 144.66 50 145 C50 145.66 50 146.32 50 147 C49.40316406 147.31710938 48.80632812 147.63421875 48.19140625 147.9609375 C42.53486117 151.00353678 36.96431662 154.16738355 31.4375 157.4375 C24.24180698 161.69275473 17.02251747 165.90634435 9.78591919 170.09158325 C8.5957298 170.78028275 7.4060113 171.46979665 6.21676636 172.16012573 C4.54157519 173.13231215 2.86457654 174.10138206 1.1875 175.0703125 C0.21167969 175.63508301 -0.76414062 176.19985352 -1.76953125 176.78173828 C-4 178 -4 178 -5 178 C-5.06999797 155.08701351 -5.12294291 132.17404459 -5.15543652 109.26097298 C-5.17092307 98.62267615 -5.19204666 87.98444566 -5.22631836 77.34619141 C-5.25616607 68.0767862 -5.27556198 58.80742902 -5.28226548 49.5379771 C-5.28618561 44.62723846 -5.29543536 39.71663724 -5.31719017 34.80594254 C-5.33748233 30.18820007 -5.34384862 25.57065223 -5.33932304 20.95286942 C-5.34015152 19.25406335 -5.34616034 17.55525109 -5.35761642 15.85648346 C-5.37244722 13.5447961 -5.36898872 11.23385267 -5.36076355 8.92214966 C-5.36352893 7.62610872 -5.36629431 6.33006779 -5.36914349 4.99475288 C-5.24732614 4.00648443 -5.12550879 3.01821598 -5 2 C-2 0 -2 0 0 0 Z " fill="#4B4B4B" transform="translate(40,98)"/>
<path d="M0 0 C1.98 0.495 1.98 0.495 4 1 C4 59.08 4 117.16 4 177 C2.35 176.67 0.7 176.34 -1 176 C-0.01 175.67 0.98 175.34 2 175 C1.8928197 152.77341926 1.78006889 130.54687301 1.66066074 108.32035446 C1.60534956 98.0005278 1.55187099 87.68069767 1.50268555 77.36083984 C1.45981795 68.36753492 1.41353342 59.37425523 1.36312145 50.38098931 C1.3365413 45.61780864 1.3116887 40.85463291 1.29092598 36.09142303 C1.27133738 31.60994427 1.24718688 27.12851345 1.21950912 22.64707756 C1.21015048 21.00073302 1.20247094 19.35437796 1.19658089 17.70801735 C1.18829954 15.46290539 1.17401719 13.21790916 1.15821838 10.97283936 C1.15176583 9.71551373 1.14531328 8.4581881 1.1386652 7.16276169 C1.02510159 4.57253269 0.77007975 2.45772077 0 0 Z " fill="#252525" transform="translate(360,99)"/>
</svg>
