<?xml version="1.0" encoding="UTF-8"?>
<svg version="1.1" xmlns="http://www.w3.org/2000/svg" width="1024" height="1024">
<path d="M0 0 C0.77859375 -0.03287109 1.5571875 -0.06574219 2.359375 -0.09960938 C17.1707783 -0.23228481 29.20397361 9.97852974 40.875 17.9375 C43.68060704 19.83306267 46.48881334 21.72473358 49.29710388 23.61631775 C51.23782951 24.9239167 53.1777318 26.23273843 55.11683655 27.54273987 C64.38639028 33.80109008 73.72768299 39.94747933 83.07958984 46.08178711 C99.4845691 56.84599764 115.79319825 67.74422926 132.04190063 78.74267578 C147.63747676 89.29549606 163.33232287 99.69076945 179.06689453 110.03491211 C180.88315827 111.22897311 182.69940201 112.42306453 184.515625 113.6171875 C185.84018204 114.48800713 185.84018204 114.48800713 187.1914978 115.37641907 C198.84216842 123.04077829 210.43836797 130.78647022 222.03063965 138.53874207 C226.08118366 141.24543171 230.14004573 143.93920156 234.20480347 146.62449646 C236.97715573 148.4561488 239.74731073 150.2911103 242.51739502 152.12619019 C243.81669861 152.98555934 245.1170769 153.84330634 246.41864014 154.69924927 C263.94945202 166.22976568 263.94945202 166.22976568 268.6875 173.875 C269.25082031 174.76058594 269.81414063 175.64617187 270.39453125 176.55859375 C273.74336643 183.07070859 274.1656599 188.90411385 274.13226891 196.09471607 C274.13577498 197.05372815 274.13928105 198.01274023 274.14289337 199.00081328 C274.15221288 202.22112498 274.14728257 205.44125606 274.14242554 208.66157532 C274.14616151 210.99100348 274.15076281 213.3204304 274.15615618 215.64985532 C274.16712315 221.38474471 274.16875561 227.11958403 274.16643447 232.85448221 C274.16416097 239.72457393 274.17344536 246.59463784 274.18299321 253.46472156 C274.20233602 267.70871603 274.20796153 281.9526961 274.20910732 296.19670216 C274.21002635 307.19616705 274.21414271 318.19562629 274.22050858 329.19508934 C274.22230366 332.36107148 274.22408328 335.52705363 274.22585833 338.69303578 C274.22652148 339.87363669 274.22652148 339.87363669 274.22719802 341.07808812 C274.23950651 363.21700985 274.24739913 385.35592962 274.24651146 407.49485493 C274.2464803 408.32955668 274.24644914 409.16425843 274.24641704 410.02425417 C274.24625083 414.2548891 274.24605275 418.48552403 274.24584763 422.71615896 C274.24578779 423.9764928 274.24578779 423.9764928 274.24572675 425.26228793 C274.24564587 426.96142249 274.24556228 428.66055705 274.24547596 430.3596916 C274.24425035 456.79767772 274.25926548 483.23561254 274.28662109 509.67358398 C274.3173407 539.3749575 274.33455368 569.07629732 274.33269465 598.77768773 C274.33254539 601.94461294 274.33244797 605.11153815 274.33238602 608.27846336 C274.33235105 609.4481338 274.33235105 609.4481338 274.33231538 610.64143394 C274.33225383 623.19091097 274.34502629 635.74034349 274.36225055 648.28980729 C274.37920233 660.90156176 274.38118442 673.51325108 274.3680319 686.12501065 C274.36129057 692.95757651 274.3609056 699.78999516 274.3787384 706.62254524 C274.39441868 712.87670095 274.39165683 719.13056657 274.37417014 725.38471498 C274.37108916 727.64779245 274.37477372 729.9108913 274.38589029 732.17394356 C274.40000291 735.25056696 274.38943099 738.32617162 274.37277794 741.40276051 C274.3827143 742.28094461 274.39265066 743.15912872 274.40288812 744.06392446 C274.27690814 755.07614156 269.44685517 763.6837427 261.875 771.4375 C251.92728638 779.26871566 241.06265458 786.002004 230.4765625 792.92529297 C214.35732513 803.47108955 198.32398685 814.13616992 182.375 824.9375 C167.03104681 835.32638097 151.60396029 845.57912381 136.11474609 855.75 C122.46747101 864.71455231 108.89624238 873.78406426 95.375 882.9375 C80.27209789 893.1602577 65.10568951 903.28103671 49.875 913.3125 C48.94179932 913.92746338 48.00859863 914.54242676 47.04711914 915.17602539 C42.01682415 918.489487 36.98082845 921.79395033 31.93701172 925.08679199 C30.11019599 926.28343632 28.29029126 927.48967906 26.47265625 928.70019531 C18.13447243 934.1760602 11.60815899 937.00515936 1.5625 936.875 C0.3096521 936.86146484 0.3096521 936.86146484 -0.96850586 936.84765625 C-12.62516478 936.52188063 -20.7707306 932.55235595 -29.125 924.4375 C-32.77879995 920.52425115 -36.19097169 916.40808207 -39.59716797 912.27978516 C-42.04976201 909.32240666 -44.55711213 906.41264737 -47.0625 903.5 C-47.55476074 902.92556152 -48.04702148 902.35112305 -48.55419922 901.75927734 C-52.77287329 896.8368063 -57.01966044 891.93895949 -61.26928711 887.04321289 C-65.40066092 882.28088803 -69.50695682 877.49764018 -73.60546875 872.70703125 C-77.2621438 868.43611157 -80.93935479 864.18343331 -84.625 859.9375 C-89.3059556 854.54495021 -93.96335664 849.13303564 -98.60546875 843.70703125 C-102.2621438 839.43611157 -105.93935479 835.18343331 -109.625 830.9375 C-114.3059556 825.54495021 -118.96335664 820.13303564 -123.60546875 814.70703125 C-127.2621438 810.43611157 -130.93935479 806.18343331 -134.625 801.9375 C-139.3059556 796.54495021 -143.96335664 791.13303564 -148.60546875 785.70703125 C-152.2621438 781.43611157 -155.93935479 777.18343331 -159.625 772.9375 C-164.3059556 767.54495021 -168.96335664 762.13303564 -173.60546875 756.70703125 C-177.2621438 752.43611157 -180.93935479 748.18343331 -184.625 743.9375 C-189.3059556 738.54495021 -193.96335664 733.13303564 -198.60546875 727.70703125 C-202.2621438 723.43611157 -205.93935479 719.18343331 -209.625 714.9375 C-214.3059556 709.54495021 -218.96335664 704.13303564 -223.60546875 698.70703125 C-227.26214407 694.43611126 -230.93939583 690.18346923 -234.625 685.9375 C-240.32362945 679.37141157 -245.98905018 672.77757323 -251.64111328 666.17138672 C-254.13395524 663.25855954 -256.62962708 660.34815889 -259.125 657.4375 C-260.10938843 656.28907401 -261.09376338 655.14063647 -262.078125 653.9921875 C-262.57119141 653.41694336 -263.06425781 652.84169922 -263.57226562 652.24902344 C-268.08984375 646.97851562 -272.60742187 641.70800781 -277.125 636.4375 C-281.19557108 636.96758295 -283.02478999 639.00288058 -285.828125 641.8828125 C-286.72660156 642.79546875 -287.62507813 643.708125 -288.55078125 644.6484375 C-289.49264053 645.6193524 -290.43404436 646.59070932 -291.375 647.5625 C-296.85171634 653.17016455 -302.29068048 658.699915 -308.25292969 663.79248047 C-311.53714363 666.67837425 -314.56732113 669.81544895 -317.625 672.9375 C-321.33064063 676.72115412 -325.04608371 680.41938126 -329.0625 683.875 C-333.47486772 687.67965073 -337.54454966 691.78272452 -341.625 695.9375 C-346.3183195 700.71630802 -351.06491978 705.30905094 -356.14257812 709.67773438 C-359.62771827 712.77144006 -362.86307426 716.11186478 -366.125 719.4375 C-370.64475312 724.04552955 -375.23432227 728.44767797 -380.125 732.66015625 C-383.61471278 735.76136585 -386.8571662 739.10584132 -390.125 742.4375 C-394.64475312 747.04552955 -399.23432227 751.44767797 -404.125 755.66015625 C-407.61471278 758.76136585 -410.8571662 762.10584132 -414.125 765.4375 C-418.68420094 770.08574783 -423.31508736 774.52819777 -428.25 778.77636719 C-431.02297688 781.23305139 -433.56019104 783.89267592 -436.125 786.5625 C-445.23565669 795.80020909 -453.83999541 800.44019809 -467 800.875 C-480.66550476 800.47654576 -489.68242809 794.49124827 -500.125 786.4375 C-501.75444582 785.1969145 -503.38470242 783.95739345 -505.015625 782.71875 C-507.6909861 780.68442591 -510.36441332 778.64775088 -513.03295898 776.60449219 C-518.85099322 772.1507836 -524.71312782 767.76571305 -530.625 763.4375 C-538.25252689 757.8510524 -545.78144967 752.14473354 -553.2890625 746.3984375 C-559.02402727 742.01685674 -564.80259563 737.70207042 -570.625 733.4375 C-578.2464867 727.85520707 -585.77005411 722.15395212 -593.27148438 716.41162109 C-599.96034637 711.30076528 -606.71893729 706.29222838 -613.50805664 701.31567383 C-619.11347203 697.2006883 -624.64422441 693.00246682 -630.13671875 688.73828125 C-633.18763911 686.38927198 -636.27748625 684.09959506 -639.375 681.8125 C-649.95994942 673.83887715 -658.31845659 666.57112155 -662.125 653.4375 C-662.37915033 650.33366621 -662.37915033 650.33366621 -662.38506222 646.95430565 C-662.39212781 645.66090338 -662.3991934 644.36750111 -662.4064731 643.03490484 C-662.40422192 641.60663343 -662.40177544 640.17836233 -662.39915466 638.75009155 C-662.40360845 637.22728672 -662.40892295 635.70448421 -662.41502339 634.18168509 C-662.42919724 629.99980835 -662.43086679 625.81800596 -662.43042648 621.63610864 C-662.43207524 617.12467936 -662.44514295 612.61328067 -662.45661926 608.10186768 C-662.4794645 598.23809589 -662.48738947 588.37434563 -662.49244571 578.51055098 C-662.49570349 572.34974949 -662.5022265 566.18895424 -662.5094471 560.02815628 C-662.52901296 542.96558267 -662.54541707 525.90301486 -662.54832363 508.84042931 C-662.5485112 507.74864261 -662.54869877 506.65685592 -662.54889202 505.53198478 C-662.54925827 503.31872662 -662.54962197 501.10546845 -662.54998314 498.89221029 C-662.55016595 497.79356703 -662.55034876 496.69492376 -662.55053711 495.56298828 C-662.55071766 494.46300155 -662.55089821 493.36301482 -662.55108423 492.22969516 C-662.55462512 474.40991568 -662.58164228 456.5902571 -662.619035 438.77051954 C-662.65713171 420.46858433 -662.67648121 402.16670908 -662.67678314 383.86473334 C-662.67736743 373.59154863 -662.68584089 363.31850812 -662.71478081 353.04536057 C-662.73931298 344.29672135 -662.74656521 335.54827892 -662.73153328 326.79961459 C-662.72437173 322.33830521 -662.72518909 317.87738428 -662.74794388 313.41611862 C-662.76860482 309.32606472 -662.76586779 305.23669613 -662.74506903 301.14664908 C-662.74158765 299.67286444 -662.74642652 298.19902964 -662.76077347 296.72531073 C-662.87786397 283.86106868 -660.23170492 273.53859025 -651.1328125 264.109375 C-645.17074385 258.60144016 -638.34184485 254.06260102 -631.75585938 249.34667969 C-627.31667582 246.12522317 -622.97467556 242.7782634 -618.625 239.4375 C-611.23963607 233.78261492 -603.79302587 228.22277647 -596.2890625 222.7265625 C-590.34828567 218.36472968 -584.4774674 213.91695452 -578.625 209.4375 C-572.00552718 204.37098268 -565.34990542 199.36323836 -558.625 194.4375 C-550.9321621 188.80151458 -543.33167995 183.05238382 -535.75439453 177.26220703 C-527.91433161 171.27131156 -520.04136079 165.32719853 -512.125 159.4375 C-511.33786621 158.85162109 -510.55073242 158.26574219 -509.73974609 157.66210938 C-507.22458972 155.79250491 -504.70655548 153.92684682 -502.1875 152.0625 C-501.41841309 151.49128418 -500.64932617 150.92006836 -499.85693359 150.33154297 C-486.79782956 140.69315086 -476.97380367 134.79553464 -460.125 136.4375 C-446.48576742 139.19488998 -438.43480784 147.89265643 -429.05957031 157.48730469 C-425.2241561 161.40638684 -421.28270138 165.08395952 -417.12719727 168.66015625 C-412.92564808 172.38985727 -409.05715004 176.46761265 -405.125 180.4765625 C-401.88502463 183.75450634 -398.61802931 186.92885561 -395.125 189.9375 C-390.19037869 194.18782812 -385.68246611 198.83008338 -381.125 203.4765625 C-377.88502463 206.75450634 -374.61802931 209.92885561 -371.125 212.9375 C-366.19037869 217.18782812 -361.68246611 221.83008338 -357.125 226.4765625 C-353.89525802 229.74415302 -350.63988375 232.90902333 -347.15625 235.90625 C-341.98185023 240.36310605 -337.26249431 245.2519639 -332.48046875 250.12109375 C-328.47955746 254.16589072 -324.38817959 257.99904656 -320.07617188 261.70898438 C-316.11504001 265.21809519 -312.47044304 269.05320553 -308.76953125 272.83203125 C-305.66859895 275.97196899 -302.53217818 278.99835561 -299.1875 281.87890625 C-294.78802611 285.67233016 -290.70627237 289.7446012 -286.625 293.875 C-285.89796875 294.60654297 -285.1709375 295.33808594 -284.421875 296.09179688 C-282.65390501 297.87139824 -280.88833622 299.65330918 -279.125 301.4375 C-275.51154725 298.71952769 -272.7258384 295.9271234 -269.9375 292.375 C-266.78393014 288.43696002 -263.54593872 284.64573373 -260.125 280.9375 C-256.01121091 276.4676488 -252.15412703 271.84705107 -248.33984375 267.12109375 C-245.46019113 263.63199084 -242.41806124 260.30753079 -239.37109375 256.96484375 C-237.06312402 254.36787607 -234.86944137 251.70345987 -232.6875 249 C-228.82674863 244.226097 -224.75062925 239.70361572 -220.59375 235.1875 C-218.18121896 232.50012366 -215.8924379 229.74784556 -213.625 226.9375 C-210.57151321 223.15289666 -207.41831699 219.51542463 -204.125 215.9375 C-200.01121091 211.4676488 -196.15412703 206.84705107 -192.33984375 202.12109375 C-189.46019113 198.63199084 -186.41806124 195.30753079 -183.37109375 191.96484375 C-181.06312402 189.36787607 -178.86944137 186.70345987 -176.6875 184 C-172.82791397 179.22753797 -168.75300009 174.70640891 -164.59765625 170.19140625 C-161.37790481 166.60542716 -158.36594824 162.87048508 -155.33984375 159.12109375 C-152.46019113 155.63199084 -149.41806124 152.30753079 -146.37109375 148.96484375 C-144.06312402 146.36787607 -141.86944137 143.70345987 -139.6875 141 C-135.82674863 136.226097 -131.75062925 131.70361572 -127.59375 127.1875 C-125.18121896 124.50012366 -122.8924379 121.74784556 -120.625 118.9375 C-117.57151321 115.15289666 -114.41831699 111.51542463 -111.125 107.9375 C-107.01121091 103.4676488 -103.15412703 98.84705107 -99.33984375 94.12109375 C-96.46019113 90.63199084 -93.41806124 87.30753079 -90.37109375 83.96484375 C-88.06312402 81.36787607 -85.86944137 78.70345987 -83.6875 76 C-79.82791397 71.22753797 -75.75300009 66.70640891 -71.59765625 62.19140625 C-68.37790481 58.60542716 -65.36594824 54.87048508 -62.33984375 51.12109375 C-59.46019113 47.63199084 -56.41806124 44.30753079 -53.37109375 40.96484375 C-51.06312402 38.36787607 -48.86944137 35.70345987 -46.6875 33 C-42.77965487 28.17145838 -38.68071964 23.56517721 -34.4609375 19.0078125 C-32.42691848 16.7697113 -30.52727794 14.47382205 -28.625 12.125 C-21.10542262 3.46770879 -11.15027274 0.08066918 0 0 Z M26.875 341.375 C25.5390602 342.72659535 24.2057321 344.08077703 22.875 345.4375 C18.35524688 350.04552955 13.76567773 354.44767797 8.875 358.66015625 C5.38528722 361.76136585 2.1428338 365.10584132 -1.125 368.4375 C-5.00783707 372.39617373 -8.88840662 376.28808338 -13.09375 379.90625 C-17.49703182 383.69892048 -21.55486924 387.79323206 -25.625 391.9375 C-30.3183195 396.71630802 -35.06491978 401.30905094 -40.14257812 405.67773438 C-43.62771827 408.77144006 -46.86307426 412.11186478 -50.125 415.4375 C-54.64475312 420.04552955 -59.23432227 424.44767797 -64.125 428.66015625 C-67.61471278 431.76136585 -70.8571662 435.10584132 -74.125 438.4375 C-78.6538217 443.05477525 -83.25158287 447.47086247 -88.15234375 451.69189453 C-91.45128623 454.61113199 -94.53291059 457.73978059 -97.625 460.875 C-98.25664063 461.51115234 -98.88828125 462.14730469 -99.5390625 462.80273438 C-101.07005774 464.34532806 -102.59787667 465.89107314 -104.125 467.4375 C-102.64373643 470.87680583 -100.70072554 473.10704338 -98.0546875 475.73828125 C-97.24 476.55103516 -96.4253125 477.36378906 -95.5859375 478.20117188 C-94.73257813 479.04228516 -93.87921875 479.88339844 -93 480.75 C-92.16984375 481.57951172 -91.3396875 482.40902344 -90.484375 483.26367188 C-86.13566515 487.581709 -81.70375305 491.72362225 -77.05908203 495.71948242 C-72.88176099 499.43013733 -69.03561567 503.48956762 -65.125 507.4765625 C-61.88502463 510.75450634 -58.61802931 513.92885561 -55.125 516.9375 C-50.19037869 521.18782812 -45.68246611 525.83008338 -41.125 530.4765625 C-37.89525802 533.74415302 -34.63988375 536.90902333 -31.15625 539.90625 C-25.98185023 544.36310605 -21.26249431 549.2519639 -16.48046875 554.12109375 C-12.48961298 558.1557249 -8.40847991 561.97721738 -4.10742188 565.67773438 C0.08740607 569.40141909 3.94916927 573.47405539 7.875 577.4765625 C11.11844258 580.75801418 14.38908311 583.93444145 17.88671875 586.9453125 C22.76193502 591.14245542 27.19750644 595.74155098 31.66992188 600.359375 C32.30091797 601.00132812 32.93191406 601.64328125 33.58203125 602.3046875 C34.1438208 602.88331543 34.70561035 603.46194336 35.28442383 604.05810547 C36.940281 605.67184293 36.940281 605.67184293 39.875 606.4375 C39.875 515.3575 39.875 424.2775 39.875 330.4375 C35.83860189 330.4375 29.63579476 338.61420524 26.875 341.375 Z M-501.125 376.4375 C-501.125 437.1575 -501.125 497.8775 -501.125 560.4375 C-492.70710604 552.01960604 -484.72690722 543.33555026 -477.26953125 534.05078125 C-475.12625044 531.43902377 -472.9011967 528.93384698 -470.625 526.4375 C-467.52944804 523.04151318 -464.57348793 519.57578469 -461.6875 516 C-457.82791397 511.22753797 -453.75300009 506.70640891 -449.59765625 502.19140625 C-446.37911459 498.60677455 -443.36809726 494.87348674 -440.34375 491.125 C-438.15224732 488.4705038 -435.88252317 485.91749115 -433.5625 483.375 C-429.18456074 478.57314057 -425.12310004 473.55768261 -421.125 468.4375 C-425.02640912 462.95443854 -429.30028983 457.99076622 -433.88183594 453.07543945 C-437.73985555 448.91458745 -441.32082392 444.57299149 -444.87890625 440.15234375 C-447.2133059 437.33076505 -449.64490598 434.63159288 -452.125 431.9375 C-456.21851091 427.49022888 -460.04942499 422.89032537 -463.84375 418.1875 C-466.19218968 415.35650422 -468.63409902 412.64366402 -471.125 409.9375 C-475.23434657 405.47247583 -479.08735486 400.8568052 -482.8984375 396.13671875 C-485.83939919 392.57144765 -488.92889625 389.15621445 -492.04296875 385.7421875 C-493.94850247 383.6328725 -495.79512173 381.48739112 -497.625 379.3125 C-498.45 378.36375 -499.275 377.415 -500.125 376.4375 C-500.455 376.4375 -500.785 376.4375 -501.125 376.4375 Z " fill="#A276D8" transform="translate(706.125,43.5625)"/>
<path d="M0 0 C5.40154378 0.44352064 9.23293271 3.48929085 13.6015625 6.421875 C14.87953201 7.26634186 14.87953201 7.26634186 16.18331909 8.12786865 C19.002533 9.99402622 21.81377466 11.87183407 24.625 13.75 C26.60967178 15.06759106 28.59470355 16.38464004 30.58007812 17.70117188 C44.82234028 27.15885039 58.99744685 36.71645948 73.15673828 46.29776001 C88.76572283 56.86000385 104.47375832 67.26499649 120.22265625 77.6171875 C122.04690152 78.8163659 123.87112062 80.01558412 125.6953125 81.21484375 C126.58124084 81.79724823 127.46716919 82.37965271 128.37994385 82.97970581 C137.09237302 88.71124724 145.76785773 94.49736925 154.43634033 100.29507446 C163.00746751 106.02627294 171.60196068 111.72045852 180.21875 117.3828125 C181.1929187 118.02329529 182.1670874 118.66377808 183.17077637 119.32366943 C187.95837827 122.47088244 192.74797626 125.61498064 197.54101562 128.75390625 C205.9304455 134.25774702 214.28345264 139.8079644 222.51171875 145.55078125 C223.20148804 146.02730133 223.89125732 146.50382141 224.60192871 146.99478149 C233.71276308 153.4204751 239.45651613 161.0698468 242 172 C242.77765734 179.5282026 242.54038283 187.14760588 242.50793457 194.70509338 C242.51254594 197.03797623 242.51890044 199.37085617 242.52684355 201.70373005 C242.54178038 207.43169145 242.53817457 213.1594299 242.52664049 218.88739424 C242.51385766 225.75236284 242.52435415 232.61724698 242.53548814 239.48221141 C242.55652965 252.93143475 242.55473418 266.380582 242.54317249 279.82981254 C242.53310494 291.59891595 242.53048595 303.36799148 242.53526306 315.13709831 C242.5355686 315.91817686 242.53587414 316.69925541 242.53618894 317.504003 C242.53743432 320.67475138 242.53870792 323.84549974 242.540028 327.01624808 C242.55225989 356.75102419 242.54117646 386.48575186 242.51964041 416.22052049 C242.50065657 442.63230978 242.50235853 469.04402193 242.52148438 495.45581055 C242.5429068 525.13817543 242.55139422 554.82049753 242.53903532 584.50286907 C242.53775247 587.66748519 242.53650111 590.83210132 242.53526306 593.99671745 C242.53494675 594.77591174 242.53463044 595.55510603 242.53430455 596.35791226 C242.52975645 608.11969355 242.53507238 619.8814439 242.54518127 631.6432209 C242.55661873 645.01736803 242.55375803 658.39142725 242.5320583 671.76556344 C242.52135046 678.59004971 242.51691973 685.41439323 242.53065491 692.23887825 C242.54256922 698.48548331 242.53603153 704.73178645 242.5147447 710.9783641 C242.51027467 713.23862592 242.51255384 715.49891322 242.52224785 717.75915868 C242.53441638 720.83194606 242.521931 723.90370015 242.50336456 726.97643375 C242.51272923 727.85347447 242.52209389 728.73051518 242.53174233 729.63413289 C242.39885768 740.64189051 237.56906068 749.24910432 230 757 C220.05228638 764.83121566 209.18765458 771.564504 198.6015625 778.48779297 C182.48232513 789.03358955 166.44898685 799.69866992 150.5 810.5 C136.06770253 820.27162917 121.56879864 829.93309701 107 839.5 C93.23652974 848.53910418 79.52333658 857.64623976 65.88088989 866.86712646 C63.21433652 868.66936208 60.54664929 870.46990733 57.87866211 872.27001953 C49.76779265 877.74420166 41.66305016 883.2269665 33.57395935 888.73329163 C29.94270794 891.20133965 26.30454322 893.65905088 22.66470337 896.1144104 C20.94214563 897.27985245 19.22266669 898.44985922 17.50643921 899.62460327 C15.14864416 901.23792933 12.7809034 902.83548011 10.41015625 904.4296875 C9.36648392 905.15226997 9.36648392 905.15226997 8.30172729 905.88945007 C3.49669353 909.08692763 3.49669353 909.08692763 0.79051208 908.61331177 C0.1996431 908.41091888 -0.39122589 908.208526 -1 908 C-0.59007812 907.35933594 -0.18015625 906.71867188 0.2421875 906.05859375 C1.05042969 904.76115234 1.05042969 904.76115234 1.875 903.4375 C2.67550781 902.16712891 2.67550781 902.16712891 3.4921875 900.87109375 C7.63995945 892.97313421 7.28440463 885.2806006 7.25726891 876.53542709 C7.25996317 875.04175707 7.26353149 873.54808841 7.26789337 872.05442232 C7.27735685 867.93972811 7.27434895 863.82512237 7.26933783 859.71042379 C7.26607408 855.23771592 7.27435135 850.76502708 7.28115618 846.29232526 C7.29147084 838.44983324 7.29429743 830.60736591 7.29224396 822.76486778 C7.28919779 811.10273978 7.29750942 799.44063917 7.30799321 787.77851649 C7.32735153 765.7393921 7.33296211 743.70027701 7.33410732 721.66114512 C7.33502582 704.64385882 7.33913941 687.62657618 7.34550858 670.60929108 C7.34730362 665.71385551 7.34908324 660.81841994 7.35085833 655.92298436 C7.35152148 654.09754239 7.35152148 654.09754239 7.35219802 652.23522281 C7.36450922 617.99675467 7.37239886 583.7582878 7.37151146 549.51981735 C7.3714803 548.22851986 7.37144914 546.93722237 7.37141704 545.60679465 C7.37125082 539.0617105 7.37105274 532.51662636 7.37084763 525.97154221 C7.37080774 524.67162543 7.37076785 523.37170865 7.37072675 522.03240046 C7.37064587 519.40365127 7.37056228 516.77490208 7.37047596 514.14615289 C7.36925028 473.24113849 7.38426578 432.33615725 7.41162109 391.43115234 C7.4423297 345.49278159 7.45955433 299.55443262 7.45769465 253.61605096 C7.45754538 248.71935797 7.45744797 243.82266498 7.45738602 238.92597198 C7.45736271 237.72024877 7.4573394 236.51452556 7.45731538 235.27226528 C7.45725379 215.85338539 7.47003563 196.43453423 7.48725055 177.01566289 C7.50418876 157.50566066 7.50619507 137.99570055 7.4930319 118.48569503 C7.48563072 106.89020752 7.48933558 95.29484782 7.50891658 83.6993738 C7.52088899 75.95635457 7.51835607 68.2134282 7.50397559 60.47041328 C7.49618943 56.05702906 7.49472724 51.64389273 7.51089029 47.2305257 C7.5254748 43.21304132 7.5215444 39.19601065 7.50304256 35.17854629 C7.49960862 33.73663797 7.50282843 32.29469389 7.51364497 30.85282206 C7.58232624 21.03763674 6.54431367 12.81003561 1.3652257 4.32018726 C0 2 0 2 0 0 Z " fill="#CA95F7" transform="translate(738,58)"/>
<path d="M0 0 C10.15569193 6.82664768 18.33285544 17.86932823 25.8984375 27.3125 C28.02766396 29.9148879 30.24230607 32.40638002 32.5078125 34.890625 C35.60336446 38.28661182 38.55932457 41.75234031 41.4453125 45.328125 C45.30606387 50.102028 49.38218325 54.62450928 53.5390625 59.140625 C56.73662546 62.70246729 59.72169593 66.41628333 62.7265625 70.140625 C65.07500218 72.97162078 67.51691152 75.68446098 70.0078125 78.390625 C74.10009325 82.83655964 77.93024364 87.4346622 81.72265625 92.13671875 C84.8018256 95.84751258 88.06097812 99.3747763 91.35546875 102.89453125 C91.75548851 103.35549006 92.15550827 103.81644886 92.56764984 104.29137611 C94.04737062 105.98084414 94.04737062 105.98084414 95.98490143 107.73698997 C103.58400533 115.62963845 103.09553331 123.65780357 102.91601562 133.91650391 C102.91375602 135.73076273 102.91503158 137.54502886 102.91955566 139.35928345 C102.92184167 144.26001052 102.87496335 149.15915633 102.818964 154.05951738 C102.76879511 159.18969129 102.76424174 164.31990549 102.75476074 169.45028687 C102.72994202 179.15427675 102.66435584 188.85754161 102.58396482 198.5612129 C102.49440084 209.61312698 102.45052332 220.66507654 102.41040134 231.71726346 C102.32688558 254.44211854 102.18626242 277.16633106 102.0078125 299.890625 C102.38228988 299.45850739 102.75676725 299.02638979 103.14259243 298.58117771 C104.85408048 296.60627075 106.56558987 294.63138229 108.27709961 292.65649414 C108.86620872 291.97670753 109.45531784 291.29692093 110.06227875 290.59653473 C112.94024594 287.27571605 115.818543 283.95518858 118.69921875 280.63671875 C125.83450637 272.4156006 132.93156872 264.1625905 140.0078125 255.890625 C146.15391671 248.70597117 152.31079493 241.53144918 158.5078125 234.390625 C162.89237601 229.33633509 167.27083773 224.27693123 171.6328125 219.203125 C172.12974609 218.62691406 172.62667969 218.05070313 173.13867188 217.45703125 C175.53072362 214.67017485 177.85150645 211.86459073 180.0078125 208.890625 C183.82410082 210.43635276 185.97806993 212.77833745 188.6953125 215.828125 C189.13029053 216.31466553 189.56526855 216.80120605 190.01342773 217.30249023 C193.7352584 221.49959186 197.27013704 225.84218703 200.79296875 230.20703125 C202.96414077 232.83771057 205.21022607 235.37004924 207.5078125 237.890625 C210.60336446 241.28661182 213.55932457 244.75234031 216.4453125 248.328125 C219.52117838 252.13150003 222.69534416 255.79145152 226.0078125 259.390625 C230.12160159 263.8604762 233.97868547 268.48107393 237.79296875 273.20703125 C239.96414077 275.83771057 242.21022607 278.37004924 244.5078125 280.890625 C248.42672502 285.19054291 252.09952119 289.64982047 255.7578125 294.171875 C258.65256961 297.66970651 261.70370789 301.00847904 264.76171875 304.36328125 C267.06968848 306.96024893 269.26337113 309.62466513 271.4453125 312.328125 C274.52117838 316.13150003 277.69534416 319.79145152 281.0078125 323.390625 C285.12160159 327.8604762 288.97868547 332.48107393 292.79296875 337.20703125 C294.96414077 339.83771057 297.21022607 342.37004924 299.5078125 344.890625 C303.39794444 349.15830874 307.03887526 353.58493518 310.6640625 358.078125 C313.94612751 362.01660301 317.42859795 365.74776635 320.94140625 369.48046875 C322.74587953 371.58511906 323.93228996 373.35756373 325.0078125 375.890625 C324.27731689 376.29442383 323.54682129 376.69822266 322.79418945 377.11425781 C319.92429023 378.943872 317.80240112 380.88327889 315.42578125 383.3125 C314.57564453 384.17359375 313.72550781 385.0346875 312.84960938 385.921875 C311.97369141 386.8190625 311.09777344 387.71625 310.1953125 388.640625 C304.91072217 394.03161648 299.63551699 399.31275031 293.8996582 404.22363281 C290.61196343 407.12057176 287.57248313 410.26143499 284.5078125 413.390625 C280.80217187 417.17427912 277.08672879 420.87250626 273.0703125 424.328125 C268.65794478 428.13277573 264.58826284 432.23584952 260.5078125 436.390625 C255.814493 441.16943302 251.06789272 445.76217594 245.99023438 450.13085938 C242.50509423 453.22456506 239.26973824 456.56498978 236.0078125 459.890625 C231.48805938 464.49865455 226.89849023 468.90080297 222.0078125 473.11328125 C218.51809972 476.21449085 215.2756463 479.55896632 212.0078125 482.890625 C207.48805938 487.49865455 202.89849023 491.90080297 198.0078125 496.11328125 C194.51809972 499.21449085 191.2756463 502.55896632 188.0078125 505.890625 C183.44861156 510.53887283 178.81772514 514.98132277 173.8828125 519.22949219 C171.10983562 521.68617639 168.57262146 524.34580092 166.0078125 527.015625 C156.89715581 536.25333409 148.29281709 540.89332309 135.1328125 541.328125 C121.46730774 540.92967076 112.45038441 534.94437327 102.0078125 526.890625 C100.37836668 525.6500395 98.74811008 524.41051845 97.1171875 523.171875 C94.4418264 521.13755091 91.76839918 519.10087588 89.09985352 517.05761719 C83.28181928 512.6039086 77.41968468 508.21883805 71.5078125 503.890625 C63.88028561 498.3041774 56.35136283 492.59785854 48.84375 486.8515625 C43.10878523 482.46998174 37.33021687 478.15519542 31.5078125 473.890625 C23.8863258 468.30833207 16.36275839 462.60707712 8.86132812 456.86474609 C2.17246613 451.75389028 -4.58612479 446.74535338 -11.37524414 441.76879883 C-16.98065953 437.6538133 -22.51141191 433.45559182 -28.00390625 429.19140625 C-31.05482661 426.84239698 -34.14467375 424.55272006 -37.2421875 422.265625 C-47.82713692 414.29200215 -56.18564409 407.02424655 -59.9921875 393.890625 C-60.24633783 390.78679121 -60.24633783 390.78679121 -60.25224972 387.40743065 C-60.25931531 386.11402838 -60.2663809 384.82062611 -60.2736606 383.48802984 C-60.27140942 382.05975843 -60.26896294 380.63148733 -60.26634216 379.20321655 C-60.27079595 377.68041172 -60.27611045 376.15760921 -60.28221089 374.63481009 C-60.29638474 370.45293335 -60.29805429 366.27113096 -60.29761398 362.08923364 C-60.29926274 357.57780436 -60.31233045 353.06640567 -60.32380676 348.55499268 C-60.346652 338.69122089 -60.35457697 328.82747063 -60.35963321 318.96367598 C-60.36289099 312.80287449 -60.369414 306.64207924 -60.3766346 300.48128128 C-60.39620046 283.41870767 -60.41260457 266.35613986 -60.41551113 249.29355431 C-60.4156987 248.20176761 -60.41588627 247.10998092 -60.41607952 245.98510978 C-60.41644577 243.77185162 -60.41680947 241.55859345 -60.41717064 239.34533529 C-60.41735345 238.24669203 -60.41753626 237.14804876 -60.41772461 236.01611328 C-60.41790516 234.91612655 -60.41808571 233.81613982 -60.41827173 232.68282016 C-60.42181262 214.86304068 -60.44882978 197.0433821 -60.4862225 179.22364454 C-60.52431921 160.92170933 -60.54366871 142.61983408 -60.54397064 124.31785834 C-60.54455493 114.04467363 -60.55302839 103.77163312 -60.58196831 93.49848557 C-60.60650048 84.74984635 -60.61375271 76.00140392 -60.59872078 67.25273959 C-60.59155923 62.79143021 -60.59237659 58.33050928 -60.61513138 53.86924362 C-60.63579232 49.77918972 -60.63305529 45.68982113 -60.61225653 41.59977408 C-60.60877515 40.12598944 -60.61361402 38.65215464 -60.62796097 37.17843573 C-60.73435386 25.48949519 -58.86606667 14.99925559 -50.4296875 6.328125 C-49.68589844 5.54308594 -48.94210938 4.75804687 -48.17578125 3.94921875 C-35.39115801 -8.1035477 -14.80550907 -8.24463642 0 0 Z " fill="#7051A8" transform="translate(103.9921875,303.109375)"/>
<path d="M0 0 C2.92066644 1.88976895 5.77486269 3.86414031 8.60546875 5.88671875 C7.94546875 6.21671875 7.28546875 6.54671875 6.60546875 6.88671875 C7.09917969 7.8509375 7.59289062 8.81515625 8.1015625 9.80859375 C8.74891112 11.08452727 9.39603474 12.36057496 10.04296875 13.63671875 C10.53120117 14.58804688 10.53120117 14.58804688 11.02929688 15.55859375 C13.58749945 20.62225246 14.72480902 24.36593557 14.7564497 30.0077467 C14.76460774 31.04821248 14.77276577 32.08867827 14.78117102 33.16067332 C14.78703356 34.87324154 14.78703356 34.87324154 14.79301453 36.6204071 C14.80092461 37.83437331 14.80883469 39.04833953 14.81698447 40.29909259 C14.8377377 43.67035007 14.85397294 47.04157276 14.86812484 50.41286075 C14.8810381 53.30409102 14.89758683 56.19529611 14.9141021 59.0865077 C15.07002382 86.49471184 15.14510392 113.90349998 15.20572186 141.31206036 C15.21375043 144.87918315 15.22191877 148.44630558 15.23022461 152.01342773 C15.23228221 152.90000814 15.23433981 153.78658854 15.23645977 154.70003501 C15.27088106 169.06254997 15.34353859 183.42461877 15.43113222 197.7868972 C15.52033291 212.53484822 15.57165285 227.28256783 15.58702403 242.030783 C15.59667793 250.31055484 15.62340866 258.58952243 15.69333458 266.86902428 C15.75286241 273.92019047 15.77852356 280.9704455 15.75999572 288.02185693 C15.75161236 291.61860903 15.75933622 295.21339612 15.81098175 298.80982971 C15.86659871 302.71334867 15.84429853 306.61426077 15.81474304 310.51811218 C15.84318934 311.64867072 15.87163563 312.77922926 15.90094393 313.94404715 C15.80711524 318.7595621 15.56655118 321.72250245 12.43817675 325.51208842 C9.91625597 327.79059925 7.31459582 329.83759535 4.60546875 331.88671875 C3.25766328 333.16837212 1.92742645 334.46921817 0.62890625 335.80078125 C0.02046875 336.41695313 -0.58796875 337.033125 -1.21484375 337.66796875 C-1.81039063 338.27640625 -2.4059375 338.88484375 -3.01953125 339.51171875 C-6.69136215 343.26200757 -10.37711704 346.92072078 -14.35546875 350.34765625 C-18.5813981 353.9925331 -22.48854074 357.90443936 -26.39453125 361.88671875 C-30.27736832 365.84539248 -34.15793787 369.73730213 -38.36328125 373.35546875 C-42.76656307 377.14813923 -46.82440049 381.24245081 -50.89453125 385.38671875 C-55.58785075 390.16552677 -60.33445103 394.75826969 -65.41210938 399.12695312 C-68.89724952 402.22065881 -72.13260551 405.56108353 -75.39453125 408.88671875 C-79.91428437 413.4947483 -84.50385352 417.89689672 -89.39453125 422.109375 C-92.88424403 425.2105846 -96.12669745 428.55506007 -99.39453125 431.88671875 C-103.93515711 436.51602871 -108.54448177 440.94817801 -113.45751953 445.18115234 C-116.54089209 447.89610579 -119.43822808 450.78501274 -122.33203125 453.69921875 C-122.90759766 454.27091797 -123.48316406 454.84261719 -124.07617188 455.43164062 C-127.10597577 458.37747504 -127.10597577 458.37747504 -129.39453125 461.88671875 C-133.14764007 460.32905948 -135.48871038 458.00872435 -138.31640625 455.125 C-138.78008606 454.65611862 -139.24376587 454.18723724 -139.72149658 453.70414734 C-141.2007015 452.20720277 -142.67305826 450.70376126 -144.14453125 449.19921875 C-146.07332432 447.23350637 -148.00538573 445.27109477 -149.94140625 443.3125 C-150.64910156 442.59642075 -150.64910156 442.59642075 -151.37109375 441.86587524 C-154.61523147 438.60779079 -157.98331293 435.56287655 -161.47753906 432.57885742 C-165.88496444 428.68840081 -169.9218733 424.39530854 -174.0390625 420.203125 C-177.39781249 416.80753314 -180.77305549 413.50254106 -184.39453125 410.38671875 C-189.56013869 405.94236623 -194.26745418 401.06164787 -199.0390625 396.203125 C-203.02991827 392.16849385 -207.11105134 388.34700137 -211.41210938 384.64648438 C-215.60693732 380.92279966 -219.46870052 376.85016336 -223.39453125 372.84765625 C-226.62683157 369.57747741 -229.8851123 366.41023893 -233.37109375 363.41015625 C-237.72741581 359.65881975 -241.74433337 355.61243629 -245.76953125 351.51171875 C-247.17085872 350.08495884 -248.57439475 348.66036368 -249.98046875 347.23828125 C-250.58938965 346.61775879 -251.19831055 345.99723633 -251.82568359 345.35791016 C-253.34576586 343.79209913 -253.34576586 343.79209913 -255.39453125 342.88671875 C-255.39453125 342.22671875 -255.39453125 341.56671875 -255.39453125 340.88671875 C-255.9575293 340.65041748 -256.52052734 340.41411621 -257.10058594 340.1706543 C-259.92708035 338.58864769 -261.83057724 336.65807866 -264.09765625 334.34375 C-265.44537109 332.97959961 -265.44537109 332.97959961 -266.8203125 331.58789062 C-267.76210056 330.62537344 -268.7035048 329.66248056 -269.64453125 328.69921875 C-275.11191374 323.1280252 -280.55263646 317.638733 -286.48730469 312.56469727 C-289.94702664 309.52083283 -293.15843724 306.22713107 -296.39453125 302.94921875 C-297.41353516 301.92344727 -297.41353516 301.92344727 -298.453125 300.87695312 C-300.10261484 299.21584716 -301.74969805 297.55243362 -303.39453125 295.88671875 C-302.13188221 293.17138005 -300.79102699 290.98626015 -298.8125 288.7421875 C-298.04280884 287.86228149 -298.04280884 287.86228149 -297.25756836 286.96459961 C-296.42817749 286.02886108 -296.42817749 286.02886108 -295.58203125 285.07421875 C-294.39964149 283.7253464 -293.21735263 282.37638559 -292.03515625 281.02734375 C-291.42994141 280.33962891 -290.82472656 279.65191406 -290.20117188 278.94335938 C-287.39617326 275.75020961 -284.61393886 272.53748211 -281.83203125 269.32421875 C-281.29481445 268.70450195 -280.75759766 268.08478516 -280.20410156 267.44628906 C-274.57450684 260.94903856 -268.98291545 254.41941077 -263.39453125 247.88671875 C-256.70484491 240.06662996 -249.99620291 232.2640566 -243.25024414 224.49243164 C-239.61633315 220.30354304 -235.99954406 216.10049362 -232.39453125 211.88671875 C-228.24593256 207.03756514 -224.07778781 202.20600422 -219.89453125 197.38671875 C-213.69727613 190.24610266 -207.54063371 183.07137053 -201.39453125 175.88671875 C-194.70484491 168.06662996 -187.99620291 160.2640566 -181.25024414 152.49243164 C-177.61633315 148.30354304 -173.99954406 144.10049362 -170.39453125 139.88671875 C-166.24593256 135.03756514 -162.07778781 130.20600422 -157.89453125 125.38671875 C-151.69727613 118.24610266 -145.54063371 111.07137053 -139.39453125 103.88671875 C-132.70484491 96.06662996 -125.99620291 88.2640566 -119.25024414 80.49243164 C-115.61633315 76.30354304 -111.99954406 72.10049362 -108.39453125 67.88671875 C-104.24593256 63.03756514 -100.07778781 58.20600422 -95.89453125 53.38671875 C-89.69727613 46.24610266 -83.54063371 39.07137053 -77.39453125 31.88671875 C-76.40760642 30.73302643 -75.42062719 29.57938065 -74.43359375 28.42578125 C-73.94286377 27.852229 -73.45213379 27.27867676 -72.9465332 26.68774414 C-71.45882613 24.9513137 -69.96775307 23.21781411 -68.4765625 21.484375 C-66.31091922 18.96464521 -64.16687244 16.42802317 -62.03125 13.8828125 C-50.65524891 0.40038682 -50.65524891 0.40038682 -44.39453125 -3.11328125 C-43.72164062 -3.51933594 -43.04875 -3.92539062 -42.35546875 -4.34375 C-28.65388738 -11.24162516 -12.34777683 -7.68716601 0 0 Z " fill="#6F50A6" transform="translate(731.39453125,51.11328125)"/>
<path d="M0 0 C10.15569193 6.82664768 18.33285544 17.86932823 25.8984375 27.3125 C28.02766396 29.9148879 30.24230607 32.40638002 32.5078125 34.890625 C35.60336446 38.28661182 38.55932457 41.75234031 41.4453125 45.328125 C45.30606387 50.102028 49.38218325 54.62450928 53.5390625 59.140625 C56.73662546 62.70246729 59.72169593 66.41628333 62.7265625 70.140625 C65.07500218 72.97162078 67.51691152 75.68446098 70.0078125 78.390625 C74.10009325 82.83655964 77.93024364 87.4346622 81.72265625 92.13671875 C84.8018256 95.84751258 88.06097812 99.3747763 91.35546875 102.89453125 C91.75573399 103.35544033 92.15599922 103.81634941 92.56839371 104.29122543 C94.04737856 105.97994984 94.04737856 105.97994984 95.97820663 107.7383461 C103.53703457 115.61213367 103.17168246 123.63661652 103.10644531 133.87792969 C103.12385879 135.68921248 103.14459975 137.50046585 103.168396 139.31167603 C103.22174598 144.20889686 103.22429509 149.10487906 103.2141428 154.00233364 C103.20984827 158.10240733 103.22943753 162.20223435 103.24856448 166.30225492 C103.29287459 175.98294282 103.29473692 185.66300987 103.27050781 195.34375 C103.24636501 205.30225577 103.29555905 215.25849858 103.38078809 225.2166183 C103.4514539 233.79121105 103.47522615 242.36508685 103.46223712 250.93995976 C103.45501454 256.05047137 103.46522858 261.15936954 103.52109528 266.26961517 C103.5717276 271.08072076 103.56335537 275.88832559 103.51145172 280.69938278 C103.50205606 282.45443578 103.51268713 284.20974122 103.54594421 285.96450424 C103.73537437 296.74559882 102.32388511 303.30725807 94.72260022 311.24626803 C93.6875039 312.27647384 92.6440783 313.29838303 91.59222269 314.31147146 C88.90298231 316.99178966 86.50131167 319.91510836 84.0703125 322.828125 C79.35628107 328.33251653 74.61410124 333.81205123 69.86352539 339.28491211 C66.2296144 343.47380071 62.61282531 347.67685013 59.0078125 351.890625 C54.85921381 356.73977861 50.69106906 361.57133953 46.5078125 366.390625 C42.30571171 371.23237961 38.1159866 376.08426737 33.9453125 380.953125 C33.45490479 381.52530762 32.96449707 382.09749023 32.45922852 382.68701172 C29.95932359 385.60555707 27.46465365 388.52840725 24.9765625 391.45703125 C-0.97171299 421.96158859 -0.97171299 421.96158859 -18.69921875 424.23828125 C-24.83877817 424.46065899 -30.24514473 422.9448871 -35.9921875 420.890625 C-36.3221875 421.550625 -36.6521875 422.210625 -36.9921875 422.890625 C-58.71907596 405.35438268 -58.71907596 405.35438268 -60.36222374 390.55862641 C-60.50974138 386.61021764 -60.53105545 382.67223078 -60.5068512 378.72219849 C-60.51218334 377.1959373 -60.51925286 375.66968137 -60.52789825 374.14343536 C-60.54646432 369.97049998 -60.54024156 365.79792096 -60.52974522 361.62497115 C-60.52273596 357.11632337 -60.53876428 352.60774752 -60.55174255 348.09912109 C-60.57335936 339.27449311 -60.57326153 330.44999421 -60.56511701 321.62534846 C-60.55881102 314.45081042 -60.55995954 307.27630996 -60.56638908 300.10177231 C-60.56729074 299.07970822 -60.56819239 298.05764414 -60.56912137 297.00460842 C-60.57097262 294.92812252 -60.57283518 292.85163664 -60.57470893 290.77515076 C-60.59127952 271.31271384 -60.5825747 251.85034946 -60.56572335 232.38791691 C-60.55102918 214.59424855 -60.56565215 196.8007491 -60.59449352 179.0071025 C-60.62390827 160.72310891 -60.63485359 142.43919321 -60.62531132 124.155177 C-60.6242888 122.08582109 -60.62329418 120.01646516 -60.6223278 117.94710922 C-60.62185141 116.92902685 -60.62137502 115.91094447 -60.6208842 114.86201111 C-60.6187227 107.70005212 -60.62851015 100.53816711 -60.64309883 93.37622452 C-60.66064184 84.64230407 -60.66047663 75.90859887 -60.63774718 67.1746868 C-60.62662253 62.7214629 -60.62340199 58.26861793 -60.64204788 53.81541061 C-60.6589212 49.73289783 -60.65240985 45.65109248 -60.62783109 41.56862496 C-60.62296973 40.09765989 -60.6264033 38.62663701 -60.63931853 37.15572061 C-60.73438598 25.47900072 -58.85650927 14.98943224 -50.4296875 6.328125 C-49.68589844 5.54308594 -48.94210938 4.75804687 -48.17578125 3.94921875 C-35.39115801 -8.1035477 -14.80550907 -8.24463642 0 0 Z " fill="#5D428D" transform="translate(103.9921875,303.109375)"/>
<path d="M0 0 C3.81628832 1.54572776 5.97025743 3.88771245 8.6875 6.9375 C9.33996704 7.66731079 9.33996704 7.66731079 10.00561523 8.41186523 C13.7274459 12.60896686 17.26232454 16.95156203 20.78515625 21.31640625 C22.95632827 23.94708557 25.20241357 26.47942424 27.5 29 C30.59555196 32.39598682 33.55151207 35.86171531 36.4375 39.4375 C39.51336588 43.24087503 42.68753166 46.90082652 46 50.5 C50.11378909 54.9698512 53.97087297 59.59044893 57.78515625 64.31640625 C59.95632827 66.94708557 62.20241357 69.47942424 64.5 72 C68.41891252 76.29991791 72.09170869 80.75919547 75.75 85.28125 C78.64475711 88.77908151 81.69589539 92.11785404 84.75390625 95.47265625 C87.06187598 98.06962393 89.25555863 100.73404013 91.4375 103.4375 C94.51336588 107.24087503 97.68753166 110.90082652 101 114.5 C105.11378909 118.9698512 108.97087297 123.59044893 112.78515625 128.31640625 C114.95632827 130.94708557 117.20241357 133.47942424 119.5 136 C123.39013194 140.26768374 127.03106276 144.69431018 130.65625 149.1875 C133.93831501 153.12597801 137.42078545 156.85714135 140.93359375 160.58984375 C142.73806703 162.69449406 143.92447746 164.46693873 145 167 C144.01 167 143.02 167 142 167 C140.08984375 164.98046875 140.08984375 164.98046875 137.9375 162.1875 C134.74709498 158.14907808 131.49792985 154.28169327 128 150.5 C123.98025464 146.12829537 120.20011805 141.62213114 116.46875 137.00390625 C112.52146376 132.20095828 108.42264183 127.53145107 104.33984375 122.84375 C101.11945435 119.14512201 97.93287356 115.41840447 94.75 111.6875 C91.32573395 107.67640744 87.86272725 103.71344294 84.3125 99.8125 C80.55484695 95.67168733 77.02234062 91.38356407 73.50390625 87.0390625 C69.54026644 82.22827971 65.43350845 77.54383941 61.33984375 72.84375 C58.11945435 69.14512201 54.93287356 65.41840447 51.75 61.6875 C48.32573395 57.67640744 44.86272725 53.71344294 41.3125 49.8125 C37.46148995 45.57291957 33.85156045 41.17067888 30.25 36.71875 C28.06498431 34.07852271 25.80828609 31.5327028 23.5 29 C19.59357582 24.71378458 15.93139907 20.26968386 12.28515625 15.76171875 C8.66197848 11.38293809 4.84180691 7.18693378 1 3 C-0.32 4.32 -1.64 5.64 -3 7 C-3.66 6.67 -4.32 6.34 -5 6 C-3.35 4.02 -1.7 2.04 0 0 Z " fill="#573F81" transform="translate(284,512)"/>
<path d="M0 0 C11.90129202 -0.57820042 22.12672377 0.09046384 31.77734375 7.91796875 C39.81893629 15.45077863 47.00956512 23.83310683 53.890625 32.421875 C56.01985146 35.0242629 58.23449357 37.51575502 60.5 40 C63.59555196 43.39598682 66.55151207 46.86171531 69.4375 50.4375 C73.29825137 55.211403 77.37437075 59.73388428 81.53125 64.25 C84.72881296 67.81184229 87.71388343 71.52565833 90.71875 75.25 C93.06718968 78.08099578 95.50909902 80.79383598 98 83.5 C102.09228075 87.94593464 105.92243114 92.5440372 109.71484375 97.24609375 C112.08366025 100.10082133 114.54926417 102.8343921 117.0625 105.5625 C121.62764598 110.52057717 125.86734167 115.67833662 130 121 C125.97802227 121 124.92040205 119.7067141 122 117 C120.6296945 115.02514795 119.29327628 113.02613283 118 111 C117.01345714 109.98672156 116.01260882 108.98723015 115 108 C114.05132978 106.92643483 113.11417441 105.84260784 112.1875 104.75 C111.66671875 104.13898438 111.1459375 103.52796875 110.609375 102.8984375 C109.55544479 101.65520914 108.50329125 100.41047194 107.453125 99.1640625 C105.17163989 96.47096926 102.90422916 93.90650942 100.375 91.4375 C97.82521769 88.82061815 96.00784352 86.04414986 94 83 C92.68870078 81.64499081 91.35308313 80.31328657 90 79 C87.96368201 76.69757227 85.98560852 74.34617922 84 72 C82.50311102 70.25104423 81.00368463 68.50429072 79.50390625 66.7578125 C78.48660198 65.56875556 77.47369068 64.37592839 76.46484375 63.1796875 C74.20017355 60.50378563 71.94994424 57.95116511 69.4375 55.5 C67.02460515 53.02523605 65.13604944 50.50380487 63.2109375 47.6484375 C61.93745329 45.91485577 60.53712501 44.50192367 59 43 C58.00930539 41.88513833 57.03036473 40.75973796 56.0625 39.625 C55.28326172 38.71234375 55.28326172 38.71234375 54.48828125 37.78125 C53.21207923 36.2538271 51.97670308 34.69245394 50.75 33.125 C49.17345497 30.91750312 49.17345497 30.91750312 47 30 C46.60425781 29.31035156 46.20851562 28.62070312 45.80078125 27.91015625 C43.36859636 23.97961884 40.34328536 20.79816357 37.1875 17.4375 C36.28161133 16.4484668 36.28161133 16.4484668 35.35742188 15.43945312 C27.49301082 7.0163218 20.4690341 3.90135881 9.1875 2.875 C7.86202148 2.74544922 7.86202148 2.74544922 6.50976562 2.61328125 C4.34047942 2.40221556 2.17031542 2.20020574 0 2 C0 1.34 0 0.68 0 0 Z " fill="#49346E" transform="translate(76,298)"/>
<path d="M0 0 C0.66 0.99 1.32 1.98 2 3 C1.00419922 3.27263672 1.00419922 3.27263672 -0.01171875 3.55078125 C-4.77574066 4.90696267 -8.82536306 6.26039451 -13 9 C-13.66 9 -14.32 9 -15 9 C-14.765625 7.13671875 -14.765625 7.13671875 -14 5 C-12.109375 3.76953125 -12.109375 3.76953125 -9.75 2.8125 C-8.53763672 2.31943359 -8.53763672 2.31943359 -7.30078125 1.81640625 C-4.88453705 0.95902927 -2.54557456 0.32846123 0 0 Z " fill="#533B7D" transform="translate(75,298)"/>
<path d="M0 0 C3.36591866 1.44253657 5.51047079 3.33264727 8 6 C7.67 6.99 7.34 7.98 7 9 C5.02 7.02 3.04 5.04 1 3 C-0.32 4.32 -1.64 5.64 -3 7 C-3.66 6.67 -4.32 6.34 -5 6 C-3.35 4.02 -1.7 2.04 0 0 Z " fill="#503976" transform="translate(284,512)"/>
<path d="M0 0 C3.24299151 2.38957269 5.50902342 4.2047869 7 8 C6.01 8 5.02 8 4 8 C0 3.77142857 0 3.77142857 0 0 Z " fill="#4F3973" transform="translate(422,671)"/>
</svg>
