<?xml version="1.0" encoding="UTF-8"?>
<svg version="1.1" xmlns="http://www.w3.org/2000/svg" width="400" height="400">
<path d="M0 0 C1.27617188 -0.04253906 1.27617188 -0.04253906 2.578125 -0.0859375 C12.25087968 1.31970912 21.44811293 7.04218157 30.14733887 11.31317139 C33.26854223 12.84549075 36.39355225 14.36997066 39.5184021 15.89483643 C41.08175702 16.65776612 42.6449297 17.42106936 44.20791626 18.18475342 C50.45735101 21.23723677 56.72303611 24.25451843 63 27.25 C64.33454224 27.89062378 64.33454224 27.89062378 65.69604492 28.54418945 C70.44960756 30.82183836 75.22046533 33.05334852 80.015625 35.2421875 C81.57941895 35.96559326 81.57941895 35.96559326 83.17480469 36.70361328 C85.15397591 37.61840646 87.13865868 38.5214159 89.12988281 39.40966797 C97.66672202 43.38011225 103.21544463 48.03592458 106.93444729 56.78696251 C108.41539457 61.48653256 108.29920705 66.13698501 108.25793457 71.02661133 C108.26729451 72.74371292 108.26729451 72.74371292 108.27684355 74.49550343 C108.29274804 78.31622467 108.28017848 82.13630571 108.26757812 85.95703125 C108.2708007 88.70235504 108.27997935 91.44765197 108.28881836 94.19296265 C108.30656984 100.86640344 108.30277872 107.53966389 108.2911678 114.21311164 C108.28212042 119.63855957 108.2809151 125.06395709 108.28526306 130.4894104 C108.28587599 131.26269363 108.28648893 132.03597686 108.28712043 132.83269292 C108.28839938 134.40378755 108.28969624 135.97488216 108.2910108 137.54597676 C108.30240672 152.26515362 108.28931843 166.9842307 108.26780933 181.70339119 C108.24993923 194.32281856 108.25304362 206.94209873 108.27148438 219.56152344 C108.29290858 234.22937663 108.30130817 248.89714246 108.28903532 263.56500912 C108.28776117 265.1302026 108.28650369 266.69539609 108.28526306 268.2605896 C108.28433741 269.41563396 108.28433741 269.41563396 108.28339306 270.59401256 C108.2799448 276.01058259 108.28575716 281.42709703 108.29518127 286.84365845 C108.30641989 293.44805885 108.30332224 300.05226918 108.2820583 306.65664792 C108.27157251 310.02399844 108.26954962 313.39077135 108.28065491 316.75815964 C108.29159792 320.41355086 108.27785985 324.06805391 108.25793457 327.72338867 C108.2713189 329.30905498 108.2713189 329.30905498 108.28497362 330.92675495 C108.19604565 339.34742574 106.28097114 345.81316648 100.58007812 352.13183594 C96.64433475 355.76280078 92.29067871 358.01363367 87.46875 360.265625 C86.58611481 360.69225937 85.70347961 361.11889374 84.7940979 361.55845642 C81.9525246 362.92793347 79.10163717 364.27662309 76.25 365.625 C74.28566792 366.56680724 72.32196497 367.50992778 70.35888672 368.4543457 C65.64280054 370.71960174 60.91951356 372.96929312 56.1932373 375.2131958 C52.97044635 376.74569207 49.75426181 378.29148402 46.5390625 379.83984375 C42.12965886 381.96185335 37.71273311 384.06731234 33.29150391 386.16455078 C30.47521643 387.50587194 27.6651184 388.85967636 24.85546875 390.21484375 C23.88399902 390.68188721 22.9125293 391.14893066 21.91162109 391.63012695 C20.07077002 392.51521825 18.23115963 393.40289671 16.39306641 394.29370117 C15.5788623 394.68404541 14.7646582 395.07438965 13.92578125 395.4765625 C13.21333252 395.82025879 12.50088379 396.16395508 11.7668457 396.51806641 C5.15635936 399.32678291 -2.87126235 399.60927688 -9.625 397.125 C-15.82433644 393.9977055 -20.66013087 388.76095806 -25.59472656 383.96972656 C-28.16473152 381.49372769 -30.80003342 379.0911698 -33.4375 376.6875 C-33.93427246 376.2322998 -34.43104492 375.77709961 -34.94287109 375.30810547 C-38.00830217 372.49972936 -41.09240079 369.7131051 -44.1875 366.9375 C-48.6420991 362.94051622 -53.03918479 358.88425591 -57.43115234 354.81884766 C-61.49881588 351.05772573 -65.6056163 347.34290461 -69.73046875 343.64453125 C-75.12037666 338.78943591 -80.44951805 333.86720458 -85.79101562 328.95898438 C-90.90310374 324.2626188 -96.01885156 319.5717486 -101.1875 314.9375 C-105.64286804 310.93982627 -110.04083519 306.88299115 -114.43334961 302.81665039 C-117.68365351 299.81103927 -120.95297075 296.82948076 -124.25 293.875 C-128.11662567 290.41010167 -131.94013786 286.90195432 -135.75 283.375 C-140.37350101 279.09522376 -145.03092388 274.85741345 -149.72265625 270.65234375 C-152.58082194 268.07690234 -155.41710863 265.47814887 -158.25 262.875 C-163.55051952 258.00471468 -168.88890833 253.17863302 -174.25 248.375 C-180.92465107 252.68780463 -187.26994643 257.33785432 -193.5625 262.1875 C-195.43334153 263.62142289 -197.30443315 265.05501953 -199.17578125 266.48828125 C-200.06088379 267.16713379 -200.94598633 267.84598633 -201.85791016 268.54541016 C-205.53790022 271.36005045 -209.25014632 274.12978532 -212.96484375 276.8984375 C-215.74662837 278.98364368 -218.50044108 281.10413154 -221.25390625 283.2265625 C-222.62385742 284.2794043 -222.62385742 284.2794043 -224.02148438 285.35351562 C-225.82647119 286.74167554 -227.62874801 288.13336944 -229.42773438 289.52929688 C-247.68255043 303.54910632 -247.68255043 303.54910632 -256.828125 302.8515625 C-260.5073125 302.12759335 -262.41380474 300.84912778 -265.25 298.375 C-265.96285156 297.75367188 -266.67570312 297.13234375 -267.41015625 296.4921875 C-270.05528614 294.15307105 -272.65192593 291.76624415 -275.25 289.375 C-276.30633579 288.42211637 -277.36365695 287.47032413 -278.421875 286.51953125 C-279.48972769 285.55484727 -280.55743841 284.59000611 -281.625 283.625 C-282.60210937 282.74328125 -283.57921875 281.8615625 -284.5859375 280.953125 C-289.34194051 276.35054144 -292.35991502 272.82160031 -292.5 266.0625 C-292.39124418 259.94251366 -290.27219372 256.27213896 -286.0625 251.9375 C-283.04535706 249.05153719 -279.91277421 246.31403013 -276.75 243.58984375 C-273.35568509 240.58269289 -270.05662774 237.47794983 -266.75 234.375 C-262.34062664 230.23993755 -257.91450863 226.15055754 -253.33203125 222.20703125 C-249.8703381 219.16100107 -246.50680307 216.00845172 -243.12573242 212.87353516 C-238.55685089 208.64301484 -233.92792639 204.48480613 -229.25 200.375 C-230.8402445 196.22269492 -233.88790378 193.69725921 -237.125 190.8125 C-237.70290283 190.28873779 -238.28080566 189.76497559 -238.8762207 189.2253418 C-240.07612384 188.13792447 -241.27805012 187.0527356 -242.48193359 185.96972656 C-244.64916179 184.01497172 -246.79712366 182.03995359 -248.94384766 180.06274414 C-253.82843832 175.56537584 -258.75460474 171.11527498 -263.6953125 166.6796875 C-267.02338526 163.6772977 -270.33213855 160.65409689 -273.62646484 157.61474609 C-276.26350687 155.18349709 -278.91791237 152.77722633 -281.609375 150.40625 C-282.42946045 149.67607666 -282.42946045 149.67607666 -283.26611328 148.93115234 C-284.7895495 147.57601075 -286.3203465 146.22915727 -287.8515625 144.8828125 C-291.35009845 141.22473419 -292.53567178 137.95437757 -292.5625 132.9375 C-292.57925781 132.21691406 -292.59601563 131.49632812 -292.61328125 130.75390625 C-290.5330795 117.13193996 -271.56192503 105.23353022 -261.25 97.375 C-258.73552066 96.11776033 -256.87206063 96.13612986 -254.0625 96.0625 C-252.67998047 96.00642578 -252.67998047 96.00642578 -251.26953125 95.94921875 C-245.15434817 96.81151494 -240.36316684 100.89189885 -235.625 104.625 C-234.4940335 105.5085092 -233.36247917 106.39126623 -232.23046875 107.2734375 C-231.60575684 107.76166992 -230.98104492 108.24990234 -230.33740234 108.75292969 C-226.2263043 111.94756541 -222.07991225 115.09614758 -217.9375 118.25 C-217.03217529 118.93964844 -216.12685059 119.62929687 -215.1940918 120.33984375 C-207.90165803 125.89001103 -200.57996543 131.39997565 -193.23974609 136.88671875 C-189.57358044 139.62892069 -185.91216606 142.37746042 -182.25 145.125 C-180.89585199 146.14064988 -179.54168716 147.15627732 -178.1875 148.171875 C-177.218125 148.89890625 -176.24875 149.6259375 -175.25 150.375 C-174.78529297 149.97667969 -174.32058594 149.57835937 -173.84179688 149.16796875 C-168.25 144.375 -168.25 144.375 -166.39257812 142.78515625 C-161.02915663 138.18064933 -155.89992283 133.32857994 -150.74462891 128.49462891 C-146.99682199 124.98638218 -143.2099715 121.54614428 -139.3203125 118.1953125 C-134.77189588 114.19613865 -130.36405609 110.03733292 -125.92138672 105.92138672 C-119.75688635 100.21791822 -113.56492125 94.54451003 -107.3125 88.9375 C-103.42629402 85.45051903 -99.58157193 81.92168015 -95.75 78.375 C-91.12377683 74.09275392 -86.46321377 69.85292188 -81.76953125 65.64453125 C-76.89789755 61.25628446 -72.07787676 56.81126191 -67.25 52.375 C-55.97339154 42.01309743 -55.97339154 42.01309743 -50.3125 36.9375 C-46.42628676 33.45051252 -42.58187364 29.92136149 -38.75 26.375 C-31.43319353 19.61251317 -24.10678518 12.87558773 -16.5 6.4375 C-15.20835937 5.34115234 -15.20835937 5.34115234 -13.890625 4.22265625 C-9.52969238 1.17129364 -5.28056849 0.07905043 0 0 Z M3.12890625 111.9453125 C2.36715088 112.50516846 1.60539551 113.06502441 0.82055664 113.6418457 C-0.00710205 114.25503662 -0.83476074 114.86822754 -1.6875 115.5 C-2.53771729 116.12801514 -3.38793457 116.75603027 -4.26391602 117.40307617 C-10.90952002 122.33309138 -17.45872615 127.37849574 -23.97509766 132.47753906 C-28.89828121 136.32990042 -33.8652283 140.11347447 -38.87890625 143.84765625 C-43.44596733 147.25900629 -47.96889251 150.72864855 -52.5 154.1875 C-59.45249187 159.49304156 -66.42449236 164.77015155 -73.43041992 170.00488281 C-78.96512053 174.14625676 -84.45097878 178.34974535 -89.9284668 182.56640625 C-93.47042036 185.28383678 -97.03439629 187.9600689 -100.65625 190.5703125 C-101.35548584 191.0748999 -102.05472168 191.5794873 -102.77514648 192.09936523 C-104.10633234 193.05536246 -105.4416332 194.00566252 -106.78149414 194.94946289 C-108.30626401 196.04376839 -109.78383071 197.20334506 -111.25 198.375 C-111.25 199.035 -111.25 199.695 -111.25 200.375 C-109.7387023 201.75660495 -109.7387023 201.75660495 -107.7265625 203.140625 C-106.96158447 203.69403564 -106.19660645 204.24744629 -105.40844727 204.81762695 C-104.57240967 205.41406006 -103.73637207 206.01049316 -102.875 206.625 C-96.09556927 211.53463958 -89.39979105 216.52263376 -82.8125 221.6875 C-77.12716634 226.13794691 -71.41191043 230.53466241 -65.62109375 234.84765625 C-61.05403267 238.25900629 -56.53110749 241.72864855 -52 245.1875 C-45.04750813 250.49304156 -38.07550764 255.77015155 -31.06958008 261.00488281 C-26.24752645 264.61301425 -21.46398745 268.26933895 -16.6875 271.9375 C-11.07908637 276.23883521 -5.44102815 280.49595375 0.25 284.6875 C0.89138916 285.16195557 1.53277832 285.63641113 2.19360352 286.12524414 C4.73209487 288.37133014 4.73209487 288.37133014 7.75 289.375 C7.75 229.975 7.75 170.575 7.75 109.375 C5.91957535 109.375 4.55281502 110.89786669 3.12890625 111.9453125 Z " fill="#1986CF" transform="translate(292.25,0.625)"/>
<path d="M0 0 C3.12120336 1.53231936 6.24621338 3.05679928 9.37106323 4.58166504 C10.93441815 5.34459473 12.49759083 6.10789798 14.06057739 6.87158203 C20.31001214 9.92406539 26.57569724 12.94134704 32.85266113 15.93682861 C34.18720337 16.57745239 34.18720337 16.57745239 35.54870605 17.23101807 C40.3022687 19.50866697 45.07312646 21.74017714 49.86828613 23.92901611 C50.91081543 24.41128662 51.95334473 24.89355713 53.02746582 25.39044189 C55.00663704 26.30523507 56.99131981 27.20824452 58.98254395 28.09649658 C67.51938315 32.06694087 73.06810576 36.72275319 76.78710842 45.47379112 C78.26805571 50.17336117 78.15186818 54.82381362 78.1105957 59.71343994 C78.11683567 60.85817433 78.12307563 62.00290873 78.12950468 63.18233204 C78.14540918 67.00305328 78.13283961 70.82313433 78.12023926 74.64385986 C78.12346183 77.38918365 78.13264049 80.13448059 78.14147949 82.87979126 C78.15923098 89.55323205 78.15543986 96.2264925 78.14382893 102.89994025 C78.13478156 108.32538818 78.13357623 113.7507857 78.13792419 119.17623901 C78.13853713 119.94952225 78.13915006 120.72280548 78.13978156 121.51952153 C78.14106051 123.09061616 78.14235737 124.66171077 78.14367193 126.23280537 C78.15506785 140.95198223 78.14197957 155.67105931 78.12047046 170.39021981 C78.10260036 183.00964717 78.10570475 195.62892734 78.12414551 208.24835205 C78.14556971 222.91620525 78.1539693 237.58397107 78.14169645 252.25183773 C78.14042231 253.81703121 78.13916482 255.38222471 78.13792419 256.94741821 C78.13730709 257.71744779 78.13668999 258.48747737 78.13605419 259.28084117 C78.13260593 264.6974112 78.1384183 270.11392564 78.14784241 275.53048706 C78.15908103 282.13488747 78.15598338 288.7390978 78.13471943 295.34347653 C78.12423364 298.71082705 78.12221075 302.07759996 78.13331604 305.44498825 C78.14425905 309.10037947 78.13052098 312.75488253 78.1105957 316.41021729 C78.11951859 317.46732816 78.12844148 318.52443903 78.13763475 319.61358356 C78.04870678 328.03425435 76.13363227 334.49999509 70.43273926 340.81866455 C66.49699588 344.44962939 62.14333984 346.70046229 57.32141113 348.95245361 C56.43877594 349.37908798 55.55614075 349.80572235 54.64675903 350.24528503 C51.80518573 351.61476208 48.95429831 352.9634517 46.10266113 354.31182861 C44.13832905 355.25363586 42.1746261 356.1967564 40.21154785 357.14117432 C35.49546167 359.40643035 30.77217469 361.65612173 26.04589844 363.90002441 C22.82310748 365.43252069 19.60692295 366.97831263 16.39172363 368.52667236 C11.98231999 370.64868196 7.56539425 372.75414095 3.14416504 374.85137939 C0.32787757 376.19270056 -2.48222047 377.54650497 -5.29187012 378.90167236 C-6.74907471 379.60223755 -6.74907471 379.60223755 -8.23571777 380.31695557 C-10.07656885 381.20204686 -11.91617924 382.08972532 -13.75427246 382.98052979 C-14.56847656 383.37087402 -15.38268066 383.76121826 -16.22155762 384.16339111 C-16.93400635 384.5070874 -17.64645508 384.85078369 -18.38049316 385.20489502 C-22.23001196 386.84050947 -25.6664356 387.22042152 -29.83483887 387.24932861 C-30.7616748 387.2635083 -31.68851074 387.27768799 -32.64343262 387.29229736 C-35.5756726 387.04690423 -37.73595275 386.28384438 -40.39733887 385.06182861 C-40.39733887 384.73182861 -40.39733887 384.40182861 -40.39733887 384.06182861 C-39.73347168 383.96385986 -39.06960449 383.86589111 -38.38562012 383.76495361 C-33.07160785 382.86506248 -29.22897357 382.13294048 -25.39733887 378.06182861 C-23.21301907 374.63217206 -23.1451221 371.81755234 -23.14006996 367.79514599 C-23.13362107 366.49915893 -23.12717218 365.20317187 -23.12052786 363.86791247 C-23.12347026 362.42638116 -23.12660571 360.98485023 -23.12991333 359.5433197 C-23.12617798 358.01455311 -23.12157692 356.48578842 -23.11618268 354.95702678 C-23.10392297 350.74957276 -23.10421664 346.54219808 -23.10657144 342.33473027 C-23.10697885 337.79950613 -23.09594762 333.26430769 -23.0864563 328.72909546 C-23.06982893 319.84118667 -23.06434596 310.95330441 -23.06323154 302.06538137 C-23.06228187 294.84203865 -23.05817562 287.61870471 -23.05183029 280.39536476 C-23.03421297 259.92422951 -23.02499216 239.45311525 -23.02649124 218.98197236 C-23.02657115 217.87789768 -23.02665106 216.77382299 -23.0267334 215.6362915 C-23.02681516 214.5308716 -23.02689692 213.4254517 -23.02698116 212.28653423 C-23.02779415 194.36950329 -23.00865448 176.4525564 -22.98045667 158.53554978 C-22.95174419 140.14669155 -22.93791548 121.75787433 -22.93964422 103.3689931 C-22.9403087 93.04174776 -22.93479112 82.71459052 -22.91328812 72.38736534 C-22.89509782 63.59463541 -22.89071124 54.8020335 -22.90430696 46.00929292 C-22.91084757 41.52234287 -22.91091455 37.03563861 -22.89360046 32.54871178 C-22.87791273 28.44103218 -22.88068908 24.33379412 -22.89816873 20.22612558 C-22.90124815 18.74026038 -22.89757082 17.25436258 -22.88644858 15.76853582 C-22.68851353 5.17256846 -22.68851353 5.17256846 -27.39733887 -3.93817139 C-32.2140857 -7.4107098 -36.69759294 -7.28015614 -42.39733887 -6.93817139 C-41.39733887 -8.93817139 -41.39733887 -8.93817139 -39.02233887 -10.06317139 C-24.35515613 -13.60352584 -12.78900291 -6.2789151 0 0 Z " fill="#3BA8F1" transform="translate(322.3973388671875,11.93817138671875)"/>
<path d="M0 0 C4.66386128 4.33771713 6.12662147 9.13985331 6.40673828 15.28062439 C6.43465454 16.53764915 6.43465454 16.53764915 6.46313477 17.82006836 C6.49745102 18.72197906 6.53176727 19.62388977 6.56712341 20.5531311 C6.67100248 23.52226475 6.74240421 26.49065178 6.8046875 29.4609375 C6.82723036 30.48264101 6.84977322 31.50434452 6.87299919 32.55700874 C6.98553461 37.96990636 7.06816317 43.38245626 7.13110352 48.79614258 C7.18882277 53.25034768 7.30689249 57.69650544 7.47973633 62.14770508 C8.95841851 101.09339722 8.95841851 101.09339722 1.27026367 109.83935547 C-3.02556142 113.53861586 -7.6525022 116.11776455 -12.8210144 118.40603638 C-16.1490455 119.93837103 -18.59567873 121.85936822 -21.40625 124.19921875 C-29.65865354 130.4969301 -37.92513706 136.77356251 -46.23876953 142.99023438 C-51.68497892 147.06772715 -57.10138482 151.18364805 -62.51171875 155.30859375 C-63.39585449 155.9826123 -64.27999023 156.65663086 -65.19091797 157.35107422 C-69.68477504 160.77856478 -74.17577867 164.20974623 -78.6640625 167.64453125 C-90.12657653 176.408618 -101.67510735 185.04399839 -113.32421875 193.55859375 C-118.81190651 190.60699146 -123.58117509 187.18534258 -128.44921875 183.30859375 C-130.04221371 182.05502951 -131.63599647 180.80246588 -133.23046875 179.55078125 C-134.060625 178.89819336 -134.89078125 178.24560547 -135.74609375 177.57324219 C-140.11882262 174.15621959 -144.53348277 170.79473526 -148.94921875 167.43359375 C-149.82360596 166.76521484 -150.69799316 166.09683594 -151.59887695 165.40820312 C-155.76832811 162.22837009 -159.95616964 159.08448707 -164.2109375 156.01953125 C-165.33604736 155.20186279 -165.33604736 155.20186279 -166.48388672 154.36767578 C-167.88242373 153.35485458 -169.28866371 152.35255571 -170.70361328 151.36279297 C-172.5625 150.01171875 -172.5625 150.01171875 -175.32421875 147.55859375 C-175.32421875 143.55859375 -175.32421875 143.55859375 -174.01416016 141.87036133 C-173.40749512 141.32017334 -172.80083008 140.76998535 -172.17578125 140.203125 C-171.50514648 139.5853418 -170.83451172 138.96755859 -170.14355469 138.33105469 C-169.0573584 137.36087402 -169.0573584 137.36087402 -167.94921875 136.37109375 C-167.21477539 135.69981445 -166.48033203 135.02853516 -165.72363281 134.33691406 C-163.59992078 132.40006626 -161.46409056 130.47755187 -159.32421875 128.55859375 C-158.37804687 127.70136719 -157.431875 126.84414062 -156.45703125 125.9609375 C-154.89082759 124.54621912 -153.32062009 123.13591843 -151.74609375 121.73046875 C-148.91869247 119.19492824 -146.12010963 116.62873221 -143.32421875 114.05859375 C-139.69685381 110.72523085 -136.05528708 107.40912987 -132.38671875 104.12109375 C-127.93135071 100.12342002 -123.53338356 96.0665849 -119.14086914 92.00024414 C-115.09971991 88.26332493 -111.01711279 84.57560269 -106.91796875 80.90234375 C-103.86530194 78.14390988 -100.84339219 75.35357331 -97.82421875 72.55859375 C-93.19802068 68.27632096 -88.537432 64.03651516 -83.84375 59.828125 C-78.9721163 55.43987821 -74.15209551 50.99485566 -69.32421875 46.55859375 C-58.04761029 36.19669118 -58.04761029 36.19669118 -52.38671875 31.12109375 C-48.50051072 27.63411094 -44.65587431 24.10518572 -40.82421875 20.55859375 C-36.11765659 16.20382134 -31.39303753 11.87185637 -26.609375 7.6015625 C-25.0865116 6.24009659 -23.57340533 4.8676372 -22.0703125 3.484375 C-21.37035156 2.84886719 -20.67039062 2.21335937 -19.94921875 1.55859375 C-19.34335937 1.00171875 -18.7375 0.44484375 -18.11328125 -0.12890625 C-12.59927737 -4.17411433 -5.67624506 -3.04810295 0 0 Z " fill="#2E7FB6" transform="translate(294.32421875,6.44140625)"/>
<path d="M0 0 C4.31822994 2.63306704 7.66281056 5.54842603 11.1796875 9.171875 C12.89360823 10.89315161 14.65635689 12.48223448 16.5 14.0625 C20.60510656 17.59834374 24.54993684 21.29336759 28.5 25 C32.98848979 29.20802779 37.48569172 33.38663098 42.1484375 37.40234375 C45.80454938 40.55709007 49.39495228 43.78716812 53 47 C51.88024077 50.35927769 51.26397398 50.80914756 48.484375 52.79296875 C47.73881348 53.33228027 46.99325195 53.8715918 46.22509766 54.42724609 C45.40831543 55.00812988 44.5915332 55.58901367 43.75 56.1875 C42.00146604 57.45285585 40.2541115 58.71984274 38.5078125 59.98828125 C37.59805664 60.64779785 36.68830078 61.30731445 35.75097656 61.98681641 C31.32946564 65.22250855 26.97630202 68.54579941 22.625 71.875 C21.75987793 72.53516113 20.89475586 73.19532227 20.00341797 73.87548828 C15.45709181 77.34715193 10.92040963 80.83100351 6.390625 84.32421875 C5.46685059 85.03400879 4.54307617 85.74379883 3.59130859 86.47509766 C1.84646736 87.81595624 0.10436142 89.16038597 -1.63427734 90.50927734 C-19.43830979 104.17366705 -19.43830979 104.17366705 -28.578125 103.4765625 C-32.2573125 102.75259335 -34.16380474 101.47412778 -37 99 C-37.71285156 98.37867188 -38.42570312 97.75734375 -39.16015625 97.1171875 C-41.80528614 94.77807105 -44.40192593 92.39124415 -47 90 C-48.05633579 89.04711637 -49.11365695 88.09532413 -50.171875 87.14453125 C-51.23972769 86.17984727 -52.30743841 85.21500611 -53.375 84.25 C-54.35210937 83.36828125 -55.32921875 82.4865625 -56.3359375 81.578125 C-61.09194051 76.97554144 -64.10991502 73.44660031 -64.25 66.6875 C-64.14124418 60.56751366 -62.02219372 56.89713896 -57.8125 52.5625 C-54.79535706 49.67653719 -51.66277421 46.93903013 -48.5 44.21484375 C-45.10568509 41.20769289 -41.80662774 38.10294983 -38.5 35 C-34.08927546 30.86367042 -29.66130583 26.77364589 -25.078125 22.828125 C-21.64226365 19.80560036 -18.30207898 16.67941347 -14.94604492 13.56884766 C-10.00828407 8.99591039 -5.01763006 4.48528556 0 0 Z " fill="#1771AE" transform="translate(64,200)"/>
</svg>
