<?xml version="1.0" encoding="UTF-8"?>
<svg version="1.1" xmlns="http://www.w3.org/2000/svg" width="400" height="400">
<path d="M0 0 C57.42 0 114.84 0 174 0 C174 0.66 174 1.32 174 2 C174.66 2 175.32 2 176 2 C176 2.66 176 3.32 176 4 C176.66 4 177.32 4 178 4 C178 4.66 178 5.32 178 6 C178.66 6 179.32 6 180 6 C180 6.66 180 7.32 180 8 C180.66 8 181.32 8 182 8 C182 8.66 182 9.32 182 10 C182.66 10 183.32 10 184 10 C184 10.66 184 11.32 184 12 C184.66 12 185.32 12 186 12 C186 12.66 186 13.32 186 14 C186.66 14 187.32 14 188 14 C188 14.66 188 15.32 188 16 C188.66 16 189.32 16 190 16 C190 16.66 190 17.32 190 18 C190.66 18 191.32 18 192 18 C192 18.66 192 19.32 192 20 C192.66 20 193.32 20 194 20 C194 20.66 194 21.32 194 22 C194.66 22 195.32 22 196 22 C196 22.66 196 23.32 196 24 C196.66 24 197.32 24 198 24 C198 24.66 198 25.32 198 26 C198.66 26 199.32 26 200 26 C200 26.66 200 27.32 200 28 C200.66 28 201.32 28 202 28 C202 28.66 202 29.32 202 30 C202.66 30 203.32 30 204 30 C205.34355164 31.36231995 205.34355164 31.36231995 206.9440918 33.31079102 C211.64307805 38.83190874 216.76629814 43.91092841 221.89453125 49.02734375 C222.93363266 50.06712022 223.97258571 51.10704498 225.01139832 52.14710999 C227.17224068 54.30941585 229.33485436 56.46992954 231.4987793 58.62915039 C234.2740948 61.39872627 237.04483832 64.17282616 239.81430531 66.94824886 C241.95113489 69.08868409 244.0903305 71.22674181 246.23026085 73.36407661 C247.25368349 74.38683221 248.27636391 75.41033108 249.29828835 76.43458366 C250.71963646 77.85846292 252.14452192 79.27880848 253.56958008 80.69897461 C254.37897537 81.50757431 255.18837067 82.31617401 256.02229309 83.14927673 C257.86834029 85.05275546 257.86834029 85.05275546 260 86 C260 85.34 260 84.68 260 84 C260.66 84 261.32 84 262 84 C262 83.34 262 82.68 262 82 C262.66 82 263.32 82 264 82 C264 81.34 264 80.68 264 80 C264.66 80 265.32 80 266 80 C266 79.34 266 78.68 266 78 C266.66 78 267.32 78 268 78 C268 77.34 268 76.68 268 76 C268.66 76 269.32 76 270 76 C270 75.34 270 74.68 270 74 C270.66 74 271.32 74 272 74 C272 73.34 272 72.68 272 72 C272.66 72 273.32 72 274 72 C274 71.34 274 70.68 274 70 C274.66 70 275.32 70 276 70 C276 69.34 276 68.68 276 68 C276.66 68 277.32 68 278 68 C278 67.34 278 66.68 278 66 C278.66 66 279.32 66 280 66 C280 65.34 280 64.68 280 64 C280.66 64 281.32 64 282 64 C282 63.34 282 62.68 282 62 C282.66 62 283.32 62 284 62 C284 61.34 284 60.68 284 60 C284.66 60 285.32 60 286 60 C286 59.34 286 58.68 286 58 C286.66 58 287.32 58 288 58 C288 57.34 288 56.68 288 56 C288.66 56 289.32 56 290 56 C290 55.34 290 54.68 290 54 C290.66 54 291.32 54 292 54 C292 53.34 292 52.68 292 52 C303.92538363 53.67753093 315.36741661 64.89820462 324.3125 72.5 C324.94692268 73.03640358 325.58134537 73.57280716 326.23499298 74.12546539 C343.42838771 88.951668 352.28175707 104.49413112 354.0603388 127.33502126 C355.03835597 141.8380821 354.85701034 156.35730183 354.375 170.875 C354.3522968 171.57495213 354.32959359 172.27490425 354.30620241 172.99606705 C353.69795273 191.37839013 352.41805845 209.64693906 351 228 C334.17 228 317.34 228 300 228 C300 195 300 162 300 128 C299.34 128 298.68 128 298 128 C298 127.34 298 126.68 298 126 C297.34 126 296.68 126 296 126 C296 125.34 296 124.68 296 124 C295.34 124 294.68 124 294 124 C294 123.34 294 122.68 294 122 C293.34 122 292.68 122 292 122 C292 121.34 292 120.68 292 120 C291.34 120 290.68 120 290 120 C290 119.34 290 118.68 290 118 C289.34 118 288.68 118 288 118 C288 117.34 288 116.68 288 116 C287.34 116 286.68 116 286 116 C286 115.34 286 114.68 286 114 C285.34 114 284.68 114 284 114 C284 113.34 284 112.68 284 112 C283.34 112 282.68 112 282 112 C282 111.34 282 110.68 282 110 C281.34 110 280.68 110 280 110 C280 109.34 280 108.68 280 108 C279.34 108 278.68 108 278 108 C278 107.34 278 106.68 278 106 C277.34 106 276.68 106 276 106 C276 105.34 276 104.68 276 104 C275.34 104 274.68 104 274 104 C274 103.34 274 102.68 274 102 C273.34 102 272.68 102 272 102 C272 101.34 272 100.68 272 100 C271.34 100 270.68 100 270 100 C270 99.34 270 98.68 270 98 C269.34 98 268.68 98 268 98 C268 97.34 268 96.68 268 96 C267.34 96 266.68 96 266 96 C266 95.34 266 94.68 266 94 C265.34 94 264.68 94 264 94 C264 93.34 264 92.68 264 92 C263.34 92 262.68 92 262 92 C262 91.34 262 90.68 262 90 C258.17574789 89.60381548 258.17574789 89.60381548 256.26074219 91.28515625 C255.69516602 91.87167969 255.12958984 92.45820313 254.546875 93.0625 C253.61875 94.00996094 253.61875 94.00996094 252.671875 94.9765625 C252.03765625 95.64429688 251.4034375 96.31203125 250.75 97 C250.1003125 97.66773438 249.450625 98.33546875 248.78125 99.0234375 C247.17815711 100.67368018 245.58512166 102.33251791 244 104 C245.26133197 107.76373783 247.51172342 109.15823154 250.80010986 111.18869019 C261.41991211 117.8782551 273.37384043 127.18671556 276.47323608 139.94856262 C278.61897115 151.74146794 278.23984281 163.94536748 277.875 175.875 C277.8494529 176.71054916 277.82390579 177.54609833 277.79758453 178.40696716 C277.45030671 188.95668204 276.83904597 199.47824937 276 210 C275.34 210 274.68 210 274 210 C274 209.34 274 208.68 274 208 C273.34 208 272.68 208 272 208 C272 207.34 272 206.68 272 206 C271.34 206 270.68 206 270 206 C270 205.34 270 204.68 270 204 C269.34 204 268.68 204 268 204 C268 203.34 268 202.68 268 202 C267.34 202 266.68 202 266 202 C266 201.34 266 200.68 266 200 C265.34 200 264.68 200 264 200 C264 199.34 264 198.68 264 198 C263.34 198 262.68 198 262 198 C262 197.34 262 196.68 262 196 C261.34 196 260.68 196 260 196 C260 195.34 260 194.68 260 194 C259.34 194 258.68 194 258 194 C258 193.34 258 192.68 258 192 C257.34 192 256.68 192 256 192 C256 191.34 256 190.68 256 190 C255.34 190 254.68 190 254 190 C254 189.34 254 188.68 254 188 C253.34 188 252.68 188 252 188 C252 187.34 252 186.68 252 186 C251.34 186 250.68 186 250 186 C250 185.34 250 184.68 250 184 C249.34 184 248.68 184 248 184 C248 183.34 248 182.68 248 182 C247.34 182 246.68 182 246 182 C246 181.34 246 180.68 246 180 C245.34 180 244.68 180 244 180 C244 179.34 244 178.68 244 178 C243.34 178 242.68 178 242 178 C242 177.34 242 176.68 242 176 C241.34 176 240.68 176 240 176 C240 175.34 240 174.68 240 174 C239.34 174 238.68 174 238 174 C238 173.34 238 172.68 238 172 C237.34 172 236.68 172 236 172 C236 171.34 236 170.68 236 170 C235.34 170 234.68 170 234 170 C234 169.34 234 168.68 234 168 C233.34 168 232.68 168 232 168 C232 167.34 232 166.68 232 166 C231.34 166 230.68 166 230 166 C230 165.34 230 164.68 230 164 C229.34 164 228.68 164 228 164 C228 163.34 228 162.68 228 162 C227.34 162 226.68 162 226 162 C226 161.34 226 160.68 226 160 C225.34 160 224.68 160 224 160 C224 159.34 224 158.68 224 158 C223.34 158 222.68 158 222 158 C222 157.34 222 156.68 222 156 C221.34 156 220.68 156 220 156 C220 155.34 220 154.68 220 154 C219.34 154 218.68 154 218 154 C218 153.34 218 152.68 218 152 C217.34 152 216.68 152 216 152 C216 151.34 216 150.68 216 150 C215.34 150 214.68 150 214 150 C214 149.34 214 148.68 214 148 C213.34 148 212.68 148 212 148 C212 147.34 212 146.68 212 146 C211.34 146 210.68 146 210 146 C210 145.34 210 144.68 210 144 C209.34 144 208.68 144 208 144 C208 143.34 208 142.68 208 142 C203.45177799 144.40490403 200.22648405 147.5367133 196.6875 151.1875 C196.13771484 151.74630859 195.58792969 152.30511719 195.02148438 152.88085938 C193.67636304 154.24937412 192.33753357 155.62406833 191 157 C192.65840442 161.33127372 195.95699356 164.20799177 199.19384766 167.38916016 C199.8281218 168.02051376 200.46239594 168.65186737 201.1158905 169.30235291 C202.49144569 170.67030575 203.86930631 172.03594338 205.2491951 173.39952469 C207.4299967 175.55481026 209.6044985 177.7162734 211.7774353 179.87948608 C216.38773694 184.46693224 221.00581606 189.04650001 225.625 193.625 C230.98359134 198.9364731 236.33898973 204.25108232 241.6860466 209.57416916 C243.83368147 211.70878983 245.9872281 213.83732487 248.14102173 215.96572876 C249.44928804 217.26673415 250.7572767 218.56801883 252.06494141 219.86962891 C252.66959732 220.46395218 253.27425323 221.05827545 253.89723206 221.67060852 C255.30328162 223.07629369 256.657601 224.53340835 258 226 C258 226.66 258 227.32 258 228 C234.24 228 210.48 228 186 228 C186 227.34 186 226.68 186 226 C185.34 226 184.68 226 184 226 C184 225.34 184 224.68 184 224 C183.34 224 182.68 224 182 224 C182 223.34 182 222.68 182 222 C181.34 222 180.68 222 180 222 C180 221.34 180 220.68 180 220 C179.34 220 178.68 220 178 220 C178 219.34 178 218.68 178 218 C177.34 218 176.68 218 176 218 C176 217.34 176 216.68 176 216 C175.34 216 174.68 216 174 216 C174 215.34 174 214.68 174 214 C173.34 214 172.68 214 172 214 C172 213.34 172 212.68 172 212 C171.34 212 170.68 212 170 212 C170 211.34 170 210.68 170 210 C169.34 210 168.68 210 168 210 C168 209.34 168 208.68 168 208 C167.34 208 166.68 208 166 208 C166 207.34 166 206.68 166 206 C165.34 206 164.68 206 164 206 C164 205.34 164 204.68 164 204 C163.34 204 162.68 204 162 204 C162 203.34 162 202.68 162 202 C161.34 202 160.68 202 160 202 C160 201.34 160 200.68 160 200 C159.34 200 158.68 200 158 200 C158 199.34 158 198.68 158 198 C157.34 198 156.68 198 156 198 C156 197.34 156 196.68 156 196 C152.17574789 195.60381548 152.17574789 195.60381548 150.26074219 197.28515625 C149.69516602 197.87167969 149.12958984 198.45820313 148.546875 199.0625 C147.928125 199.69414062 147.309375 200.32578125 146.671875 200.9765625 C146.03765625 201.64429688 145.4034375 202.31203125 144.75 203 C144.1003125 203.66773438 143.450625 204.33546875 142.78125 205.0234375 C141.17813898 206.67369885 139.58688461 208.3341745 138 210 C138.37516817 210.41094217 138.75033634 210.82188435 139.13687325 211.24527931 C141.87451426 214.32788668 144.32948624 217.37142795 146.43551636 220.92172241 C154.03825574 233.67773787 164.95481915 247.6691782 180.01616859 251.51478767 C192.36986046 253.89918542 205.19083537 253.26718343 217.6953125 252.8515625 C219.07579978 252.81080172 219.07579978 252.81080172 220.48417568 252.76921749 C237.01654884 252.27692097 253.52622493 251.35904242 270.02612305 250.22235107 C283.49488898 249.29503646 296.9462602 248.57106324 310.4453125 248.2890625 C311.83327074 248.25611446 311.83327074 248.25611446 313.24926853 248.2225008 C337.5376832 247.73332227 355.38820258 250.40443166 373.47819102 267.51530945 C383.2976466 277.17838778 392.90477688 288.1633922 400 300 C400 300.66 400 301.32 400 302 C369.73022074 303.26623693 339.46416287 304.23371691 309.1739369 304.80859312 C305.5645639 304.87734755 301.95524281 304.94853856 298.34594727 305.02124023 C297.62767372 305.03566731 296.90940017 305.05009438 296.16936076 305.06495864 C286.08996451 305.27245911 276.02248178 305.61111009 265.9508545 306.05539127 C248.62413006 306.81953881 231.309553 307.33454067 213.96484375 307.37109375 C213.29526876 307.37301647 212.62569377 307.37493918 211.93582863 307.37692016 C179.24360129 307.43436292 151.08607243 306.0915002 126.73500061 282.2256012 C100 254.64906913 100 254.64906913 100 244 C100.66 244 101.32 244 102 244 C102 243.34 102 242.68 102 242 C102.66 242 103.32 242 104 242 C104 241.34 104 240.68 104 240 C104.66 240 105.32 240 106 240 C106 239.34 106 238.68 106 238 C106.66 238 107.32 238 108 238 C108 237.34 108 236.68 108 236 C108.66 236 109.32 236 110 236 C110 235.34 110 234.68 110 234 C110.66 234 111.32 234 112 234 C112 233.34 112 232.68 112 232 C112.66 232 113.32 232 114 232 C114 231.34 114 230.68 114 230 C114.66 230 115.32 230 116 230 C116 229.34 116 228.68 116 228 C116.66 228 117.32 228 118 228 C118 227.34 118 226.68 118 226 C118.66 226 119.32 226 120 226 C120 225.34 120 224.68 120 224 C120.66 224 121.32 224 122 224 C122 223.34 122 222.68 122 222 C122.66 222 123.32 222 124 222 C124 221.34 124 220.68 124 220 C124.66 220 125.32 220 126 220 C126 219.34 126 218.68 126 218 C126.66 218 127.32 218 128 218 C128 217.34 128 216.68 128 216 C128.66 216 129.32 216 130 216 C130 215.34 130 214.68 130 214 C130.66 214 131.32 214 132 214 C132 213.34 132 212.68 132 212 C132.66 212 133.32 212 134 212 C129.3609926 206.45952886 124.46278793 201.51450813 119.04516602 196.7409668 C111.22851886 189.76339154 103.54051856 182.66172528 95.9152689 175.47555828 C91.31815841 171.15373047 86.6874941 166.89045095 81.94067383 162.7331543 C48.00030984 132.90300208 48.00030984 132.90300208 46.37607002 108.79427147 C46.07874801 97.3947407 47.79869476 86.41142623 49 75 C65.83 75 82.66 75 100 75 C99.46375 79.08375 98.9275 83.1675 98.375 87.375 C97.94079875 97.2305058 100.04195147 103.64252827 106.43487549 111.10369873 C115.29421395 120.72974141 125.05474468 129.51407389 135 138 C141.1241816 132.93499762 146.70715861 127.4217079 152.30859375 121.7890625 C153.28485986 120.81092733 154.26134994 119.83301565 155.23805237 118.85531616 C157.78672577 116.30285601 160.33237958 113.74740552 162.87738037 111.19128418 C165.48346618 108.57490086 168.09244621 105.96140697 170.70117188 103.34765625 C175.80359118 98.23456754 180.90281857 93.11831088 186 88 C180.10376392 74.47218165 166.08394545 59.53740091 153 53 C145.14915034 50.61807327 137.04898063 50.98669676 128.9453125 51.4765625 C127.87544853 51.54040508 126.80558456 51.60424767 125.70330048 51.67002487 C120.12627579 52.03895492 114.56339503 52.51505512 108.99853516 53.03399658 C52.61704002 58.13384989 52.61704002 58.13384989 33.2154808 42.85213089 C27.65831738 38.1926509 22.71112615 33.1315374 18 27.625 C17.50102455 27.0439576 17.0020491 26.46291519 16.48795319 25.86426544 C0 6.43469242 0 6.43469242 0 0 Z " fill="#221F20" transform="translate(0,48)"/>
</svg>
